<svg width="28" height="28" viewBox="0 0 28 28" fill="none" xmlns="http://www.w3.org/2000/svg">
<g id="&#230;&#149;&#176;&#230;&#141;&#174;&#229;&#186;&#147;&#231;&#189;&#145;&#231;&#187;&#156;&#232;&#138;&#130;&#231;&#130;&#185;&#230;&#149;&#176;&#230;&#141;&#174;&#229;&#186;&#147;&#231;&#189;&#145;&#231;&#187;&#156;&#232;&#138;&#130;&#231;&#130;&#185;" clip-path="url(#clip0_605_9233)">
<g id="Group">
<g id="Group_2">
<path id="Vector" fill-rule="evenodd" clip-rule="evenodd" d="M22.7451 9.63381C22.5957 4.93239 18.7374 1.16699 13.9997 1.16699C9.16719 1.16699 5.24967 5.08451 5.24967 9.91699C5.24967 14.3539 8.55209 18.0195 12.833 18.5899V20.0328C11.8385 20.3843 11.0503 21.1725 10.6988 22.167H3.49967L3.36362 22.1748C2.78339 22.2422 2.33301 22.7354 2.33301 23.3337C2.33301 23.978 2.85534 24.5003 3.49967 24.5003H10.6988C11.1793 25.8597 12.4758 26.8337 13.9997 26.8337C15.5236 26.8337 16.82 25.8597 17.3005 24.5003H24.4997L24.6357 24.4925C25.216 24.4251 25.6663 23.9319 25.6663 23.3337C25.6663 22.6893 25.144 22.167 24.4997 22.167H17.3005C16.949 21.1725 16.1608 20.3843 15.1663 20.0328V18.5899C19.4473 18.0195 22.7497 14.3539 22.7497 9.91699C22.7497 9.90436 22.7494 9.89178 22.7491 9.87924L22.7451 9.63381ZM20.3105 8.75033C19.9692 6.89171 18.8269 5.31329 17.2548 4.38606C17.6915 5.61304 17.9645 7.11394 18.0522 8.75033H20.3105ZM15.7114 8.75033C15.6414 7.68823 15.4815 6.7231 15.2779 5.91836L15.155 5.46937L15.0244 5.05923C14.6895 4.08472 14.3007 3.50033 13.9997 3.50033C13.6987 3.50033 13.3098 4.08472 12.975 5.05923L12.8444 5.46937L12.7215 5.91836C12.5179 6.7231 12.3579 7.68823 12.288 8.75033H15.7114ZM9.9472 8.75033C10.0349 7.11394 10.3079 5.61304 10.7446 4.38606C9.17247 5.31329 8.03021 6.89171 7.68881 8.75033H9.9472ZM7.68899 11.0846H9.94725C10.035 12.7206 10.308 14.2212 10.7446 15.4479C9.17273 14.5209 8.0306 12.9429 7.68899 11.0846ZM20.3104 11.0846C19.9688 12.9429 18.8266 14.5209 17.2548 15.4479C17.6914 14.2212 17.9644 12.7206 18.0521 11.0846H20.3104ZM15.2779 13.9156C15.4815 13.1111 15.6414 12.1463 15.7113 11.0846H12.2881C12.358 12.1463 12.5179 13.1111 12.7215 13.9156L12.8444 14.3646L12.975 14.7748C13.3098 15.7493 13.6987 16.3337 13.9997 16.3337C14.3007 16.3337 14.6895 15.7493 15.0244 14.7748L15.155 14.3646L15.2779 13.9156ZM13.9997 22.167C14.644 22.167 15.1663 22.6893 15.1663 23.3337C15.1663 23.978 14.644 24.5003 13.9997 24.5003C13.3554 24.5003 12.833 23.978 12.833 23.3337C12.833 22.6893 13.3554 22.167 13.9997 22.167Z" fill="#333333"/>
</g>
</g>
</g>
<defs>
<clipPath id="clip0_605_9233">
<rect width="28" height="28" fill="white"/>
</clipPath>
</defs>
</svg>
