<svg width="28" height="28" viewBox="0 0 28 28" fill="none" xmlns="http://www.w3.org/2000/svg">
<g id="&#232;&#138;&#175;&#231;&#137;&#135;,CPU,GPU,&#231;&#174;&#151;&#230;&#179;&#149;,&#231;&#174;&#151;&#229;&#138;&#155;,&#231;&#148;&#181;&#232;&#183;&#175;,&#232;&#191;&#144;&#231;&#174;&#151;&#232;&#138;&#175;&#231;&#137;&#135;,CPU,GPU,&#231;&#174;&#151;&#230;&#179;&#149;,&#231;&#174;&#151;&#229;&#138;&#155;,&#231;&#148;&#181;&#232;&#183;&#175;,&#232;&#191;&#144;&#231;&#174;&#151;" clip-path="url(#clip0_605_9215)">
<g id="Group">
<g id="Group_2">
<path id="Vector" fill-rule="evenodd" clip-rule="evenodd" d="M9.86369 1.16667C9.86369 0.522334 9.34136 0 8.69702 0C8.05269 0 7.53035 0.522334 7.53035 1.16667V3.5H5.83333C4.54467 3.5 3.5 4.54467 3.5 5.83333V7.52978H1.16667C0.522334 7.52978 0 8.05212 0 8.69645C0 9.34079 0.522334 9.86312 1.16667 9.86312H3.5V12.8333H1.16667C0.522334 12.8333 0 13.3556 0 14C0 14.6443 0.522334 15.1667 1.16667 15.1667H3.5V18.1369H1.16667C0.522334 18.1369 0 18.6592 0 19.3035C0 19.9479 0.522334 20.4702 1.16667 20.4702H3.5V22.1667C3.5 23.4554 4.54468 24.5 5.83333 24.5H7.53035V26.8333C7.53035 27.4777 8.05269 28 8.69702 28C9.34136 28 9.86369 27.4777 9.86369 26.8333V24.5H12.8333V26.8333C12.8333 27.4777 13.3556 28 14 28C14.6443 28 15.1667 27.4777 15.1667 26.8333V24.5H18.1363V26.8333C18.1363 27.4777 18.6586 28 19.303 28C19.9473 28 20.4696 27.4777 20.4696 26.8333V24.5H22.1667C23.4554 24.5 24.5 23.4554 24.5 22.1667V20.4702H26.8333C27.4777 20.4702 28 19.9479 28 19.3035C28 18.6592 27.4777 18.1369 26.8333 18.1369H24.5V15.1667H26.8333C27.4777 15.1667 28 14.6443 28 14C28 13.3556 27.4777 12.8333 26.8333 12.8333H24.5V9.86312H26.8333C27.4777 9.86312 28 9.34079 28 8.69645C28 8.05212 27.4777 7.52978 26.8333 7.52978H24.5V5.83333C24.5 4.54468 23.4554 3.5 22.1667 3.5H20.4696V1.16667C20.4696 0.522334 19.9473 0 19.303 0C18.6586 0 18.1363 0.522334 18.1363 1.16667V3.5H15.1667V1.16667C15.1667 0.522334 14.6443 0 14 0C13.3556 0 12.8333 0.522334 12.8333 1.16667V3.5H9.86369V1.16667ZM9.33333 10.5C9.33333 9.85566 9.85566 9.33333 10.5 9.33333H17.5C18.1443 9.33333 18.6667 9.85566 18.6667 10.5V17.5C18.6667 18.1443 18.1443 18.6667 17.5 18.6667H10.5C9.85566 18.6667 9.33333 18.1443 9.33333 17.5V10.5ZM5.83333 5.83333H22.1667V22.1667H5.83333V5.83333ZM11.6667 11.6667V16.3333H16.3333V11.6667H11.6667Z" fill="#333333"/>
</g>
</g>
</g>
<defs>
<clipPath id="clip0_605_9215">
<rect width="28" height="28" fill="white"/>
</clipPath>
</defs>
</svg>
