<svg width="28" height="28" viewBox="0 0 28 28" fill="none" xmlns="http://www.w3.org/2000/svg">
<g id="&#230;&#156;&#141;&#229;&#138;&#161;&#229;&#153;&#168;,&#232;&#191;&#144;&#231;&#174;&#151;,&#232;&#174;&#161;&#231;&#174;&#151;,&#230;&#156;&#186;&#230;&#136;&#191;,&#228;&#186;&#145;&#232;&#174;&#161;&#231;&#174;&#151;&#230;&#156;&#141;&#229;&#138;&#161;&#229;&#153;&#168;,&#232;&#191;&#144;&#231;&#174;&#151;,&#232;&#174;&#161;&#231;&#174;&#151;,&#230;&#156;&#186;&#230;&#136;&#191;,&#228;&#186;&#145;&#232;&#174;&#161;&#231;&#174;&#151;" clip-path="url(#clip0_605_9221)">
<g id="Group">
<g id="Group_2">
<path id="Vector" fill-rule="evenodd" clip-rule="evenodd" d="M2.33366 1.16699C1.68933 1.16699 1.16699 1.68933 1.16699 2.33366V11.667C1.16699 12.3113 1.68933 12.8337 2.33366 12.8337H25.667C26.3113 12.8337 26.8337 12.3113 26.8337 11.667V2.33366C26.8337 1.68933 26.3113 1.16699 25.667 1.16699H2.33366ZM3.50033 10.5003V3.50033H24.5003V10.5003H3.50033ZM6.41699 5.83366H7.58366C7.90583 5.83366 8.16699 6.09482 8.16699 6.41699V7.58366C8.16699 7.90583 7.90583 8.16699 7.58366 8.16699H6.41699C6.09482 8.16699 5.83366 7.90583 5.83366 7.58366V6.41699C5.83366 6.09482 6.09482 5.83366 6.41699 5.83366ZM12.2503 5.83366H11.0837C10.7615 5.83366 10.5003 6.09482 10.5003 6.41699V7.58366C10.5003 7.90583 10.7615 8.16699 11.0837 8.16699H12.2503C12.5725 8.16699 12.8337 7.90583 12.8337 7.58366V6.41699C12.8337 6.09482 12.5725 5.83366 12.2503 5.83366ZM2.33366 15.167C1.68933 15.167 1.16699 15.6893 1.16699 16.3337V25.667C1.16699 26.3113 1.68933 26.8337 2.33366 26.8337H25.667C26.3113 26.8337 26.8337 26.3113 26.8337 25.667V16.3337C26.8337 15.6893 26.3113 15.167 25.667 15.167H2.33366ZM3.50033 24.5003V17.5003H24.5003V24.5003H3.50033ZM6.41699 19.8337H7.58366C7.90583 19.8337 8.16699 20.0949 8.16699 20.417V21.5837C8.16699 21.9058 7.90583 22.167 7.58366 22.167H6.41699C6.09482 22.167 5.83366 21.9058 5.83366 21.5837V20.417C5.83366 20.0949 6.09482 19.8337 6.41699 19.8337ZM11.0837 19.8337H12.2503C12.5725 19.8337 12.8337 20.0949 12.8337 20.417V21.5837C12.8337 21.9058 12.5725 22.167 12.2503 22.167H11.0837C10.7615 22.167 10.5003 21.9058 10.5003 21.5837V20.417C10.5003 20.0949 10.7615 19.8337 11.0837 19.8337Z" fill="#333333"/>
</g>
</g>
</g>
<defs>
<clipPath id="clip0_605_9221">
<rect width="28" height="28" fill="white"/>
</clipPath>
</defs>
</svg>
