<svg width="28" height="28" viewBox="0 0 28 28" fill="none" xmlns="http://www.w3.org/2000/svg">
<g id="&#229;&#130;&#168;&#229;&#173;&#152;,&#228;&#186;&#145;&#231;&#155;&#152;,cloud,store&#229;&#130;&#168;&#229;&#173;&#152;,&#228;&#186;&#145;&#231;&#155;&#152;,cloud,store" clip-path="url(#clip0_605_9227)">
<g id="Group">
<g id="Group_2">
<path id="Vector" fill-rule="evenodd" clip-rule="evenodd" d="M5.27271 1.74902C4.72075 1.74902 4.24432 2.13582 4.13093 2.676L1.19188 16.6765C1.17533 16.7554 1.16699 16.8358 1.16699 16.9163V24.4996C1.16699 25.144 1.68933 25.6663 2.33366 25.6663H25.667C26.3113 25.6663 26.8337 25.144 26.8337 24.4996V16.9163C26.8337 16.8366 26.8255 16.7573 26.8093 16.6792L23.9046 2.67869C23.7923 2.13723 23.3152 1.74902 22.7623 1.74902H5.27271ZM3.77067 15.7496L6.2199 4.08236H21.8128L24.2334 15.7496H3.77067ZM14.0002 5.2496C12.8562 5.2496 11.8132 5.63197 11.0542 6.39682C10.5273 6.92784 10.1851 7.59496 10.0254 8.33588C8.71006 8.72179 7.58366 9.81098 7.58366 11.3821C7.58366 12.4946 8.08195 13.3709 8.90798 13.9165C9.66752 14.4183 10.6104 14.5828 11.4904 14.5828L16.3337 14.5829L16.3358 14.5828H16.5015C17.3816 14.5828 18.3254 14.4183 19.0863 13.9178C19.9135 13.3738 20.417 12.498 20.417 11.3821C20.417 10.3176 19.9954 9.4507 19.2488 8.88522C18.8593 8.59019 18.4188 8.40522 17.972 8.29937C17.807 7.57921 17.466 6.92924 16.9514 6.409C16.1949 5.64417 15.1521 5.2496 14.0002 5.2496ZM15.7262 12.2496H12.2535L12.2368 12.2495H11.4904C10.8522 12.2495 10.4251 12.1223 10.1941 11.9697C10.0297 11.861 9.91699 11.7203 9.91699 11.3821C9.91699 11.0332 10.293 10.5147 11.0872 10.5147C11.7315 10.5147 12.2538 9.99236 12.2538 9.34804C12.2538 8.72031 12.4529 8.29997 12.7105 8.04035C12.9671 7.78169 13.3807 7.58293 14.0002 7.58293C14.6119 7.58293 15.0296 7.78396 15.2925 8.04988C15.5572 8.31747 15.7544 8.74104 15.7544 9.34804C15.7544 9.99236 16.2767 10.5147 16.9211 10.5147C17.3753 10.5147 17.6789 10.6233 17.8401 10.7453C17.9522 10.8303 18.0837 10.9804 18.0837 11.3821C18.0837 11.7168 17.9718 11.8581 17.8041 11.9684C17.5701 12.1223 17.1396 12.2495 16.5015 12.2495H15.7429L15.7262 12.2496ZM3.50033 18.0829H24.5003V23.3329H3.50033V18.0829ZM20.7087 22.1669C21.514 22.1669 22.167 21.5139 22.167 20.7085C22.167 19.9031 21.514 19.2502 20.7087 19.2502C19.9033 19.2502 19.2503 19.9031 19.2503 20.7085C19.2503 21.5139 19.9033 22.1669 20.7087 22.1669Z" fill="#333333"/>
</g>
</g>
</g>
<defs>
<clipPath id="clip0_605_9227">
<rect width="28" height="28" fill="white"/>
</clipPath>
</defs>
</svg>
