<svg width="40" height="40" viewBox="0 0 40 40" fill="none" xmlns="http://www.w3.org/2000/svg">
<g id="&#230;&#137;&#147;&#229;&#141;&#176;,&#229;&#141;&#176;&#229;&#136;&#182;,&#229;&#164;&#141;&#229;&#141;&#176;,&#230;&#160;&#135;&#232;&#174;&#176;,&#232;&#174;&#164;&#232;&#175;&#129;,&#229;&#174;&#161;&#230;&#137;&#185;,&#229;&#174;&#161;&#230;&#160;&#184;,&#231;&#161;&#174;&#232;&#174;&#164;&#230;&#137;&#147;&#229;&#141;&#176;,&#229;&#141;&#176;&#229;&#136;&#182;,&#229;&#164;&#141;&#229;&#141;&#176;,&#230;&#160;&#135;&#232;&#174;&#176;,&#232;&#174;&#164;&#232;&#175;&#129;,&#229;&#174;&#161;&#230;&#137;&#185;,&#229;&#174;&#161;&#230;&#160;&#184;,&#231;&#161;&#174;&#232;&#174;&#164;" clip-path="url(#clip0_572_6118)">
<g id="Group">
<g id="Group_2">
<path id="Vector" fill-rule="evenodd" clip-rule="evenodd" d="M17 1.66699C13.5942 1.66699 10.8333 4.42791 10.8333 7.83366C10.8333 10.0839 12.0386 12.0527 13.8389 13.1296L10.4921 22.5003H5.83333C3.9924 22.5003 2.5 23.9927 2.5 25.8337V35.0003C2.5 36.8413 3.9924 38.3337 5.83333 38.3337H34.1667C36.0077 38.3337 37.5 36.8413 37.5 35.0003V25.8337C37.5 23.9927 36.0077 22.5003 34.1667 22.5003H29.5078L26.1612 13.1296C27.9613 12.0527 29.1667 10.0839 29.1667 7.83366C29.1667 4.42791 26.4058 1.66699 23 1.66699H17ZM14.1667 7.83366C14.1667 6.26886 15.4352 5.00033 17 5.00033H23C24.5648 5.00033 25.8333 6.26886 25.8333 7.83366C25.8333 9.39846 24.5648 10.667 23 10.667H17C15.4352 10.667 14.1667 9.39846 14.1667 7.83366ZM17.0079 14.167L14.0317 22.5003H25.9683L22.9922 14.167H17.0079ZM5.83333 25.8337H34.1667V27.5003H5.83333V25.8337ZM5.83333 30.8337V35.0003H34.1667V30.8337H5.83333Z" fill="#333333"/>
</g>
</g>
</g>
<defs>
<clipPath id="clip0_572_6118">
<rect width="40" height="40" fill="white"/>
</clipPath>
</defs>
</svg>
