<svg width="40" height="41" viewBox="0 0 40 41" fill="none" xmlns="http://www.w3.org/2000/svg">
<g id="&#233;&#155;&#170;&#232;&#138;&#177;,&#228;&#184;&#139;&#233;&#155;&#170;,&#229;&#164;&#169;&#230;&#176;&#148;,&#229;&#175;&#146;&#229;&#134;&#183;,&#229;&#164;&#167;&#233;&#155;&#170;&#233;&#155;&#170;&#232;&#138;&#177;,&#228;&#184;&#139;&#233;&#155;&#170;,&#229;&#164;&#169;&#230;&#176;&#148;,&#229;&#175;&#146;&#229;&#134;&#183;,&#229;&#164;&#167;&#233;&#155;&#170;" clip-path="url(#clip0_572_7468)">
<g id="Group">
<g id="Group_2">
<path id="Vector" d="M20 1.88281C20.9205 1.88281 21.6667 2.629 21.6667 3.54948V7.0258L23.8215 4.87096C24.4723 4.2201 25.5277 4.2201 26.1785 4.87096C26.8293 5.52185 26.8293 6.57711 26.1785 7.228L21.6667 11.7398V17.3297L26.1862 14.7203L28.4188 8.02243C28.71 7.1492 29.6538 6.67726 30.527 6.96835C31.4003 7.25941 31.8722 8.20328 31.5812 9.07653L30.5372 12.2083L33.5678 10.4586C34.365 9.99833 35.3843 10.2714 35.8445 11.0686C36.3048 11.8658 36.0317 12.8851 35.2345 13.3453L31.8382 15.3062L35.3615 16.0892C36.2602 16.2888 36.8267 17.1791 36.627 18.0777C36.4273 18.9763 35.537 19.5428 34.6385 19.3431L27.5677 17.7718L23.3525 20.2055L27.5943 22.6545L34.6385 21.0891C35.537 20.8895 36.4273 21.456 36.627 22.3546C36.8267 23.2531 36.2602 24.1435 35.3615 24.3431L31.865 25.1201L35.3047 27.1061C36.1018 27.5663 36.375 28.5856 35.9147 29.3828C35.4545 30.18 34.4352 30.4531 33.638 29.9928L30.5283 28.1975L31.5812 31.3558C31.8722 32.229 31.4003 33.1728 30.527 33.464C29.6538 33.755 28.71 33.2831 28.4188 32.4098L26.1775 25.6855L21.6667 23.0811V28.6925L26.1785 33.2043C26.8293 33.8551 26.8293 34.9105 26.1785 35.5613C25.5277 36.2121 24.4723 36.2121 23.8215 35.5613L21.6667 33.4065V36.8828C21.6667 37.8033 20.9205 38.5495 20 38.5495C19.0796 38.5495 18.3334 37.8033 18.3334 36.8828V33.4065L16.1785 35.5613C15.5277 36.2121 14.4724 36.2121 13.8215 35.5613C13.1706 34.9105 13.1706 33.8551 13.8215 33.2043L18.3334 28.6925V23.1031L13.8135 25.7128L11.5812 32.4098C11.2901 33.2831 10.3462 33.755 9.47299 33.464C8.59974 33.1728 8.12781 32.229 8.41889 31.3558L9.46256 28.2248L6.43272 29.974C5.63557 30.4343 4.61626 30.1611 4.15602 29.364C3.69578 28.5668 3.96891 27.5475 4.76606 27.0873L8.16267 25.1263L4.63848 24.3431C3.73993 24.1435 3.17337 23.2531 3.37305 22.3546C3.57273 21.456 4.46303 20.8895 5.36157 21.0891L12.4333 22.6606L16.6858 20.2055L12.46 17.7657L5.36157 19.3431C4.46303 19.5428 3.57273 18.9763 3.37305 18.0777C3.17337 17.1791 3.73993 16.2888 4.63848 16.0892L8.18941 15.3001L4.77054 13.3262C3.97338 12.8659 3.70026 11.8466 4.1605 11.0495C4.62073 10.2523 5.64006 9.9792 6.43721 10.4394L9.45372 12.181L8.41889 9.07653C8.12781 8.20328 8.59974 7.25941 9.47299 6.96835C10.3462 6.67726 11.2901 7.1492 11.5812 8.02243L13.8047 14.6931L18.3334 17.3077V11.7398L13.8215 7.228C13.1706 6.57711 13.1706 5.52185 13.8215 4.87096C14.4724 4.2201 15.5277 4.2201 16.1785 4.87096L18.3334 7.0258V3.54948C18.3334 2.629 19.0796 1.88281 20 1.88281Z" fill="#333333"/>
</g>
</g>
</g>
<defs>
<clipPath id="clip0_572_7468">
<rect width="40" height="40" fill="white" transform="translate(0 0.216797)"/>
</clipPath>
</defs>
</svg>
