<svg width="40" height="41" viewBox="0 0 40 41" fill="none" xmlns="http://www.w3.org/2000/svg">
<g id="&#233;&#157;&#158;&#228;&#184;&#173;&#229;&#155;&#189;&#229;&#140;&#186;,&#229;&#133;&#168;&#231;&#144;&#131;,&#229;&#156;&#176;&#231;&#144;&#131;,&#229;&#155;&#189;&#233;&#153;&#133;,&#229;&#156;&#176;&#229;&#155;&#190;&#233;&#157;&#158;&#228;&#184;&#173;&#229;&#155;&#189;&#229;&#140;&#186;,&#229;&#133;&#168;&#231;&#144;&#131;,&#229;&#156;&#176;&#231;&#144;&#131;,&#229;&#155;&#189;&#233;&#153;&#133;,&#229;&#156;&#176;&#229;&#155;&#190;" clip-path="url(#clip0_572_4813)">
<g id="Group">
<g id="Group_2">
<path id="Vector" d="M20.0003 1.88281C30.1255 1.88281 38.3337 10.0909 38.3337 20.2161C38.3337 23.109 37.6637 25.8455 36.4702 28.2786L36.4632 28.2966C36.4365 28.3578 36.4058 28.4176 36.3713 28.476L36.2665 28.6813C33.2083 34.5456 27.072 38.5495 20.0003 38.5495C9.87511 38.5495 1.66699 30.3413 1.66699 20.2161C1.66699 10.0909 9.87509 1.88281 20.0003 1.88281ZM25.7017 6.33763L25.7135 6.4185L25.7727 6.76005C25.8437 7.15473 25.9238 7.29585 26.1868 7.47761L26.5055 7.67641C26.5368 7.69513 26.5732 7.71668 26.6158 7.74205C28.073 8.6149 28.7088 9.71731 28.3972 11.7121C28.0448 13.9652 26.9073 14.7068 24.8077 14.9079L23.9362 14.9801L23.6795 15.0148C23.6037 15.0278 23.5347 15.0425 23.4633 15.0603C23.1875 15.1289 22.9775 15.2323 22.7833 15.4011C22.7057 15.4686 22.6565 15.5992 22.6447 15.8693L22.6442 16.1367L22.6633 16.483L22.7033 16.919L22.7963 17.7013C23.1385 20.493 22.8192 22.1021 20.7717 23.2451C20.0522 23.6468 19.2792 23.8198 18.4817 23.7791C17.3001 23.719 16.3705 23.3155 14.937 22.418L13.684 21.6276L12.7698 21.0883C12.7584 21.08 12.7551 21.0753 12.7589 21.0733C12.6738 21.1196 12.596 21.2355 12.5252 21.4608L12.4567 21.7243L12.3928 22.0698L12.3332 22.5065L12.1825 24.0386C11.998 25.7008 11.7285 26.4766 10.86 27.2688C9.93528 28.112 8.76949 28.45 7.39776 28.3505C10.0677 32.4823 14.7147 35.2161 20.0003 35.2161C20.4283 35.2161 20.8522 35.1981 21.271 35.163C20.6493 33.9081 20.5083 32.6388 20.9098 31.3785C21.2258 30.3861 21.6565 29.6673 22.2457 29.0505L22.3977 28.8965L22.8082 28.5136C23.0398 28.3 23.0948 28.229 23.1448 28.0938L23.1532 28.0371L23.1563 27.9018L23.1452 27.4886C23.0983 26.3506 23.1585 25.719 23.5673 24.8831C24.024 23.9491 24.8352 23.1851 26.03 22.5586C28.4053 21.3133 31.15 22.162 34.2917 24.7791C34.7525 23.3415 35.0003 21.8078 35.0003 20.2161C35.0003 13.9502 31.1583 8.58166 25.7017 6.33763ZM27.578 25.5108C26.9728 25.8281 26.6817 26.1025 26.5618 26.3475C26.5045 26.4645 26.4753 26.5888 26.4677 26.8148L26.4683 27.141L26.4757 27.352C26.5125 28.25 26.4923 28.6533 26.2707 29.2518C26.0043 29.9703 25.652 30.4251 25.0688 30.9633L24.8337 31.1791C24.7615 31.2463 24.706 31.3005 24.6565 31.3523C24.4137 31.6066 24.2467 31.8855 24.0858 32.39C23.9123 32.9348 24.0848 33.6043 24.7377 34.4498C28.1572 33.3146 31.0278 30.9818 32.8558 27.9493C30.351 25.6658 28.5808 24.985 27.578 25.5108ZM20.0003 5.21615C11.716 5.21615 5.00033 11.9318 5.00033 20.2161C5.00033 21.7003 5.21589 23.1343 5.61744 24.4881L5.62064 24.4903C7.28466 25.1576 8.22806 25.1576 8.61388 24.8058C8.62914 24.7918 8.64473 24.7688 8.66058 24.7353L8.70888 24.6015L8.75844 24.3953L8.80898 24.108L8.88589 23.5055L8.95808 22.7441C9.18234 20.2543 9.58991 19.0041 11.1637 18.1464C12.4434 17.449 13.2229 17.512 14.8222 18.4233L15.3875 18.7586L16.0243 19.1575L16.373 19.381C17.5346 20.1293 18.1562 20.425 18.6513 20.4501C18.8332 20.4595 18.9837 20.4258 19.1468 20.3346C19.5635 20.102 19.665 19.7148 19.5222 18.4024L19.4583 17.87C19.128 15.2359 19.2245 14.0785 20.596 12.8858C21.2088 12.3529 21.8938 12.0159 22.6582 11.8256C23.0158 11.7366 23.2958 11.691 23.7085 11.6524L24.4625 11.5953L24.8352 11.5746L24.9702 11.5574C25.0527 11.5378 25.0688 11.5005 25.079 11.4137L25.1037 11.1973L25.1283 11.0581L25.1675 10.8778C25.1833 10.8032 25.1827 10.7734 25.1453 10.7426L24.6458 10.4479L24.544 10.3851C23.4378 9.69343 22.7555 8.8149 22.492 7.35013L22.3218 6.34535L22.2387 5.75641L22.1982 5.37603C21.4808 5.2707 20.747 5.21615 20.0003 5.21615Z" fill="#333333"/>
</g>
</g>
</g>
<defs>
<clipPath id="clip0_572_4813">
<rect width="40" height="40" fill="white" transform="translate(0 0.216797)"/>
</clipPath>
</defs>
</svg>
