<svg width="40" height="40" viewBox="0 0 40 40" fill="none" xmlns="http://www.w3.org/2000/svg">
<g id="&#229;&#136;&#134;&#231;&#187;&#132;,&#229;&#133;&#179;&#232;&#129;&#148;,&#232;&#129;&#148;&#231;&#179;&#187;,&#230;&#156;&#141;&#229;&#138;&#161;&#229;&#153;&#168;,&#230;&#138;&#128;&#230;&#156;&#175;,&#231;&#174;&#161;&#231;&#144;&#134;&#229;&#136;&#134;&#231;&#187;&#132;,&#229;&#133;&#179;&#232;&#129;&#148;,&#232;&#129;&#148;&#231;&#179;&#187;,&#230;&#156;&#141;&#229;&#138;&#161;&#229;&#153;&#168;,&#230;&#138;&#128;&#230;&#156;&#175;,&#231;&#174;&#161;&#231;&#144;&#134;" clip-path="url(#clip0_572_4790)">
<g id="Group">
<g id="Group_2">
<path id="Vector" fill-rule="evenodd" clip-rule="evenodd" d="M1.66699 4.24274C1.66699 2.95968 2.65274 1.66699 4.16699 1.66699H35.8337C37.348 1.66699 38.3337 2.9597 38.3337 4.24274V12.4246C38.3337 13.7077 37.348 15.0003 35.8337 15.0003H13.3337V18.3413L28.3343 18.348C29.2547 18.3483 30.0003 19.0945 30.0003 20.0147V25.0003H35.8337C37.348 25.0003 38.3337 26.293 38.3337 27.5762V35.7578C38.3337 37.041 37.348 38.3337 35.8337 38.3337H4.16699C2.65277 38.3337 1.66699 37.041 1.66699 35.7578V27.5762C1.66699 26.293 2.65277 25.0003 4.16699 25.0003H26.667V21.6807L11.6663 21.674C10.7461 21.6735 10.0003 20.9275 10.0003 20.0073V15.0003H4.16699C2.65277 15.0003 1.66699 13.7077 1.66699 12.4246V4.24274ZM35.0003 11.667V5.00033H5.00033V11.667H35.0003ZM5.00033 28.3337V35.0003H35.0003V28.3337H5.00033ZM13.3337 8.33366C13.3337 7.41319 14.0799 6.66699 15.0003 6.66699H25.0003C25.9208 6.66699 26.667 7.41319 26.667 8.33366C26.667 9.25413 25.9208 10.0003 25.0003 10.0003H15.0003C14.0799 10.0003 13.3337 9.25413 13.3337 8.33366ZM13.3337 31.667C13.3337 30.7465 14.0799 30.0003 15.0003 30.0003H25.0003C25.9208 30.0003 26.667 30.7465 26.667 31.667C26.667 32.5875 25.9208 33.3337 25.0003 33.3337H15.0003C14.0799 33.3337 13.3337 32.5875 13.3337 31.667Z" fill="#333333"/>
</g>
</g>
</g>
<defs>
<clipPath id="clip0_572_4790">
<rect width="40" height="40" fill="white"/>
</clipPath>
</defs>
</svg>
