<svg width="40" height="41" viewBox="0 0 40 41" fill="none" xmlns="http://www.w3.org/2000/svg">
<g id="&#230;&#176;&#180;&#231;&#148;&#181;&#232;&#180;&#185;,&#230;&#176;&#180;&#230;&#187;&#180;&#230;&#176;&#180;&#231;&#148;&#181;&#232;&#180;&#185;,&#230;&#176;&#180;&#230;&#187;&#180;" clip-path="url(#clip0_572_6143)">
<g id="Group">
<g id="Group_2">
<path id="Vector" fill-rule="evenodd" clip-rule="evenodd" d="M20.9442 2.17608L20 3.54948L19.0558 2.17608C19.6245 1.78506 20.3755 1.78506 20.9442 2.17608ZM20 5.62165C19.7105 5.84463 19.3645 6.11806 18.9757 6.43798C17.769 7.43103 16.1636 8.86138 14.5634 10.6116C11.3035 14.1771 8.33333 18.7783 8.33333 23.5495C8.33333 29.9928 13.5566 35.2161 20 35.2161C26.4433 35.2161 31.6667 29.9926 31.6667 23.5495C31.6667 18.7783 28.6965 14.1771 25.4367 10.6116C23.8365 8.86138 22.231 7.43103 21.0243 6.43798C20.6355 6.11806 20.2895 5.84463 20 5.62165ZM19.0558 2.17608C19.0562 2.17575 19.0558 2.17608 20 3.54948C20.9442 2.17608 20.9437 2.17575 20.9442 2.17608L20.9496 2.1798L20.9599 2.1869L20.9946 2.21111C21.0239 2.23167 21.0656 2.26106 21.1187 2.29904C21.225 2.37499 21.3773 2.48536 21.5691 2.62833C21.9525 2.91414 22.4945 3.33095 23.1423 3.86411C24.4357 4.92835 26.1635 6.46675 27.8967 8.36236C31.3035 12.0886 35 17.4873 35 23.5495C35 31.8335 28.2843 38.5495 20 38.5495C11.7157 38.5495 5 31.8338 5 23.5495C5 17.4873 8.69647 12.0886 12.1033 8.36236C13.8364 6.46675 15.5644 4.92835 16.8576 3.86411C17.5055 3.33095 18.0475 2.91414 18.4309 2.62833C18.6227 2.48536 18.775 2.37499 18.8813 2.29904C18.9344 2.26106 18.9761 2.23167 19.0054 2.21111L19.0401 2.1869L19.0504 2.1798L19.0558 2.17608ZM20.7454 15.3921C21.5687 15.8037 21.9023 16.8049 21.4907 17.6282L19.3634 21.8828H23.3333C23.911 21.8828 24.4473 22.182 24.7512 22.6733C25.0548 23.1646 25.0823 23.7781 24.824 24.2948L21.4907 30.9615C21.0791 31.7848 20.0779 32.1185 19.2546 31.7068C18.4313 31.2951 18.0976 30.2941 18.5093 29.4708L20.6366 25.2161H16.6667C16.089 25.2161 15.5526 24.917 15.2489 24.4256C14.9452 23.9343 14.9176 23.3208 15.1759 22.8041L18.5093 16.1375C18.9209 15.3142 19.9221 14.9804 20.7454 15.3921Z" fill="#333333"/>
</g>
</g>
</g>
<defs>
<clipPath id="clip0_572_6143">
<rect width="40" height="40" fill="white" transform="translate(0 0.216797)"/>
</clipPath>
</defs>
</svg>
