<svg width="40" height="40" viewBox="0 0 40 40" fill="none" xmlns="http://www.w3.org/2000/svg">
<g id="&#232;&#138;&#130;&#232;&#131;&#189;,&#231;&#142;&#175;&#228;&#191;&#157;,&#230;&#150;&#176;&#232;&#131;&#189;&#230;&#186;&#144;,&#230;&#164;&#141;&#231;&#137;&#169;,&#230;&#160;&#145;&#230;&#156;&#168;&#232;&#138;&#130;&#232;&#131;&#189;,&#231;&#142;&#175;&#228;&#191;&#157;,&#230;&#150;&#176;&#232;&#131;&#189;&#230;&#186;&#144;,&#230;&#164;&#141;&#231;&#137;&#169;,&#230;&#160;&#145;&#230;&#156;&#168;" clip-path="url(#clip0_572_7457)">
<g id="Group">
<g id="Group_2">
<path id="Vector" fill-rule="evenodd" clip-rule="evenodd" d="M20.0003 5.00033C16.089 5.00033 12.8753 7.99573 12.5309 11.8166C12.4535 12.6756 11.7335 13.3337 10.871 13.3337H10.8337C7.61199 13.3337 5.00033 15.9453 5.00033 19.167C5.00033 22.3887 7.61199 25.0003 10.8337 25.0003H18.3337V23.3348V23.3325V21.524L13.8218 17.0122C13.1709 16.3613 13.1709 15.306 13.8218 14.6551C14.4727 14.0043 15.528 14.0043 16.1788 14.6551L18.3337 16.81V15.0003C18.3337 14.0799 19.0798 13.3337 20.0003 13.3337C20.9208 13.3337 21.667 14.0799 21.667 15.0003V19.31L22.9885 17.9885C23.6393 17.3376 24.6947 17.3376 25.3455 17.9885C25.9963 18.6393 25.9963 19.6947 25.3455 20.3455L21.667 24.024V25.0003H29.167C32.3887 25.0003 35.0003 22.3887 35.0003 19.167C35.0003 15.9453 32.3887 13.3337 29.167 13.3337H29.1297C28.2672 13.3337 27.5472 12.6756 27.4697 11.8166C27.1253 7.99573 23.9117 5.00033 20.0003 5.00033ZM18.3337 28.3337V36.667C18.3337 37.5875 19.0798 38.3337 20.0003 38.3337C20.9208 38.3337 21.667 37.5875 21.667 36.667V28.3337H29.167C34.2297 28.3337 38.3337 24.2297 38.3337 19.167C38.3337 14.5807 34.9657 10.7812 30.568 10.1067C29.4778 5.27478 25.1612 1.66699 20.0003 1.66699C14.8395 1.66699 10.5228 5.27478 9.43258 10.1067C5.03501 10.7812 1.66699 14.5807 1.66699 19.167C1.66699 24.2297 5.77106 28.3337 10.8337 28.3337H18.3337Z" fill="#333333"/>
</g>
</g>
</g>
<defs>
<clipPath id="clip0_572_7457">
<rect width="40" height="40" fill="white"/>
</clipPath>
</defs>
</svg>
