<svg width="40" height="41" viewBox="0 0 40 41" fill="none" xmlns="http://www.w3.org/2000/svg">
<g id="&#230;&#137;&#147;&#229;&#141;&#176;,&#229;&#141;&#176;&#229;&#136;&#182;,&#229;&#164;&#141;&#229;&#141;&#176;,&#230;&#160;&#135;&#232;&#174;&#176;,&#232;&#174;&#164;&#232;&#175;&#129;,&#229;&#174;&#161;&#230;&#137;&#185;,&#229;&#174;&#161;&#230;&#160;&#184;,&#231;&#161;&#174;&#232;&#174;&#164;&#230;&#137;&#147;&#229;&#141;&#176;,&#229;&#141;&#176;&#229;&#136;&#182;,&#229;&#164;&#141;&#229;&#141;&#176;,&#230;&#160;&#135;&#232;&#174;&#176;,&#232;&#174;&#164;&#232;&#175;&#129;,&#229;&#174;&#161;&#230;&#137;&#185;,&#229;&#174;&#161;&#230;&#160;&#184;,&#231;&#161;&#174;&#232;&#174;&#164;" clip-path="url(#clip0_572_8352)">
<g id="Group">
<g id="Group_2">
<path id="Vector" fill-rule="evenodd" clip-rule="evenodd" d="M17 1.88281C13.5942 1.88281 10.8333 4.64373 10.8333 8.04948C10.8333 10.2997 12.0386 12.2685 13.8389 13.3454L10.4921 22.7161H5.83333C3.9924 22.7161 2.5 24.2085 2.5 26.0495V35.2161C2.5 37.0571 3.9924 38.5495 5.83333 38.5495H34.1667C36.0077 38.5495 37.5 37.0571 37.5 35.2161V26.0495C37.5 24.2085 36.0077 22.7161 34.1667 22.7161H29.5078L26.1612 13.3454C27.9613 12.2685 29.1667 10.2997 29.1667 8.04948C29.1667 4.64373 26.4058 1.88281 23 1.88281H17ZM14.1667 8.04948C14.1667 6.48468 15.4352 5.21615 17 5.21615H23C24.5648 5.21615 25.8333 6.48468 25.8333 8.04948C25.8333 9.61428 24.5648 10.8828 23 10.8828H17C15.4352 10.8828 14.1667 9.61428 14.1667 8.04948ZM17.0079 14.3828L14.0317 22.7161H25.9683L22.9922 14.3828H17.0079ZM5.83333 26.0495H34.1667V27.7161H5.83333V26.0495ZM5.83333 31.0495V35.2161H34.1667V31.0495H5.83333Z" fill="#333333"/>
</g>
</g>
</g>
<defs>
<clipPath id="clip0_572_8352">
<rect width="40" height="40" fill="white" transform="translate(0 0.216797)"/>
</clipPath>
</defs>
</svg>
