<svg width="188" height="32" viewBox="0 0 188 32" fill="none" xmlns="http://www.w3.org/2000/svg">
<g clip-path="url(#clip0_191_796)">
<path d="M186.905 25.1111C186.905 26.5796 185.838 27.5652 184.575 27.5652V27.5562C183.276 27.5652 182.228 26.5796 182.228 25.1115C182.228 23.6438 183.276 22.6609 184.575 22.6609C185.838 22.6605 186.905 23.6434 186.905 25.1111ZM187.85 25.1111C187.85 23.0955 186.301 21.9257 184.575 21.9257C182.836 21.9257 181.287 23.0955 181.287 25.1111C181.287 27.1251 182.837 28.2996 184.575 28.2996C186.301 28.2996 187.85 27.1251 187.85 25.1111ZM184.031 25.3806H184.382L185.195 26.8226H186.087L185.187 25.3198C185.652 25.2863 186.034 25.0628 186.034 24.43C186.034 23.6434 185.498 23.3911 184.589 23.3911H183.275V26.8226H184.031L184.031 25.3806ZM184.031 24.7996V23.9736H184.557C184.843 23.9736 185.232 23.997 185.232 24.3494C185.232 24.7326 185.031 24.7996 184.694 24.7996H184.031ZM165.793 7.55569L169.876 18.8455H161.582L165.793 7.55569ZM161.419 3.15964L152.008 27.2564H158.653L160.142 22.9982H171.279L172.688 27.2564H179.902L170.421 3.15652L161.419 3.15964ZM142.525 27.2653H149.267V3.15223L142.524 3.15068L142.525 27.2653ZM95.7192 3.15068L90.094 22.2622L84.7055 3.15223L77.4307 3.15068L85.1267 27.2653H94.8398L102.598 3.15068H95.7192ZM122.972 8.40149H125.87C130.074 8.40149 132.793 10.3088 132.793 15.2586C132.793 20.2092 130.074 22.1169 125.87 22.1169H122.972V8.40149ZM116.287 3.15068V27.2653H127.217C133.04 27.2653 134.942 26.2871 136.998 24.0928C138.451 22.5519 139.39 19.1699 139.39 15.4736C139.39 12.083 138.595 9.06037 137.209 7.17718C134.712 3.80956 131.115 3.15068 125.745 3.15068H116.287ZM52.4197 3.11719V27.2653H59.2189V8.92953L64.4873 8.93109C66.2317 8.93109 67.4752 9.37074 68.3152 10.2773C69.3806 11.4241 69.8157 13.2754 69.8157 16.6621V27.2653H76.4042V13.9233C76.4042 4.40108 70.3983 3.11719 64.5219 3.11719H52.4197ZM105.435 3.15068L105.438 27.2653H112.177V3.15068H105.435Z" fill="#666666"/>
<path d="M4.88923 13.7759C4.88923 13.7759 9.2159 7.32473 17.8548 6.65732V4.31685C8.28611 5.09344 0 13.2834 0 13.2834C0 13.2834 4.69312 26.9936 17.8548 28.2491V25.7614C8.19614 24.5334 4.88923 13.7759 4.88923 13.7759ZM17.8548 20.8139V23.0923C10.555 21.777 8.52875 14.1087 8.52875 14.1087C8.52875 14.1087 12.0337 10.1849 17.8548 9.54863V12.0486C17.8504 12.0486 17.8473 12.0473 17.8437 12.0473C14.7884 11.6767 12.4017 14.5611 12.4017 14.5611C12.4017 14.5611 13.7394 19.4165 17.8548 20.8139ZM17.8548 0V4.31685C18.1357 4.29509 18.4166 4.27663 18.699 4.26691C29.5776 3.89639 36.6657 13.2834 36.6657 13.2834C36.6657 13.2834 28.5248 23.2872 20.0433 23.2872C19.266 23.2872 18.5383 23.2144 17.8548 23.092V25.7614C18.4593 25.8399 19.0682 25.8796 19.6777 25.8803C27.5702 25.8803 33.2779 21.8069 38.8047 16.9859C39.721 17.7275 43.4724 19.5317 44.2436 20.3213C38.9887 24.7676 26.7417 28.3515 19.7986 28.3515C19.1293 28.3515 18.4866 28.3107 17.8548 28.2491V32H47.8539V0H17.8548ZM17.8548 9.54863V6.65732C18.1328 6.6377 18.413 6.62274 18.699 6.61361C26.5218 6.3653 31.654 13.4071 31.654 13.4071C31.654 13.4071 26.1107 21.1871 20.1672 21.1871C19.3118 21.1871 18.5448 21.0482 17.8546 20.8137V12.0484C20.9001 12.4203 21.513 13.7798 23.3439 16.8642L27.4162 13.3943C27.4162 13.3943 24.4436 9.45459 19.4327 9.45459C18.8878 9.45439 18.3666 9.49325 17.8548 9.54863Z" fill="#666666"/>
</g>
<defs>
<clipPath id="clip0_191_796">
<rect width="187.85" height="32" fill="white"/>
</clipPath>
</defs>
</svg>
