<svg width="97" height="32" viewBox="0 0 97 32" fill="none" xmlns="http://www.w3.org/2000/svg">
<g clip-path="url(#clip0_191_858)">
<path d="M21.1137 16.0414C21.1144 17.6384 21.0642 19.0954 20.9631 20.4125C20.7517 23.1779 20.1312 26.0987 18.608 28.4386C16.4733 31.7157 12.7941 32.2389 9.15865 31.9086C7.11612 31.7237 5.16015 31.0167 3.7505 29.4712C2.85908 28.4942 2.29477 27.3538 1.86535 26.0193C0.995281 23.314 0.485679 20.4949 0.336546 17.562C0.30507 16.9454 0.289333 16.4408 0.289333 16.0482C0.288583 15.6556 0.303946 15.1514 0.335422 14.5356C0.482307 11.6026 0.989661 8.78316 1.85748 6.07716C2.2869 4.74269 2.85008 3.60113 3.74039 2.62411C5.14891 1.07744 7.10488 0.368225 9.14741 0.182125C12.7817 -0.150357 16.4621 0.369359 18.599 3.64539C20.1233 5.98411 20.7461 8.90383 20.9608 11.6692C21.062 12.9863 21.1129 14.4437 21.1137 16.0414ZM5.74245 16.0811C5.7432 18.2924 5.96727 20.5494 6.41467 22.8522C6.62039 23.9086 6.80474 24.7302 7.3342 25.5086C8.21439 26.8034 9.70722 27.238 11.2282 27.1313C13.328 26.9827 14.5668 25.6187 15.0817 23.6658C15.4151 22.404 15.6077 21.1066 15.6594 19.7736C15.7172 18.2916 15.746 17.06 15.746 16.0789C15.746 15.0984 15.7168 13.8672 15.6583 12.3852C15.6066 11.0523 15.4136 9.75489 15.0794 8.49305C14.5646 6.54014 13.3246 5.17617 11.2248 5.02865C9.70385 4.92198 8.21102 5.35659 7.33196 6.65248C6.80249 7.43092 6.61814 8.25248 6.41355 9.30893C5.96615 11.6117 5.74245 13.8691 5.74245 16.0811Z" fill="#666666"/>
<path d="M58.9989 31.7112C58.4773 31.5433 57.8455 31.2777 58.0816 30.606C61.7567 20.1224 65.0579 10.7232 67.9851 2.40851C68.2549 1.64294 68.4778 1.16596 68.654 0.977592C69.5173 0.0504999 70.7606 0.727947 71.8971 0.671209C71.9523 0.668944 72.0074 0.659799 72.0612 0.643975C73.2348 0.296741 74.6916 0.118585 75.6797 1.00596C76.5003 1.74355 77.0017 2.78979 77.3367 3.82015C78.3349 6.88095 79.2406 9.56918 80.0537 11.8848C81.7594 16.7408 83.6861 22.2557 85.8339 28.4295C85.9531 28.7737 86.0483 29.0105 86.1194 29.1399C86.4185 29.6845 87.2222 31.0349 86.2319 31.3742C85.4502 31.6412 84.5963 31.8152 83.67 31.8962C82.5294 31.996 81.5915 31.6359 80.8563 30.8159C80.7514 30.6986 80.6798 30.5802 80.6416 30.4607C80.4359 29.8139 80.2875 29.4167 80.1504 28.8902C79.7644 27.4029 79.5658 26.6396 79.5546 26.6003C79.0712 24.914 78.4563 23.5716 76.5801 23.2482C76.0001 23.1491 75.4126 23.1249 74.8175 23.1756C73.8778 23.2573 72.712 23.406 71.5362 23.4559C71.3271 23.465 71.0989 23.4631 70.8516 23.4502C70.0055 23.4048 69.1036 23.4321 68.1459 23.5319C67.0824 23.6443 66.3776 24.1435 65.8572 25.1285C65.5994 25.6149 65.3689 26.1509 65.1658 26.7365C65.0032 27.2025 64.7132 28.0028 64.2957 29.1376C64.0612 29.7753 63.6531 30.3688 63.0716 30.918C61.9789 31.9495 60.404 32.1628 58.9989 31.7112ZM72.2882 5.23745L67.9233 18.3949C67.9217 18.3999 67.9213 18.4053 67.9222 18.4105C67.923 18.4157 67.925 18.4207 67.9281 18.425C67.9311 18.4293 67.9351 18.4328 67.9397 18.4352C67.9444 18.4377 67.9495 18.439 67.9548 18.4392C69.4266 18.4384 71.5819 18.438 74.4207 18.438C74.4897 18.438 74.6388 18.4293 74.8681 18.4119C75.13 18.3915 75.4111 18.4664 75.6707 18.4312C75.8798 18.404 75.9971 18.3854 76.0226 18.3756C76.5194 18.1748 76.4396 17.6675 76.3047 17.2522C75.1911 13.8305 73.8631 9.82563 72.3209 5.23745C72.3199 5.23382 72.3178 5.23061 72.3148 5.22832C72.3119 5.22603 72.3083 5.22479 72.3046 5.22479C72.3008 5.22479 72.2972 5.22603 72.2943 5.22832C72.2913 5.23061 72.2892 5.23382 72.2882 5.23745Z" fill="#666666"/>
<path d="M36.3928 31.6617C34.3266 31.8364 34.2479 30.5417 34.2974 28.8986C34.3169 28.2578 34.327 27.8864 34.3277 27.7842C34.354 22.4184 34.36 16.8138 34.3457 10.9706C34.345 10.7913 34.3543 10.2871 34.3738 9.45798C34.3907 8.71132 34.4491 7.65032 34.2434 6.86167C33.9208 5.61912 32.8686 5.86196 31.9603 6.22281C31.3544 6.46451 30.7148 6.60635 30.1898 6.60408C29.7724 6.60333 29.4854 6.63548 29.3288 6.70054C28.407 7.08635 27.393 7.62423 27.2008 6.06394C27.1379 5.5533 27.0891 4.95832 27.0547 4.27898C26.9917 3.03642 27.5212 2.15586 28.8038 1.95274C29.5963 1.82678 30.6159 1.72238 31.5512 1.51586C33.9647 0.982524 35.9487 0.466212 38.143 0.510467C39.0412 0.528623 39.6977 0.908765 39.7561 1.88579C39.818 2.91501 39.7471 4.55132 39.7471 5.3933C39.7456 7.43586 39.7453 10.3699 39.746 14.1956C39.7471 14.7244 39.7966 15.3723 39.7696 15.9624C39.7644 16.0607 39.7599 16.2956 39.7561 16.6671C39.7194 20.2355 39.7089 23.3988 39.7247 26.157C39.7314 27.294 39.7576 28.4575 39.8033 29.6475C39.8449 30.7289 39.4695 31.6515 38.2532 31.6549C37.0136 31.6594 36.3935 31.6617 36.3928 31.6617Z" fill="#666666"/>
<path d="M92.5708 31.6668C92.1987 31.6804 91.984 31.669 91.7063 31.6384C90.7677 31.534 90.4428 30.7737 90.4024 29.9215C90.3784 29.4298 90.3769 28.7936 90.3979 28.0129C90.4361 26.5774 90.4271 24.1956 90.4563 21.0205C90.5058 15.6418 90.4747 9.73164 90.363 3.29003C90.3563 2.91027 90.3731 2.49532 90.4136 2.04521C90.5226 0.827618 91.2691 0.45088 92.3842 0.512157C93.1441 0.555278 93.85 0.494001 94.6291 0.5201C96.0196 0.566625 96.2208 1.70932 96.1747 2.83613C96.0683 5.43395 96.0357 8.19972 96.0769 11.1334C96.1331 15.1085 96.1151 18.3958 96.0747 21.9669C96.0455 24.5254 96.0799 27.0752 96.1781 29.6163C96.1871 29.8523 96.1384 30.1723 96.032 30.5763C95.7453 31.6566 94.7314 31.7961 93.768 31.7008C93.3858 31.6637 92.9867 31.6524 92.5708 31.6668Z" fill="#666666"/>
<path d="M50.8557 24.6244C50.9171 24.6251 50.9786 24.6255 51.04 24.6255C52.9825 24.6357 54.083 25.4266 54.2517 27.4737C54.3079 28.1561 54.2771 28.8335 54.1595 29.5061C53.8683 31.1764 52.8532 32.0264 51.1828 31.863C50.9917 31.844 50.8568 31.8342 50.7781 31.8335C50.6994 31.8327 50.5642 31.8395 50.3723 31.8539C48.6996 31.981 47.7025 31.1095 47.4473 29.4323C47.3439 28.7575 47.3278 28.0797 47.399 27.3988C47.6115 25.3563 48.7288 24.5892 50.6702 24.6221C50.7324 24.6229 50.7942 24.6236 50.8557 24.6244Z" fill="#666666"/>
</g>
<defs>
<clipPath id="clip0_191_858">
<rect width="96" height="32" fill="white" transform="translate(0.26123)"/>
</clipPath>
</defs>
</svg>
