<svg width="79" height="32" viewBox="0 0 79 32" fill="none" xmlns="http://www.w3.org/2000/svg">
<g clip-path="url(#clip0_191_864)">
<path d="M26.9835 7.50203C26.9835 7.51242 26.9794 7.52238 26.9721 7.52973C26.9647 7.53707 26.9548 7.5412 26.9444 7.5412H0.342836C0.332459 7.5412 0.322508 7.53707 0.31517 7.52973C0.307833 7.52238 0.303711 7.51242 0.303711 7.50203V0.0586979C0.303711 0.0483103 0.307833 0.0383481 0.31517 0.0310029C0.322508 0.0236577 0.332459 0.0195313 0.342836 0.0195312H26.9444C26.9548 0.0195313 26.9647 0.0236577 26.9721 0.0310029C26.9794 0.0383481 26.9835 0.0483103 26.9835 0.0586979V7.50203ZM25.2754 1.69786C25.2754 1.68947 25.272 1.68141 25.2661 1.67547C25.2602 1.66953 25.2521 1.6662 25.2437 1.6662H2.02021C2.01182 1.6662 2.00377 1.66953 1.99784 1.67547C1.99191 1.68141 1.98858 1.68947 1.98858 1.69786V5.86453C1.98858 5.87293 1.99191 5.88098 1.99784 5.88692C2.00377 5.89286 2.01182 5.8962 2.02021 5.8962H25.2437C25.2521 5.8962 25.2602 5.89286 25.2661 5.88692C25.272 5.88098 25.2754 5.87293 25.2754 5.86453V1.69786Z" fill="#666666"/>
<path d="M3.46614 15.3952C4.35408 15.3952 4.82969 15.3932 4.89295 15.3893C4.90656 15.3883 4.91927 15.3822 4.92853 15.3723C4.93779 15.3624 4.94293 15.3495 4.9429 15.336V12.4502C4.9429 12.4411 4.94649 12.4324 4.9529 12.426C4.9593 12.4196 4.96798 12.416 4.97703 12.416H6.57865C6.59212 12.416 6.60503 12.4214 6.61456 12.4309C6.62408 12.4404 6.62943 12.4534 6.62943 12.4668V19.9285C6.62943 19.936 6.62645 19.9432 6.62114 19.9486C6.61583 19.9539 6.60863 19.9568 6.60113 19.9568H4.97786C4.97327 19.9568 4.96872 19.9559 4.96448 19.9542C4.96024 19.9524 4.95639 19.9498 4.95314 19.9466C4.94989 19.9433 4.94732 19.9395 4.94556 19.9352C4.9438 19.931 4.9429 19.9264 4.9429 19.9218V16.8627C4.9429 16.8551 4.93995 16.8478 4.93466 16.8423C4.92938 16.8369 4.92218 16.8337 4.9146 16.8335C4.85411 16.833 4.37129 16.8327 3.46614 16.8327C2.561 16.8327 2.07846 16.833 2.01852 16.8335C2.0108 16.8335 2.00339 16.8366 1.99792 16.8421C1.99246 16.8475 1.98939 16.8549 1.98939 16.8627L1.99022 19.9218C1.99022 19.9264 1.98932 19.931 1.98756 19.9352C1.9858 19.9395 1.98323 19.9433 1.97998 19.9466C1.97673 19.9498 1.97288 19.9524 1.96864 19.9542C1.9644 19.9559 1.95985 19.9568 1.95526 19.9568H0.331992C0.324486 19.9568 0.317287 19.9539 0.311979 19.9486C0.306671 19.9432 0.303689 19.936 0.303689 19.9285L0.302856 12.4668C0.302856 12.4534 0.308206 12.4404 0.317729 12.4309C0.327252 12.4214 0.340168 12.416 0.353636 12.416H1.95526C1.96431 12.416 1.97299 12.4196 1.97939 12.426C1.98579 12.4324 1.98939 12.4411 1.98939 12.4502V15.336C1.98938 15.3496 1.99462 15.3627 2.00406 15.3726C2.0135 15.3825 2.02641 15.3885 2.04017 15.3893C2.10288 15.3932 2.5782 15.3952 3.46614 15.3952Z" fill="#666666"/>
<path d="M23.4232 12.4718C23.4254 14.1518 23.4254 16.0193 23.4232 18.0743C23.4223 18.3768 23.4348 18.6943 23.8327 18.716C23.9676 18.7232 24.1047 18.6996 24.244 18.6452C24.2502 18.6427 24.2569 18.6418 24.2635 18.6426C24.2702 18.6433 24.2765 18.6457 24.282 18.6495C24.2875 18.6533 24.292 18.6584 24.2951 18.6643C24.2982 18.6702 24.2998 18.6768 24.2997 18.6835V19.9135C24.2998 19.9347 24.2925 19.9552 24.2792 19.9716C24.2658 19.988 24.2472 19.9993 24.2265 20.0035C23.9607 20.058 23.7345 20.0813 23.548 20.0735C22.8663 20.0443 22.2195 19.9085 21.9331 19.2268C21.8332 18.9896 21.7871 18.5827 21.7949 18.006C21.8038 17.3882 21.8049 15.5355 21.7982 12.4477C21.7982 12.4393 21.8016 12.4312 21.8075 12.4253C21.8134 12.4194 21.8215 12.416 21.8299 12.416H23.3666C23.3816 12.416 23.396 12.4219 23.4066 12.4324C23.4172 12.4428 23.4232 12.457 23.4232 12.4718Z" fill="#666666"/>
<path d="M42.0299 17.5802V19.9227C42.0299 19.9317 42.0263 19.9404 42.0197 19.9468C42.0131 19.9532 42.0042 19.9568 41.995 19.9568H40.3834C40.3782 19.9568 40.3731 19.9559 40.3684 19.9539C40.3636 19.952 40.3593 19.9492 40.3557 19.9456C40.3521 19.9421 40.3492 19.9378 40.3472 19.9332C40.3452 19.9285 40.3442 19.9235 40.3442 19.9185V12.4427C40.3442 12.4366 40.3467 12.4308 40.351 12.4265C40.3554 12.4221 40.3613 12.4196 40.3675 12.4193C41.367 12.4138 42.3363 12.4152 43.2753 12.4235C44.906 12.4385 46.0498 13.3177 46.0315 15.026C46.014 16.6102 44.946 17.456 43.401 17.5127C43.2778 17.5177 42.8396 17.5216 42.0865 17.5243C42.0791 17.5243 42.0717 17.5258 42.0649 17.5286C42.058 17.5314 42.0518 17.5355 42.0465 17.5407C42.0413 17.5459 42.0371 17.552 42.0342 17.5588C42.0314 17.5656 42.0299 17.5729 42.0299 17.5802ZM42.0283 13.8677L42.0316 16.0743C42.0316 16.083 42.035 16.0912 42.0411 16.0973C42.0472 16.1034 42.0555 16.1068 42.0641 16.1068L43.2295 16.1052C43.5198 16.1047 43.7981 15.9916 44.003 15.7906C44.208 15.5896 44.3229 15.3173 44.3225 15.0335V14.9018C44.3223 14.7613 44.2938 14.6222 44.2385 14.4925C44.1833 14.3628 44.1025 14.2449 44.0007 14.1457C43.8989 14.0465 43.7781 13.9679 43.6452 13.9143C43.5123 13.8607 43.3699 13.8333 43.2262 13.8335L42.0607 13.8352C42.0521 13.8352 42.0439 13.8386 42.0378 13.8447C42.0317 13.8508 42.0283 13.8591 42.0283 13.8677Z" fill="#666666"/>
<path d="M60.655 14.5846H62.5072C62.5125 14.5845 62.5176 14.586 62.5221 14.5887C62.5266 14.5915 62.5302 14.5955 62.5324 14.6002C62.5347 14.6049 62.5356 14.6102 62.535 14.6154C62.5343 14.6207 62.5322 14.6256 62.5289 14.6296L60.5601 17.0705C60.5564 17.075 60.5543 17.0806 60.554 17.0864C60.5537 17.0923 60.5553 17.0981 60.5585 17.103L62.5264 19.9146C62.5293 19.9188 62.531 19.9236 62.5313 19.9286C62.5317 19.9336 62.5306 19.9387 62.5283 19.9431C62.526 19.9476 62.5225 19.9514 62.5182 19.954C62.5139 19.9566 62.5089 19.958 62.5039 19.958H60.6417C60.6371 19.958 60.6325 19.9569 60.6285 19.9547C60.6244 19.9525 60.6209 19.9493 60.6184 19.9455L59.0817 17.6346C59.0784 17.6299 59.0737 17.6263 59.0682 17.6244C59.0628 17.6226 59.0569 17.6224 59.0513 17.6241C59.0458 17.6258 59.0409 17.6291 59.0374 17.6337C59.0339 17.6383 59.0319 17.6439 59.0318 17.6496V19.9305C59.0318 19.9378 59.0289 19.9448 59.0237 19.9499C59.0186 19.9551 59.0116 19.958 59.0043 19.958H57.4152C57.4079 19.958 57.4009 19.9551 57.3957 19.9499C57.3906 19.9448 57.3877 19.9378 57.3877 19.9305V12.4455C57.3877 12.4419 57.3884 12.4383 57.3898 12.4349C57.3912 12.4316 57.3932 12.4286 57.3957 12.426C57.3983 12.4235 57.4013 12.4214 57.4047 12.4201C57.408 12.4187 57.4116 12.418 57.4152 12.418H59.0043C59.0079 12.418 59.0115 12.4187 59.0148 12.4201C59.0181 12.4214 59.0212 12.4235 59.0237 12.426C59.0263 12.4286 59.0283 12.4316 59.0297 12.4349C59.0311 12.4383 59.0318 12.4419 59.0318 12.4455V16.5955C59.0318 16.6012 59.0337 16.6067 59.037 16.6113C59.0403 16.616 59.045 16.6194 59.0504 16.6212C59.0558 16.6231 59.0616 16.6232 59.0671 16.6216C59.0726 16.6199 59.0774 16.6166 59.0809 16.6121L60.6334 14.5955C60.6359 14.5921 60.6392 14.5894 60.643 14.5875C60.6467 14.5857 60.6508 14.5847 60.655 14.5846Z" fill="#666666"/>
<path d="M76.5489 15.0168C76.5511 15.0189 76.5538 15.0203 76.5568 15.0209C76.5598 15.0214 76.5629 15.0211 76.5657 15.02C76.5685 15.0188 76.5709 15.0169 76.5726 15.0144C76.5744 15.012 76.5754 15.009 76.5755 15.006V12.4435C76.5755 12.4362 76.5783 12.4292 76.5833 12.4241C76.5883 12.4189 76.5951 12.416 76.6022 12.416H78.193C78.2 12.416 78.2068 12.4189 78.2118 12.4241C78.2168 12.4292 78.2196 12.4362 78.2196 12.4435V19.9085C78.2196 19.9216 78.2145 19.9341 78.2055 19.9433C78.1964 19.9525 78.1841 19.9577 78.1713 19.9577H76.6671C76.6541 19.9577 76.6416 19.9524 76.6324 19.943C76.6231 19.9337 76.618 19.9209 76.618 19.9077V19.5135C76.6179 19.5082 76.6163 19.5031 76.6133 19.4987C76.6103 19.4943 76.6061 19.4909 76.6012 19.489C76.5963 19.487 76.5909 19.4865 76.5858 19.4876C76.5806 19.4888 76.5759 19.4914 76.5722 19.4952C76.3252 19.7518 76.0186 19.921 75.6523 20.0027C73.3523 20.5177 72.3883 18.221 72.8287 16.3727C73.0718 15.351 73.8359 14.4943 74.9464 14.4702C75.5616 14.4577 76.0994 14.5827 76.5489 15.0168ZM74.3903 17.2702C74.3903 17.4346 74.3942 17.5388 74.402 17.5827C74.5518 18.4232 75.0458 18.7707 75.8838 18.6252C76.139 18.5813 76.3602 18.4246 76.5472 18.1552C76.5618 18.134 76.5696 18.1087 76.5697 18.0827C76.573 17.8082 76.575 17.538 76.5755 17.2718C76.5755 17.0057 76.5741 16.7355 76.5714 16.461C76.5713 16.435 76.5634 16.4097 76.5489 16.3885C76.3624 16.1185 76.1415 15.9613 75.8862 15.9168C75.0488 15.7702 74.5543 16.1168 74.4028 16.9568C74.3945 17.0007 74.3903 17.1052 74.3903 17.2702Z" fill="#666666"/>
<path d="M37.6379 18.6942V19.8767C37.638 19.8904 37.6336 19.9038 37.6255 19.9147C37.6174 19.9257 37.606 19.9337 37.593 19.9375C37.0724 20.0897 36.5427 20.1153 36.0038 20.0142C35.0607 19.8367 34.7968 19.0425 34.8068 18.1842C34.8084 18.0281 34.8084 17.2667 34.8068 15.9C34.8068 15.8931 34.8041 15.8866 34.7992 15.8817C34.7944 15.8769 34.7878 15.8742 34.781 15.8742H32.7814C32.777 15.8742 32.7725 15.8751 32.7684 15.8768C32.7642 15.8786 32.7605 15.8812 32.7573 15.8844C32.7541 15.8877 32.7516 15.8915 32.7499 15.8958C32.7482 15.9 32.7473 15.9046 32.7473 15.9092C32.7479 16.8353 32.7473 17.39 32.7457 17.5733C32.7415 18.2117 32.7049 18.7558 33.4715 18.7183C33.5426 18.715 33.6877 18.6939 33.9069 18.655C33.913 18.654 33.9191 18.6544 33.925 18.656C33.9309 18.6576 33.9364 18.6604 33.9411 18.6643C33.9457 18.6682 33.9495 18.673 33.9521 18.6784C33.9547 18.6839 33.956 18.6898 33.956 18.6958V19.8717C33.956 19.8879 33.9506 19.9037 33.9406 19.9165C33.9307 19.9293 33.9168 19.9384 33.9011 19.9425C33.3062 20.0992 32.7495 20.1167 32.2312 19.995C31.3188 19.7808 31.1224 18.9825 31.1232 18.1683C31.1243 16.7094 31.1249 15.9619 31.1249 15.9258C31.1247 15.9121 31.1191 15.8989 31.1095 15.8893C31.0998 15.8796 31.0868 15.8742 31.0733 15.8742H30.3391C30.3327 15.8742 30.3264 15.8729 30.3206 15.8706C30.3147 15.8682 30.3094 15.8647 30.3049 15.8603C30.3004 15.8558 30.2969 15.8506 30.2944 15.8448C30.292 15.8391 30.2908 15.8329 30.2908 15.8267V14.635C30.2908 14.6213 30.2963 14.6082 30.3061 14.5985C30.316 14.5888 30.3293 14.5833 30.3432 14.5833H31.0741C31.0807 14.5833 31.0872 14.582 31.0932 14.5795C31.0993 14.577 31.1048 14.5733 31.1094 14.5687C31.1141 14.564 31.1177 14.5585 31.1202 14.5525C31.1228 14.5464 31.124 14.5399 31.124 14.5333V13.1708C31.124 13.1587 31.1289 13.147 31.1375 13.1384C31.146 13.1298 31.1577 13.125 31.1698 13.125H32.7198C32.7271 13.125 32.7341 13.1278 32.7393 13.1328C32.7444 13.1378 32.7473 13.1446 32.7473 13.1517V14.5567C32.7473 14.5637 32.7501 14.5705 32.7551 14.5755C32.7601 14.5805 32.7669 14.5833 32.774 14.5833H34.7743C34.7831 14.5833 34.7916 14.5798 34.7979 14.5736C34.8041 14.5673 34.8076 14.5588 34.8076 14.55V13.1758C34.8076 13.1624 34.813 13.1494 34.8227 13.1399C34.8324 13.1304 34.8455 13.125 34.8592 13.125H36.4067C36.4189 13.125 36.4305 13.1298 36.4391 13.1384C36.4477 13.147 36.4525 13.1587 36.4525 13.1708V14.5358C36.4525 14.5484 36.4575 14.5605 36.4664 14.5694C36.4753 14.5783 36.4874 14.5833 36.5 14.5833H37.5888C37.6018 14.5833 37.6143 14.5886 37.6235 14.598C37.6327 14.6074 37.6379 14.6201 37.6379 14.6333V15.8233C37.6379 15.837 37.6325 15.8502 37.6228 15.8599C37.6131 15.8696 37.6 15.875 37.5863 15.875H36.5033C36.4909 15.875 36.4789 15.8799 36.47 15.8886C36.4612 15.8973 36.4561 15.9092 36.4559 15.9217C36.4492 16.8361 36.4509 17.6044 36.4608 18.2267C36.4642 18.435 36.5768 18.5842 36.7988 18.6742C36.9709 18.7442 37.2322 18.7361 37.583 18.65C37.5895 18.6483 37.5963 18.6482 37.6029 18.6497C37.6095 18.6511 37.6157 18.6541 37.621 18.6584C37.6263 18.6626 37.6306 18.6681 37.6335 18.6743C37.6365 18.6805 37.638 18.6873 37.6379 18.6942Z" fill="#666666"/>
<path d="M9.1825 17.7409C9.17782 17.7408 9.1732 17.7419 9.169 17.7439C9.16479 17.746 9.16113 17.749 9.1583 17.7527C9.15547 17.7564 9.15355 17.7608 9.15269 17.7654C9.15183 17.77 9.15206 17.7747 9.15336 17.7792C9.41808 18.6775 10.2089 18.8534 11.0505 18.7534C11.4284 18.7084 11.7919 18.5748 12.141 18.3525C12.1499 18.3469 12.1602 18.3437 12.1708 18.3434C12.1814 18.3431 12.1919 18.3456 12.2011 18.3507C12.2104 18.3558 12.2181 18.3633 12.2235 18.3724C12.2289 18.3815 12.2317 18.3919 12.2317 18.4025L12.2259 19.5709C12.2258 19.5855 12.2219 19.5998 12.2146 19.6125C12.2073 19.6252 12.1969 19.6358 12.1843 19.6434C11.8058 19.8706 11.3826 20.005 10.9148 20.0467C10.4908 20.0856 10.1376 20.082 9.85511 20.0359C8.18606 19.765 7.41605 18.5184 7.56672 16.9209C7.68077 15.7184 8.46243 14.7492 9.66781 14.5117C10.283 14.3917 11.1029 14.485 11.6623 14.88C12.5872 15.5317 12.6654 16.6859 12.6238 17.7142C12.6234 17.7261 12.6184 17.7373 12.6098 17.7455C12.6013 17.7538 12.5899 17.7584 12.578 17.7584L9.1825 17.7409ZM9.20747 16.6534L11.1071 16.6367C11.1111 16.6367 11.1149 16.6351 11.1177 16.6323C11.1205 16.6295 11.1221 16.6257 11.1221 16.6217L11.1213 16.61C11.1191 16.3732 11.0202 16.1469 10.8463 15.981C10.6724 15.815 10.4378 15.723 10.1939 15.725H10.104C9.86009 15.7273 9.62703 15.8236 9.45609 15.9926C9.28515 16.1617 9.19033 16.3898 9.19249 16.6267V16.6384C9.19249 16.6423 9.19406 16.6462 9.19687 16.649C9.19968 16.6518 9.2035 16.6534 9.20747 16.6534Z" fill="#666666"/>
<path d="M26.3625 17.7498C26.3578 17.7498 26.3532 17.7508 26.349 17.7529C26.3448 17.7549 26.3411 17.7579 26.3383 17.7617C26.3354 17.7654 26.3335 17.7697 26.3327 17.7743C26.3318 17.7789 26.332 17.7837 26.3333 17.7882C26.603 18.6857 27.3947 18.8573 28.2363 18.7532C28.6142 18.7059 28.9772 18.5704 29.3251 18.3465C29.3341 18.3406 29.3445 18.3373 29.3552 18.3368C29.3659 18.3364 29.3765 18.3389 29.3859 18.344C29.3953 18.3491 29.4031 18.3567 29.4086 18.366C29.414 18.3752 29.4168 18.3858 29.4167 18.3965V19.5648C29.4167 19.5795 29.4129 19.594 29.4056 19.6069C29.3983 19.6198 29.3878 19.6305 29.3751 19.6382C28.9977 19.867 28.5751 20.0037 28.1073 20.0482C27.6833 20.0887 27.3298 20.0868 27.0467 20.0423C25.3752 19.7798 24.5985 18.5365 24.7417 16.9373C24.8499 15.7332 25.6266 14.7598 26.832 14.5165C27.4463 14.3932 28.2671 14.4823 28.829 14.8748C29.758 15.5223 29.8421 16.6765 29.8055 17.7057C29.805 17.7175 29.8 17.7288 29.7915 17.737C29.7829 17.7452 29.7715 17.7498 29.7597 17.7498H26.3625ZM26.3833 16.6548L28.2813 16.6382C28.2855 16.6382 28.2895 16.6365 28.2924 16.6335C28.2954 16.6306 28.2971 16.6265 28.2971 16.6223L28.2962 16.609C28.2953 16.492 28.2707 16.3763 28.2238 16.2686C28.1769 16.1609 28.1087 16.0632 28.0231 15.9812C27.9374 15.8992 27.836 15.8344 27.7246 15.7905C27.6132 15.7467 27.4941 15.7246 27.3739 15.7257L27.274 15.7273C27.0315 15.7296 26.7999 15.8255 26.6299 15.9939C26.4599 16.1623 26.3655 16.3896 26.3675 16.6257V16.639C26.3675 16.6432 26.3691 16.6472 26.3721 16.6502C26.3751 16.6532 26.3791 16.6548 26.3833 16.6548Z" fill="#666666"/>
<path d="M49.5619 19.5187C49.4842 19.5787 49.4145 19.6337 49.3529 19.6837C48.7919 20.1395 47.8762 20.132 47.2535 19.8704C46.491 19.5495 46.133 18.7995 46.2546 17.9929C46.3603 17.292 46.8881 16.8187 47.5482 16.632C48.1132 16.472 48.72 16.4812 49.3688 16.6595C49.3968 16.6671 49.4264 16.667 49.4544 16.6592C49.4823 16.6515 49.5077 16.6363 49.5279 16.6154C49.548 16.5944 49.5622 16.5685 49.5689 16.5402C49.5756 16.5119 49.5746 16.4823 49.566 16.4545L49.5219 16.3145C49.4861 16.2015 49.4207 16.1002 49.3325 16.0214C49.2443 15.9425 49.1367 15.8889 49.0208 15.8662C48.2394 15.7118 47.5113 15.8284 46.8365 16.2162C46.8303 16.2199 46.8232 16.2218 46.816 16.2219C46.8088 16.222 46.8018 16.2201 46.7955 16.2166C46.7893 16.213 46.7841 16.2079 46.7804 16.2017C46.7768 16.1955 46.7749 16.1884 46.7749 16.1812V14.9354C46.7749 14.9244 46.7779 14.9137 46.7837 14.9046C46.7894 14.8954 46.7976 14.8882 46.8073 14.8837C47.5476 14.5359 48.3346 14.4068 49.1681 14.4962C50.3119 14.6179 51.1735 15.252 51.1993 16.4837C51.211 17.0309 51.2137 18.1718 51.2076 19.9062C51.2076 19.9199 51.2021 19.933 51.1923 19.9427C51.1824 19.9524 51.1691 19.9579 51.1552 19.9579H49.6568C49.6438 19.9579 49.6313 19.9528 49.6221 19.9437C49.6128 19.9346 49.6077 19.9223 49.6077 19.9095V19.5412C49.6077 19.5359 49.6062 19.5306 49.6034 19.5261C49.6006 19.5216 49.5966 19.5179 49.5918 19.5155C49.5871 19.5132 49.5817 19.5122 49.5764 19.5128C49.5711 19.5134 49.5661 19.5154 49.5619 19.5187ZM49.4986 17.7787C49.0691 17.6187 47.8712 17.4412 47.8512 18.2112C47.8401 18.6156 48.0668 18.8354 48.5313 18.8704C48.9897 18.9054 49.3255 18.7243 49.5386 18.327C49.5735 18.2604 49.5791 18.1023 49.5552 17.8529C49.5537 17.8364 49.5476 17.8207 49.5376 17.8076C49.5276 17.7945 49.5141 17.7845 49.4986 17.7787Z" fill="#666666"/>
<path d="M53.6617 17.272C53.6617 18.8078 55.3233 19.0345 56.3147 18.2911C56.3216 18.2859 56.3298 18.2826 56.3384 18.2818C56.347 18.2809 56.3557 18.2825 56.3635 18.2863C56.3713 18.2901 56.3778 18.296 56.3825 18.3033C56.3871 18.3107 56.3896 18.3191 56.3896 18.3278V19.6336C56.3896 19.6465 56.3864 19.6591 56.3803 19.6703C56.3742 19.6815 56.3654 19.691 56.3547 19.6978C56.0561 19.8889 55.7076 20.0061 55.3091 20.0495C53.5094 20.2453 51.9977 19.1878 51.9968 17.2728C51.996 15.357 53.5069 14.2986 55.3075 14.4936C55.7059 14.5364 56.0544 14.6534 56.353 14.8445C56.3637 14.8513 56.3725 14.8608 56.3786 14.872C56.3847 14.8832 56.3879 14.8958 56.388 14.9086L56.3888 16.2145C56.3886 16.223 56.3861 16.2313 56.3815 16.2385C56.3769 16.2457 56.3705 16.2515 56.3629 16.2553C56.3552 16.2591 56.3467 16.2607 56.3382 16.2599C56.3297 16.2592 56.3216 16.2562 56.3147 16.2511C55.3224 15.5086 53.6609 15.7361 53.6617 17.272Z" fill="#666666"/>
<path d="M66.1475 19.5415C66.1475 19.5362 66.146 19.531 66.1432 19.5264C66.1404 19.5219 66.1364 19.5182 66.1316 19.5159C66.1268 19.5135 66.1215 19.5126 66.1162 19.5131C66.1109 19.5137 66.1059 19.5157 66.1017 19.519C66.024 19.579 65.9543 19.634 65.8927 19.684C65.3317 20.139 64.416 20.1315 63.7933 19.869C63.0308 19.5482 62.6737 18.7974 62.796 17.9915C62.9018 17.2907 63.4295 16.8174 64.0905 16.6315C64.6554 16.4721 65.262 16.4815 65.9102 16.6599C65.9383 16.6676 65.968 16.6677 65.9961 16.66C66.0242 16.6523 66.0498 16.6372 66.07 16.6162C66.0903 16.5952 66.1045 16.5692 66.1113 16.5408C66.118 16.5124 66.117 16.4827 66.1083 16.4549L66.0642 16.3149C66.0285 16.2019 65.9631 16.1006 65.8749 16.0217C65.7867 15.9428 65.679 15.8892 65.5631 15.8665C64.7817 15.7115 64.0536 15.8277 63.3788 16.2149C63.3726 16.2185 63.3655 16.2205 63.3583 16.2206C63.3511 16.2207 63.3441 16.2188 63.3378 16.2153C63.3316 16.2117 63.3264 16.2066 63.3227 16.2004C63.3191 16.1941 63.3172 16.1871 63.3172 16.1799L63.318 14.934C63.318 14.9231 63.3211 14.9124 63.3268 14.9032C63.3326 14.8941 63.3408 14.8868 63.3504 14.8824C64.0908 14.5352 64.8777 14.4065 65.7113 14.4965C66.855 14.619 67.7158 15.254 67.7408 16.4857C67.7524 17.0329 67.7546 18.1735 67.7474 19.9074C67.7474 19.9211 67.7419 19.9342 67.7321 19.9439C67.7222 19.9536 67.7089 19.959 67.695 19.959L66.1966 19.9582C66.1836 19.9582 66.1711 19.9531 66.1618 19.944C66.1526 19.935 66.1475 19.9227 66.1475 19.9099V19.5415ZM66.0376 17.7782C65.6072 17.6182 64.4068 17.4415 64.3877 18.2132C64.3771 18.6182 64.6047 18.8382 65.0703 18.8732C65.5292 18.9077 65.8653 18.7257 66.0784 18.3274C66.1133 18.2607 66.1186 18.1024 66.0942 17.8524C66.0927 17.8359 66.0866 17.8202 66.0766 17.8071C66.0666 17.794 66.053 17.784 66.0376 17.7782Z" fill="#666666"/>
<path d="M70.4921 15.3536C70.8717 14.6786 71.4885 14.3669 72.2585 14.6002C72.2732 14.6046 72.286 14.6135 72.2952 14.6258C72.3043 14.6382 72.3093 14.6531 72.3093 14.6686V16.1261C72.3093 16.133 72.3077 16.1398 72.3045 16.1459C72.3014 16.152 72.2968 16.1573 72.2912 16.1612C72.2857 16.1651 72.2792 16.1676 72.2725 16.1685C72.2658 16.1693 72.259 16.1685 72.2527 16.1661C71.5585 15.9094 70.7768 15.9919 70.5345 16.8027C70.5246 16.837 70.5196 16.8726 70.5196 16.9086V19.9252C70.5196 19.9341 70.5161 19.9426 70.5098 19.9488C70.5036 19.9551 70.4951 19.9586 70.4863 19.9586H68.9096C68.9006 19.9586 68.8919 19.9549 68.8855 19.9483C68.8791 19.9418 68.8755 19.9329 68.8755 19.9236V14.6377C68.8755 14.6234 68.8811 14.6096 68.8911 14.5994C68.9011 14.5893 68.9146 14.5836 68.9288 14.5836H70.4072C70.4204 14.5836 70.4331 14.5888 70.4425 14.5982C70.4519 14.6076 70.4571 14.6203 70.4571 14.6336V15.3444C70.4567 15.3487 70.4579 15.3531 70.4604 15.3566C70.4629 15.3602 70.4665 15.3628 70.4707 15.3639C70.4749 15.365 70.4794 15.3645 70.4833 15.3626C70.4872 15.3608 70.4903 15.3576 70.4921 15.3536Z" fill="#666666"/>
<path d="M16.9459 16.9157L16.1334 19.9082C16.1296 19.9227 16.1211 19.9355 16.1092 19.9447C16.0973 19.9539 16.0827 19.9589 16.0677 19.959H14.6783C14.6676 19.9589 14.6572 19.9554 14.6485 19.949C14.6398 19.9426 14.6334 19.9335 14.63 19.9232L12.9702 14.654C12.9675 14.646 12.9669 14.6375 12.9682 14.6291C12.9696 14.6208 12.9729 14.6129 12.9779 14.6061C12.983 14.5993 12.9896 14.5937 12.9972 14.5899C13.0048 14.586 13.0132 14.584 13.0218 14.584H14.5393C14.5532 14.584 14.5668 14.5886 14.5779 14.597C14.589 14.6054 14.5971 14.6172 14.6009 14.6307L15.4716 17.6707C15.4724 17.6731 15.474 17.6752 15.476 17.6767C15.4781 17.6782 15.4806 17.6789 15.4832 17.6788C15.4858 17.6787 15.4882 17.6778 15.4902 17.6762C15.4922 17.6745 15.4935 17.6723 15.4941 17.6698L16.3191 14.6323C16.3229 14.6184 16.3311 14.6062 16.3426 14.5975C16.354 14.5888 16.368 14.584 16.3823 14.584H17.5877C17.6007 14.584 17.6133 14.5883 17.6237 14.5961C17.634 14.6039 17.6416 14.6148 17.6452 14.6273L18.5092 17.644C18.5101 17.6462 18.5116 17.648 18.5135 17.6493C18.5154 17.6506 18.5177 17.6513 18.5201 17.6513C18.5224 17.6513 18.5247 17.6506 18.5266 17.6493C18.5285 17.648 18.53 17.6462 18.5309 17.644L19.4091 14.6207C19.4122 14.6101 19.4185 14.6008 19.4273 14.5941C19.436 14.5875 19.4465 14.584 19.4574 14.584H20.9291C20.937 14.584 20.9447 14.5859 20.9517 14.5894C20.9586 14.593 20.9647 14.5982 20.9693 14.6045C20.9739 14.6108 20.977 14.6181 20.9782 14.6259C20.9795 14.6336 20.9789 14.6415 20.9766 14.649L19.3167 19.9198C19.313 19.9312 19.3059 19.9411 19.2963 19.9482C19.2867 19.9552 19.2752 19.959 19.2634 19.959H17.9074C17.8886 19.959 17.8703 19.9529 17.8553 19.9417C17.8403 19.9304 17.8294 19.9145 17.8241 19.8965L16.9709 16.9157C16.97 16.9129 16.9682 16.9104 16.9658 16.9087C16.9635 16.9069 16.9606 16.9059 16.9578 16.9059C16.9549 16.9059 16.9522 16.9069 16.95 16.9087C16.9479 16.9104 16.9464 16.9129 16.9459 16.9157Z" fill="#666666"/>
<path d="M4.65404 26.4997H1.42582C1.41501 26.4997 1.40463 26.504 1.39698 26.5117C1.38933 26.5193 1.38503 26.5297 1.38503 26.5405V28.938C1.38503 28.9434 1.38609 28.9487 1.38814 28.9537C1.39019 28.9586 1.39319 28.9631 1.39698 28.9669C1.40077 28.9707 1.40527 28.9737 1.41021 28.9758C1.41516 28.9778 1.42047 28.9789 1.42582 28.9789H5.00783C5.01865 28.9789 5.02902 28.9832 5.03667 28.9908C5.04432 28.9985 5.04862 29.0089 5.04862 29.0197V29.8755C5.04862 29.8864 5.04432 29.8968 5.03667 29.9044C5.02902 29.9121 5.01865 29.9164 5.00783 29.9164H0.343646C0.332828 29.9164 0.322453 29.9121 0.314803 29.9044C0.307154 29.8968 0.302856 29.8864 0.302856 29.8755V22.4139C0.302856 22.403 0.307154 22.3927 0.314803 22.385C0.322453 22.3773 0.332828 22.373 0.343646 22.373H5.007C5.01235 22.373 5.01766 22.3741 5.02261 22.3762C5.02756 22.3782 5.03205 22.3812 5.03584 22.385C5.03963 22.3888 5.04263 22.3933 5.04468 22.3983C5.04673 22.4032 5.04779 22.4085 5.04779 22.4139V23.2722C5.04779 23.2776 5.04673 23.2829 5.04468 23.2878C5.04263 23.2928 5.03963 23.2973 5.03584 23.3011C5.03205 23.3049 5.02756 23.3079 5.02261 23.3099C5.01766 23.312 5.01235 23.313 5.007 23.313H1.42582C1.41501 23.313 1.40463 23.3173 1.39698 23.325C1.38933 23.3327 1.38503 23.343 1.38503 23.3539V25.5422C1.38503 25.553 1.38933 25.5634 1.39698 25.5711C1.40463 25.5787 1.41501 25.583 1.42582 25.583H4.65404C4.66486 25.583 4.67523 25.5873 4.68288 25.595C4.69053 25.6027 4.69483 25.613 4.69483 25.6239V26.4589C4.69483 26.4697 4.69053 26.4801 4.68288 26.4878C4.67523 26.4954 4.66486 26.4997 4.65404 26.4997Z" fill="#666666"/>
<path d="M35.8693 23.7368C36.2343 23.7304 36.5252 23.441 36.5191 23.0903C36.513 22.7397 36.2121 22.4606 35.8471 22.467C35.4822 22.4733 35.1912 22.7628 35.1973 23.1134C35.2035 23.4641 35.5043 23.7432 35.8693 23.7368Z" fill="#666666"/>
<path d="M13.5529 23.209C13.5565 23.209 13.56 23.2097 13.5634 23.2111C13.5667 23.2125 13.5697 23.2145 13.5723 23.217C13.5748 23.2196 13.5769 23.2226 13.5782 23.226C13.5796 23.2293 13.5803 23.2329 13.5803 23.2365V24.5698C13.5803 24.5791 13.584 24.588 13.5906 24.5946C13.5971 24.6011 13.606 24.6048 13.6153 24.6048H14.9047C14.918 24.6048 14.9307 24.61 14.9401 24.6192C14.9494 24.6284 14.9547 24.6409 14.9547 24.654V25.4315C14.9547 25.4445 14.9495 25.457 14.9403 25.4663C14.9311 25.4755 14.9186 25.4807 14.9056 25.4807H13.6086C13.6009 25.4807 13.5935 25.4837 13.588 25.4892C13.5826 25.4947 13.5795 25.5021 13.5795 25.5098C13.5823 26.0509 13.5814 26.9298 13.577 28.1465C13.5753 28.4715 13.6092 28.6876 13.6786 28.7948C13.9191 29.1665 14.5052 29.1515 14.9064 29.0407C14.9121 29.0391 14.918 29.0389 14.9237 29.04C14.9295 29.0412 14.9349 29.0436 14.9395 29.0471C14.9442 29.0507 14.948 29.0552 14.9506 29.0605C14.9532 29.0657 14.9546 29.0715 14.9547 29.0773V29.8332C14.9547 29.8597 14.9458 29.8856 14.9293 29.9066C14.9129 29.9275 14.8899 29.9425 14.864 29.949C14.4938 30.0412 14.1045 30.047 13.696 29.9665C12.9457 29.8187 12.562 29.3504 12.5448 28.5615C12.537 28.2187 12.5359 27.2093 12.5414 25.5332C12.5414 25.5192 12.5359 25.5059 12.5261 25.496C12.5162 25.4862 12.5029 25.4807 12.489 25.4807H11.6466C11.6351 25.4807 11.6241 25.476 11.6159 25.4677C11.6078 25.4594 11.6033 25.4482 11.6033 25.4365V24.654C11.6033 24.6409 11.6084 24.6284 11.6177 24.6192C11.6269 24.61 11.6394 24.6048 11.6524 24.6048H12.4907C12.5035 24.6048 12.5157 24.5996 12.5248 24.5904C12.5339 24.5812 12.5389 24.5687 12.5389 24.5557V23.259C12.5389 23.2457 12.5443 23.233 12.5538 23.2236C12.5633 23.2143 12.5763 23.209 12.5897 23.209H13.5529Z" fill="#666666"/>
<path d="M7.33873 25.2759C7.33873 25.2794 7.33983 25.2828 7.34187 25.2857C7.34391 25.2885 7.3468 25.2906 7.35011 25.2917C7.35343 25.2928 7.35701 25.2929 7.36034 25.2918C7.36368 25.2908 7.3666 25.2887 7.3687 25.2859C7.85373 24.6542 8.5097 24.4015 9.33659 24.5276C9.86769 24.6084 10.3097 24.8792 10.5636 25.3551C10.7345 25.6751 10.8217 25.9762 10.825 26.2584C10.8367 27.2901 10.8386 28.494 10.8308 29.8701C10.8308 29.8825 10.8259 29.8943 10.8172 29.9031C10.8084 29.9118 10.7966 29.9167 10.7842 29.9167H9.85021C9.8352 29.9167 9.8208 29.9108 9.81019 29.9001C9.79957 29.8895 9.79361 29.8751 9.79361 29.8601C9.79083 28.7301 9.79222 27.7326 9.79777 26.8676C9.8011 26.452 9.76059 26.1581 9.67623 25.9859C9.4831 25.5909 9.12044 25.4092 8.58823 25.4409C8.1043 25.4698 7.72637 25.697 7.45444 26.1226C7.38007 26.2387 7.34234 26.3506 7.34123 26.4584C7.33346 27.1151 7.33318 28.2495 7.34039 29.8617C7.34039 29.8763 7.3346 29.8903 7.3243 29.9006C7.314 29.9109 7.30002 29.9167 7.28545 29.9167H6.34895C6.33504 29.9167 6.3217 29.9112 6.31187 29.9014C6.30203 29.8915 6.29651 29.8782 6.29651 29.8642V24.6567C6.29651 24.6426 6.30203 24.629 6.31187 24.619C6.3217 24.609 6.33504 24.6034 6.34895 24.6034H7.28462C7.29897 24.6034 7.31273 24.6092 7.32288 24.6195C7.33303 24.6298 7.33873 24.6438 7.33873 24.6584V25.2759Z" fill="#666666"/>
<path d="M19.9477 28.6974V29.4999C19.9477 29.5151 19.944 29.5301 19.9369 29.5436C19.9298 29.5571 19.9195 29.5687 19.9069 29.5774C19.6711 29.7407 19.4222 29.8538 19.1602 29.9166C17.6235 30.2849 15.952 29.7049 15.6457 27.9691C15.2985 26.0082 16.4756 24.1124 18.6591 24.5632C20.0726 24.8541 20.3881 26.2899 20.314 27.5174C20.3134 27.5296 20.3081 27.541 20.2992 27.5494C20.2904 27.5578 20.2787 27.5624 20.2665 27.5624H16.6529C16.6494 27.5624 16.646 27.5631 16.6428 27.5645C16.6397 27.5659 16.6368 27.5679 16.6345 27.5704C16.6322 27.5729 16.6305 27.5759 16.6296 27.5791C16.6286 27.5824 16.6283 27.5857 16.6288 27.5891C16.7378 28.5574 17.3555 29.0916 18.3103 29.1282C18.6977 29.1427 19.052 29.0835 19.3733 28.9507C19.5473 28.8791 19.7438 28.7432 19.8803 28.6591C19.8869 28.6549 19.8946 28.6527 19.9024 28.6526C19.9102 28.6524 19.918 28.6544 19.9248 28.6583C19.9317 28.6622 19.9374 28.6679 19.9414 28.6748C19.9455 28.6816 19.9476 28.6894 19.9477 28.6974ZM16.7262 26.7282H19.2851C19.2888 26.7282 19.2924 26.7275 19.2958 26.7261C19.2992 26.7246 19.3023 26.7225 19.3048 26.7199C19.3074 26.7172 19.3094 26.7141 19.3107 26.7107C19.3121 26.7072 19.3127 26.7036 19.3126 26.6999C19.3037 26.3727 19.2091 26.0802 19.0287 25.8224C18.6566 25.2882 17.8 25.2366 17.2981 25.6182C16.9701 25.8677 16.7636 26.2188 16.6787 26.6716C16.6775 26.6785 16.6778 26.6856 16.6796 26.6924C16.6815 26.6992 16.6848 26.7056 16.6893 26.7109C16.6938 26.7163 16.6994 26.7207 16.7058 26.7237C16.7122 26.7267 16.7191 26.7282 16.7262 26.7282Z" fill="#666666"/>
<path d="M26.3841 29.398C26.3821 29.3958 26.3794 29.3943 26.3765 29.3937C26.3736 29.3931 26.3706 29.3933 26.3679 29.3944C26.3651 29.3954 26.3627 29.3973 26.361 29.3997C26.3593 29.4021 26.3584 29.405 26.3583 29.408V31.8871C26.3583 31.9004 26.353 31.9131 26.3434 31.9225C26.3339 31.9319 26.321 31.9371 26.3075 31.9371H25.3702C25.3563 31.9371 25.3429 31.9317 25.3331 31.922C25.3233 31.9123 25.3177 31.8992 25.3177 31.8855V24.6313C25.3177 24.6238 25.3207 24.6166 25.326 24.6113C25.3313 24.606 25.3385 24.603 25.3461 24.603H26.3067C26.3204 24.603 26.3335 24.6085 26.3432 24.6183C26.3529 24.6282 26.3583 24.6415 26.3583 24.6555V25.0988C26.3584 25.1032 26.3598 25.1075 26.3623 25.1112C26.3648 25.1148 26.3682 25.1177 26.3722 25.1194C26.3762 25.1211 26.3806 25.1215 26.3848 25.1207C26.389 25.1198 26.3928 25.1177 26.3958 25.1146C26.9696 24.5535 27.6688 24.373 28.4935 24.573C29.4234 24.7988 30.0302 25.553 30.2317 26.4763C30.5896 28.1121 29.8246 29.978 27.915 30.0196C27.3356 30.033 26.782 29.8096 26.3841 29.398ZM26.3583 27.2571C26.3572 27.8494 26.3577 28.176 26.36 28.2371C26.3605 28.2617 26.3665 28.2857 26.3775 28.3071C26.6463 28.8446 27.2856 29.1713 27.8883 29.0855C28.8157 28.9538 29.2494 28.1596 29.251 27.263C29.2527 26.3655 28.8223 25.5705 27.8958 25.4346C27.2931 25.3463 26.6522 25.6705 26.3816 26.2071C26.3704 26.2285 26.3641 26.2525 26.3633 26.2771C26.3611 26.3382 26.3594 26.6649 26.3583 27.2571Z" fill="#666666"/>
<path d="M37.7212 28.5756C37.7211 28.5708 37.7224 28.5662 37.725 28.5622C37.7275 28.5582 37.7312 28.5551 37.7355 28.5531C37.7399 28.551 37.7448 28.5503 37.7496 28.5509C37.7544 28.5515 37.759 28.5534 37.7628 28.5564C38.1602 28.8825 38.6225 29.0742 39.1497 29.1314C39.4 29.1586 39.605 29.1631 39.7648 29.1447C40.2601 29.0872 40.8121 28.8239 40.5523 28.2222C40.5398 28.1922 40.5197 28.1658 40.4941 28.1456C40.3204 28.0078 40.1339 27.9084 39.9347 27.8472C39.7948 27.8039 39.4391 27.6845 38.8675 27.4889C38.2839 27.2889 37.8211 26.9322 37.752 26.2864C37.6554 25.3864 38.2881 24.7156 39.1463 24.5539C39.8414 24.4222 40.7105 24.5056 41.3257 24.9064C41.3379 24.9143 41.348 24.9252 41.355 24.938C41.3619 24.9508 41.3656 24.9652 41.3656 24.9797V25.8814C41.3656 25.8869 41.3641 25.8923 41.3612 25.897C41.3583 25.9017 41.3542 25.9055 41.3493 25.9079C41.3444 25.9104 41.3389 25.9115 41.3334 25.9111C41.3279 25.9107 41.3226 25.9088 41.3182 25.9056C40.7388 25.4814 40.082 25.2739 39.3719 25.3939C38.9882 25.4589 38.6277 25.7706 38.7892 26.1981C38.798 26.2212 38.811 26.243 38.8275 26.2622C38.9363 26.3856 39.0795 26.4806 39.2571 26.5472C39.5512 26.6572 39.925 26.7828 40.3784 26.9239C41.3357 27.2214 41.8693 27.9189 41.5454 28.9306C41.369 29.4822 40.8162 29.8247 40.2668 29.9447C39.5351 30.1047 38.4005 30.0256 37.7587 29.5672C37.7471 29.559 37.7377 29.5481 37.7311 29.5355C37.7246 29.5229 37.7212 29.5089 37.7212 29.4947V28.5756Z" fill="#666666"/>
<path d="M46.7948 28.6605C46.8015 28.6563 46.8091 28.6541 46.8169 28.654C46.8248 28.6538 46.8325 28.6558 46.8394 28.6597C46.8462 28.6636 46.852 28.6693 46.856 28.6762C46.86 28.683 46.8622 28.6908 46.8623 28.6988L46.8614 29.5005C46.8614 29.5157 46.8577 29.5306 46.8506 29.5441C46.8435 29.5576 46.8332 29.5692 46.8207 29.578C46.5848 29.7413 46.3359 29.8544 46.074 29.9171C44.5381 30.2846 42.8674 29.7038 42.5619 27.968C42.2156 26.008 43.3935 24.1138 45.5761 24.5655C46.9888 24.8563 47.3035 26.2921 47.2286 27.5188C47.2279 27.531 47.2226 27.5424 47.2138 27.5508C47.205 27.5592 47.1933 27.5638 47.1811 27.5638L43.5691 27.5621C43.5657 27.5621 43.5622 27.5628 43.559 27.5642C43.5559 27.5656 43.5531 27.5676 43.5508 27.5701C43.5485 27.5727 43.5468 27.5756 43.5458 27.5789C43.5448 27.5821 43.5445 27.5855 43.545 27.5888C43.6532 28.5571 44.27 29.0913 45.2249 29.1288C45.6122 29.1432 45.9666 29.0841 46.2879 28.9513C46.4619 28.8796 46.6583 28.7446 46.7948 28.6605ZM43.6399 26.7296L46.2005 26.728C46.2042 26.728 46.2078 26.7272 46.2112 26.7258C46.2146 26.7244 46.2176 26.7223 46.2202 26.7196C46.2228 26.717 46.2248 26.7138 46.2261 26.7104C46.2274 26.707 46.2281 26.7033 46.228 26.6996C46.2185 26.3724 46.1236 26.0799 45.9433 25.8221C45.5703 25.288 44.7137 25.2363 44.2118 25.6188C43.8838 25.8688 43.6773 26.2202 43.5924 26.673C43.5912 26.6799 43.5915 26.687 43.5934 26.6938C43.5952 26.7006 43.5985 26.7069 43.603 26.7123C43.6075 26.7177 43.6132 26.7221 43.6195 26.7251C43.6259 26.7281 43.6328 26.7296 43.6399 26.7296Z" fill="#666666"/>
<path d="M22.5733 25.2962C22.9523 24.65 23.5372 24.4081 24.3281 24.5703C24.3485 24.5745 24.3669 24.5856 24.3801 24.6017C24.3933 24.6178 24.4005 24.6379 24.4005 24.6587V25.5612C24.4005 25.5679 24.3989 25.5746 24.3959 25.5807C24.3928 25.5868 24.3884 25.5921 24.3829 25.5962C24.3775 25.6003 24.3711 25.6031 24.3643 25.6044C24.3575 25.6057 24.3506 25.6054 24.3439 25.6037L24.0725 25.5262C24.0647 25.5239 24.0572 25.5223 24.05 25.5212C23.2975 25.4217 22.7975 25.7223 22.55 26.4228C22.5406 26.4493 22.5358 26.4772 22.5358 26.5053V29.8612C22.5358 29.8757 22.53 29.8897 22.5197 29.9C22.5094 29.9104 22.4954 29.9162 22.4809 29.9162H21.5602C21.553 29.9162 21.5458 29.9147 21.5392 29.912C21.5325 29.9092 21.5264 29.9052 21.5213 29.9C21.5162 29.8949 21.5122 29.8889 21.5094 29.8822C21.5067 29.8755 21.5052 29.8684 21.5052 29.8612V24.6553C21.5052 24.6412 21.5108 24.6276 21.5206 24.6176C21.5304 24.6076 21.5438 24.602 21.5577 24.602H22.4842C22.4977 24.602 22.5106 24.6074 22.5201 24.6171C22.5296 24.6268 22.535 24.6399 22.535 24.6537V25.2853C22.5351 25.2898 22.5366 25.2941 22.5393 25.2976C22.5421 25.3011 22.5458 25.3037 22.5501 25.3049C22.5544 25.3061 22.559 25.3059 22.5631 25.3043C22.5673 25.3028 22.5709 25.2999 22.5733 25.2962Z" fill="#666666"/>
<path d="M32.5301 25.2864C32.5302 25.2908 32.5317 25.2952 32.5344 25.2987C32.5372 25.3022 32.5409 25.3048 32.5452 25.306C32.5495 25.3072 32.5541 25.307 32.5582 25.3054C32.5624 25.3038 32.566 25.301 32.5684 25.2972C32.9463 24.6511 33.5307 24.4086 34.3215 24.5697C34.342 24.5739 34.3603 24.585 34.3735 24.6011C34.3867 24.6172 34.3939 24.6373 34.3939 24.6581L34.3948 25.5606C34.3948 25.5673 34.3932 25.574 34.3902 25.5801C34.3871 25.5862 34.3827 25.5915 34.3772 25.5956C34.3717 25.5997 34.3654 25.6025 34.3586 25.6038C34.3518 25.6051 34.3448 25.6048 34.3381 25.6031L34.0668 25.5256C34.059 25.5233 34.0515 25.5217 34.0443 25.5206C33.2923 25.4222 32.7929 25.7233 32.5459 26.4239C32.5365 26.4504 32.5317 26.4783 32.5317 26.5064L32.5359 29.8606C32.5359 29.8751 32.5301 29.8891 32.5198 29.8994C32.5095 29.9098 32.4955 29.9156 32.481 29.9156L31.5603 29.9164C31.5459 29.9164 31.532 29.9107 31.5217 29.9006C31.5114 29.8904 31.5056 29.8767 31.5053 29.8622L31.4995 24.6581C31.4995 24.651 31.5009 24.6441 31.5035 24.6376C31.5061 24.6312 31.51 24.6253 31.5149 24.6203C31.5197 24.6154 31.5255 24.6115 31.5319 24.6088C31.5382 24.6061 31.5451 24.6047 31.552 24.6047L32.4785 24.6039C32.4919 24.6039 32.5048 24.6093 32.5144 24.619C32.5239 24.6287 32.5292 24.6418 32.5292 24.6556L32.5301 25.2864Z" fill="#666666"/>
<path d="M36.3518 24.6035H35.3862C35.3655 24.6035 35.3488 24.6203 35.3488 24.641V29.8777C35.3488 29.8984 35.3655 29.9152 35.3862 29.9152H36.3518C36.3725 29.9152 36.3893 29.8984 36.3893 29.8777V24.641C36.3893 24.6203 36.3725 24.6035 36.3518 24.6035Z" fill="#666666"/>
</g>
<defs>
<clipPath id="clip0_191_864">
<rect width="78" height="32" fill="white" transform="translate(0.26123)"/>
</clipPath>
</defs>
</svg>
