<svg width="116" height="32" viewBox="0 0 116 32" fill="none" xmlns="http://www.w3.org/2000/svg">
<g clip-path="url(#clip0_191_890)">
<path d="M45.5316 2.31551L45.4792 0.0292969Z" fill="#666666"/>
<path d="M33.95 6.89168L34.0023 0.759766Z" fill="#666666"/>
<path d="M27.5868 10.8184C27.5186 11.0883 27.4859 11.351 27.4884 11.6064C27.5029 13.4797 27.5046 15.3606 27.4935 17.2491" fill="#666666"/>
<path d="M18.4673 21.5103C18.4784 19.6447 18.4784 17.7907 18.4673 15.9481C18.4648 15.4917 18.4303 15.0259 18.3639 14.5508" fill="#666666"/>
<path d="M18.3639 14.552C19.5687 13.8035 20.8174 13.1313 22.11 12.5353C22.5762 12.3207 23.0347 12.0257 23.4651 11.8149C23.6797 11.7089 23.824 11.5097 23.87 11.2989C23.9551 10.9038 23.9968 10.5326 23.9951 10.1852C23.9798 7.54221 23.9713 4.89454 23.9696 2.24219" fill="#666666"/>
<path d="M18.3641 14.5508C17.9043 14.7236 17.4607 14.9335 17.0332 15.1804C15.5708 16.0247 14.2029 16.8613 12.6294 17.6761" fill="#666666"/>
<path d="M12.6292 17.6759C12.5849 17.2826 12.5624 16.9777 12.5615 16.7615C12.5479 14.2998 12.5424 10.3162 12.5449 4.81055" fill="#666666"/>
<path d="M12.6294 17.6758C12.2223 17.9219 11.82 18.1769 11.4224 18.4408C11.0103 18.7142 10.6045 18.9641 10.2052 19.1906C9.58873 19.5397 9.06039 19.859 8.62017 20.1485C8.07778 20.5061 7.33615 21.0297 6.39526 21.7194" fill="#666666"/>
<path d="M6.39518 21.7202L5.92644 22.0293C5.92066 22.0332 5.9139 22.0355 5.9069 22.0359C5.8999 22.0363 5.89292 22.0348 5.88673 22.0315C5.88054 22.0282 5.87537 22.0233 5.87179 22.0173C5.8682 22.0112 5.86634 22.0043 5.86641 21.9973L5.85364 15.0723" fill="#666666"/>
<path d="M35.5476 13.9044L35.568 10.1328Z" fill="#666666"/>
<path d="M6.6456 27.9612C6.63453 25.5736 6.63964 24.0465 6.66092 23.3798C6.68051 22.7395 6.59195 22.1865 6.39526 21.7207" fill="#666666"/>
<path d="M45.5323 2.315L45.48 0.0287799C47.6061 -0.0376353 49.748 0.0108989 51.9057 0.174383C51.9139 0.174743 51.9217 0.178021 51.9277 0.183626C51.9337 0.18923 51.9375 0.196794 51.9384 0.204955C51.9393 0.213116 51.9373 0.221339 51.9327 0.228144C51.9281 0.234949 51.9212 0.239889 51.9133 0.242075L45.5323 2.315Z" fill="#666666"/>
<path d="M45.4797 0.0292969L45.5321 2.31551C42.4481 3.41477 40.1261 4.29137 38.5662 4.9453C37.0395 5.58561 35.5009 6.23444 33.9503 6.89178L34.0027 0.759865C37.8173 0.33072 41.643 0.0871973 45.4797 0.0292969Z" fill="#666666"/>
<path d="M34.0027 0.759766L33.9504 6.89168C33.0776 7.28506 32.198 7.6793 31.3116 8.07438C29.1468 9.04124 27.0623 10.0719 24.9498 11.0797C24.9429 11.0823 24.9372 11.0874 24.9339 11.0941C24.9306 11.1007 24.9299 11.1084 24.932 11.1155C24.9341 11.1226 24.9388 11.1287 24.9452 11.1325C24.9516 11.1362 24.9592 11.1375 24.9664 11.1359L27.5873 10.8191C27.5192 11.089 27.4864 11.3517 27.4889 11.6072C27.5034 13.4804 27.5051 15.3613 27.494 17.2499C24.4653 18.6021 21.4566 20.0223 18.468 21.5107C18.479 19.6451 18.479 17.791 18.468 15.9484C18.4654 15.492 18.4309 15.0263 18.3645 14.5511C19.5693 13.8027 20.818 13.1305 22.1106 12.5344C22.5768 12.3198 23.0353 12.0248 23.4657 11.8141C23.6803 11.7081 23.8246 11.5088 23.8706 11.2981C23.9557 10.903 23.9975 10.5317 23.9957 10.1843C23.9804 7.54136 23.9719 4.89369 23.9702 2.24134C27.3029 1.63083 30.6471 1.13697 34.0027 0.759766Z" fill="#666666"/>
<path d="M61.0273 8.82778C61.0216 8.83129 61.017 8.83628 61.0139 8.84221C61.0108 8.84815 61.0094 8.85481 61.0098 8.86149C61.0102 8.86817 61.0124 8.87462 61.0161 8.88016C61.0199 8.88569 61.0251 8.8901 61.0312 8.89292C61.9848 9.33058 62.6004 10.0705 62.878 11.1127C63.5051 13.4654 62.7273 16.205 60.2214 16.9368C59.817 17.0552 59.2622 17.1088 58.5572 17.0978C57.7704 17.085 56.0773 17.0833 53.4777 17.0926C53.4635 17.0926 53.4498 17.087 53.4398 17.0769C53.4297 17.0669 53.4241 17.0532 53.4241 17.039V1.72007C53.4241 1.68155 53.4392 1.64458 53.4662 1.6171C53.4932 1.58963 53.5299 1.57386 53.5684 1.57319C54.5382 1.56212 56.5533 1.58298 59.6135 1.63577C59.8893 1.64003 60.3006 1.76392 60.8473 2.00744C62.4949 2.74057 62.8768 4.75474 62.629 6.41895C62.4757 7.44839 61.9418 8.25133 61.0273 8.82778ZM55.7895 4.17999L55.7831 7.83538C55.7831 7.85786 55.7919 7.87943 55.8077 7.89544C55.8235 7.91146 55.8449 7.92062 55.8674 7.92096L58.6722 7.92606C58.8948 7.92656 59.1154 7.88262 59.3213 7.79673C59.5272 7.71085 59.7144 7.58472 59.8722 7.42554C60.0299 7.26636 60.1552 7.07726 60.2407 6.86904C60.3263 6.66082 60.3705 6.43757 60.3709 6.21204V5.81866C60.3715 5.36361 60.1938 4.92691 59.8767 4.60455C59.5596 4.28218 59.1291 4.10053 58.6798 4.09952L55.8751 4.09442C55.8638 4.09442 55.8527 4.09663 55.8423 4.10093C55.8319 4.10523 55.8225 4.11153 55.8145 4.11948C55.8066 4.12743 55.8003 4.13686 55.796 4.14724C55.7917 4.15762 55.7895 4.16875 55.7895 4.17999ZM55.8418 14.5676C57.0782 14.5633 57.9203 14.5642 58.3682 14.5701C59.0068 14.5787 59.4466 14.5297 59.6875 14.4233C60.708 13.9699 60.8549 12.5636 60.5944 11.5802C60.4496 11.0352 60.1209 10.687 59.6084 10.5354C59.5735 10.5244 59.538 10.5171 59.5023 10.5137C59.2188 10.4839 58.8969 10.4647 58.5368 10.4562C57.8973 10.4418 56.9939 10.4528 55.8265 10.4894C55.8159 10.4898 55.8058 10.4942 55.7984 10.5019C55.791 10.5095 55.7869 10.5197 55.7869 10.5303V14.5114C55.7869 14.5188 55.7883 14.5261 55.7911 14.5329C55.7939 14.5397 55.7979 14.5459 55.803 14.5511C55.8081 14.5563 55.8142 14.5605 55.8208 14.5633C55.8275 14.5661 55.8346 14.5676 55.8418 14.5676Z" fill="#666666"/>
<path d="M101.276 1.57031C101.289 1.57031 101.3 1.57516 101.309 1.58378C101.318 1.5924 101.322 1.6041 101.322 1.61629C101.32 4.58114 101.32 8.71676 101.324 14.0232C101.324 15.1369 102.132 15.0092 102.93 14.9032C102.949 14.9008 102.967 14.9024 102.985 14.9078C103.003 14.9132 103.019 14.9223 103.033 14.9345C103.047 14.9467 103.058 14.9617 103.066 14.9786C103.073 14.9954 103.077 15.0137 103.077 15.0322V16.8522C103.077 16.8761 103.07 16.8994 103.055 16.9188C103.041 16.9381 103.02 16.9524 102.997 16.9595C101.516 17.4244 99.8025 17.5074 99.312 15.7436C99.209 15.3723 99.1571 15.0752 99.1562 14.8521C99.1409 9.15315 99.1413 4.7493 99.1575 1.64056C99.1575 1.63133 99.1593 1.6222 99.1628 1.61368C99.1664 1.60515 99.1715 1.59741 99.1781 1.59089C99.1846 1.58436 99.1923 1.57919 99.2008 1.57566C99.2094 1.57213 99.2185 1.57031 99.2277 1.57031H101.276Z" fill="#666666"/>
<path d="M106.299 2.17773H104.294C104.258 2.17773 104.229 2.2069 104.229 2.24287V4.92247C104.229 4.95845 104.258 4.98761 104.294 4.98761H106.299C106.335 4.98761 106.365 4.95845 106.365 4.92247V2.24287C106.365 2.2069 106.335 2.17773 106.299 2.17773Z" fill="#666666"/>
<path d="M23.9702 2.24023C23.9719 4.89259 23.9804 7.54026 23.9958 10.1832C23.9975 10.5306 23.9558 10.9019 23.8706 11.297C23.8246 11.5077 23.6803 11.707 23.4657 11.813C23.0353 12.0237 22.5768 12.3187 22.1106 12.5333C20.8181 13.1294 19.5694 13.8016 18.3645 14.55C17.9047 14.7229 17.4611 14.9328 17.0337 15.1797C15.5713 16.024 14.2034 16.8605 12.6298 17.6754C12.5855 17.282 12.563 16.9772 12.5621 16.7609C12.5485 14.2993 12.543 10.3156 12.5455 4.80999C16.3142 3.8061 20.1224 2.94952 23.9702 2.24023Z" fill="#666666"/>
<path d="M12.5456 4.81055C12.543 10.3162 12.5485 14.2998 12.5622 16.7615C12.563 16.9777 12.5856 17.2826 12.6298 17.6759C12.2228 17.922 11.8205 18.177 11.4229 18.441C11.0108 18.7143 10.605 18.9642 10.2057 19.1907C9.58922 19.5398 9.06088 19.8591 8.62067 20.1486C8.07828 20.5063 7.33664 21.0299 6.39576 21.7196L5.92702 22.0287C5.92124 22.0327 5.91448 22.035 5.90748 22.0354C5.90048 22.0358 5.8935 22.0343 5.88731 22.031C5.88112 22.0277 5.87595 22.0227 5.87237 22.0167C5.86878 22.0107 5.86692 22.0038 5.86699 21.9968L5.85422 15.0717C5.84655 12.41 5.84315 9.74018 5.844 7.06228C5.84485 6.86559 5.94958 6.73531 6.15819 6.67145C8.2673 6.02177 10.3964 5.40147 12.5456 4.81055Z" fill="#666666"/>
<path d="M115.656 13.1937V13.8514C115.398 15.7758 114.303 16.9078 112.371 17.2475C111.185 17.4562 110.091 17.2812 109.089 16.7226C108.449 16.365 107.971 15.8652 107.655 15.2232C107.647 15.2078 107.645 15.1904 107.648 15.1735C107.651 15.1565 107.659 15.1408 107.671 15.1286L109.028 13.771C109.038 13.7606 109.051 13.7526 109.065 13.7477C109.078 13.7427 109.093 13.7409 109.108 13.7424C109.123 13.7438 109.137 13.7485 109.149 13.7561C109.162 13.7637 109.173 13.774 109.181 13.7863C109.97 14.983 111.31 15.5335 112.678 14.9294C113.161 14.7157 113.388 14.3283 113.36 13.7671C113.328 13.1196 113.06 12.8961 112.44 12.7441C112.084 12.6572 111.35 12.4737 110.237 12.1936C107.595 11.5307 107.402 8.16398 109.218 6.5598C109.735 6.10341 110.347 5.83008 111.055 5.73983C112.707 5.52909 114.296 5.98761 115.158 7.48323C115.169 7.50258 115.173 7.52525 115.169 7.54723C115.165 7.5692 115.154 7.58906 115.137 7.60328L113.674 8.83324C113.667 8.83956 113.658 8.84427 113.648 8.84706C113.639 8.84986 113.629 8.85068 113.619 8.84948C113.61 8.84828 113.6 8.84508 113.592 8.84009C113.583 8.8351 113.576 8.82842 113.571 8.82047C112.946 7.93068 112.107 7.61733 111.055 7.88044C110.513 8.01582 110.221 8.3479 110.178 8.87667C110.142 9.33732 110.346 9.64257 110.791 9.79243C110.826 9.8035 111.408 9.95123 112.537 10.2356C113.378 10.4468 113.944 10.6371 114.235 10.8065C115.066 11.2919 115.54 12.0876 115.656 13.1937Z" fill="#666666"/>
<path d="M76.0947 7.59228C76.0949 7.59911 76.0972 7.60571 76.1014 7.61112C76.1056 7.61652 76.1114 7.62044 76.1179 7.6223C76.1245 7.62416 76.1315 7.62386 76.1379 7.62144C76.1443 7.61903 76.1498 7.61462 76.1535 7.60888C76.9351 6.34955 78.1038 5.58322 79.6543 5.75947C79.6769 5.762 79.6977 5.77279 79.7128 5.78977C79.7279 5.80675 79.7362 5.82872 79.7361 5.85143V8.09039C79.7361 8.11169 79.7281 8.13221 79.7137 8.14785C79.6992 8.16349 79.6794 8.17308 79.6581 8.17469C79.4308 8.19427 79.209 8.20619 78.9927 8.21045C77.0245 8.24749 76.1266 9.60262 76.1266 11.4801C76.1266 12.4363 76.1271 14.2904 76.1279 17.0424C76.1279 17.0546 76.1229 17.0663 76.1141 17.0749C76.1052 17.0835 76.0932 17.0884 76.0807 17.0884H74.0614C74.0417 17.0884 74.0229 17.0806 74.009 17.0667C73.9951 17.0528 73.9873 17.034 73.9873 17.0143V6.02641C73.9873 6.00473 73.9959 5.98394 74.0112 5.96861C74.0266 5.95328 74.0474 5.94467 74.069 5.94467H76.0168C76.0375 5.94467 76.0573 5.95288 76.0719 5.96749C76.0865 5.9821 76.0947 6.00192 76.0947 6.02258V7.59228Z" fill="#666666"/>
<path d="M95.3079 16.1547C94.5301 17.0909 93.7842 17.3553 92.5721 17.3029C91.1885 17.2433 90.2603 16.5749 89.7878 15.2977C89.4404 14.3589 89.4825 13.152 89.9513 12.2439C90.3608 11.4477 91.0033 10.9083 91.8786 10.6256C92.226 10.5141 92.7773 10.4634 93.5326 10.4737C94.2972 10.4847 94.8536 10.4843 95.2019 10.4724C95.2218 10.4718 95.2407 10.4637 95.255 10.4497C95.2692 10.4357 95.2776 10.4169 95.2785 10.397C95.3194 9.39952 95.419 8.15679 94.2363 7.93838C93.6794 7.83621 93.1796 7.84217 92.7369 7.95626C92.1404 8.11081 92.0433 8.57827 91.9488 9.22071C91.946 9.24219 91.9354 9.26192 91.919 9.27625C91.9026 9.29058 91.8814 9.29853 91.8594 9.29862H90.1173C90.0957 9.29868 90.0748 9.29054 90.0589 9.27585C90.0431 9.26116 90.0333 9.241 90.0317 9.21943C89.9151 7.62632 90.5741 6.56367 92.0088 6.0315C92.9208 5.69261 93.8514 5.62407 94.8008 5.82587C96.4425 6.17412 97.3259 7.18184 97.4511 8.84904C97.5507 10.1825 97.4894 12.0255 97.4919 14.6297C97.4928 15.5876 97.5247 16.3672 97.5877 16.9683C97.589 16.9794 97.5879 16.9907 97.5845 17.0014C97.5811 17.012 97.5754 17.0218 97.5679 17.0302C97.5605 17.0385 97.5513 17.0451 97.5411 17.0497C97.5308 17.0542 97.5197 17.0565 97.5085 17.0564H95.534C95.5144 17.0565 95.4955 17.0493 95.481 17.0363C95.4666 17.0233 95.4577 17.0054 95.4561 16.9862L95.3781 16.1764C95.3775 16.1685 95.3745 16.161 95.3696 16.1548C95.3646 16.1487 95.3579 16.1441 95.3504 16.1418C95.3428 16.1395 95.3347 16.1394 95.3272 16.1417C95.3196 16.144 95.3129 16.1486 95.3079 16.1547ZM95.1789 12.5146C94.9081 12.5274 94.1256 12.53 92.8314 12.5223C92.4099 12.5198 92.1038 12.673 91.9131 12.9821C91.5912 13.5045 91.6104 14.442 92.1672 14.8456C92.8058 15.3105 93.6526 15.2773 94.3679 14.9746C94.8558 14.7677 95.1202 14.3487 95.2006 13.8238C95.2883 13.2584 95.3126 12.8476 95.2734 12.5913C95.27 12.5693 95.2585 12.5493 95.241 12.5351C95.2236 12.521 95.2015 12.5137 95.1789 12.5146Z" fill="#666666"/>
<path d="M72.5504 11.6141C72.5452 12.1147 72.5325 12.6218 72.489 13.2157C72.3294 15.4393 70.821 17.3092 68.4824 17.3679C66.0787 17.4292 64.4273 15.5824 64.3212 13.2527C64.3017 12.8338 64.291 12.3417 64.2893 11.7763C64.2893 11.7474 64.2841 11.7193 64.274 11.6933C64.2527 11.6362 64.2425 11.5787 64.2433 11.5208C64.2442 11.4629 64.2557 11.4059 64.2778 11.3497C64.2883 11.3238 64.294 11.2956 64.2944 11.2667C64.3089 10.7013 64.3306 10.2096 64.3596 9.79149C64.5179 7.4644 66.2115 5.65587 68.6127 5.77082C70.95 5.88193 72.415 7.78498 72.5248 10.0124C72.5542 10.6076 72.5567 11.1134 72.5504 11.6141ZM70.2922 9.8366C70.2897 9.36509 70.1 8.91386 69.7649 8.58219C69.4297 8.25053 68.9765 8.06559 68.505 8.06805L68.3058 8.0691C67.8342 8.07157 67.383 8.26125 67.0514 8.59641C66.7197 8.93157 66.5347 9.38476 66.5372 9.85627L66.5552 13.2817C66.5576 13.7532 66.7473 14.2045 67.0825 14.5361C67.4176 14.8678 67.8708 15.0527 68.3423 15.0503L68.5416 15.0492C69.0131 15.0467 69.4643 14.8571 69.796 14.5219C70.1276 14.1867 70.3126 13.7336 70.3101 13.262L70.2922 9.8366Z" fill="#666666"/>
<path d="M88.453 12.2994H82.9252C82.9017 12.2995 82.8791 12.3081 82.8615 12.3236C82.8439 12.3391 82.8325 12.3604 82.8294 12.3837C82.6851 13.3646 82.9648 14.3353 83.8665 14.8577C85.099 15.5703 86.0518 14.638 86.7747 13.7337C86.7889 13.7163 86.8091 13.7049 86.8312 13.7018C86.8532 13.6987 86.8755 13.7042 86.8935 13.7171L88.4172 14.7976C88.4336 14.8093 88.4457 14.8261 88.4515 14.8455C88.4573 14.865 88.4564 14.8859 88.4492 14.9049C87.1911 18.1784 82.5497 18.1107 81.0119 15.1885C80.702 14.5984 80.5355 13.6507 80.5125 12.3454C80.493 11.2597 80.5342 10.2878 80.6364 9.42948C80.7693 8.31831 81.3747 7.16115 82.3057 6.48167C83.2109 5.82007 84.2705 5.60124 85.4847 5.82518C87.1579 6.13427 88.3457 7.56603 88.5105 9.26856C88.6033 10.2154 88.6148 11.1972 88.5449 12.2138C88.5436 12.237 88.5334 12.2588 88.5163 12.2747C88.4992 12.2906 88.4765 12.2994 88.453 12.2994ZM82.8562 10.4066L86.3762 10.4193C86.3878 10.4193 86.3988 10.4148 86.4069 10.4066C86.4151 10.3985 86.4197 10.3874 86.4197 10.3759L86.4209 10.0489C86.4219 9.78049 86.3765 9.51451 86.2873 9.26619C86.1982 9.01787 86.067 8.79207 85.9013 8.60171C85.7356 8.41134 85.5386 8.26013 85.3216 8.15672C85.1046 8.0533 84.8719 7.99971 84.6367 7.999H84.6111C84.1364 7.99757 83.6804 8.21136 83.3434 8.59337C83.0064 8.97539 82.816 9.49435 82.8141 10.0362L82.8128 10.3631C82.8128 10.3746 82.8174 10.3857 82.8255 10.3938C82.8337 10.402 82.8447 10.4066 82.8562 10.4066Z" fill="#666666"/>
<path d="M106.315 5.94531H104.276C104.248 5.94531 104.225 5.96819 104.225 5.9964V17.0392C104.225 17.0674 104.248 17.0903 104.276 17.0903H106.315C106.343 17.0903 106.366 17.0674 106.366 17.0392V5.9964C106.366 5.96819 106.343 5.94531 106.315 5.94531Z" fill="#666666"/>
<path d="M35.5481 13.9043L35.5685 10.1327C38.9855 9.97859 41.4356 9.92367 42.9189 9.96795C44.1033 10.0029 45.2124 10.0608 46.2461 10.1416C46.255 10.1418 46.2635 10.1452 46.2702 10.1512C46.2768 10.1571 46.2811 10.1653 46.2821 10.1742C46.2832 10.183 46.2811 10.192 46.2761 10.1994C46.2711 10.2068 46.2636 10.2121 46.255 10.2145C45.9263 10.3226 44.4303 10.8105 41.7669 11.6781C39.7386 12.3397 37.6172 13.1431 35.5481 13.9043Z" fill="#666666"/>
<path d="M35.5687 10.1328L35.5483 13.9044C32.8499 14.956 30.1652 16.071 27.4941 17.2495C27.5052 15.3609 27.5035 13.48 27.489 11.6067C27.4865 11.3513 27.5193 11.0886 27.5874 10.8187C30.2372 10.496 32.8976 10.2673 35.5687 10.1328Z" fill="#666666"/>
<path d="M18.3644 14.5508C18.4308 15.0259 18.4653 15.4917 18.4679 15.9481C18.4789 17.7907 18.4789 19.6447 18.4679 21.5103C14.4693 23.5249 10.5287 25.6749 6.64596 27.9603C6.63489 25.5727 6.64 24.0456 6.66129 23.3789C6.68087 22.7386 6.59232 22.1856 6.39563 21.7198C7.33651 21.0301 8.07815 20.5064 8.62054 20.1488C9.06075 19.8593 9.5891 19.54 10.2056 19.1909C10.6049 18.9644 11.0106 18.7145 11.4228 18.4412C11.8204 18.1772 12.2227 17.9222 12.6297 17.6761C14.2033 16.8613 15.5712 16.0247 17.0336 15.1804C17.461 14.9335 17.9046 14.7236 18.3644 14.5508Z" fill="#666666"/>
<path d="M5.85416 15.0723L5.86694 21.9973C5.86687 22.0043 5.86873 22.0112 5.87231 22.0173C5.8759 22.0233 5.88107 22.0282 5.88726 22.0315C5.89345 22.0348 5.90043 22.0363 5.90743 22.0359C5.91443 22.0355 5.92119 22.0332 5.92697 22.0293L6.3957 21.7202C6.5924 22.1859 6.68095 22.739 6.66136 23.3793C6.64008 24.046 6.63497 25.5731 6.64604 27.9607C5.63789 28.5737 4.62506 29.194 3.60754 29.8216C2.47337 30.5202 1.42733 31.2469 0.364689 32.0005H0.295719L0.261234 16.9089C0.260934 16.8541 0.278461 16.8006 0.311172 16.7566C0.343884 16.7126 0.39001 16.6805 0.442599 16.665L5.85416 15.0723Z" fill="#666666"/>
<path d="M81.1718 27.3489C81.1726 28.1782 81.1752 28.6218 81.1794 28.6797C81.2382 29.4729 81.8602 29.985 82.6239 29.727C83.1246 29.5585 83.2408 28.999 83.3315 28.538C83.3359 28.5163 83.3475 28.4968 83.3643 28.4829C83.381 28.4689 83.402 28.4613 83.4235 28.4613H84.7288C84.751 28.4612 84.7725 28.4696 84.7891 28.4847C84.8056 28.4998 84.816 28.5206 84.8182 28.5431C85.0404 30.7322 83.2217 31.8881 81.2382 31.2597C79.3939 30.676 79.5127 28.8917 79.5114 27.3501C79.5101 25.8085 79.3875 24.0256 81.2305 23.438C83.2127 22.8058 85.0341 23.9579 84.8157 26.1483C84.8134 26.1707 84.803 26.1916 84.7865 26.2067C84.77 26.2218 84.7485 26.2301 84.7262 26.23L83.4209 26.2326C83.3994 26.2326 83.3785 26.225 83.3617 26.211C83.345 26.1971 83.3334 26.1776 83.329 26.1559C83.2383 25.6949 83.1208 25.1355 82.6201 24.9681C81.8551 24.7114 81.2343 25.2249 81.1769 26.018C81.1726 26.0759 81.1709 26.5195 81.1718 27.3489Z" fill="#666666"/>
<path d="M59.2558 31.2957C59.2414 31.2956 59.2272 31.2922 59.2143 31.2858C59.2015 31.2794 59.1903 31.2701 59.1816 31.2588C59.1729 31.2474 59.1671 31.2342 59.1644 31.2202C59.1618 31.2062 59.1625 31.1918 59.1664 31.1782L61.3402 23.6081C61.3594 23.5415 61.3995 23.4829 61.4546 23.4411C61.5097 23.3994 61.5767 23.3769 61.6455 23.377H63.0709C63.0972 23.3769 63.123 23.3855 63.1442 23.4017C63.1654 23.4178 63.1809 23.4405 63.1884 23.4664L65.3979 31.2574C65.4001 31.2653 65.4004 31.2736 65.3988 31.2816C65.3973 31.2896 65.3939 31.2972 65.389 31.3037C65.3841 31.3103 65.3777 31.3156 65.3704 31.3193C65.3631 31.323 65.355 31.325 65.3469 31.3251C64.939 31.3353 64.512 31.3327 64.0658 31.3174C63.8623 31.3106 63.7299 31.2131 63.6686 31.0249C63.5485 30.6571 63.4523 30.2956 63.3799 29.9406C63.3755 29.9178 63.3634 29.8974 63.3457 29.8827C63.3279 29.868 63.3057 29.86 63.2829 29.8601H61.1755C61.1567 29.8602 61.1385 29.8663 61.1236 29.8776C61.1086 29.8889 61.0977 29.9047 61.0924 29.9227L60.7182 31.2254C60.7124 31.2457 60.7002 31.2635 60.6833 31.2762C60.6665 31.2888 60.646 31.2957 60.625 31.2957H59.2558ZM61.5178 28.1818C61.5162 28.1877 61.516 28.1939 61.5172 28.1998C61.5184 28.2058 61.5209 28.2114 61.5246 28.2162C61.5283 28.221 61.5331 28.2249 61.5386 28.2276C61.544 28.2303 61.55 28.2317 61.5561 28.2317H62.8844C62.8905 28.2317 62.8965 28.2303 62.9019 28.2276C62.9074 28.2249 62.9121 28.221 62.9158 28.2162C62.9195 28.2114 62.9221 28.2058 62.9233 28.1998C62.9245 28.1939 62.9243 28.1877 62.9227 28.1818L62.2585 25.6057C62.2563 25.5972 62.2514 25.5897 62.2444 25.5843C62.2375 25.579 62.229 25.5761 62.2202 25.5761C62.2115 25.5761 62.2029 25.579 62.196 25.5843C62.1891 25.5897 62.1841 25.5972 62.1819 25.6057L61.5178 28.1818Z" fill="#666666"/>
<path d="M76.2657 31.2976H74.7612C74.7395 31.2977 74.7185 31.2904 74.7014 31.277C74.6843 31.2636 74.672 31.2448 74.6666 31.2236C74.6522 31.1665 74.5649 30.831 74.4048 30.2171C74.3895 30.1609 74.3018 30.0541 74.1417 29.8965C74.1188 29.8737 74.0871 29.8608 74.0536 29.8608H72.1199C72.1026 29.8608 72.0857 29.8665 72.0719 29.8771C72.058 29.8877 72.048 29.9026 72.0432 29.9195L71.6665 31.2312C71.6609 31.2503 71.6494 31.2672 71.6335 31.2791C71.6176 31.2911 71.5982 31.2976 71.5783 31.2976H70.1415C70.1351 31.2977 70.1288 31.2963 70.1231 31.2935C70.1173 31.2906 70.1123 31.2865 70.1085 31.2814C70.1046 31.2763 70.102 31.2704 70.1009 31.2641C70.0997 31.2579 70.1001 31.2514 70.1019 31.2453L72.3344 23.4658C72.3419 23.4407 72.3572 23.4187 72.3781 23.403C72.3991 23.3874 72.4245 23.3789 72.4507 23.3789H74.0638C74.0784 23.3789 74.0927 23.3836 74.1045 23.3923C74.1162 23.4011 74.1248 23.4134 74.1289 23.4274L76.3347 31.207C76.3376 31.2176 76.3381 31.2288 76.336 31.2396C76.3339 31.2504 76.3294 31.2606 76.3227 31.2694C76.316 31.2782 76.3074 31.2853 76.2975 31.2902C76.2876 31.2951 76.2767 31.2977 76.2657 31.2976ZM73.1697 28.2323C73.5904 28.2332 73.8011 28.2336 73.802 28.2336C73.8123 28.2317 73.8221 28.2276 73.8308 28.2217C73.8395 28.2159 73.8469 28.2082 73.8525 28.1994C73.8581 28.1905 73.8619 28.1806 73.8635 28.1702C73.8651 28.1599 73.8646 28.1493 73.862 28.1391L73.2004 25.5668C73.1996 25.564 73.1978 25.5613 73.1951 25.5588C73.1925 25.5564 73.189 25.5543 73.1851 25.5527C73.1808 25.551 73.1778 25.5502 73.1761 25.5502C73.1736 25.5502 73.1702 25.551 73.1659 25.5527C73.162 25.5543 73.1585 25.5564 73.1558 25.5588C73.1532 25.5613 73.1514 25.564 73.1506 25.5668L72.4762 28.1353C72.4734 28.1455 72.4727 28.1562 72.4742 28.1668C72.4758 28.1773 72.4795 28.1874 72.4851 28.1964C72.4908 28.2054 72.4982 28.2131 72.507 28.2191C72.5158 28.2251 72.5258 28.2291 72.5362 28.2311C72.5371 28.2311 72.7483 28.2315 73.1697 28.2323Z" fill="#666666"/>
<path d="M93.1979 26.8995C93.1952 26.8939 93.1907 26.8893 93.1851 26.8866C93.1795 26.884 93.1731 26.8833 93.1671 26.8848C93.161 26.8863 93.1557 26.8899 93.152 26.8949C93.1483 26.8999 93.1465 26.9061 93.1468 26.9123V31.2254C93.1468 31.2444 93.1393 31.2626 93.1258 31.276C93.1124 31.2894 93.0942 31.297 93.0753 31.297H91.6895C91.6688 31.297 91.649 31.2889 91.6344 31.2745C91.6198 31.2602 91.6116 31.2407 91.6116 31.2203V23.4561C91.6116 23.4351 91.6199 23.415 91.6348 23.4001C91.6496 23.3853 91.6698 23.377 91.6908 23.377H92.9028C92.9878 23.3769 93.0713 23.3999 93.1444 23.4436C93.2174 23.4872 93.2774 23.5498 93.3179 23.6247L95.5096 27.6658C95.5131 27.6725 95.5188 27.6778 95.5257 27.6808C95.5326 27.6838 95.5403 27.6844 95.5475 27.6825C95.5548 27.6806 95.5612 27.6762 95.5657 27.6702C95.5702 27.6641 95.5725 27.6568 95.5722 27.6492V23.4868C95.5722 23.4665 95.5802 23.447 95.5943 23.4326C95.6084 23.4182 95.6276 23.4102 95.6476 23.4102H97.0244C97.0461 23.4102 97.0669 23.4188 97.0822 23.4341C97.0975 23.4494 97.1062 23.4702 97.1062 23.4919V31.251C97.1062 31.271 97.0982 31.2901 97.0841 31.3043C97.07 31.3184 97.0508 31.3263 97.0308 31.3263H95.866C95.7852 31.3264 95.7059 31.3046 95.6365 31.2632C95.567 31.2219 95.51 31.1625 95.4713 31.0913L93.1979 26.8995Z" fill="#666666"/>
<path d="M53.4752 31.3052C53.4686 31.3055 53.462 31.3045 53.4558 31.3023C53.4496 31.3 53.444 31.2965 53.4392 31.2919C53.4344 31.2874 53.4306 31.2819 53.428 31.2758C53.4254 31.2698 53.4241 31.2633 53.4241 31.2567V23.5129C53.4241 23.5037 53.4259 23.4947 53.4293 23.4862C53.4328 23.4778 53.4379 23.4701 53.4444 23.4637C53.4508 23.4573 53.4584 23.4522 53.4667 23.4488C53.4751 23.4454 53.484 23.4438 53.493 23.4439C53.5961 23.4456 54.2973 23.4354 55.5966 23.4133C55.9491 23.4065 56.3319 23.4295 56.7448 23.4822C58.2302 23.6713 58.7181 24.9996 58.7245 26.3074C58.7305 27.4127 58.7266 28.1913 58.713 28.6435C58.6773 29.8773 57.9429 31.0919 56.649 31.2682C56.4958 31.2886 56.0696 31.3086 55.3705 31.3282C54.7664 31.3448 54.1214 31.2758 53.4752 31.3052ZM55.0972 25.0583L55.0742 29.6461C55.0742 29.655 55.0777 29.6636 55.0839 29.67C55.0901 29.6765 55.0985 29.6802 55.1074 29.6806L55.8763 29.6844C56.0342 29.6854 56.1908 29.6541 56.3371 29.5922C56.4834 29.5303 56.6165 29.4391 56.7288 29.3238C56.8411 29.2085 56.9305 29.0714 56.9917 28.9202C57.053 28.7691 57.085 28.6069 57.0859 28.443L57.0961 26.2819C57.0978 25.9511 56.973 25.6332 56.7491 25.3981C56.5252 25.1629 56.2204 25.0297 55.9019 25.0277L55.133 25.0238C55.1284 25.0237 55.1237 25.0244 55.1194 25.0261C55.1151 25.0278 55.1111 25.0303 55.1078 25.0335C55.1044 25.0367 55.1018 25.0406 55.1 25.0448C55.0982 25.0491 55.0972 25.0537 55.0972 25.0583Z" fill="#666666"/>
<path d="M67.7609 23.4102C69.3429 23.4102 70.2016 23.4106 70.337 23.4114C70.3485 23.4114 70.3596 23.416 70.3677 23.4242C70.3759 23.4323 70.3804 23.4433 70.3804 23.4549V24.9313C70.3804 24.9513 70.3725 24.9705 70.3584 24.9846C70.3442 24.9987 70.3251 25.0067 70.3051 25.0067H68.6524C68.6341 25.0067 68.6165 25.0139 68.6036 25.0269C68.5907 25.0398 68.5834 25.0574 68.5834 25.0756V31.2395C68.5832 31.252 68.5785 31.2639 68.5703 31.2731C68.562 31.2823 68.5508 31.2881 68.5387 31.2893C68.4978 31.2936 68.2386 31.2957 67.7609 31.2957C67.2832 31.2957 67.0243 31.2936 66.9843 31.2893C66.9722 31.2881 66.961 31.2823 66.9527 31.2731C66.9445 31.2639 66.9398 31.252 66.9396 31.2395V25.0756C66.9396 25.0666 66.9378 25.0576 66.9344 25.0493C66.9309 25.0409 66.9258 25.0333 66.9194 25.0269C66.913 25.0205 66.9054 25.0154 66.897 25.0119C66.8887 25.0085 66.8797 25.0067 66.8707 25.0067H65.2179C65.1979 25.0067 65.1788 24.9987 65.1647 24.9846C65.1505 24.9705 65.1426 24.9513 65.1426 24.9313V23.4549C65.1426 23.4436 65.147 23.4327 65.1548 23.4246C65.1627 23.4165 65.1734 23.4118 65.1847 23.4114C65.321 23.4106 66.1797 23.4102 67.7609 23.4102Z" fill="#666666"/>
<path d="M90.4646 25.006H87.5193C87.5051 25.006 87.4914 25.0117 87.4814 25.0217C87.4713 25.0318 87.4657 25.0454 87.4657 25.0596V26.4531C87.4657 26.4673 87.4713 26.481 87.4814 26.491C87.4914 26.5011 87.5051 26.5067 87.5193 26.5067H89.9856C89.9999 26.5067 90.0135 26.5124 90.0236 26.5224C90.0336 26.5325 90.0393 26.5461 90.0393 26.5604V28.0522C90.0393 28.0664 90.0336 28.08 90.0236 28.0901C90.0135 28.1002 89.9999 28.1058 89.9856 28.1058H87.5206C87.5136 28.1058 87.5066 28.1072 87.5001 28.1099C87.4936 28.1126 87.4876 28.1165 87.4827 28.1215C87.4777 28.1265 87.4737 28.1324 87.471 28.1389C87.4683 28.1454 87.4669 28.1524 87.4669 28.1594V29.5835C87.4669 29.5906 87.4683 29.5976 87.471 29.6041C87.4737 29.6106 87.4777 29.6165 87.4827 29.6215C87.4876 29.6265 87.4936 29.6304 87.5001 29.6331C87.5066 29.6358 87.5136 29.6372 87.5206 29.6372H90.4965C90.5107 29.6372 90.5244 29.6428 90.5344 29.6529C90.5445 29.663 90.5502 29.6766 90.5502 29.6908V31.2465C90.5502 31.2607 90.5445 31.2744 90.5344 31.2844C90.5244 31.2945 90.5107 31.3001 90.4965 31.3001H85.8589C85.8447 31.3001 85.8311 31.2945 85.821 31.2844C85.8109 31.2744 85.8053 31.2607 85.8053 31.2465V23.4618C85.8053 23.4476 85.8109 23.434 85.821 23.4239C85.8311 23.4139 85.8447 23.4082 85.8589 23.4082H90.4646C90.4788 23.4082 90.4925 23.4139 90.5025 23.4239C90.5126 23.434 90.5182 23.4476 90.5182 23.4618V24.9524C90.5182 24.9666 90.5126 24.9802 90.5025 24.9903C90.4925 25.0004 90.4788 25.006 90.4646 25.006Z" fill="#666666"/>
<path d="M100.636 31.2992C100.159 31.3 99.8993 31.2983 99.8584 31.2941C99.8463 31.2928 99.8351 31.287 99.8268 31.2779C99.8186 31.2687 99.8139 31.2567 99.8137 31.2442L99.8035 25.0791C99.8035 25.0608 99.7962 25.0433 99.7833 25.0304C99.7704 25.0174 99.7528 25.0102 99.7345 25.0102L98.0818 25.0127C98.0718 25.0129 98.0619 25.0111 98.0526 25.0073C98.0433 25.0036 98.0348 24.9981 98.0277 24.9911C98.0206 24.9841 98.0149 24.9757 98.011 24.9665C98.0072 24.9573 98.0052 24.9474 98.0052 24.9374L98.0039 23.4609C98.0039 23.4496 98.0083 23.4387 98.0162 23.4306C98.024 23.4225 98.0348 23.4178 98.0461 23.4175C98.1823 23.4158 99.0414 23.4136 100.623 23.4111C102.206 23.4085 103.064 23.4077 103.2 23.4085C103.211 23.4085 103.222 23.4131 103.23 23.4212C103.238 23.4294 103.243 23.4404 103.243 23.4519L103.246 24.9284C103.246 24.9484 103.238 24.9676 103.224 24.9817C103.209 24.9958 103.19 25.0038 103.17 25.0038L101.518 25.0063C101.508 25.0063 101.499 25.0081 101.491 25.0117C101.482 25.0152 101.475 25.0204 101.468 25.027C101.462 25.0335 101.457 25.0413 101.453 25.0498C101.45 25.0583 101.448 25.0674 101.449 25.0766L101.459 31.2417C101.459 31.2542 101.454 31.2661 101.446 31.2753C101.437 31.2845 101.426 31.2903 101.414 31.2915C101.373 31.2958 101.114 31.2983 100.636 31.2992Z" fill="#666666"/>
<path d="M108.779 23.4153C108.802 23.4153 108.825 23.4246 108.841 23.4412C108.858 23.4577 108.867 23.4801 108.867 23.5035L108.866 24.9569C108.866 24.9641 108.864 24.9712 108.861 24.9778C108.859 24.9844 108.855 24.9903 108.85 24.9953C108.844 25.0003 108.838 25.0043 108.832 25.0069C108.825 25.0095 108.818 25.0108 108.811 25.0106L105.897 25.0093C105.876 25.0093 105.856 25.0176 105.841 25.0325C105.827 25.0473 105.818 25.0675 105.818 25.0885L105.817 26.4538C105.817 26.4684 105.823 26.4824 105.833 26.4927C105.843 26.503 105.856 26.5088 105.871 26.5088L108.336 26.51C108.35 26.51 108.363 26.5154 108.373 26.525C108.382 26.5346 108.388 26.5476 108.388 26.5611L108.385 28.0516C108.385 28.0588 108.384 28.066 108.381 28.0727C108.378 28.0793 108.374 28.0854 108.369 28.0905C108.364 28.0956 108.358 28.0996 108.352 28.1024C108.345 28.1051 108.338 28.1066 108.331 28.1066L105.903 28.1053C105.88 28.1056 105.859 28.1146 105.843 28.1304C105.827 28.1462 105.818 28.1674 105.818 28.1896L105.816 29.5549C105.816 29.5759 105.824 29.5961 105.839 29.6109C105.854 29.6258 105.874 29.6341 105.895 29.6341H108.816C108.837 29.6341 108.858 29.6424 108.873 29.6573C108.888 29.6721 108.896 29.6923 108.896 29.7133L108.898 31.2166C108.898 31.227 108.896 31.2373 108.892 31.2469C108.888 31.2565 108.882 31.2652 108.875 31.2726C108.868 31.2799 108.859 31.2858 108.849 31.2897C108.84 31.2937 108.83 31.2958 108.82 31.2958H104.2C104.189 31.2958 104.178 31.2913 104.17 31.2834C104.162 31.2755 104.158 31.2648 104.158 31.2536V23.4575C104.158 23.446 104.162 23.4349 104.171 23.4268C104.179 23.4186 104.19 23.4141 104.201 23.4141L108.779 23.4153Z" fill="#666666"/>
<path d="M115.249 31.3367L113.863 31.3201C113.77 31.3189 113.679 31.292 113.599 31.2425C113.52 31.1929 113.457 31.1225 113.415 31.0391C113.343 30.896 113.042 30.2421 112.512 29.0773C112.356 28.7333 112.068 28.5545 111.647 28.5408C111.637 28.5405 111.627 28.5422 111.618 28.5458C111.608 28.5495 111.6 28.5549 111.592 28.562C111.585 28.569 111.579 28.5774 111.575 28.5867C111.571 28.5961 111.569 28.6061 111.569 28.6162V31.2447C111.569 31.2586 111.564 31.2719 111.554 31.2817C111.544 31.2915 111.531 31.2971 111.517 31.2971H109.993C109.979 31.2971 109.966 31.2915 109.956 31.2817C109.946 31.2719 109.941 31.2586 109.941 31.2447V23.5226C109.941 23.5102 109.946 23.4982 109.954 23.4892C109.963 23.4802 109.974 23.4748 109.987 23.4741C110.806 23.4384 111.821 23.4303 113.031 23.4498C113.908 23.4635 114.502 23.8577 114.812 24.6326C115.315 25.8868 115.11 27.3837 113.949 28.2024C113.931 28.2152 113.917 28.2341 113.912 28.2559C113.906 28.2776 113.908 28.3007 113.918 28.3212L115.301 31.2549C115.305 31.2637 115.307 31.2734 115.307 31.283C115.306 31.2927 115.303 31.302 115.298 31.3102C115.292 31.3183 115.285 31.325 115.277 31.3297C115.268 31.3343 115.259 31.3367 115.249 31.3367ZM111.569 25.0221V27.0018C111.569 27.0099 111.573 27.0177 111.578 27.0235C111.584 27.0292 111.592 27.0324 111.6 27.0324H112.541C112.784 27.0324 113.017 26.9392 113.189 26.7732C113.361 26.6072 113.457 26.3821 113.457 26.1473V25.8766C113.457 25.6418 113.361 25.4167 113.189 25.2507C113.017 25.0847 112.784 24.9914 112.541 24.9914H111.6C111.592 24.9914 111.584 24.9947 111.578 25.0004C111.573 25.0062 111.569 25.014 111.569 25.0221Z" fill="#666666"/>
</g>
<defs>
<clipPath id="clip0_191_890">
<rect width="115.395" height="32" fill="white" transform="translate(0.26123)"/>
</clipPath>
</defs>
</svg>
