<svg width="96" height="32" viewBox="0 0 96 32" fill="none" xmlns="http://www.w3.org/2000/svg">
<g clip-path="url(#clip0_191_931)">
<path d="M54.8622 0.018336C54.844 0.119202 54.8895 0.17191 54.9987 0.17646C55.089 0.180252 55.3882 0.168497 55.8963 0.141195C55.9179 0.140191 55.9394 0.145173 55.9584 0.155602C55.9775 0.166031 55.9934 0.181506 56.0044 0.200349L56.0339 0.251541C56.0454 0.271724 56.062 0.288604 56.0819 0.300558C56.1018 0.312512 56.1245 0.319137 56.1477 0.319796C56.376 0.329655 56.5997 0.286047 56.8189 0.188974L57.1215 0.231064C57.2868 0.447205 57.4552 0.571202 57.6266 0.603054C57.6808 0.61303 57.73 0.641482 57.7656 0.683577C57.8013 0.725673 57.8213 0.778817 57.8222 0.833983L57.8404 1.85212C57.8404 1.85646 57.8411 1.86056 57.8424 1.86369C57.8436 1.86682 57.8454 1.86877 57.8472 1.86918C57.8541 1.87146 57.8639 1.87146 57.8768 1.86918C57.8774 1.86918 57.878 1.86894 57.8784 1.86852C57.8789 1.86809 57.8791 1.86751 57.8791 1.86691L57.9906 0.606467C58.0808 1.23365 58.0907 1.82254 58.0202 2.37313C58.0165 2.4018 58.0062 2.42921 57.99 2.45316C57.9738 2.4771 57.9523 2.4969 57.927 2.51096C57.9018 2.52502 57.8736 2.53295 57.8447 2.53411C57.8158 2.53526 57.7871 2.52961 57.7608 2.51761C57.2625 2.28554 56.696 2.23435 56.1625 2.12173C56.0434 1.79486 55.7693 1.77211 55.34 2.05347L54.4447 2.04437C53.9867 1.81913 53.6162 1.85212 53.3333 2.14334C53.3113 2.18505 53.2298 2.20401 53.0887 2.20022C52.7338 2.2207 52.4111 2.34886 52.1207 2.58472C51.9925 2.68862 51.9208 2.83575 51.9057 3.02611C51.8909 3.21836 51.8294 3.33325 51.7919 3.50275C51.7836 3.53751 51.7794 3.5734 51.7794 3.60969C51.7763 4.85572 51.7873 6.15105 51.8124 7.49567C51.8268 8.31473 51.8025 10.4113 51.7396 13.7854C51.738 13.8787 51.7661 13.9602 51.8237 14.0299C51.8386 14.048 51.8491 14.0693 51.8544 14.0921C51.8597 14.115 51.8597 14.1389 51.8545 14.1619C51.8105 14.3538 51.9144 14.5669 52.1662 14.8012C52.6219 15.2237 53.1168 15.3602 53.6507 15.2108L54.4186 15.2142C54.4224 15.3264 54.4652 15.4038 54.5471 15.4462C54.5679 15.4574 54.5916 15.4625 54.6154 15.461C55.0181 15.4375 55.1042 15.3605 54.8736 15.2301C54.9783 15.1785 55.0461 15.1581 55.0772 15.1687C55.3639 15.2885 55.6547 15.2995 55.9498 15.2017C56.3126 15.0811 56.6255 14.9298 56.6255 14.5202C56.6232 11.3919 56.6243 9.57859 56.6289 9.08032C56.6304 8.88087 56.7199 8.78341 56.8974 8.78797C57.2879 8.79934 57.6994 8.8001 58.1316 8.79024C58.161 8.78948 58.1903 8.79463 58.2177 8.80539C58.245 8.81616 58.27 8.83231 58.291 8.8529C58.312 8.87348 58.3287 8.89808 58.34 8.92523C58.3513 8.95237 58.357 8.98152 58.3569 9.01093V15.7625C58.3568 15.8177 58.3416 15.8718 58.313 15.9189C58.2843 15.9661 58.2432 16.0044 58.1942 16.0298L57.5014 16.3904C57.4788 16.4025 57.455 16.4109 57.4309 16.4155L56.9656 16.5087C56.9582 16.5102 56.9513 16.5134 56.9453 16.5181C56.9394 16.5229 56.9346 16.529 56.9315 16.536C56.93 16.5398 56.9277 16.5474 56.9247 16.5588C56.9219 16.5703 56.9162 16.5808 56.9083 16.5894C56.9003 16.5979 56.8903 16.6043 56.8792 16.6077C56.5212 16.7177 56.2493 16.7571 56.0635 16.726C56.0549 16.7245 56.046 16.7258 56.0383 16.7298C56.0305 16.7338 56.0243 16.7402 56.0205 16.7481C56.0168 16.756 56.0157 16.7649 56.0175 16.7735C56.0193 16.782 56.0239 16.7897 56.0305 16.7954C56.0457 16.8075 56.0681 16.8098 56.0976 16.8022C56.1004 16.8016 56.1034 16.8015 56.1062 16.8021C56.109 16.8027 56.1116 16.8039 56.1139 16.8057C56.1162 16.8074 56.1181 16.8096 56.1194 16.8122C56.1207 16.8147 56.1214 16.8176 56.1215 16.8204C56.1223 16.8311 56.12 16.8451 56.1147 16.8625C56.111 16.8758 56.1026 16.8872 56.0911 16.8947C56.0796 16.9023 56.0658 16.9054 56.0521 16.9035L55.6233 16.8352C55.5976 16.8315 55.5719 16.8315 55.5471 16.8352C55.3901 16.858 55.3195 16.982 55.1478 16.9808C54.9991 16.9793 54.8452 16.9588 54.6859 16.9194C54.6799 16.9179 54.6733 16.9175 54.6666 16.9183L53.5984 16.9706C53.5316 16.9736 53.4653 16.9623 53.4038 16.9376C53.0216 16.7806 52.9443 16.8739 52.6474 16.8967C52.6323 16.8979 52.6173 16.8938 52.605 16.8851C52.5927 16.8763 52.584 16.8635 52.5802 16.8489C52.5795 16.8481 52.5783 16.8402 52.5768 16.825C52.5745 16.8068 52.5669 16.7897 52.555 16.7759C52.543 16.7621 52.5272 16.7523 52.5097 16.7476C51.2834 16.4007 50.3221 15.8148 50.0218 14.4838C50.0152 14.4535 49.9997 14.4257 49.9774 14.4042L49.8478 14.2734C49.8357 14.2613 49.8264 14.2466 49.8207 14.2305C49.815 14.2143 49.813 14.1971 49.8148 14.1801C49.8421 13.9147 49.8546 13.7448 49.8523 13.6705C49.8462 13.493 49.7905 13.4259 49.6851 13.4691C49.7147 10.2232 49.7135 6.97504 49.6817 3.72458C49.6779 3.37421 49.7059 3.08678 49.7659 2.86229C49.8409 2.58245 49.9464 2.31246 50.0821 2.05233C50.387 1.46913 50.8128 1.03306 51.3596 0.744114C51.6994 0.628839 52.0255 0.507876 52.3379 0.381225C52.5711 0.286806 52.7531 0.529111 53.0057 0.273155C53.0319 0.246647 53.0658 0.229885 53.1001 0.22648C53.1343 0.223076 53.1662 0.233301 53.1888 0.254953C53.3473 0.405114 53.4941 0.396014 53.6291 0.227651C53.6413 0.212176 53.6565 0.199355 53.6737 0.189968C53.6909 0.18058 53.7098 0.174823 53.7292 0.173047C53.7603 0.169255 53.9882 0.168118 54.4129 0.169635C54.513 0.170393 54.5627 0.122235 54.5619 0.0251615C54.659 -0.0059324 54.7591 -0.00820756 54.8622 0.018336Z" fill="#666666"/>
<path d="M54.562 0.0243756C54.5627 0.121449 54.5131 0.169607 54.413 0.168849C53.9883 0.167332 53.7604 0.16847 53.7293 0.172261C53.7099 0.174038 53.691 0.179794 53.6738 0.189182C53.6566 0.198569 53.6414 0.211391 53.6292 0.226865C53.4942 0.395228 53.3474 0.404328 53.1889 0.254167C53.1663 0.232515 53.1344 0.22229 53.1001 0.225694C53.0659 0.229099 53.032 0.245861 53.0058 0.272369C52.7532 0.528325 52.5712 0.28602 52.338 0.380439C52.0255 0.50709 51.6994 0.628053 51.3597 0.743328C51.9444 0.366409 52.5735 0.161644 53.2469 0.129033C53.2848 0.127518 53.3225 0.122183 53.3596 0.113107C53.7524 0.0183085 54.1532 -0.0112686 54.562 0.0243756Z" fill="#666666"/>
<path d="M56.819 0.188331C56.5998 0.285405 56.3761 0.329012 56.1478 0.319153C56.1246 0.318495 56.1019 0.31187 56.082 0.299916C56.0621 0.287962 56.0456 0.271081 56.0341 0.250898L56.0045 0.199707C55.9935 0.180864 55.9776 0.165388 55.9586 0.154959C55.9395 0.144531 55.918 0.139548 55.8964 0.140552C55.3883 0.167854 55.0891 0.179609 54.9989 0.175817C54.8897 0.171267 54.8442 0.118559 54.8624 0.0176933C55.5077 0.0146598 56.16 0.0715389 56.819 0.188331Z" fill="#666666"/>
<path d="M9.79808 3.22076C9.73059 3.34968 9.6885 3.48468 9.67181 3.62574C9.67151 3.64233 9.66463 3.65813 9.65268 3.66965C9.64073 3.68117 9.6247 3.68747 9.60811 3.68717C9.59151 3.68687 9.57572 3.67998 9.5642 3.66804C9.55268 3.65609 9.54637 3.64006 9.54668 3.62346L9.47273 2.60988C9.472 2.5995 9.46845 2.58949 9.46245 2.58088C9.45644 2.57228 9.44821 2.5654 9.43861 2.56096C9.36883 2.52683 9.27707 2.39184 9.16331 2.15598C9.08444 1.99141 8.99381 1.85149 8.89143 1.73621C8.30292 1.07262 7.56159 0.653611 6.66745 0.479182C6.05771 0.360873 5.5257 0.300202 5.07142 0.297169C3.40448 0.28731 2.33895 0.284276 1.87481 0.288068C1.55402 0.291481 1.26735 0.172035 1.01139 0.374524C0.996691 0.386037 0.978457 0.392102 0.959791 0.391687C0.941125 0.391272 0.923179 0.384403 0.909007 0.372249C0.866537 0.335088 0.821413 0.312336 0.773634 0.303994C0.7615 0.234222 0.785389 0.180377 0.845302 0.142457C0.855666 0.135791 0.868309 0.132235 0.881705 0.132219C3.7359 0.129944 5.0191 0.10378 6.37851 0.193649C7.4668 0.265696 8.35525 0.693427 9.04386 1.47684C9.50193 1.99786 9.75334 2.57916 9.79808 3.22076Z" fill="#666666"/>
<path d="M13.4338 0.148279C13.2094 0.384896 13.0971 0.653745 13.0971 0.954825C13.0918 6.09367 13.0861 11.2958 13.0801 16.5613C13.08 16.5875 13.0725 16.613 13.0584 16.635C13.0443 16.657 13.0242 16.6744 13.0004 16.6853C12.9875 16.6906 12.9602 16.6618 12.9185 16.5989L12.9197 0.408785C12.9196 0.359476 12.9319 0.310907 12.9553 0.267429C12.9787 0.22395 13.0126 0.18692 13.0539 0.159654C13.1062 0.125527 13.2329 0.121735 13.4338 0.148279Z" fill="#666666"/>
<path d="M12.9183 16.5995C12.9601 16.6625 12.9874 16.6913 13.0002 16.686C13.024 16.6751 13.0441 16.6576 13.0582 16.6356C13.0723 16.6137 13.0799 16.5881 13.0799 16.562C13.0859 11.2965 13.0916 6.0943 13.0969 0.955461C13.0969 0.65438 13.2092 0.385532 13.4337 0.148914L15.0229 0.138676C15.0436 0.138526 15.0641 0.142476 15.0833 0.150298C15.1025 0.15812 15.1199 0.16966 15.1346 0.184252C15.1493 0.198845 15.161 0.216201 15.1689 0.235322C15.1769 0.254443 15.181 0.274951 15.181 0.295662V16.8555C15.181 16.8799 15.1762 16.904 15.1668 16.9265C15.1574 16.949 15.1436 16.9694 15.1262 16.9866C15.1089 17.0037 15.0883 17.0173 15.0657 17.0264C15.043 17.0355 15.0188 17.0401 14.9944 17.0398C14.1807 17.0329 13.599 17.0337 13.2494 17.042C12.932 17.05 12.8945 16.868 12.9183 16.5995Z" fill="#666666"/>
<path d="M17.1082 0.139121C17.0764 0.517557 17.0646 0.895614 17.073 1.27329C17.0809 1.62822 17.0138 1.94788 17.4438 1.91261C17.8336 1.88076 18.7077 1.86484 20.0659 1.86484C20.3109 1.86484 20.433 1.99679 20.4322 2.26071C20.4216 4.50479 20.3913 6.83721 20.3412 9.25799C20.3374 9.42559 20.3287 9.64097 20.3151 9.90414C20.3128 9.9504 20.2908 9.98225 20.2491 9.99969C20.2339 10.0058 20.2207 9.98756 20.2093 9.94509L20.1968 2.31646C20.1965 2.25631 20.1725 2.19873 20.1301 2.15631C20.0876 2.11389 20.0302 2.09008 19.9704 2.09008H16.9729C16.934 2.09008 16.8967 2.07481 16.8691 2.04757C16.8414 2.02033 16.8256 1.98329 16.825 1.94447C16.8151 1.41663 16.8143 0.870208 16.8227 0.305208C16.8242 0.188417 16.9194 0.133054 17.1082 0.139121Z" fill="#666666"/>
<path d="M17.9556 0.154276C18.196 0.221014 18.5748 0.255521 19.0921 0.257796C20.8174 0.266897 22.5427 0.265001 24.2681 0.252108C24.7011 0.249075 25.0242 0.21381 25.2373 0.146313L25.6912 0.141763C25.716 0.141461 25.7407 0.146094 25.7637 0.155392C25.7867 0.16469 25.8077 0.178468 25.8254 0.195928C25.843 0.213388 25.8571 0.234182 25.8667 0.257104C25.8762 0.280027 25.8812 0.304622 25.8812 0.329464V1.93459C25.8812 1.97442 25.8653 2.01261 25.8372 2.04077C25.809 2.06893 25.7708 2.08475 25.731 2.08475L25.0029 2.08589C25.028 2.0639 25.0519 2.05176 25.0746 2.04949C25.0755 2.04949 25.0764 2.04913 25.077 2.04849C25.0777 2.04785 25.078 2.04698 25.078 2.04608C25.078 2.04517 25.0777 2.0443 25.077 2.04366C25.0764 2.04302 25.0755 2.04266 25.0746 2.04266C25.039 2.04342 25.0268 2.03129 25.0382 2.00626C25.0397 2.00209 25.0425 1.99855 25.0462 1.99611C25.0498 1.99367 25.0542 1.99245 25.0587 1.99261H25.4637C25.4643 1.99261 25.4649 1.99249 25.4654 1.99226C25.466 1.99204 25.4665 1.9917 25.4669 1.99128C25.4673 1.99086 25.4676 1.99035 25.4679 1.9898C25.4681 1.98925 25.4682 1.98866 25.4682 1.98806V1.92094C25.4682 1.91038 25.464 1.90026 25.4566 1.89279C25.4491 1.88532 25.439 1.88113 25.4284 1.88113H22.4604C22.4437 1.88109 22.4272 1.88481 22.4121 1.89203C22.397 1.89924 22.3837 1.90977 22.3731 1.92284C22.3625 1.93591 22.355 1.9512 22.351 1.9676C22.347 1.98399 22.3467 2.00109 22.3501 2.01764C22.3721 2.1223 22.4127 2.186 22.4718 2.20875L22.465 16.7459C22.465 16.7617 22.4619 16.7772 22.4559 16.7914C22.3793 16.9613 22.2435 17.047 22.0486 17.0485C21.6186 17.0523 21.0874 17.0535 20.4549 17.0519C20.3875 17.0516 20.323 17.0247 20.2754 16.9769C20.2279 16.9291 20.2012 16.8645 20.2012 16.7971L20.2092 9.94659C20.2205 9.98906 20.2338 10.0073 20.249 10.0012C20.2907 9.98375 20.3127 9.9519 20.315 9.90564C20.3286 9.64248 20.3373 9.4271 20.3411 9.25949C20.3912 6.83872 20.4215 4.50629 20.4321 2.26222C20.4329 1.9983 20.3108 1.86634 20.0658 1.86634C18.7076 1.86634 17.8335 1.88226 17.4437 1.91412C17.0137 1.94938 17.0808 1.62972 17.0728 1.2748C17.0645 0.897118 17.0763 0.519061 17.1081 0.140625L17.9556 0.154276Z" fill="#666666"/>
<path d="M25.2373 0.146484C25.0242 0.213981 24.7011 0.249246 24.2681 0.25228C22.5427 0.265172 20.8174 0.267068 19.0921 0.257968C18.5749 0.255692 18.196 0.221186 17.9556 0.154447L25.2373 0.146484Z" fill="#666666"/>
<path d="M38.6062 0.284496C38.5751 0.35806 38.4925 0.405459 38.3582 0.426694C38.1156 0.463855 37.9184 0.426694 37.7667 0.315211C37.749 0.30192 37.7274 0.294735 37.7053 0.294735L32.7409 0.265158C32.7164 0.265008 32.6922 0.269693 32.6696 0.278944C32.6469 0.288196 32.6264 0.30183 32.609 0.319064C32.5917 0.336297 32.5779 0.356789 32.5685 0.37936C32.5591 0.401932 32.5543 0.426137 32.5543 0.450584V16.7647C32.5543 16.8081 32.5716 16.8498 32.6023 16.8805C32.633 16.9112 32.6747 16.9285 32.7181 16.9285H37.8247C37.8398 16.9285 37.8548 16.9258 37.8691 16.9205C38.2847 16.7529 38.6529 16.6649 38.9737 16.6566C38.9996 16.6558 39.0242 16.6475 39.0442 16.6327L39.1739 16.5349C39.1979 16.5168 39.2258 16.5037 39.2558 16.4962C39.4439 16.4477 39.6047 16.3764 39.7381 16.2823C39.9338 16.1447 40.1704 16.1583 40.3138 15.9524C40.4525 15.753 40.6008 15.5793 40.7585 15.4314C40.7841 15.4074 40.805 15.3784 40.82 15.3461C40.8807 15.2157 40.969 15.1228 41.085 15.0674C41.1048 15.0581 41.1211 15.043 41.1319 15.024C41.1427 15.0051 41.1474 14.9833 41.1453 14.9616C41.1211 14.7159 41.1639 14.4823 41.2739 14.2608C41.3135 14.1808 41.3338 14.0927 41.333 14.0038C41.3292 13.6951 41.4108 13.4695 41.5776 13.3269C41.5594 14.8171 40.9387 15.8963 39.7154 16.5645C39.4879 16.6884 39.2057 16.726 38.9578 16.8375C38.8485 16.8868 38.745 16.9148 38.6472 16.9217C38.4068 16.9383 38.1687 16.9637 37.9328 16.9979C37.6802 17.0343 37.4421 17.0525 37.2184 17.0525C35.5643 17.0517 34.0415 17.0506 32.6499 17.0491C32.5782 17.0488 32.5097 17.0201 32.4591 16.9694C32.4086 16.9186 32.3802 16.8499 32.3802 16.7783C32.3802 12.2568 32.3806 6.80664 32.3814 0.427832C32.3814 0.232168 32.483 0.134335 32.6863 0.134335C34.7771 0.134335 36.5904 0.067218 38.4595 0.215104C38.5111 0.218896 38.56 0.242027 38.6062 0.284496Z" fill="#666666"/>
<path d="M46.6944 0.181557C46.5776 0.200517 46.5192 0.287352 46.5192 0.442064C46.5048 5.76974 46.5048 11.1672 46.5192 16.6344C46.5192 16.6799 46.5287 16.7239 46.5477 16.7664C46.5659 16.8096 46.6375 16.8346 46.7627 16.8415C46.7285 16.9856 46.6523 17.0561 46.534 17.0531C45.922 17.0371 45.3168 17.0364 44.7184 17.0508C44.6885 17.0515 44.6588 17.0463 44.6309 17.0354C44.6031 17.0245 44.5777 17.0081 44.5563 16.9872C44.5349 16.9663 44.5179 16.9413 44.5062 16.9138C44.4946 16.8862 44.4886 16.8566 44.4886 16.8267V0.39656C44.4886 0.326605 44.5158 0.259374 44.5644 0.209066C44.613 0.158759 44.6792 0.129314 44.7492 0.126953C44.7613 0.126953 45.3665 0.127712 46.5647 0.129228C46.6011 0.129228 46.6444 0.146671 46.6944 0.181557Z" fill="#666666"/>
<path d="M61.6729 17.0066C62.3243 16.9012 62.9819 16.8807 63.6455 16.9452C63.6579 16.9463 63.6703 16.9428 63.6804 16.9353C63.6904 16.9278 63.6974 16.9168 63.6998 16.9047C63.7022 16.8925 63.7 16.88 63.6935 16.8696C63.687 16.8592 63.6768 16.8516 63.6648 16.8485C63.5692 16.8204 63.5249 16.7495 63.5317 16.6357C63.5317 16.6327 63.5317 16.6039 63.5317 16.5493C63.5173 10.7476 63.5249 5.36911 63.5545 0.413796C63.5546 0.393532 63.5507 0.37344 63.5431 0.354676C63.5354 0.335912 63.5242 0.318848 63.5099 0.304466C63.4956 0.290085 63.4786 0.278671 63.4599 0.270882C63.4412 0.263093 63.4211 0.259084 63.4009 0.259084H61.7969C61.7838 0.259277 61.771 0.263172 61.76 0.270319C61.7491 0.277465 61.7403 0.287572 61.7349 0.29947C61.7294 0.311368 61.7274 0.324572 61.7291 0.337556C61.7308 0.35054 61.7362 0.362773 61.7446 0.372843C61.8113 0.450198 61.8481 0.517695 61.8549 0.575332C61.8557 0.581392 61.856 0.587474 61.856 0.593534L61.8777 16.729C61.8776 16.7373 61.8761 16.745 61.8731 16.7518C61.839 16.8231 61.7457 16.8284 61.5933 16.7677L61.6126 0.20448C61.6126 0.185473 61.6202 0.167244 61.6336 0.153803C61.647 0.140363 61.6653 0.132813 61.6843 0.132812H63.6694C63.7113 0.132813 63.7515 0.149472 63.7812 0.179126C63.8108 0.20878 63.8275 0.248999 63.8275 0.290937V16.8246C63.8275 16.8542 63.8216 16.8836 63.8101 16.911C63.7986 16.9383 63.7818 16.9631 63.7606 16.9839C63.7394 17.0046 63.7143 17.021 63.6867 17.0319C63.6591 17.0428 63.6296 17.0481 63.6 17.0475L61.6729 17.0066Z" fill="#666666"/>
<path d="M67.3018 0.137358C67.549 0.191962 67.7249 0.220022 67.8296 0.221539C70.2102 0.247324 72.2855 0.261354 74.0556 0.263629C74.1066 0.263629 74.1555 0.284004 74.1915 0.320272C74.2276 0.356539 74.2478 0.405729 74.2478 0.457019V1.66286C74.2478 1.71807 74.226 1.77102 74.1872 1.81006C74.1484 1.8491 74.0957 1.87103 74.0408 1.87103H71.0456C71.0238 1.87105 71.0027 1.87841 70.9856 1.89193C70.9685 1.90545 70.9565 1.92433 70.9515 1.94552C70.9465 1.96671 70.9488 1.98896 70.958 2.00868C70.9673 2.0284 70.9829 2.04444 71.0023 2.05419L71.107 2.10651L71.1058 16.9474C71.1058 16.9741 71.0953 16.9997 71.0766 17.0186C71.0579 17.0376 71.0324 17.0484 71.0057 17.0487C70.3512 17.0502 69.7024 17.0517 69.0593 17.0532C68.7397 17.0532 68.7977 16.8132 68.8045 16.5413C68.8311 15.4272 68.8447 14.6779 68.8455 14.2934C68.8546 10.1822 68.8496 6.2386 68.8307 2.46258C68.8299 2.31469 68.7943 2.21041 68.7237 2.14974C68.8223 2.13837 68.8993 2.11903 68.9547 2.09173C68.9767 2.08139 68.9947 2.06391 69.0055 2.04212C69.0164 2.02032 69.0196 1.99549 69.0146 1.97166C69.0096 1.94782 68.9967 1.92637 68.978 1.91079C68.9592 1.89521 68.9358 1.88641 68.9114 1.88582C68.6043 1.87331 68.304 1.91199 68.0139 1.89834C67.2199 1.86042 66.5309 1.86421 65.9469 1.90971C65.8385 1.91881 65.807 1.97873 65.8525 2.08945C65.6189 2.13116 65.4888 2.09135 65.4623 1.97C65.4335 1.84184 65.4335 1.6219 65.4623 1.31021C65.4714 1.20345 65.4718 1.09579 65.4634 0.98827C65.4384 0.670884 65.3281 0.115744 65.733 0.119156C66.2563 0.123707 66.7792 0.129774 67.3018 0.137358Z" fill="#666666"/>
<path d="M71.1069 2.10489L71.0022 2.05256C70.9827 2.04281 70.9671 2.02678 70.9579 2.00706C70.9487 1.98733 70.9464 1.96508 70.9514 1.94389C70.9564 1.9227 70.9684 1.90382 70.9855 1.89031C71.0025 1.87679 71.0237 1.86943 71.0454 1.86941H74.0407C74.0956 1.86941 74.1483 1.84748 74.1871 1.80843C74.2259 1.76939 74.2477 1.71644 74.2477 1.66123V0.455393C74.2477 0.404103 74.2275 0.354913 74.1914 0.318646C74.1554 0.282378 74.1065 0.262004 74.0555 0.262004C72.2854 0.259728 70.2101 0.245698 67.8295 0.219913C67.7248 0.218396 67.5489 0.190336 67.3016 0.135732L74.2773 0.128906C74.3128 0.128894 74.3474 0.140036 74.3763 0.160759C74.4695 0.227497 74.5101 0.331775 74.498 0.473594C74.4578 0.923319 74.4578 1.37911 74.498 1.84097C74.5007 1.87268 74.4967 1.9046 74.4864 1.93473C74.4761 1.96486 74.4596 1.99254 74.438 2.01604C74.4164 2.03954 74.3902 2.05835 74.361 2.07129C74.3318 2.08423 74.3002 2.09102 74.2682 2.09124L71.1069 2.10489Z" fill="#666666"/>
<path d="M82.1357 2.14027C81.9317 1.82781 81.8043 1.49033 81.7535 1.12782C81.7468 1.08256 81.727 1.04057 81.6966 1.00723C81.6276 0.933671 81.6018 0.84456 81.6193 0.739903C81.6636 0.470296 81.3872 0.286007 81.1711 0.284869C80.1943 0.278044 79.4605 0.279561 78.9698 0.28942C78.9416 0.290146 78.9147 0.301212 78.8942 0.32051C78.8736 0.339809 78.8609 0.365993 78.8584 0.394077C78.8523 0.4684 78.8246 0.533242 78.7753 0.588604C78.6229 0.754691 78.5512 0.944668 78.6149 1.17332C78.6756 1.39477 78.6339 1.60257 78.4898 1.79672C78.4668 1.82857 78.4537 1.86656 78.4522 1.90593C78.4454 2.15392 78.4682 2.52022 78.161 2.69427C78.158 2.44173 78.2111 2.20018 78.3203 1.96963C78.3233 1.96359 78.3256 1.95748 78.3271 1.95143L78.6832 0.311034C78.6936 0.263373 78.7197 0.220622 78.7573 0.189668C78.7948 0.158713 78.8417 0.141357 78.8902 0.140396C79.2732 0.132813 80.0338 0.130917 81.1722 0.134708C81.3557 0.135467 81.5161 0.204859 81.6534 0.342886C81.8274 0.518074 81.8047 0.847973 81.9139 1.04364C81.9389 1.08687 81.9746 1.25333 82.0208 1.54304C82.0474 1.7114 82.0952 1.87559 82.1642 2.03561C82.1816 2.07656 82.1721 2.11145 82.1357 2.14027Z" fill="#666666"/>
<path d="M89.5699 0.14649C89.5532 5.10408 89.5521 10.0522 89.5665 14.9908C89.5666 15.0419 89.5856 15.0911 89.6199 15.1288C89.6542 15.1665 89.7013 15.1899 89.7519 15.1944C89.8581 15.2051 89.965 15.1709 90.0727 15.0921L94.8563 15.0932C94.9034 15.0932 94.9493 15.1077 94.988 15.1347C95.0266 15.1618 95.0561 15.2001 95.0724 15.2445C95.1073 15.3401 95.1077 15.4667 95.0735 15.6244L94.9825 15.3753C94.9786 15.3657 94.9714 15.3577 94.9623 15.3527C94.9531 15.3476 94.9426 15.3459 94.9323 15.3478C94.922 15.3497 94.9127 15.355 94.9059 15.3629C94.8991 15.3708 94.8952 15.3808 94.8949 15.3912V16.8382C94.895 16.882 94.8782 16.9242 94.8481 16.9558C94.818 16.9874 94.7769 17.006 94.7334 17.0077L93.8074 17.0453L87.7384 17.0487C87.679 17.0487 87.622 17.0251 87.5799 16.9831C87.5379 16.941 87.5143 16.884 87.5143 16.8246C87.5128 7.13011 87.5136 1.66971 87.5166 0.443399C87.5177 0.0236309 88.0194 0.11805 88.3436 0.14649C88.4907 0.158624 88.68 0.156349 88.9113 0.139664C89.1403 0.12298 89.3598 0.125255 89.5699 0.14649Z" fill="#666666"/>
<path d="M89.5699 0.146484C89.7072 0.179853 89.7785 0.264035 89.7838 0.399028C89.8259 1.51727 89.7429 2.81525 89.7656 4.01085C89.7846 4.9778 89.7941 5.53939 89.7941 5.69561C89.7929 8.55664 89.8259 10.9501 89.7622 13.3117C89.7448 13.989 89.7489 14.5111 89.7747 14.8782C89.7853 15.0367 89.8847 15.108 90.0728 15.0921C89.9651 15.1709 89.8581 15.2051 89.752 15.1944C89.7013 15.1899 89.6543 15.1665 89.62 15.1288C89.5856 15.0911 89.5666 15.0419 89.5665 14.9908C89.5521 10.0522 89.5533 5.10407 89.5699 0.146484Z" fill="#666666"/>
<path d="M46.7628 16.8416C46.6377 16.8347 46.566 16.8097 46.5478 16.7665C46.5288 16.724 46.5194 16.68 46.5194 16.6345C46.5049 11.1673 46.5049 5.76984 46.5194 0.44216C46.5194 0.287449 46.5777 0.200613 46.6945 0.181654C46.74 0.180895 46.7628 0.213127 46.7628 0.278348C46.7651 5.80018 46.7651 11.3212 46.7628 16.8416Z" fill="#666666"/>
<path d="M9.7981 3.22046C9.84436 3.42826 9.85156 3.54543 9.81971 3.57197C9.69989 4.43123 9.69571 5.29503 9.8072 6.16339C9.77762 6.19903 9.77307 6.21647 9.79355 6.21572C9.78293 6.21268 9.77307 6.20965 9.76397 6.20662C9.75387 6.20213 9.74504 6.1951 9.73828 6.18616C9.73153 6.17722 9.72706 6.16665 9.72529 6.15542L9.68775 5.86762C9.6862 5.8549 9.68086 5.84294 9.67241 5.83331C9.66396 5.82368 9.6528 5.81682 9.6404 5.81362C9.62799 5.81043 9.61491 5.81105 9.60286 5.81541C9.59081 5.81976 9.58035 5.82765 9.57286 5.83804C9.54404 5.87747 9.53076 5.92791 9.53304 5.98934C9.53987 6.20093 9.53607 6.39583 9.52166 6.57406C9.51866 6.61537 9.50746 6.65595 9.48867 6.6935C9.15536 7.3624 8.92443 7.77307 8.3363 8.1462C8.26729 8.18942 8.16794 8.28195 8.03826 8.42377C8.02556 8.43743 8.00932 8.44724 7.9914 8.45207C7.97349 8.4569 7.95463 8.45656 7.93701 8.45107C7.87937 8.43362 7.84904 8.45107 7.846 8.5034C7.84297 8.56255 7.86496 8.59895 7.91198 8.6126C7.97493 8.63081 8.01209 8.61374 8.02347 8.56141C8.03863 8.49467 8.07693 8.47534 8.13836 8.5034C8.15037 8.50905 8.16092 8.51743 8.1692 8.52788C8.17749 8.53834 8.18328 8.55059 8.18614 8.56369L8.22368 8.7275C8.22884 8.74797 8.2414 8.76581 8.25895 8.77755C8.74735 9.09304 9.02682 9.30615 9.09735 9.41688C9.26116 9.67245 9.4481 9.95306 9.65817 10.2587C9.67929 10.2896 9.69577 10.3237 9.70709 10.3599C9.78141 10.6041 9.80796 10.8491 9.78672 11.0948C9.71733 11.9093 9.7708 12.7557 9.74918 13.6931C9.7416 14.0252 9.73098 14.2258 9.71733 14.2948C9.7137 14.3125 9.7066 14.3293 9.69644 14.3441C9.68628 14.359 9.67327 14.3716 9.65817 14.3813C9.59219 14.423 9.55503 14.4738 9.54669 14.5337C9.52621 14.6763 9.47957 14.8079 9.40677 14.9285C9.28012 15.1363 9.08445 15.404 8.81977 15.7316C8.54448 16.0717 7.94384 16.2674 7.51611 16.6269C7.50291 16.6383 7.48735 16.6468 7.47047 16.6517C7.45359 16.6566 7.43579 16.6578 7.41827 16.6553L7.2465 16.628C7.20708 16.6221 7.1669 16.6272 7.13046 16.6428C6.91053 16.7376 6.65988 16.7547 6.37852 16.694C6.36377 16.6909 6.34836 16.6924 6.33449 16.6984C6.32062 16.7044 6.309 16.7146 6.3013 16.7275C6.2936 16.7404 6.29021 16.7553 6.29162 16.7701C6.29302 16.7849 6.29915 16.7989 6.30913 16.81C6.31595 16.8176 6.31937 16.8222 6.31937 16.8237C6.32048 16.8364 6.31894 16.8493 6.31487 16.8614C6.31079 16.8735 6.30427 16.8847 6.2957 16.8941C6.28714 16.9035 6.27673 16.911 6.26513 16.9161C6.25354 16.9212 6.24101 16.9239 6.22836 16.9238C4.43325 16.9238 2.73067 16.9295 1.12061 16.9409C1.05387 16.9409 0.969313 16.9761 0.866931 17.0466C0.799434 17.0368 0.765686 17.0004 0.765686 16.9374C0.780854 11.3936 0.783508 5.84903 0.773649 0.303696C0.821428 0.312038 0.866552 0.33479 0.909022 0.371951C0.923194 0.384105 0.94114 0.390974 0.959806 0.391389C0.978472 0.391804 0.996705 0.385739 1.0114 0.374226C1.26736 0.171736 1.55403 0.291182 1.87483 0.28777C2.33896 0.283978 3.4045 0.287011 5.07144 0.29687C5.52571 0.299904 6.05772 0.360575 6.66747 0.478884C7.56161 0.653313 8.30293 1.07232 8.89144 1.73591C8.99383 1.85119 9.08445 1.99111 9.16333 2.15568C9.27708 2.39154 9.36885 2.52653 9.43862 2.56066C9.44822 2.5651 9.45646 2.57198 9.46246 2.58058C9.46847 2.58919 9.47202 2.5992 9.47275 2.60958L9.54669 3.62316C9.54639 3.63976 9.55269 3.65579 9.56421 3.66774C9.57573 3.67969 9.59153 3.68657 9.60812 3.68687C9.62471 3.68717 9.64075 3.68087 9.6527 3.66935C9.66464 3.65783 9.67152 3.64203 9.67183 3.62544C9.68851 3.48438 9.7306 3.34939 9.7981 3.22046ZM5.7665 7.64225C6.99737 7.73174 7.62797 7.25547 7.6583 6.21344C7.66058 6.13836 7.62873 6.07921 7.59346 6.01778V3.64819C7.79974 2.89663 7.4979 2.37486 6.68794 2.08288C6.64768 2.06869 6.60419 2.06516 6.56167 2.07264L6.47294 2.08743C6.29093 1.91755 6.12598 1.84323 5.97809 1.86446C5.65274 1.9111 5.43091 1.95433 5.14538 1.95205C4.7897 1.94826 4.11321 1.94788 3.11593 1.95092C3.08938 1.95092 3.06392 1.96146 3.04515 1.98024C3.02637 1.99901 3.01583 2.02447 3.01583 2.05102V7.35899C3.01573 7.42077 3.03934 7.48026 3.08185 7.5253C3.12435 7.57034 3.18252 7.59752 3.24448 7.60129C3.60016 7.62253 3.98163 7.61874 4.38889 7.58992C4.9099 7.55351 5.36911 7.57096 5.7665 7.64225ZM7.83023 3.60262C7.83022 3.59799 7.8293 3.5934 7.82752 3.58913C7.82573 3.58485 7.82313 3.58097 7.81985 3.5777C7.81657 3.57443 7.81267 3.57184 7.80839 3.57008C7.80411 3.56832 7.79952 3.56741 7.79489 3.56742L7.79034 3.56743C7.78099 3.56745 7.77203 3.57118 7.76543 3.57781C7.75883 3.58443 7.75513 3.5934 7.75515 3.60276L7.7594 6.04173C7.75941 6.04637 7.76033 6.05095 7.76211 6.05522C7.76389 6.0595 7.7665 6.06338 7.76978 6.06665C7.77306 6.06992 7.77695 6.07251 7.78123 6.07427C7.78551 6.07604 7.7901 6.07694 7.79473 6.07693L7.79928 6.07692C7.80863 6.0769 7.8176 6.07317 7.8242 6.06655C7.8308 6.05992 7.8345 6.05095 7.83448 6.0416L7.83023 3.60262ZM0.993203 4.29093C0.993203 4.28308 0.990087 4.27556 0.98454 4.27001C0.978993 4.26446 0.97147 4.26135 0.963626 4.26135H0.96135C0.957466 4.26135 0.95362 4.26211 0.950032 4.2636C0.946443 4.26509 0.943183 4.26726 0.940436 4.27001C0.93769 4.27276 0.935511 4.27602 0.934025 4.27961C0.932538 4.2832 0.931773 4.28704 0.931773 4.29093V14.0878C0.931773 14.0956 0.934889 14.1032 0.940436 14.1087C0.945983 14.1143 0.953506 14.1174 0.96135 14.1174H0.963626C0.97147 14.1174 0.978993 14.1143 0.98454 14.1087C0.990087 14.1032 0.993203 14.0956 0.993203 14.0878V4.29093ZM3.26837 7.73325C3.17509 7.67941 3.09432 7.65324 3.02606 7.65476C3.00908 7.65405 2.99246 7.65981 2.97955 7.67088C2.96665 7.68195 2.95843 7.69751 2.95656 7.71441C2.95468 7.7313 2.95928 7.74828 2.96944 7.76192C2.9796 7.77555 2.99455 7.78482 3.01128 7.78786C3.03782 7.79392 3.1201 7.79127 3.25813 7.77989C3.26344 7.77942 3.26845 7.77727 3.27245 7.77375C3.27645 7.77024 3.27922 7.76553 3.28037 7.76033C3.28151 7.75513 3.28096 7.7497 3.2788 7.74483C3.27665 7.73996 3.27299 7.7359 3.26837 7.73325ZM5.74716 7.75208C5.74716 7.74849 5.74644 7.74495 5.74507 7.74163C5.74369 7.73832 5.74167 7.73532 5.73913 7.73279C5.73659 7.73026 5.73358 7.72825 5.73027 7.72688C5.72695 7.72552 5.7234 7.72482 5.71982 7.72482L3.87921 7.72803C3.87562 7.72804 3.87207 7.72875 3.86876 7.73013C3.86545 7.7315 3.86244 7.73352 3.85991 7.73606C3.85738 7.7386 3.85538 7.74161 3.85401 7.74493C3.85264 7.74824 3.85194 7.75179 3.85195 7.75538C3.85196 7.75896 3.85267 7.76251 3.85405 7.76582C3.85542 7.76913 3.85744 7.77214 3.85998 7.77467C3.86252 7.7772 3.86553 7.77921 3.86885 7.78057C3.87216 7.78194 3.87571 7.78264 3.8793 7.78263L5.71991 7.77943C5.72349 7.77942 5.72704 7.77871 5.73035 7.77733C5.73366 7.77595 5.73667 7.77394 5.7392 7.7714C5.74173 7.76886 5.74374 7.76585 5.7451 7.76253C5.74647 7.75922 5.74717 7.75566 5.74716 7.75208ZM3.01583 9.60685L3.0272 15.082C3.12124 15.1655 3.246 15.2094 3.40147 15.214C3.9786 15.2307 4.65584 15.2409 5.43319 15.2447C5.57349 15.2455 5.81921 15.2853 6.17034 15.3642C6.18975 15.3687 6.21006 15.3682 6.22937 15.3626C6.24867 15.357 6.26634 15.3466 6.28069 15.3323L6.32847 15.2845C6.35624 15.2567 6.3935 15.2401 6.43313 15.2379C7.16232 15.1981 7.91312 14.4677 7.93701 13.7295C7.94839 13.3867 7.92033 13.119 7.85283 12.9263C7.84605 12.9068 7.84259 12.8856 7.84259 12.8638V11.8422C7.84259 11.8316 7.84335 11.8217 7.84487 11.8126C7.93815 11.35 7.97 11.0292 7.94042 10.8502C7.83425 10.2139 7.46453 9.78545 6.83128 9.56476C6.81785 9.55988 6.80344 9.55832 6.78926 9.56021C6.77508 9.56209 6.76154 9.56737 6.74975 9.5756C6.73796 9.58383 6.72827 9.59477 6.72148 9.60753C6.71468 9.62028 6.71099 9.63448 6.7107 9.64894L6.70956 9.71492L6.57987 9.66828C6.66709 9.62278 6.68681 9.58069 6.63903 9.54201C6.45701 9.3964 6.27121 9.3399 6.08161 9.37251C5.90567 9.40209 5.77181 9.40436 5.68005 9.37933C5.5496 9.34445 5.2781 9.32777 4.86554 9.32928C4.23607 9.3308 3.63202 9.32701 3.05337 9.31791C3.03721 9.31753 3.02153 9.32319 3.00949 9.33375C2.99745 9.34431 2.98996 9.35898 2.98852 9.37478C2.97336 9.52419 2.98246 9.60154 3.01583 9.60685ZM8.01109 13.0128C8.02859 13.0127 8.04512 12.9399 8.05704 12.8104C8.06896 12.6808 8.0753 12.5052 8.07466 12.322C8.07434 12.2314 8.07232 12.1416 8.06871 12.0578C8.06511 11.974 8.05998 11.8979 8.05363 11.8338C8.04728 11.7697 8.03983 11.7189 8.0317 11.6842C8.02357 11.6495 8.01493 11.6317 8.00627 11.6318C7.98877 11.6318 7.97224 11.7046 7.96032 11.8342C7.9484 11.9637 7.94206 12.1394 7.9427 12.3225C7.94301 12.4132 7.94504 12.503 7.94864 12.5867C7.95225 12.6705 7.95738 12.7466 7.96373 12.8107C7.97008 12.8748 7.97753 12.9256 7.98566 12.9603C7.99378 12.995 8.00243 13.0128 8.01109 13.0128Z" fill="#666666"/>
<path d="M57.1216 0.230469C57.307 0.280522 57.4219 0.344227 57.6221 0.34764C57.7586 0.349915 57.858 0.377217 57.9202 0.429546C58.0172 0.51221 58.0408 0.570985 57.9907 0.605871L57.8792 1.86631C57.8792 1.86692 57.879 1.8675 57.8785 1.86792C57.8781 1.86835 57.8775 1.86859 57.8769 1.86859C57.864 1.87086 57.8542 1.87086 57.8474 1.86859C57.8455 1.86817 57.8438 1.86622 57.8425 1.86309C57.8413 1.85996 57.8406 1.85586 57.8405 1.85152L57.8223 0.833388C57.8214 0.778222 57.8014 0.725078 57.7657 0.682982C57.7301 0.640886 57.6809 0.612434 57.6267 0.602458C57.4553 0.570606 57.2869 0.44661 57.1216 0.230469Z" fill="#666666"/>
<path d="M61.6729 17.0073C61.638 17.0149 61.6115 16.9352 61.5933 16.7684C61.7457 16.829 61.839 16.8237 61.8731 16.7524C61.8761 16.7457 61.8776 16.7379 61.8777 16.7297L61.856 0.594215C61.856 0.588155 61.8557 0.582073 61.8549 0.576014C61.8481 0.518376 61.8113 0.45088 61.7446 0.373524C61.7362 0.363455 61.7308 0.351221 61.7291 0.338237C61.7274 0.325253 61.7294 0.312049 61.7349 0.300151C61.7403 0.288253 61.7491 0.278146 61.76 0.271C61.771 0.263853 61.7838 0.259959 61.7969 0.259766H63.4009C63.4211 0.259765 63.4412 0.263775 63.4599 0.271564C63.4786 0.279352 63.4956 0.290766 63.5099 0.305148C63.5242 0.319529 63.5354 0.336593 63.5431 0.355357C63.5507 0.374121 63.5546 0.394214 63.5545 0.414477C63.5249 5.36979 63.5173 10.7483 63.5317 16.55C63.5317 16.6046 63.5317 16.6334 63.5317 16.6364C63.5249 16.7502 63.5692 16.8211 63.6648 16.8491C63.6768 16.8523 63.687 16.8598 63.6935 16.8703C63.7 16.8807 63.7022 16.8932 63.6998 16.9054C63.6974 16.9175 63.6904 16.9284 63.6804 16.9359C63.6703 16.9434 63.6579 16.947 63.6455 16.9458C62.9819 16.8814 62.3243 16.9019 61.6729 17.0073Z" fill="#666666"/>
<path d="M38.6062 0.284967L38.72 0.32137C38.6813 0.363081 38.6551 0.402518 38.6415 0.439679C38.6386 0.447682 38.6374 0.456179 38.638 0.464634C38.6385 0.473089 38.6408 0.481318 38.6446 0.488801C38.6485 0.496285 38.6538 0.50286 38.6603 0.508111C38.6668 0.513362 38.6744 0.517175 38.6824 0.51931C39.7335 0.799155 40.6254 1.43165 41.0554 2.45661C41.201 2.8032 41.2826 2.98104 41.3 2.99014C41.3161 2.99875 41.3287 3.01271 41.3358 3.0297C41.3428 3.04668 41.3438 3.06564 41.3387 3.08342C41.3076 3.18732 41.3118 3.31625 41.3512 3.4702C41.402 3.66435 41.4767 3.84598 41.5753 4.0151L41.5776 13.3274C41.4107 13.4699 41.3292 13.6956 41.333 14.0042C41.3337 14.0932 41.3135 14.1813 41.2738 14.2613C41.1639 14.4828 41.121 14.7163 41.1453 14.9621C41.1474 14.9838 41.1427 15.0056 41.1319 15.0245C41.1211 15.0434 41.1047 15.0586 41.085 15.0679C40.969 15.1232 40.8806 15.2161 40.8199 15.3466C40.8049 15.3789 40.7841 15.4078 40.7585 15.4319C40.6008 15.5798 40.4525 15.7534 40.3137 15.9529C40.1704 16.1588 39.9338 16.1452 39.7381 16.2828C39.6046 16.3768 39.4438 16.4481 39.2558 16.4967C39.2258 16.5042 39.1979 16.5173 39.1739 16.5353L39.0442 16.6332C39.0242 16.648 38.9996 16.6563 38.9736 16.6571C38.6528 16.6654 38.2846 16.7534 37.869 16.921C37.8548 16.9262 37.8397 16.9289 37.8247 16.9289H32.7181C32.6746 16.9289 32.633 16.9117 32.6022 16.881C32.5715 16.8502 32.5543 16.8086 32.5543 16.7651V0.451055C32.5543 0.426608 32.5591 0.402403 32.5685 0.379831C32.5779 0.35726 32.5916 0.336768 32.609 0.319535C32.6263 0.302301 32.6469 0.288667 32.6695 0.279415C32.6921 0.270164 32.7164 0.265479 32.7408 0.265628L37.7052 0.295206C37.7274 0.295206 37.7489 0.302391 37.7667 0.315682C37.9183 0.427165 38.1155 0.464326 38.3582 0.427165C38.4924 0.40593 38.5751 0.358531 38.6062 0.284967ZM34.6781 8.57681C34.6781 10.8998 34.6781 13.0054 34.6781 14.8938C34.6781 14.9442 34.6981 14.9925 34.7338 15.0281C34.7694 15.0638 34.8177 15.0838 34.8681 15.0838C35.6856 15.0853 36.5021 15.0845 37.3173 15.0815C38.5038 15.0758 39.3297 14.4138 39.3399 13.1556C39.3445 12.6368 39.3471 11.111 39.3479 8.57795C39.3479 6.04493 39.346 4.51905 39.3422 4.00031C39.332 2.74215 38.5061 2.08007 37.3196 2.07325C36.5043 2.07021 35.6879 2.06946 34.8704 2.07097C34.82 2.07097 34.7717 2.09099 34.736 2.12662C34.7004 2.16224 34.6804 2.21056 34.6804 2.26095C34.6796 4.14858 34.6789 6.25387 34.6781 8.57681Z" fill="#666666"/>
<path d="M82.1359 2.14084C82.1518 2.19847 82.1719 2.24284 82.1962 2.27393C82.0809 2.40438 82.0384 2.53899 82.0687 2.67778C82.0732 2.69816 82.0837 2.71671 82.0989 2.73094C82.1142 2.74517 82.1334 2.7544 82.1541 2.75741C82.1981 2.76347 82.2204 2.79002 82.2212 2.83704C82.2212 2.84534 82.22 2.85339 82.2178 2.86093C82.1654 3.04446 82.1749 3.15594 82.2462 3.19538C82.2655 3.20594 82.281 3.22224 82.2906 3.24201C82.3001 3.26179 82.3033 3.28405 82.2997 3.30572C82.2443 3.66216 82.3065 3.97652 82.4862 4.24878C82.5042 4.27563 82.5151 4.30692 82.5181 4.33979L82.5738 4.98707C82.5748 4.99787 82.5782 5.00831 82.5838 5.0176C82.5894 5.02689 82.597 5.0348 82.6061 5.04071C82.6152 5.04662 82.6255 5.0504 82.6363 5.05175C82.6471 5.0531 82.658 5.05199 82.6683 5.0485C82.7115 5.03409 82.7562 4.9939 82.8025 4.92792C82.9056 5.06063 82.9428 5.2271 82.914 5.42731C82.7103 5.66848 82.8855 6.07574 83.0323 6.31577C83.038 6.32521 83.0465 6.33274 83.0566 6.3374C83.0667 6.34206 83.078 6.34363 83.0892 6.34193L83.1233 6.33511C83.1294 6.31994 83.1343 6.33245 83.1381 6.37265C83.0592 6.40071 83.0239 6.47275 83.0323 6.58879C83.0452 6.77232 83.071 6.96609 83.1096 7.17009C83.1129 7.18842 83.1198 7.20585 83.13 7.22131C83.1402 7.23677 83.1534 7.24992 83.1688 7.25996C83.2363 7.30319 83.2681 7.36272 83.2643 7.43856C83.2518 7.70362 83.3406 7.96754 83.336 8.11542C83.3358 8.13563 83.3418 8.15538 83.3532 8.17191C83.3646 8.18844 83.3809 8.20091 83.3997 8.20757L83.4907 8.23942C83.5083 8.24564 83.5233 8.2575 83.5333 8.27314C83.5434 8.28879 83.548 8.30733 83.5465 8.32588C83.5359 8.44419 83.5533 8.53785 83.5988 8.60686C83.6087 8.62163 83.6149 8.63862 83.6168 8.65642C83.6188 8.67423 83.6165 8.69234 83.6102 8.70924C83.5146 8.9633 83.5677 9.18248 83.7694 9.36677C83.7832 9.37946 83.7939 9.3952 83.8006 9.41276C83.8073 9.43032 83.8099 9.44922 83.8081 9.46801L83.7751 9.81611C83.7729 9.83776 83.776 9.85999 83.7842 9.88095L83.9321 10.237C83.937 10.2492 83.9386 10.2624 83.9368 10.2754C83.935 10.2883 83.9299 10.3006 83.9219 10.311C83.8726 10.3747 83.8908 10.4683 83.9765 10.5919C83.9862 10.6062 83.9932 10.6217 83.997 10.6374L84.1232 11.188C84.1283 11.2079 84.14 11.2252 84.1562 11.237L84.2472 11.3041C84.2624 11.3154 84.2748 11.33 84.2833 11.3468C84.2918 11.3636 84.2962 11.3821 84.2961 11.4008C84.2969 11.5456 84.3469 11.6393 84.4463 11.6817C84.4395 11.7121 84.4452 11.7432 84.4634 11.775C84.3943 11.8099 84.3496 11.8854 84.3291 12.0014C84.3231 12.0329 84.3243 12.0651 84.3325 12.0958L84.6204 13.1458C84.6233 13.1585 84.63 13.1703 84.6397 13.1799L84.6988 13.2391C84.7146 13.2549 84.7258 13.2746 84.7312 13.2963C84.7367 13.3179 84.7361 13.3406 84.7296 13.362C84.7023 13.4499 84.714 13.5428 84.7648 13.6407C84.7819 13.6742 84.7898 13.7119 84.7876 13.7499C84.7716 13.9698 84.8134 14.1822 84.9127 14.3869C84.92 14.4026 84.9327 14.4152 84.9484 14.4227C84.9642 14.4302 84.9821 14.432 84.9992 14.4279L85.0765 14.4097L85.147 14.6179C85.0333 14.7498 85.0227 14.8916 85.1152 15.0433C85.1245 15.0587 85.1306 15.0758 85.1329 15.0934C85.1353 15.1111 85.1339 15.1289 85.1288 15.1457C85.0712 15.3398 85.1342 15.4547 85.3177 15.4904L85.444 15.9215C85.359 16.0262 85.315 16.1396 85.312 16.2617C85.3113 16.2791 85.3145 16.2964 85.3214 16.3124C85.3283 16.3283 85.3387 16.3425 85.3518 16.3538L85.5805 16.5574L85.6817 16.9112C85.6865 16.9279 85.687 16.9456 85.683 16.9625C85.679 16.9795 85.6707 16.9951 85.659 17.0079C85.599 17.0731 85.5562 17.0697 85.5304 16.9977C84.8395 16.8961 84.1422 16.8907 83.4384 16.9817C83.4437 16.9021 83.4316 16.8339 83.402 16.777C83.4786 16.7209 83.5256 16.6488 83.5431 16.5608C83.5466 16.5431 83.5463 16.5247 83.5419 16.507C83.5376 16.4893 83.5295 16.4727 83.518 16.4585C83.3394 16.2423 83.5476 16.0421 83.3474 15.8362C83.3049 15.7922 83.2924 15.7372 83.3099 15.6713C83.3296 15.6007 83.3284 15.5533 83.3064 15.5291C83.2958 15.5162 83.2644 15.4851 83.212 15.4358C83.1971 15.4219 83.1867 15.4038 83.1821 15.3838C83.1774 15.3637 83.1787 15.3427 83.1859 15.3232C83.3057 15.0107 83.2215 14.8116 82.9333 14.7259C82.9144 14.6948 82.8992 14.6357 82.8878 14.5485C82.9773 14.4453 82.9951 14.2921 82.9413 14.0889C82.8806 13.8583 82.8131 13.7021 82.7388 13.6202C82.7145 13.5936 82.7 13.5599 82.6978 13.5246C82.6717 13.0468 82.6944 12.6646 82.567 12.5782C82.5063 12.5365 82.4737 12.4989 82.4692 12.4655C82.4631 12.4185 82.4715 12.3639 82.4942 12.3017C82.5147 12.2449 82.52 12.2058 82.5101 12.1846C82.5056 12.1755 82.4889 12.1425 82.4601 12.0856C82.4423 12.0487 82.4371 12.0067 82.4453 11.9661C82.5006 11.6878 82.4081 11.5145 82.1677 11.4463L82.1347 11.2552C82.275 10.835 82.2041 10.5153 81.922 10.2962C81.8409 10.2347 81.7961 10.0649 81.7878 9.78653C81.8992 9.72738 81.9497 9.625 81.9391 9.47939C81.933 9.40203 81.9042 9.35767 81.8526 9.34629C81.8048 9.33643 81.7552 9.36259 81.7036 9.42478L81.6786 9.25642C81.7362 9.14721 81.7635 9.07251 81.7605 9.03232C81.737 8.71303 81.6641 8.41195 81.542 8.12907C81.5777 8.09874 81.5917 8.07068 81.5841 8.04489C81.5803 8.02897 81.5675 8.021 81.5455 8.021C81.3816 7.78552 81.4738 7.34869 81.4021 7.18602C81.324 7.00704 81.2455 6.9949 81.1666 7.14962L81.1177 7.00969C81.2224 6.94068 81.2721 6.83906 81.2668 6.70482C81.2661 6.6865 81.2597 6.66886 81.2485 6.65437C81.2372 6.63988 81.2218 6.62928 81.2042 6.62405C81.1556 6.60813 81.1367 6.57362 81.1473 6.52053C81.2103 6.22704 81.1428 5.95895 80.9448 5.71626C80.9332 5.70261 80.9251 5.68629 80.9211 5.66866C80.9172 5.65104 80.9175 5.63264 80.9221 5.61502C80.9911 5.34124 80.9285 5.07504 80.7344 4.81643C80.7306 4.81118 80.7283 4.80531 80.7275 4.79937L80.6434 3.81763C80.6425 3.80799 80.6396 3.79864 80.6347 3.79023C80.6299 3.78183 80.6233 3.77457 80.6154 3.76895C80.6076 3.76333 80.5985 3.75948 80.589 3.75768C80.5795 3.75587 80.5697 3.75614 80.5603 3.75848C80.5103 3.77137 80.4568 3.79754 80.3999 3.83697C80.3931 3.80436 80.3912 3.78464 80.3942 3.77782C80.4321 3.6542 80.4401 3.54196 80.4181 3.44109C80.4083 3.39635 80.3696 3.38346 80.3021 3.40242C80.3074 3.35919 80.299 3.31596 80.2771 3.27273C80.3931 3.14608 80.4401 2.99099 80.4181 2.80746C80.4173 2.7997 80.4144 2.7923 80.4099 2.78594C80.4053 2.77958 80.3992 2.77447 80.3921 2.77108C80.3849 2.76768 80.377 2.76611 80.369 2.7665C80.3611 2.7669 80.3533 2.76924 80.3464 2.77333C80.169 2.8814 79.9278 3.06797 80.095 3.2898C80.0988 3.32544 80.0901 3.36071 80.0689 3.39559C80.0696 3.3425 80.0583 3.34554 80.0347 3.40469C80.0191 3.44487 79.9928 3.48024 79.9585 3.50707C79.7894 3.63979 79.7299 3.81726 79.7799 4.03946C79.7881 4.07228 79.7877 4.10675 79.7788 4.13957C79.6935 4.45468 79.4114 4.83805 79.6673 5.14861C79.6832 5.37081 79.6393 5.55434 79.5354 5.6992C79.4686 5.72574 79.417 5.70906 79.3806 5.64914C79.3777 5.64494 79.3736 5.64171 79.3689 5.6399C79.3641 5.6381 79.3589 5.63779 79.3539 5.63903C79.349 5.64027 79.3445 5.64299 79.3412 5.64683C79.3378 5.65067 79.3357 5.65545 79.3351 5.66052C79.3283 5.772 79.3359 5.88879 79.3579 6.01089C79.3586 6.01469 79.3647 6.02303 79.3761 6.03592C79.3789 6.03927 79.3809 6.04325 79.3819 6.04753C79.3828 6.05181 79.3828 6.05625 79.3816 6.06049C79.3805 6.06473 79.3784 6.06864 79.3755 6.07189C79.3725 6.07514 79.3688 6.07763 79.3647 6.07915C79.3586 6.08143 79.3537 6.0837 79.3499 6.08598C79.3407 6.09197 79.3331 6.10003 79.3275 6.10951C79.322 6.11899 79.3188 6.12963 79.3181 6.14058C79.2984 6.44318 79.2506 6.6559 79.1747 6.77876C79.0632 6.95964 78.9029 7.37031 79.1417 7.50227L79.0439 7.83444C78.904 7.87881 78.7948 7.94365 78.7993 8.10746C78.8024 8.23335 78.8543 8.32853 78.9552 8.39299L78.5457 10.1164C78.259 10.2052 78.2123 10.6545 78.3716 10.8695C78.3617 11.028 78.3288 11.1641 78.2726 11.2779C78.1316 11.2582 78.0531 11.287 78.0371 11.3644C78.0061 11.516 78.0569 11.651 78.1896 11.7693L78.0713 12.1937C77.8832 12.2316 77.7952 12.3469 77.8074 12.5395C77.8096 12.5727 77.8228 12.6043 77.8449 12.6294C77.8957 12.6878 77.9075 12.7511 77.8802 12.8193C77.8172 12.9756 77.7429 13.1166 77.6572 13.2425C77.6421 13.2637 77.6295 13.287 77.6197 13.3119C77.4983 13.6236 77.4983 13.9232 77.6197 14.2106L77.5207 14.5382C77.3569 14.5985 77.2841 14.7555 77.3136 14.9307C77.3485 15.1408 77.3102 15.3671 77.1988 15.6098C77.1927 15.6229 77.1839 15.6345 77.1728 15.6436C77.1618 15.6526 77.1488 15.659 77.135 15.6622L77.1009 15.6701C77.0928 15.6718 77.0851 15.6752 77.0783 15.68C77.0715 15.6847 77.0657 15.6908 77.0613 15.6979C77.0568 15.705 77.0538 15.713 77.0524 15.7213C77.051 15.7296 77.0513 15.7381 77.0531 15.7463L77.1168 16.025C77.1257 16.062 77.123 16.1009 77.1089 16.1365C77.0452 16.2973 77.0186 16.4634 77.0293 16.6348C77.0429 16.6272 77.0478 16.6496 77.044 16.7019C77.0092 16.6564 76.9621 16.6196 76.903 16.5916C76.8883 16.5845 76.8715 16.5836 76.856 16.5889C76.8405 16.5942 76.8276 16.6053 76.8199 16.62C76.7972 16.6632 76.7991 16.6985 76.8256 16.7258C76.842 16.7426 76.8529 16.764 76.8569 16.7871C76.8609 16.8103 76.8578 16.8341 76.848 16.8556C76.8382 16.877 76.8222 16.8951 76.8019 16.9075C76.7817 16.9198 76.7583 16.9259 76.7346 16.9249C76.0915 16.8915 75.4594 16.9207 74.8383 17.0125C74.7655 16.9859 74.7461 16.8695 74.7803 16.6632C74.8569 16.6701 74.9441 16.6105 75.0419 16.4846C75.0643 16.4556 75.0788 16.4207 75.084 16.3834C75.1147 16.1513 75.2694 15.7532 75.0408 15.5871C75.0749 15.5522 75.1014 15.4881 75.1204 15.3948L75.3502 15.1514C75.3768 15.124 75.394 15.0889 75.3991 15.0513C75.4234 14.8996 75.3771 14.7729 75.2603 14.6713L75.3968 14.2322C75.6228 14.0032 75.7339 13.6915 75.7301 13.2971C75.7294 13.261 75.741 13.2254 75.7631 13.1959C75.9724 12.9168 75.9831 12.6733 75.795 12.4655L76.0839 11.2165L76.3205 10.9582C76.3369 10.9404 76.3479 10.9183 76.3524 10.8945C76.4013 10.6352 76.4468 10.3724 76.5481 10.0937C76.6732 9.75089 76.7354 9.39028 76.7346 9.01184C76.7346 8.98088 76.7451 8.95115 76.7642 8.92766C76.7816 8.90491 76.8124 8.88102 76.8563 8.85599C76.8728 8.84636 76.8869 8.83325 76.8979 8.81755C76.9089 8.80186 76.9165 8.78393 76.92 8.76498C76.9504 8.60496 76.8912 8.49196 76.7426 8.42598L76.8916 7.99939C76.9803 7.96375 77.0493 7.90914 77.0986 7.83558C77.1193 7.8054 77.1293 7.76938 77.1271 7.7332C77.121 7.58759 77.143 7.46928 77.1931 7.37827C77.2727 7.23038 77.1624 7.17237 77.2545 7.03244C77.383 6.83678 77.4399 6.37947 77.4285 6.23841C77.4194 6.11024 77.4213 5.97108 77.4342 5.82092C77.4362 5.79441 77.4462 5.76908 77.4628 5.74819C77.4794 5.72731 77.502 5.71183 77.5275 5.70375C77.6777 5.65597 77.719 5.53008 77.6515 5.32607C77.6446 5.30546 77.6443 5.28322 77.6506 5.26242C77.6569 5.24163 77.6696 5.22332 77.6868 5.21004C77.6883 5.20928 77.6982 5.20359 77.7164 5.19297C77.7288 5.18563 77.7392 5.17516 77.7464 5.16259C77.7535 5.15002 77.7573 5.13578 77.7573 5.1213V4.80051C77.7572 4.79039 77.7602 4.78046 77.7659 4.77195C77.7716 4.76345 77.7797 4.75676 77.7892 4.75273C77.8263 4.73756 77.8521 4.70533 77.8665 4.65603C77.9712 4.30111 78.0004 3.98979 77.9541 3.72208C77.9518 3.70918 77.9556 3.69895 77.9655 3.69136C77.9807 3.67999 77.9905 3.67354 77.9951 3.67202C78.0006 3.67053 78.0065 3.67053 78.0121 3.67202C78.0177 3.6735 78.0228 3.67643 78.027 3.68052C78.0312 3.68461 78.0344 3.68973 78.0361 3.69541C78.0379 3.70108 78.0383 3.70713 78.0371 3.71298C78.0341 3.73118 78.033 3.7418 78.0337 3.74483C78.0368 3.75819 78.045 3.7698 78.0566 3.77717C78.0681 3.78455 78.0821 3.78709 78.0955 3.78426C78.1089 3.78143 78.1207 3.77345 78.1283 3.76203C78.1359 3.75062 78.1387 3.73668 78.1361 3.72322L78.0974 3.43313C78.0937 3.40569 78.0981 3.37764 78.11 3.35236C78.1782 3.20751 78.1771 3.04446 78.1065 2.8632C78.1111 2.79722 78.1293 2.7411 78.1611 2.69484C78.4683 2.52079 78.4455 2.15449 78.4524 1.90649C78.4539 1.86713 78.4669 1.82913 78.4899 1.79729C78.634 1.60314 78.6757 1.39534 78.615 1.17389C78.5513 0.945237 78.623 0.75526 78.7754 0.589173C78.8247 0.533811 78.8524 0.468968 78.8585 0.394646C78.861 0.366561 78.8737 0.340378 78.8943 0.321079C78.9148 0.30178 78.9418 0.290715 78.97 0.289989C79.4606 0.28013 80.1944 0.278613 81.1712 0.285438C81.3873 0.286576 81.6638 0.470864 81.6194 0.740472C81.602 0.845129 81.6277 0.93424 81.6968 1.0078C81.7272 1.04114 81.747 1.08313 81.7536 1.12839C81.8045 1.4909 81.9319 1.82838 82.1359 2.14084ZM80.1337 2.22502C80.0973 2.23715 80.0719 2.26256 80.0575 2.30124C80.0545 2.30911 80.0532 2.31752 80.0536 2.32593C80.0539 2.33435 80.0561 2.34259 80.0598 2.35015C80.1204 2.47908 80.1777 2.53444 80.2316 2.51624C80.2854 2.49804 80.2975 2.41917 80.268 2.27962C80.2663 2.27149 80.2631 2.26376 80.2584 2.25692C80.2537 2.25008 80.2477 2.24426 80.2407 2.23981C80.2065 2.21705 80.1709 2.21213 80.1337 2.22502Z" fill="#666666"/>
<path d="M41.5753 4.01405C41.4767 3.84492 41.402 3.66329 41.3512 3.46914C41.3118 3.31519 41.3076 3.18626 41.3387 3.08236C41.3439 3.06459 41.3428 3.04562 41.3358 3.02864C41.3287 3.01166 41.3161 2.99769 41.3 2.98908C41.2826 2.97998 41.2011 2.80214 41.0554 2.45556C40.6254 1.43059 39.7336 0.798097 38.6824 0.518252C38.6744 0.516118 38.6669 0.512304 38.6604 0.507053C38.6539 0.501802 38.6485 0.495227 38.6447 0.487744C38.6408 0.480261 38.6386 0.472032 38.638 0.463576C38.6375 0.455121 38.6386 0.446624 38.6415 0.438621C38.6551 0.40146 38.6813 0.362024 38.72 0.320312C39.8363 0.524319 40.6489 1.10752 41.1578 2.06992C41.3103 2.35886 41.3933 2.68649 41.498 2.99022C41.5552 3.1558 41.5833 3.33015 41.581 3.50555L41.5753 4.01405Z" fill="#666666"/>
<path d="M25.0029 2.08562C24.0117 2.10458 23.3212 2.10838 22.9314 2.097C22.7782 2.09245 22.625 2.12961 22.4718 2.20848C22.4127 2.18573 22.3721 2.12203 22.3501 2.01737C22.3467 2.00082 22.347 1.98373 22.351 1.96733C22.355 1.95093 22.3625 1.93564 22.3731 1.92257C22.3837 1.9095 22.397 1.89897 22.4121 1.89176C22.4272 1.88454 22.4437 1.88082 22.4604 1.88086H25.4284C25.439 1.88086 25.4491 1.88505 25.4566 1.89252C25.464 1.89999 25.4682 1.91012 25.4682 1.92068V1.98779C25.4682 1.98839 25.4681 1.98898 25.4679 1.98953C25.4676 1.99009 25.4673 1.99059 25.4669 1.99101C25.4665 1.99143 25.466 1.99177 25.4654 1.992C25.4649 1.99223 25.4643 1.99234 25.4637 1.99234H25.0587C25.0542 1.99236 25.0498 1.99367 25.0462 1.9961C25.0425 1.99853 25.0398 2.00198 25.0382 2.00599C25.0268 2.03102 25.039 2.04315 25.0746 2.0424C25.0755 2.0424 25.0764 2.04276 25.077 2.0434C25.0777 2.04404 25.078 2.0449 25.078 2.04581C25.078 2.04671 25.0777 2.04758 25.077 2.04822C25.0764 2.04886 25.0755 2.04922 25.0746 2.04922C25.0519 2.0515 25.028 2.06363 25.0029 2.08562Z" fill="#666666"/>
<path d="M56.1626 2.12091L55.3401 2.05266C55.7694 1.77129 56.0436 1.79405 56.1626 2.12091Z" fill="#666666"/>
<path d="M68.7238 2.14835L65.8525 2.08806C65.807 1.97734 65.8385 1.91742 65.9469 1.90832C66.5309 1.86282 67.2199 1.85903 68.0139 1.89695C68.304 1.9106 68.6043 1.87192 68.9115 1.88443C68.9358 1.88502 68.9593 1.89382 68.978 1.9094C68.9967 1.92498 69.0096 1.94643 69.0146 1.97027C69.0196 1.99411 69.0164 2.01893 69.0056 2.04073C68.9947 2.06252 68.9768 2.08 68.9547 2.09034C68.8993 2.11764 68.8224 2.13698 68.7238 2.14835Z" fill="#666666"/>
<path d="M54.4448 2.04383L53.3334 2.1428C53.6163 1.85158 53.9867 1.81859 54.4448 2.04383Z" fill="#666666"/>
<path d="M7.59346 3.64774C7.43268 2.93637 7.04628 2.45631 6.43426 2.20755C6.42611 2.20412 6.41901 2.19859 6.41369 2.19152C6.40836 2.18445 6.40501 2.17609 6.40397 2.16731C6.40293 2.15852 6.40424 2.14961 6.40776 2.1415C6.41128 2.13338 6.41689 2.12634 6.42402 2.1211L6.47294 2.08697L6.56167 2.07218C6.60419 2.06471 6.64768 2.06823 6.68794 2.08242C7.4979 2.3744 7.79974 2.89617 7.59346 3.64774Z" fill="#666666"/>
<path d="M53.0889 2.20117C52.6748 2.412 52.3604 2.68123 52.1458 3.00886C51.9934 3.23979 51.9672 3.36833 51.9388 3.68458C51.9335 3.73767 51.9327 6.92101 51.9365 13.2346C51.9365 13.6949 51.979 14.0161 52.0639 14.1981C52.346 14.801 53.0343 15.049 53.6508 15.2117C53.1169 15.3611 52.6221 15.2246 52.1663 14.8022C51.9145 14.5678 51.8106 14.3547 51.8546 14.1629C51.8599 14.1398 51.8598 14.116 51.8545 14.0931C51.8492 14.0702 51.8387 14.0489 51.8239 14.0309C51.7662 13.9611 51.7382 13.8796 51.7397 13.7863C51.8026 10.4122 51.8269 8.31568 51.8125 7.49662C51.7875 6.152 51.7765 4.85667 51.7795 3.61064C51.7795 3.57436 51.7837 3.53846 51.792 3.5037C51.8296 3.3342 51.891 3.21931 51.9058 3.02706C51.9209 2.8367 51.9926 2.68957 52.1208 2.58567C52.4112 2.34982 52.7339 2.22165 53.0889 2.20117Z" fill="#666666"/>
<path d="M80.2315 2.51501C80.1777 2.53321 80.1204 2.47785 80.0598 2.34893C80.056 2.34136 80.0539 2.33312 80.0535 2.3247C80.0531 2.31629 80.0545 2.30788 80.0575 2.30001C80.0719 2.26133 80.0973 2.23593 80.1337 2.22379C80.1709 2.2109 80.2065 2.21583 80.2406 2.23858C80.2476 2.24303 80.2537 2.24885 80.2584 2.25569C80.2631 2.26254 80.2663 2.27026 80.2679 2.2784C80.2975 2.41794 80.2854 2.49681 80.2315 2.51501Z" fill="#666666"/>
<path d="M82.1962 2.27344L82.3942 3.1653C82.3957 3.1706 82.3976 3.17592 82.3998 3.18123C82.4939 3.40647 82.5527 3.64612 82.5762 3.90018C82.5807 3.94696 82.5918 3.99292 82.6092 4.03669C82.7206 4.32412 82.7851 4.62103 82.8025 4.92742C82.7563 4.9934 82.7115 5.03359 82.6683 5.048C82.658 5.05149 82.6471 5.0526 82.6364 5.05125C82.6256 5.0499 82.6153 5.04613 82.6062 5.04021C82.5971 5.0343 82.5895 5.0264 82.5839 5.01711C82.5783 5.00781 82.5749 4.99738 82.5739 4.98657L82.5182 4.33929C82.5152 4.30642 82.5042 4.27514 82.4863 4.24828C82.3066 3.97602 82.2444 3.66167 82.2997 3.30523C82.3034 3.28356 82.3002 3.26129 82.2906 3.24152C82.281 3.22174 82.2655 3.20544 82.2463 3.19488C82.175 3.15544 82.1655 3.04396 82.2178 2.86043C82.2201 2.85289 82.2212 2.84484 82.2212 2.83654C82.2205 2.78952 82.1981 2.76298 82.1541 2.75691C82.1335 2.75391 82.1143 2.74467 82.099 2.73044C82.0838 2.71621 82.0732 2.69766 82.0688 2.67728C82.0385 2.53849 82.0809 2.40388 82.1962 2.27344Z" fill="#666666"/>
<path d="M80.2769 3.27192C80.2231 3.25296 80.1624 3.25864 80.0949 3.28898C79.9277 3.06715 80.1689 2.88059 80.3463 2.77252C80.3532 2.76843 80.361 2.76608 80.3689 2.76568C80.3769 2.76529 80.3848 2.76686 80.392 2.77026C80.3991 2.77365 80.4052 2.77876 80.4098 2.78512C80.4143 2.79148 80.4172 2.79888 80.418 2.80664C80.44 2.99017 80.393 3.14526 80.2769 3.27192Z" fill="#666666"/>
<path d="M76.8915 7.99752C76.9234 7.63349 77.0019 7.28122 77.127 6.9407C77.1436 6.8954 77.154 6.84794 77.1577 6.79964C77.1797 6.51828 77.2476 6.25398 77.3614 6.00675C77.3802 5.96604 77.3925 5.92266 77.3978 5.8782C77.4478 5.4444 77.5316 5.06748 77.6492 4.74744C77.6756 4.67492 77.6928 4.59963 77.7004 4.52334C77.7224 4.29961 77.7739 4.06906 77.8551 3.83169C77.9495 3.55639 77.9654 3.18099 78.1065 2.86133C78.177 3.04258 78.1781 3.20564 78.1099 3.35049C78.098 3.37577 78.0937 3.40381 78.0974 3.43126L78.1361 3.72134C78.1386 3.7348 78.1358 3.74874 78.1282 3.76016C78.1206 3.77157 78.1089 3.77955 78.0955 3.78238C78.0821 3.78522 78.0681 3.78267 78.0565 3.7753C78.045 3.76792 78.0368 3.75631 78.0337 3.74296C78.0329 3.73992 78.034 3.7293 78.0371 3.7111C78.0382 3.70525 78.0378 3.69921 78.0361 3.69353C78.0343 3.68785 78.0312 3.68273 78.027 3.67864C78.0228 3.67455 78.0176 3.67163 78.012 3.67014C78.0064 3.66866 78.0006 3.66866 77.995 3.67015C77.9904 3.67167 77.9806 3.67811 77.9654 3.68949C77.9556 3.69707 77.9518 3.70731 77.954 3.7202C78.0003 3.98791 77.9711 4.29923 77.8664 4.65416C77.852 4.70345 77.8262 4.73569 77.7891 4.75085C77.7796 4.75489 77.7715 4.76158 77.7658 4.77008C77.7602 4.77858 77.7572 4.78852 77.7572 4.79863V5.11943C77.7573 5.13391 77.7535 5.14814 77.7463 5.16071C77.7391 5.17328 77.7288 5.18376 77.7163 5.1911C77.6981 5.20172 77.6882 5.2074 77.6867 5.20816C77.6695 5.22145 77.6569 5.23976 77.6506 5.26055C77.6442 5.28134 77.6445 5.30359 77.6514 5.3242C77.7189 5.5282 77.6776 5.6541 77.5274 5.70187C77.5019 5.70996 77.4794 5.72544 77.4627 5.74632C77.4461 5.7672 77.4362 5.79253 77.4342 5.81904C77.4213 5.96921 77.4194 6.10837 77.4285 6.23654C77.4399 6.3776 77.383 6.83491 77.2544 7.03057C77.1623 7.17049 77.2726 7.22851 77.193 7.3764C77.1429 7.4674 77.1209 7.58571 77.127 7.73132C77.1292 7.7675 77.1192 7.80353 77.0986 7.8337C77.0493 7.90727 76.9803 7.96187 76.8915 7.99752Z" fill="#666666"/>
<path d="M80.0689 3.39509C79.9976 3.99194 79.8638 4.57628 79.6674 5.1481C79.4114 4.83754 79.6935 4.45418 79.7788 4.13906C79.7878 4.10625 79.7882 4.07177 79.78 4.03896C79.7299 3.81675 79.7895 3.63929 79.9586 3.50657C79.9929 3.47973 80.0192 3.44436 80.0348 3.40419C80.0583 3.34503 80.0697 3.342 80.0689 3.39509Z" fill="#666666"/>
<path d="M80.3941 3.77644C80.2978 3.63387 80.2671 3.50873 80.302 3.40104C80.3695 3.38208 80.4082 3.39498 80.418 3.43972C80.44 3.54059 80.4321 3.65283 80.3941 3.77644Z" fill="#666666"/>
<path d="M7.79476 3.56829L7.79021 3.5683C7.77073 3.56833 7.75497 3.58415 7.75501 3.60362L7.75926 6.0426C7.7593 6.06208 7.77511 6.07784 7.79459 6.0778L7.79914 6.07779C7.81862 6.07776 7.83438 6.06194 7.83434 6.04247L7.83009 3.60349C7.83005 3.58402 7.81424 3.56826 7.79476 3.56829Z" fill="#666666"/>
<path d="M9.81973 3.57227C9.9206 3.89458 9.94297 4.22031 9.88685 4.54945C9.88155 4.58275 9.87927 4.61626 9.88003 4.64956C9.88837 5.01965 9.89595 5.39012 9.90278 5.76098C9.90581 5.90355 9.87396 6.03779 9.80722 6.16368C9.69574 5.29533 9.69991 4.43152 9.81973 3.57227Z" fill="#666666"/>
<path d="M81.1177 7.00906L80.93 6.16838C80.9262 6.15105 80.9197 6.13453 80.9106 6.11947C80.8207 5.96134 80.8549 5.81004 80.8094 5.64851C80.644 5.04634 80.5075 4.44229 80.3998 3.83634C80.4567 3.7969 80.5102 3.77073 80.5602 3.75784C80.5696 3.7555 80.5794 3.75523 80.589 3.75704C80.5985 3.75884 80.6075 3.76269 80.6154 3.76831C80.6233 3.77393 80.6298 3.78119 80.6347 3.7896C80.6395 3.798 80.6424 3.80735 80.6433 3.817L80.7275 4.79873C80.7282 4.80468 80.7305 4.81055 80.7343 4.81579C80.9284 5.0744 80.991 5.3406 80.922 5.61438C80.9174 5.63201 80.9171 5.65041 80.9211 5.66803C80.925 5.68565 80.9331 5.70197 80.9447 5.71562C81.1427 5.95831 81.2102 6.2264 81.1472 6.51989C81.1366 6.57298 81.1556 6.60749 81.2041 6.62341C81.2217 6.62864 81.2372 6.63924 81.2484 6.65373C81.2596 6.66822 81.266 6.68587 81.2667 6.70418C81.272 6.83842 81.2223 6.94004 81.1177 7.00906Z" fill="#666666"/>
<path d="M0.963493 4.26172H0.961218C0.944883 4.26172 0.931641 4.27496 0.931641 4.2913V14.0882C0.931641 14.1045 0.944883 14.1177 0.961218 14.1177H0.963493C0.979828 14.1177 0.99307 14.1045 0.99307 14.0882V4.2913C0.99307 4.27496 0.979828 4.26172 0.963493 4.26172Z" fill="#666666"/>
<path d="M82.9139 5.42578C83.0633 5.69728 83.1331 5.99988 83.1232 6.33357L83.0891 6.3404C83.078 6.3421 83.0666 6.34052 83.0565 6.33587C83.0464 6.33121 83.0379 6.32368 83.0322 6.31423C82.8855 6.0742 82.7103 5.66695 82.9139 5.42578Z" fill="#666666"/>
<path d="M79.5354 5.69763C79.5271 5.94032 79.4907 6.17732 79.4262 6.40862C79.3777 6.5823 79.3356 6.76545 79.3 6.95808C79.2658 7.14464 79.2131 7.32552 79.1418 7.5007C78.903 7.36874 79.0633 6.95808 79.1748 6.7772C79.2507 6.65434 79.2984 6.44161 79.3182 6.13902C79.3189 6.12806 79.3221 6.11743 79.3276 6.10795C79.3332 6.09847 79.3408 6.09041 79.35 6.08441C79.3538 6.08214 79.3587 6.07986 79.3648 6.07759C79.3689 6.07607 79.3726 6.07358 79.3756 6.07033C79.3785 6.06708 79.3806 6.06317 79.3817 6.05893C79.3829 6.05469 79.3829 6.05024 79.382 6.04597C79.381 6.04169 79.379 6.03771 79.3762 6.03436C79.3648 6.02147 79.3587 6.01312 79.358 6.00933C79.336 5.88723 79.3284 5.77044 79.3352 5.65896C79.3358 5.65388 79.3379 5.64911 79.3413 5.64527C79.3446 5.64143 79.3491 5.6387 79.354 5.63747C79.359 5.63623 79.3642 5.63653 79.369 5.63834C79.3737 5.64015 79.3778 5.64337 79.3807 5.64758C79.4171 5.70749 79.4687 5.72418 79.5354 5.69763Z" fill="#666666"/>
<path d="M9.79338 6.2166C9.75925 7.22792 9.24051 7.87179 8.4533 8.44399C8.44261 8.45166 8.43402 8.46189 8.42831 8.47374C8.42261 8.4856 8.41997 8.4987 8.42065 8.51184C8.42133 8.52498 8.4253 8.53773 8.4322 8.54894C8.4391 8.56014 8.4487 8.56943 8.46013 8.57595C9.4703 9.16143 9.98525 10.0377 10.005 11.2049C9.84191 11.3596 9.8476 11.5117 10.022 11.6611C10.0698 12.5658 10.0615 13.3208 9.997 13.926C9.83319 15.4652 8.41576 16.8564 6.81291 16.9486C6.4614 16.9679 6.19179 17.0498 5.77885 17.0509C4.14148 17.0532 2.50412 17.0521 0.86676 17.0475C0.969143 16.977 1.0537 16.9417 1.12044 16.9417C2.7305 16.9304 4.43308 16.9247 6.22819 16.9247C6.24084 16.9247 6.25337 16.9221 6.26496 16.917C6.27656 16.9119 6.28697 16.9044 6.29553 16.895C6.3041 16.8856 6.31062 16.8744 6.3147 16.8623C6.31877 16.8502 6.32031 16.8373 6.3192 16.8246C6.3192 16.8231 6.31578 16.8185 6.30896 16.8109C6.29898 16.7998 6.29285 16.7858 6.29145 16.771C6.29004 16.7562 6.29343 16.7413 6.30113 16.7284C6.30883 16.7155 6.32045 16.7053 6.33432 16.6993C6.34819 16.6933 6.3636 16.6917 6.37835 16.6949C6.65971 16.7556 6.91036 16.7385 7.13029 16.6437C7.16673 16.6281 7.20691 16.623 7.24633 16.6289L7.4181 16.6562C7.43562 16.6587 7.45342 16.6575 7.4703 16.6525C7.48718 16.6476 7.50274 16.6392 7.51593 16.6278C7.94367 16.2683 8.54431 16.0726 8.8196 15.7325C9.08428 15.4049 9.27995 15.1372 9.4066 14.9294C9.4794 14.8088 9.52604 14.6772 9.54652 14.5346C9.55486 14.4747 9.59202 14.4239 9.658 14.3822C9.6731 14.3725 9.68611 14.3599 9.69627 14.345C9.70643 14.3302 9.71353 14.3134 9.71716 14.2957C9.73081 14.2267 9.74143 14.0261 9.74901 13.6939C9.77063 12.7566 9.71716 11.9102 9.78655 11.0957C9.80779 10.85 9.78124 10.605 9.70692 10.3608C9.6956 10.3246 9.67912 10.2905 9.658 10.2596C9.44793 9.95394 9.26099 9.67334 9.09718 9.41776C9.02665 9.30704 8.74718 9.09393 8.25878 8.77844C8.24123 8.76669 8.22867 8.74886 8.22351 8.72839L8.18597 8.56458C8.18311 8.55148 8.17732 8.53923 8.16903 8.52877C8.16075 8.51832 8.1502 8.50994 8.13819 8.50428C8.07676 8.47622 8.03846 8.49556 8.0233 8.5623C8.01192 8.61463 7.97476 8.63169 7.91181 8.61349C7.86479 8.59984 7.8428 8.56344 7.84583 8.50428C7.84887 8.45195 7.8792 8.43451 7.93684 8.45195C7.95446 8.45744 7.97332 8.45779 7.99123 8.45296C8.00915 8.44813 8.02539 8.43832 8.03809 8.42465C8.16777 8.28283 8.26712 8.19031 8.33613 8.14708C8.92426 7.77396 9.15519 7.36329 9.4885 6.69439C9.50729 6.65684 9.51849 6.61625 9.52149 6.57494C9.5359 6.39672 9.5397 6.20181 9.53287 5.99022C9.53059 5.92879 9.54387 5.87836 9.57269 5.83893C9.58018 5.82854 9.59064 5.82065 9.60269 5.81629C9.61474 5.81194 9.62782 5.81132 9.64023 5.81451C9.65263 5.81771 9.66379 5.82457 9.67224 5.8342C9.68068 5.84383 9.68603 5.85579 9.68758 5.8685L9.72512 6.15631C9.72689 6.16754 9.73136 6.17811 9.73811 6.18705C9.74487 6.19599 9.7537 6.20302 9.7638 6.2075C9.7729 6.21054 9.78276 6.21357 9.79338 6.2166Z" fill="#666666"/>
<path d="M5.76636 7.64205C6.04772 7.50175 6.30519 7.42098 6.53878 7.39974C6.57467 7.39675 6.60933 7.38545 6.64002 7.36675C7.13449 7.0596 7.45226 6.60988 7.59332 6.01758C7.62858 6.07901 7.66043 6.13816 7.65816 6.21324C7.62782 7.25527 6.99722 7.73154 5.76636 7.64205Z" fill="#666666"/>
<path d="M83.1379 6.37109C83.2881 6.56562 83.3052 6.8557 83.3359 7.03999C83.3928 7.37103 83.5372 7.71913 83.577 8.11501C83.5815 8.15893 83.5976 8.2006 83.6237 8.23559C83.7386 8.3903 83.6282 8.56435 83.7454 8.71793C83.7765 8.75964 83.7966 8.85368 83.8057 9.00005C83.8262 9.34815 84.0059 9.70762 84.0617 10.0205C84.0958 10.2093 84.1542 10.4569 84.2368 10.7633C84.318 11.0598 84.3878 11.3655 84.4462 11.6802C84.3468 11.6377 84.2968 11.5441 84.296 11.3992C84.296 11.3805 84.2916 11.3621 84.2831 11.3453C84.2746 11.3285 84.2623 11.3138 84.2471 11.3025L84.1561 11.2354C84.1399 11.2237 84.1282 11.2064 84.1231 11.1865L83.9968 10.6359C83.993 10.6201 83.9861 10.6047 83.9763 10.5904C83.8906 10.4668 83.8724 10.3731 83.9217 10.3094C83.9297 10.299 83.9349 10.2868 83.9367 10.2738C83.9385 10.2608 83.9369 10.2476 83.932 10.2355L83.7841 9.8794C83.7759 9.85844 83.7727 9.8362 83.775 9.81456L83.808 9.46646C83.8097 9.44767 83.8071 9.42877 83.8004 9.41121C83.7937 9.39365 83.7831 9.37791 83.7693 9.36521C83.5676 9.18092 83.5145 8.96175 83.61 8.70769C83.6164 8.69079 83.6187 8.67268 83.6167 8.65487C83.6147 8.63707 83.6085 8.62007 83.5987 8.60531C83.5532 8.53629 83.5357 8.44263 83.5463 8.32432C83.5479 8.30578 83.5433 8.28723 83.5332 8.27159C83.5231 8.25595 83.5081 8.24409 83.4906 8.23787L83.3996 8.20602C83.3807 8.19935 83.3645 8.18688 83.353 8.17036C83.3416 8.15383 83.3356 8.13408 83.3359 8.11387C83.3404 7.96599 83.2517 7.70207 83.2642 7.43701C83.268 7.36117 83.2361 7.30164 83.1687 7.25841C83.1532 7.24837 83.14 7.23522 83.1299 7.21976C83.1197 7.2043 83.1128 7.18687 83.1095 7.16854C83.0708 6.96453 83.045 6.77076 83.0321 6.58723C83.0238 6.4712 83.0591 6.39915 83.1379 6.37109Z" fill="#666666"/>
<path d="M81.5454 8.02L81.542 8.12807C81.6641 8.41095 81.7369 8.71203 81.7604 9.03131C81.7635 9.07151 81.7362 9.14621 81.6785 9.25541C81.5435 8.90049 81.4487 8.54101 81.3941 8.17699C81.3858 8.11948 81.3721 8.06273 81.3532 8.00749C81.2622 7.73598 81.2 7.44969 81.1666 7.14861C81.2455 6.9939 81.324 7.00603 81.4021 7.18501C81.4738 7.34769 81.3816 7.78452 81.5454 8.02Z" fill="#666666"/>
<path d="M3.25816 7.77949C3.12014 7.79087 3.03785 7.79352 3.01131 7.78746C2.99458 7.78442 2.97963 7.77515 2.96947 7.76152C2.95931 7.74788 2.95471 7.7309 2.95659 7.71401C2.95846 7.69711 2.96668 7.68155 2.97959 7.67048C2.99249 7.65941 3.00911 7.65365 3.0261 7.65436C3.09435 7.65284 3.17512 7.67901 3.2684 7.73285C3.27302 7.7355 3.27668 7.73956 3.27884 7.74443C3.28099 7.7493 3.28154 7.75473 3.2804 7.75993C3.27926 7.76513 3.27648 7.76984 3.27249 7.77335C3.26849 7.77687 3.26347 7.77902 3.25816 7.77949Z" fill="#666666"/>
<path d="M5.71972 7.72526L3.87911 7.72847C3.86403 7.72849 3.85183 7.74074 3.85185 7.75582C3.85188 7.7709 3.86413 7.7831 3.8792 7.78307L5.71981 7.77986C5.73489 7.77983 5.74709 7.76759 5.74707 7.75251C5.74704 7.73743 5.73479 7.72523 5.71972 7.72526Z" fill="#666666"/>
<path d="M79.044 7.83398C79.0425 8.03496 79.0129 8.22114 78.9552 8.39254C78.8544 8.32807 78.8024 8.2329 78.7994 8.107C78.7948 7.94319 78.9041 7.87835 79.044 7.83398Z" fill="#666666"/>
<path d="M76.7426 8.42578C76.8912 8.49176 76.9504 8.60476 76.9201 8.76478C76.9165 8.78373 76.9089 8.80165 76.8979 8.81735C76.8869 8.83305 76.8728 8.84615 76.8563 8.85579C76.8124 8.88081 76.7816 8.9047 76.7642 8.92746C76.7451 8.95095 76.7346 8.98068 76.7346 9.01164C76.7354 9.39007 76.6732 9.75069 76.5481 10.0935C76.4468 10.3722 76.4013 10.635 76.3524 10.8943C76.3479 10.9181 76.3369 10.9402 76.3205 10.958L76.0839 11.2163L76.2602 10.4143C76.2618 10.4075 76.2637 10.4002 76.2659 10.3927C76.4241 10.007 76.4332 9.64641 76.5799 9.19934C76.6595 8.9559 76.7138 8.69804 76.7426 8.42578Z" fill="#666666"/>
<path d="M49.6852 13.4687C49.7906 13.4255 49.8464 13.4926 49.8524 13.6701C49.8547 13.7444 49.8422 13.9143 49.8149 14.1797C49.8131 14.1968 49.8151 14.214 49.8208 14.2301C49.8265 14.2462 49.8358 14.2609 49.8479 14.273L49.9776 14.4038C49.9998 14.4254 50.0153 14.4531 50.0219 14.4835C50.3222 15.8144 51.2835 16.4003 52.5098 16.7473C52.5274 16.7519 52.5431 16.7617 52.5551 16.7755C52.567 16.7893 52.5746 16.8064 52.5769 16.8246C52.5785 16.8398 52.5796 16.8477 52.5803 16.8485C52.5841 16.8631 52.5929 16.876 52.6051 16.8847C52.6174 16.8934 52.6324 16.8976 52.6475 16.8963C52.9444 16.8735 53.0217 16.7802 53.404 16.9372C53.4654 16.962 53.5318 16.9732 53.5985 16.9702L54.6667 16.9179C54.6734 16.9171 54.68 16.9175 54.686 16.919C54.8453 16.9585 54.9992 16.9789 55.1479 16.9805C55.3196 16.9816 55.3902 16.8576 55.5472 16.8349C55.572 16.8311 55.5977 16.8311 55.6234 16.8349L56.0523 16.9031C56.0659 16.905 56.0797 16.9019 56.0912 16.8944C56.1027 16.8868 56.1111 16.8754 56.1148 16.8622C56.1201 16.8447 56.1224 16.8307 56.1216 16.8201C56.1216 16.8172 56.1208 16.8144 56.1195 16.8118C56.1182 16.8092 56.1163 16.807 56.114 16.8053C56.1117 16.8035 56.1091 16.8023 56.1063 16.8017C56.1035 16.8011 56.1005 16.8012 56.0978 16.8019C56.0682 16.8094 56.0458 16.8072 56.0306 16.795C56.024 16.7893 56.0194 16.7816 56.0176 16.7731C56.0158 16.7645 56.0169 16.7556 56.0206 16.7477C56.0244 16.7398 56.0306 16.7334 56.0384 16.7294C56.0462 16.7254 56.055 16.7241 56.0636 16.7256C56.2494 16.7567 56.5213 16.7173 56.8793 16.6073C56.8904 16.6039 56.9004 16.5976 56.9084 16.589C56.9164 16.5804 56.922 16.5699 56.9248 16.5584C56.9278 16.547 56.9301 16.5395 56.9316 16.5357C56.9347 16.5287 56.9395 16.5225 56.9454 16.5177C56.9514 16.513 56.9583 16.5098 56.9657 16.5084L57.431 16.4151C57.4551 16.4106 57.4789 16.4021 57.5015 16.3901L58.1943 16.0294C58.2433 16.004 58.2844 15.9657 58.3131 15.9185C58.3417 15.8714 58.3569 15.8173 58.357 15.7621V9.01055C58.3572 8.98114 58.3514 8.95199 58.3401 8.92485C58.3288 8.8977 58.3121 8.8731 58.2911 8.85252C58.2701 8.83193 58.2452 8.81578 58.2178 8.80502C58.1904 8.79425 58.1612 8.7891 58.1318 8.78986C57.6995 8.79972 57.288 8.79896 56.8975 8.78759C56.72 8.78304 56.6305 8.88049 56.629 9.07995C56.6245 9.57821 56.6233 11.3915 56.6256 14.5199C56.6256 14.9294 56.3128 15.0807 55.9499 15.2013C55.6549 15.2991 55.364 15.2881 55.0773 15.1683C55.2108 15.1251 55.4668 15.0644 55.8452 14.9863C56.0667 14.9408 56.2145 14.8194 56.2889 14.6222C56.3063 14.5745 56.3162 14.3731 56.3184 14.0182C56.3283 12.0949 56.3226 10.5106 56.3014 9.26537C56.2946 8.87745 56.2195 8.4702 56.7428 8.51684C57.2039 8.55779 57.7419 8.55628 58.357 8.51229C58.3873 8.51011 58.4178 8.51419 58.4465 8.52428C58.4752 8.53438 58.5015 8.55027 58.5238 8.57097C58.5461 8.59166 58.5639 8.61673 58.5761 8.6446C58.5883 8.67247 58.5947 8.70256 58.5947 8.73298V16.0693C58.5947 16.0827 58.5912 16.0959 58.5846 16.1075C58.578 16.1191 58.5686 16.1286 58.5572 16.1352C57.993 16.4553 57.4386 16.6858 56.8941 16.8269C56.7454 16.8656 56.3397 16.9543 55.6768 17.0931C55.0796 17.2171 54.4926 17.1409 53.8999 17.1704C53.608 17.1848 53.2765 17.1503 52.9057 17.0669C52.3308 16.938 52.0059 16.861 51.9308 16.836C50.9013 16.4993 50.0219 15.7098 49.8035 14.6302C49.7671 14.4497 49.722 14.2616 49.6681 14.066C49.6401 13.9621 49.6458 13.763 49.6852 13.4687Z" fill="#666666"/>
<path d="M6.57978 9.66875C6.24306 9.61036 5.90027 9.57206 5.55141 9.55386C4.68229 9.5076 3.83707 9.52542 3.01574 9.60732C2.98237 9.60201 2.97327 9.52466 2.98843 9.37526C2.98986 9.35945 2.99736 9.34478 3.0094 9.33422C3.02144 9.32366 3.03712 9.318 3.05328 9.31838C3.63193 9.32748 4.23598 9.33127 4.86545 9.32975C5.27801 9.32824 5.54951 9.34492 5.67995 9.37981C5.77172 9.40483 5.90558 9.40256 6.08152 9.37298C6.27112 9.34037 6.45692 9.39687 6.63894 9.54248C6.68672 9.58116 6.667 9.62325 6.57978 9.66875Z" fill="#666666"/>
<path d="M81.7878 9.78602C81.7104 9.71018 81.6823 9.5896 81.7036 9.42427C81.7551 9.36208 81.8048 9.33591 81.8526 9.34577C81.9042 9.35715 81.933 9.40152 81.9391 9.47887C81.9497 9.62448 81.8992 9.72686 81.7878 9.78602Z" fill="#666666"/>
<path d="M3.0271 15.0832L5.74706 15.1014C5.94415 15.1029 6.14074 15.0784 6.33178 15.0286C6.51 14.9823 6.64234 14.9394 6.7288 14.9C7.29455 14.6406 7.60966 14.2539 7.67413 13.7397C7.81367 12.6188 7.81557 11.6674 7.67982 10.8855C7.5926 10.3796 7.26915 9.98982 6.70946 9.71604L6.71059 9.65006C6.71089 9.6356 6.71458 9.6214 6.72137 9.60865C6.72817 9.59589 6.73786 9.58494 6.74965 9.57671C6.76144 9.56848 6.77498 9.56321 6.78916 9.56132C6.80334 9.55944 6.81774 9.561 6.83118 9.56588C7.46443 9.78657 7.83415 10.2151 7.94032 10.8513C7.9699 11.0303 7.93805 11.3511 7.84476 11.8137C7.84325 11.8228 7.84249 11.8327 7.84249 11.8433V12.8649C7.84249 12.8867 7.84595 12.9079 7.85273 12.9274C7.92022 13.1201 7.94829 13.3878 7.93691 13.7306C7.91302 14.4689 7.16222 15.1992 6.43302 15.239C6.3934 15.2412 6.35614 15.2578 6.32837 15.2856L6.28059 15.3334C6.26623 15.3477 6.24857 15.3581 6.22926 15.3637C6.20996 15.3693 6.18965 15.3698 6.17024 15.3653C5.81911 15.2864 5.57339 15.2466 5.43309 15.2458C4.65574 15.242 3.9785 15.2318 3.40136 15.2151C3.24589 15.2106 3.12114 15.1666 3.0271 15.0832Z" fill="#666666"/>
<path d="M78.5457 10.1152C78.5449 10.3837 78.4869 10.6347 78.3716 10.8683C78.2124 10.6533 78.259 10.204 78.5457 10.1152Z" fill="#666666"/>
<path d="M82.1347 11.2539C82.0012 10.9513 81.9303 10.6316 81.922 10.2949C82.2041 10.5141 82.275 10.8338 82.1347 11.2539Z" fill="#666666"/>
<path d="M10.0052 11.2051L10.0223 11.6612C9.84783 11.5118 9.84214 11.3598 10.0052 11.2051Z" fill="#666666"/>
<path d="M78.2726 11.2775C78.2878 11.4527 78.2601 11.6165 78.1896 11.7689C78.0568 11.6506 78.006 11.5156 78.0371 11.3639C78.053 11.2866 78.1315 11.2578 78.2726 11.2775Z" fill="#666666"/>
<path d="M82.8879 14.5475C82.7286 14.1505 82.7127 13.7 82.5876 13.3451C82.5125 13.132 82.4655 12.912 82.4465 12.6853C82.4435 12.6483 82.4358 12.6116 82.4237 12.5761C82.3001 12.2136 82.2148 11.8366 82.1678 11.4453C82.4082 11.5136 82.5007 11.6869 82.4454 11.9652C82.4372 12.0058 82.4424 12.0477 82.4601 12.0846C82.489 12.1415 82.5056 12.1745 82.5102 12.1836C82.5201 12.2048 82.5148 12.2439 82.4943 12.3008C82.4715 12.363 82.4632 12.4176 82.4692 12.4646C82.4738 12.498 82.5064 12.5355 82.5671 12.5772C82.6945 12.6637 82.6717 13.0459 82.6979 13.5237C82.7001 13.559 82.7145 13.5927 82.7389 13.6192C82.8132 13.7011 82.8807 13.8574 82.9413 14.0879C82.9952 14.2912 82.9774 14.4444 82.8879 14.5475Z" fill="#666666"/>
<path d="M7.94266 12.3218C7.94399 12.7032 7.97461 13.0122 8.01105 13.0121C8.04749 13.012 8.07595 12.7027 8.07461 12.3214C8.07328 11.94 8.04266 11.631 8.00623 11.6311C7.96979 11.6312 7.94132 11.9405 7.94266 12.3218Z" fill="#666666"/>
<path d="M84.4634 11.7734C84.5567 12.0154 84.6155 12.2588 84.6397 12.5038C84.6458 12.5679 84.6607 12.6307 84.6841 12.6903C84.7622 12.8905 84.8104 13.1211 84.8286 13.382C84.8338 13.4482 84.8508 13.5129 84.8786 13.5731C85.0022 13.837 85.0682 14.1153 85.0765 14.4081L84.9992 14.4263C84.9821 14.4304 84.9642 14.4286 84.9484 14.4211C84.9327 14.4136 84.9201 14.401 84.9127 14.3853C84.8134 14.1806 84.7717 13.9682 84.7876 13.7483C84.7898 13.7103 84.782 13.6726 84.7649 13.6391C84.714 13.5412 84.7023 13.4483 84.7296 13.3604C84.7361 13.339 84.7367 13.3163 84.7313 13.2947C84.7259 13.273 84.7147 13.2533 84.6989 13.2375L84.6397 13.1784C84.6301 13.1687 84.6234 13.1569 84.6204 13.1442L84.3326 12.0942C84.3243 12.0635 84.3231 12.0313 84.3292 11.9998C84.3496 11.8838 84.3944 11.8083 84.4634 11.7734Z" fill="#666666"/>
<path d="M78.0712 12.1934L77.6196 14.2103C77.4982 13.9229 77.4982 13.6233 77.6196 13.3116C77.6294 13.2867 77.642 13.2634 77.6571 13.2422C77.7428 13.1163 77.8171 12.9753 77.8801 12.819C77.9074 12.7508 77.8956 12.6874 77.8448 12.6291C77.8227 12.604 77.8095 12.5724 77.8073 12.5392C77.7951 12.3466 77.8831 12.2313 78.0712 12.1934Z" fill="#666666"/>
<path d="M75.3967 14.2315L75.7949 12.4648C75.983 12.6726 75.9723 12.9161 75.763 13.1952C75.7409 13.2247 75.7293 13.2603 75.73 13.2964C75.7338 13.6908 75.6227 14.0025 75.3967 14.2315Z" fill="#666666"/>
<path d="M77.5206 14.5371C77.5289 14.7828 77.4834 15.0066 77.3841 15.2083C77.3671 15.2422 77.3615 15.2809 77.3681 15.3186C77.3697 15.3255 77.3712 15.3323 77.3727 15.3391C77.3787 15.36 77.3791 15.3823 77.3738 15.4039C77.2745 15.7786 77.1907 16.1419 77.1224 16.4938C77.1163 16.5218 77.0853 16.5685 77.0291 16.6337C77.0185 16.4623 77.0451 16.2962 77.1088 16.1354C77.1228 16.0998 77.1256 16.0609 77.1167 16.0239L77.053 15.7452C77.0511 15.737 77.0509 15.7285 77.0523 15.7202C77.0537 15.7118 77.0567 15.7039 77.0611 15.6968C77.0656 15.6897 77.0714 15.6836 77.0782 15.6788C77.085 15.6741 77.0927 15.6707 77.1008 15.669L77.1349 15.661C77.1487 15.6579 77.1616 15.6515 77.1727 15.6424C77.1837 15.6334 77.1926 15.6218 77.1986 15.6087C77.3101 15.366 77.3484 15.1397 77.3135 14.9296C77.2839 14.7544 77.3568 14.5974 77.5206 14.5371Z" fill="#666666"/>
<path d="M85.147 14.6172C85.2546 14.8932 85.3115 15.1841 85.3176 15.4897C85.1341 15.4541 85.0711 15.3392 85.1288 15.145C85.1338 15.1282 85.1352 15.1104 85.1328 15.0928C85.1305 15.0751 85.1244 15.0581 85.1151 15.0426C85.0226 14.891 85.0332 14.7491 85.147 14.6172Z" fill="#666666"/>
<path d="M75.2602 14.6699C75.377 14.7715 75.4233 14.8982 75.399 15.0499C75.3939 15.0875 75.3767 15.1226 75.3501 15.15L75.1203 15.3934L75.2602 14.6699Z" fill="#666666"/>
<path d="M83.4019 16.7757C83.2873 16.5171 83.2267 16.2494 83.2198 15.9725C83.2184 15.9282 83.2028 15.8855 83.1755 15.8508C83.0765 15.7268 83.1425 15.5755 83.0742 15.4049C82.9908 15.1971 82.9438 14.9703 82.9332 14.7246C83.2214 14.8103 83.3055 15.0094 83.1857 15.3218C83.1786 15.3413 83.1773 15.3624 83.1819 15.3825C83.1866 15.4025 83.197 15.4206 83.2119 15.4345C83.2642 15.4838 83.2957 15.5149 83.3063 15.5277C83.3283 15.552 83.3294 15.5994 83.3097 15.6699C83.2923 15.7359 83.3048 15.7909 83.3472 15.8349C83.5475 16.0408 83.3393 16.241 83.5179 16.4571C83.5293 16.4714 83.5375 16.488 83.5418 16.5057C83.5461 16.5234 83.5465 16.5417 83.5429 16.5595C83.5255 16.6475 83.4784 16.7196 83.4019 16.7757Z" fill="#666666"/>
<path d="M54.8736 15.2295C55.1041 15.36 55.018 15.4369 54.6153 15.4605C54.5915 15.462 54.5679 15.4568 54.5471 15.4457C54.4652 15.4032 54.4223 15.3258 54.4185 15.2136C54.599 15.1901 54.7507 15.1954 54.8736 15.2295Z" fill="#666666"/>
<path d="M95.0734 15.6231L95.0757 16.8915C95.0759 16.9106 95.0722 16.9296 95.065 16.9473C95.0577 16.965 95.0471 16.9812 95.0335 16.9948C95.02 17.0084 95.0039 17.0193 94.9862 17.0267C94.9684 17.0342 94.9494 17.0381 94.9301 17.0382L93.8073 17.0439L94.7333 17.0064C94.7768 17.0046 94.8179 16.986 94.848 16.9544C94.8781 16.9228 94.8949 16.8807 94.8948 16.8369V15.3899C94.8951 15.3795 94.899 15.3695 94.9058 15.3615C94.9126 15.3536 94.9219 15.3483 94.9322 15.3464C94.9425 15.3446 94.953 15.3463 94.9622 15.3513C94.9713 15.3563 94.9785 15.3643 94.9824 15.374L95.0734 15.6231Z" fill="#666666"/>
<path d="M75.0407 15.5859C75.2693 15.752 75.1146 16.1502 75.0839 16.3822C75.0787 16.4195 75.0642 16.4544 75.0418 16.4835C74.944 16.6094 74.8567 16.6689 74.7802 16.6621L75.0407 15.5859Z" fill="#666666"/>
<path d="M85.4439 15.9199C85.5793 16.0689 85.5452 16.3693 85.5805 16.5558L85.3518 16.3522C85.3387 16.3409 85.3283 16.3267 85.3214 16.3108C85.3145 16.2948 85.3113 16.2775 85.312 16.2601C85.315 16.138 85.359 16.0246 85.4439 15.9199Z" fill="#666666"/>
<path d="M77.0439 16.7004C77.0758 16.9226 77.0022 17.0375 76.8232 17.0451C76.1816 17.0701 75.5199 17.0587 74.8381 17.0109C75.4593 16.9192 76.0914 16.89 76.7345 16.9234C76.7581 16.9244 76.7816 16.9183 76.8018 16.906C76.822 16.8936 76.8381 16.8755 76.8479 16.8541C76.8577 16.8326 76.8608 16.8088 76.8568 16.7856C76.8528 16.7625 76.8419 16.7411 76.8255 16.7243C76.799 16.697 76.7971 16.6617 76.8198 16.6185C76.8275 16.6038 76.8404 16.5927 76.8559 16.5874C76.8714 16.5821 76.8882 16.583 76.9029 16.59C76.962 16.6181 77.009 16.6549 77.0439 16.7004Z" fill="#666666"/>
<path d="M85.5304 16.9964C84.832 17.0912 84.1346 17.0859 83.4384 16.9805C84.1422 16.8895 84.8395 16.8948 85.5304 16.9964Z" fill="#666666"/>
<path d="M65.311 24.6466C66.1543 24.6428 66.8824 24.6443 67.4951 24.6511C68.1151 24.6579 68.7897 24.8297 68.9956 25.4963C69.1708 26.0636 69.1928 26.6123 69.0616 27.1424C69.0609 27.1469 69.0593 27.1515 69.057 27.1561L68.8079 27.7442C68.7994 27.7641 68.7955 27.7857 68.7965 27.8075C68.7974 27.8294 68.8033 27.8509 68.8136 27.8705C69.0184 28.2535 69.1238 28.476 69.1299 28.5382C69.2607 29.8567 69.2664 31.017 67.6203 31.0375C66.8672 31.0474 66.0872 31.0485 65.2803 31.0409C65.2267 31.0403 65.1755 31.0186 65.1378 30.9805C65.1001 30.9424 65.0789 30.8909 65.0789 30.8373V24.8798C65.0789 24.8181 65.1033 24.759 65.1468 24.7153C65.1903 24.6716 65.2493 24.6469 65.311 24.6466ZM66.5999 26.1209L66.6158 26.9786C66.617 27.0403 66.6426 27.0989 66.6869 27.1418C66.7312 27.1846 66.7908 27.2082 66.8524 27.2073L67.1197 27.2027C67.1846 27.2016 67.2486 27.189 67.3082 27.1656C67.3677 27.1423 67.4215 27.1087 67.4666 27.0668C67.5118 27.0248 67.5472 26.9754 67.5711 26.9212C67.5949 26.867 67.6066 26.8092 67.6055 26.7511L67.5987 26.312C67.5965 26.1947 67.5424 26.0831 67.4483 26.0018C67.3543 25.9205 67.2279 25.8762 67.097 25.8786L66.8297 25.8831C66.7989 25.8836 66.7686 25.8901 66.7404 25.9023C66.7122 25.9145 66.6867 25.9321 66.6653 25.9542C66.644 25.9763 66.6272 26.0024 66.616 26.031C66.6047 26.0596 66.5993 26.0902 66.5999 26.1209ZM66.6056 28.7032L66.5987 29.611C66.5984 29.6435 66.6045 29.6759 66.6167 29.7061C66.6289 29.7363 66.6469 29.7638 66.6698 29.787C66.6926 29.8102 66.7197 29.8288 66.7497 29.8415C66.7797 29.8542 66.8119 29.8609 66.8444 29.8612L67.1402 29.8635C67.2789 29.8646 67.4123 29.817 67.511 29.7313C67.6098 29.6455 67.6659 29.5286 67.6669 29.4062L67.6715 28.9262C67.672 28.8655 67.659 28.8052 67.6331 28.7489C67.6073 28.6926 67.5691 28.6414 67.5208 28.598C67.4726 28.5547 67.4151 28.5202 67.3517 28.4965C67.2884 28.4728 67.2204 28.4603 67.1516 28.4597L66.8558 28.4575C66.8233 28.4572 66.791 28.4633 66.7607 28.4755C66.7305 28.4877 66.703 28.5057 66.6798 28.5285C66.6566 28.5513 66.638 28.5785 66.6253 28.6085C66.6126 28.6384 66.6059 28.6706 66.6056 28.7032Z" fill="#666666"/>
<path d="M75.8132 24.6445C76.9736 24.6445 77.5644 24.6449 77.5856 24.6457C77.615 24.6452 77.6442 24.6506 77.6715 24.6616C77.6988 24.6725 77.7237 24.6888 77.7447 24.7094C77.7656 24.7301 77.7823 24.7547 77.7936 24.7818C77.805 24.8089 77.8108 24.8381 77.8108 24.8675V25.5865C77.8108 25.6652 77.7795 25.7407 77.7239 25.7964C77.6682 25.8521 77.5927 25.8834 77.5139 25.8834H76.8041C76.7767 25.8834 76.7497 25.8887 76.7244 25.8991C76.6991 25.9095 76.6762 25.9248 76.6569 25.944C76.6375 25.9632 76.6222 25.986 76.6117 26.0112C76.6013 26.0363 76.5959 26.0632 76.5959 26.0904V30.8034C76.5959 30.8644 76.5724 30.9231 76.5302 30.9672C76.4881 31.0113 76.4305 31.0374 76.3695 31.04C76.327 31.0423 76.1424 31.0434 75.8155 31.0434C75.4886 31.0434 75.304 31.0423 75.2615 31.04C75.2005 31.0374 75.143 31.0113 75.1008 30.9672C75.0586 30.9231 75.0351 30.8644 75.0351 30.8034L75.0317 26.0904C75.0317 26.0632 75.0263 26.0363 75.0159 26.0112C75.0054 25.986 74.9901 25.9632 74.9707 25.944C74.9514 25.9248 74.9285 25.9095 74.9032 25.8991C74.8779 25.8887 74.8509 25.8834 74.8235 25.8834L74.1137 25.8845C74.0349 25.8845 73.9594 25.8532 73.9037 25.7975C73.8481 25.7419 73.8168 25.6663 73.8168 25.5876V24.8686C73.8168 24.8393 73.8226 24.8103 73.8339 24.7832C73.8452 24.7562 73.8617 24.7316 73.8825 24.711C73.9034 24.6903 73.9281 24.674 73.9553 24.663C73.9825 24.652 74.0116 24.6465 74.0409 24.6468C74.0629 24.6453 74.6537 24.6445 75.8132 24.6445Z" fill="#666666"/>
<path d="M86.1618 27.8844L86.4667 28.1881C86.4943 28.2157 86.5143 28.2502 86.5247 28.2882C86.7863 29.2381 86.8296 30.9376 85.485 31.0082C84.4915 31.0605 83.5541 31.0669 82.6728 31.0275C82.6456 31.0263 82.6198 31.0145 82.6009 30.9946C82.5821 30.9747 82.5716 30.9482 82.5716 30.9206C82.5701 29.3006 82.5689 27.5215 82.5682 25.583C82.5682 25.3146 82.4738 25.0108 82.6103 24.7685C82.6307 24.7325 82.6601 24.7024 82.6956 24.6812C82.7311 24.6601 82.7715 24.6486 82.8128 24.6479C83.9686 24.635 84.7929 24.6392 85.2859 24.6604C85.6658 24.6771 85.9904 24.8292 86.2596 25.1166C86.6965 25.5842 86.6635 26.7217 86.4928 27.336C86.4824 27.372 86.4637 27.4054 86.4382 27.4339L86.1584 27.7365C86.1399 27.7567 86.13 27.7833 86.1306 27.8108C86.1313 27.8383 86.1424 27.8646 86.1618 27.8844ZM85.0493 26.8776L85.0663 26.2656C85.0678 26.2363 85.064 26.207 85.0549 26.1791C85.0132 26.0221 84.9048 25.9201 84.7296 25.8731C83.9321 25.6592 84.0402 26.6444 84.1267 27.0915C84.1337 27.1275 84.1529 27.1601 84.1811 27.1837C84.2092 27.2073 84.2446 27.2205 84.2814 27.2211C84.5263 27.2257 84.722 27.198 84.8684 27.1381C84.9205 27.1168 84.9653 27.0809 84.9974 27.0346C85.0295 26.9884 85.0475 26.9339 85.0493 26.8776ZM84.0846 28.6955L84.0891 29.626C84.0893 29.6572 84.0956 29.6881 84.1077 29.7169C84.1198 29.7457 84.1374 29.7718 84.1596 29.7938C84.1818 29.8158 84.2081 29.8331 84.237 29.845C84.2659 29.8568 84.2968 29.8628 84.328 29.8626L84.6568 29.8615C84.716 29.8612 84.7746 29.852 84.8292 29.8344C84.8839 29.8168 84.9335 29.7911 84.9752 29.7587C85.0169 29.7264 85.05 29.6881 85.0724 29.646C85.0949 29.6039 85.1064 29.5588 85.1061 29.5134L85.1016 28.799C85.1011 28.7073 85.0533 28.6197 84.9686 28.5553C84.884 28.4908 84.7693 28.4549 84.65 28.4554L84.3212 28.4566C84.29 28.4567 84.2591 28.463 84.2303 28.4751C84.2015 28.4872 84.1754 28.5048 84.1534 28.527C84.1314 28.5492 84.1141 28.5755 84.1022 28.6044C84.0904 28.6333 84.0844 28.6642 84.0846 28.6955Z" fill="#666666"/>
<path d="M94.1908 25.9539C94.1593 25.9722 94.1331 25.9986 94.1149 26.0304C94.0968 26.0621 94.0872 26.0981 94.0873 26.1348V30.792C94.0872 30.8614 94.0609 30.9282 94.0137 30.9791C93.9664 31.0299 93.9017 31.061 93.8325 31.0662C93.7597 31.0723 93.4935 31.0742 93.0339 31.0719C92.5925 31.0696 92.5516 30.7875 92.5516 30.3984C92.55 28.9188 92.5512 27.5404 92.555 26.2633C92.5573 25.3885 91.2638 26.4613 91.2502 25.4932C91.2479 25.2785 91.2687 25.0336 91.3127 24.7583C91.3179 24.7265 91.3341 24.6975 91.3585 24.6767C91.3829 24.6558 91.4139 24.6444 91.4458 24.6445H95.0872C95.1391 24.6445 95.1889 24.665 95.2256 24.7015C95.2623 24.738 95.2829 24.7875 95.2829 24.8391V25.6001C95.2829 25.6219 95.2782 25.6436 95.2693 25.6638C95.1373 25.9698 94.6026 25.897 94.3251 25.8993C94.2974 25.9 94.2705 25.9075 94.2466 25.9209L94.1908 25.9539Z" fill="#666666"/>
<path d="M47.6215 31.7699C47.6412 31.7895 47.6544 31.8148 47.6591 31.8422C47.6639 31.8696 47.66 31.8978 47.648 31.9229C47.636 31.9481 47.6165 31.9688 47.5922 31.9824C47.5679 31.9959 47.5399 32.0016 47.5123 31.9985L46.9571 31.9428C46.8482 31.9315 46.7434 31.8953 46.6508 31.8368C46.5583 31.7784 46.4805 31.6995 46.4236 31.6061C46.2484 31.3202 45.9523 31.1662 45.5351 31.1442C45.1749 31.1245 44.9557 31.1029 44.8776 31.0794C44.0881 30.8348 43.9164 30.2046 43.9437 29.3787C43.9528 29.1079 43.952 28.2274 43.9414 26.7372C43.9376 26.1115 43.9797 25.7092 44.0677 25.5302C44.2497 25.1632 44.5648 24.9201 45.013 24.801C45.7809 24.5974 46.7433 24.7749 47.1448 25.5177C47.2586 25.727 47.3143 26.1783 47.3121 26.8714C47.3067 28.7052 47.3007 29.6896 47.2938 29.8246C47.2756 30.2152 47.1327 30.5261 46.865 30.7574C46.8474 30.7727 46.8331 30.7914 46.823 30.8123C46.8129 30.8333 46.8073 30.8562 46.8064 30.8794C46.8056 30.9027 46.8095 30.9259 46.818 30.9476C46.8265 30.9693 46.8394 30.989 46.8559 31.0054L47.6215 31.7699ZM46.512 26.2053C46.5123 25.9959 46.4295 25.7949 46.2817 25.6466C46.1339 25.4983 45.9333 25.4148 45.7239 25.4144L45.485 25.414C45.3813 25.4138 45.2786 25.4341 45.1828 25.4736C45.0869 25.5131 44.9998 25.5711 44.9263 25.6443C44.8529 25.7174 44.7946 25.8044 44.7547 25.9001C44.7149 25.9958 44.6943 26.0984 44.6941 26.2021L44.688 29.7013C44.6876 29.9107 44.7705 30.1116 44.9183 30.2599C45.0661 30.4083 45.2667 30.4918 45.4761 30.4922L45.715 30.4926C45.8187 30.4928 45.9214 30.4725 46.0172 30.433C46.1131 30.3935 46.2002 30.3355 46.2736 30.2623C46.3471 30.1891 46.4054 30.1022 46.4452 30.0065C46.4851 29.9108 46.5057 29.8081 46.5059 29.7045L46.512 26.2053Z" fill="#666666"/>
<path d="M18.1013 30.4334C18.1012 30.408 18.1071 30.3828 18.1184 30.36C18.1296 30.3371 18.1461 30.3172 18.1664 30.3018C18.1866 30.2863 18.2102 30.2758 18.2352 30.271C18.2603 30.2662 18.2861 30.2673 18.3106 30.2742C19.0045 30.4676 20.5175 30.6996 20.5528 29.5677C20.5744 28.8897 20.2559 28.6463 19.6598 28.3733C19.4087 28.258 19.1096 28.0999 18.7622 27.8989C17.9898 27.4518 17.9488 26.6396 18.0888 25.8308C18.3038 24.601 19.8532 24.7341 20.7519 24.8707C20.8548 24.8864 20.9487 24.9385 21.0166 25.0174C21.0844 25.0963 21.1216 25.1968 21.1216 25.3007V25.345C21.1215 25.3851 21.1122 25.4246 21.0945 25.4606C21.0768 25.4965 21.051 25.5279 21.0193 25.5524C20.9876 25.5769 20.9507 25.5938 20.9114 25.6018C20.8722 25.6098 20.8316 25.6088 20.7928 25.5987C20.4091 25.5001 19.9741 25.4721 19.488 25.5145C18.8748 25.5691 18.8817 26.0139 18.8464 26.4826C18.7907 27.2164 19.4596 27.4564 20.0056 27.7169C20.4629 27.9353 20.8656 28.1549 21.1261 28.5223C21.3661 28.8602 21.3593 29.5416 21.3081 29.9374C21.1295 31.3367 19.2662 31.2184 18.2822 30.9829C18.2307 30.9706 18.1848 30.9413 18.152 30.8996C18.1192 30.8579 18.1013 30.8063 18.1013 30.7531V30.4334Z" fill="#666666"/>
<path d="M2.75863 27.8153C3.06122 28.5335 3.29102 29.0705 3.448 29.4262C3.44979 29.4293 3.45254 29.4318 3.45586 29.4333C3.45918 29.4348 3.46288 29.4352 3.46644 29.4345C3.46999 29.4337 3.47321 29.4318 3.47563 29.4291C3.47804 29.4264 3.47952 29.423 3.47985 29.4193V25.084C3.47985 25.0194 3.50562 24.9575 3.55149 24.9119C3.59736 24.8662 3.65957 24.8406 3.72443 24.8406H4.01566C4.04494 24.8406 4.07393 24.8463 4.10098 24.8575C4.12803 24.8687 4.15261 24.8852 4.17332 24.9059C4.19402 24.9266 4.21045 24.9511 4.22165 24.9782C4.23286 25.0053 4.23862 25.0342 4.23862 25.0635V30.905C4.23874 30.9464 4.22321 30.9863 4.19515 31.0166C4.16708 31.047 4.12857 31.0657 4.08732 31.0688C3.787 31.0939 3.38088 31.1689 3.23641 30.7958C3.01572 30.2232 2.64904 29.3276 2.13637 28.1088C1.83377 27.3906 1.60398 26.8537 1.44699 26.498C1.44521 26.4948 1.44245 26.4923 1.43914 26.4908C1.43582 26.4894 1.43211 26.489 1.42856 26.4897C1.425 26.4905 1.42178 26.4924 1.41937 26.4951C1.41695 26.4978 1.41547 26.5012 1.41514 26.5048V30.8402C1.41514 30.8721 1.40881 30.9038 1.39652 30.9333C1.38423 30.9629 1.36622 30.9897 1.3435 31.0123C1.32079 31.0349 1.29383 31.0528 1.26416 31.0651C1.23448 31.0773 1.20268 31.0836 1.17056 31.0836H0.879339C0.820205 31.0836 0.763492 31.0601 0.721678 31.0183C0.679864 30.9765 0.656373 30.9198 0.656373 30.8607V25.0192C0.656252 24.9778 0.671783 24.9379 0.699846 24.9075C0.72791 24.8771 0.76643 24.8585 0.807671 24.8553C1.10799 24.8303 1.51411 24.7552 1.65745 25.1284C1.8789 25.7009 2.24596 26.5966 2.75863 27.8153Z" fill="#666666"/>
<path d="M9.37935 30.8884L10.7797 24.9696C10.7847 24.9493 10.7946 24.9305 10.8087 24.915C10.8228 24.8995 10.8406 24.8878 10.8605 24.8808C11.2279 24.7511 11.8081 24.6977 11.9366 25.2119C12.2916 26.6354 12.7439 28.4957 13.2938 30.7928C13.302 30.8277 13.3022 30.864 13.2945 30.899C13.2867 30.9339 13.2712 30.9667 13.2489 30.9948C13.2267 31.0229 13.1985 31.0457 13.1662 31.0613C13.134 31.077 13.0987 31.0851 13.0628 31.0852H12.8319C12.7602 31.0852 12.6905 31.0608 12.6343 31.016C12.5781 30.9711 12.5387 30.9085 12.5225 30.8384L12.2267 29.5597C12.2141 29.5051 12.1833 29.4564 12.1393 29.4215C12.0953 29.3865 12.0407 29.3675 11.9844 29.3675H10.6807C10.6342 29.3675 10.5889 29.3832 10.5524 29.4121C10.5159 29.441 10.4901 29.4814 10.4794 29.5267L10.1586 30.8827C10.1453 30.9388 10.1134 30.9887 10.0682 31.0244C10.023 31.0601 9.96708 31.0795 9.90946 31.0795H9.53065C9.50722 31.0794 9.48412 31.0741 9.46306 31.0639C9.44199 31.0536 9.4235 31.0388 9.40896 31.0204C9.39442 31.002 9.38421 30.9806 9.37908 30.9578C9.37396 30.9349 9.37405 30.9112 9.37935 30.8884ZM11.3326 28.7122C11.5919 28.7137 11.7762 28.7111 11.8854 28.7042C11.9011 28.7033 11.9164 28.699 11.9302 28.6916C11.9441 28.6841 11.9561 28.6738 11.9655 28.6612C11.9749 28.6486 11.9815 28.6342 11.9848 28.6188C11.988 28.6035 11.9879 28.5876 11.9844 28.5723C11.8532 27.9785 11.6575 27.112 11.3974 25.9729C11.3883 25.9327 11.3705 25.9126 11.344 25.9126C11.3174 25.9126 11.2992 25.9327 11.2894 25.9729C11.0201 27.1097 10.818 27.9747 10.683 28.5677C10.6795 28.5829 10.6794 28.5987 10.6826 28.614C10.6858 28.6293 10.6922 28.6437 10.7015 28.6562C10.7108 28.6688 10.7227 28.6792 10.7364 28.6867C10.7501 28.6942 10.7653 28.6986 10.7809 28.6997C10.8901 28.7073 11.074 28.7114 11.3326 28.7122Z" fill="#666666"/>
<path d="M36.9135 29.3662C36.551 29.3662 36.3356 29.3674 36.2673 29.3696C36.215 29.3718 36.1647 29.391 36.1243 29.4245C36.0838 29.458 36.0553 29.5038 36.0432 29.5551L35.7384 30.844C35.7215 30.9143 35.6815 30.9768 35.6247 31.0216C35.568 31.0664 35.4978 31.0908 35.4255 31.0908H35.1855C35.1521 31.0908 35.1192 31.0833 35.0892 31.0688C35.0591 31.0544 35.0328 31.0333 35.0121 31.0072C34.9914 30.9812 34.9769 30.9508 34.9697 30.9184C34.9625 30.886 34.9628 30.8523 34.9705 30.8201L36.3299 25.0741C36.3466 25.0036 36.3876 24.9411 36.4458 24.8976C36.5041 24.8542 36.5758 24.8325 36.6484 24.8364C36.7235 24.8402 36.813 24.8421 36.9169 24.8421C37.0208 24.8421 37.1103 24.8402 37.1854 24.8364C37.258 24.8328 37.3296 24.8548 37.3876 24.8985C37.4456 24.9421 37.4863 25.0047 37.5028 25.0753L38.8542 30.8223C38.8619 30.8546 38.8622 30.8882 38.855 30.9207C38.8478 30.9531 38.8333 30.9835 38.8126 31.0095C38.7919 31.0356 38.7656 31.0566 38.7355 31.0711C38.7055 31.0856 38.6726 31.0931 38.6392 31.0931H38.3992C38.3267 31.093 38.2564 31.0684 38.1997 31.0234C38.1429 30.9784 38.103 30.9156 38.0863 30.8451L37.7837 29.5562C37.7716 29.505 37.7432 29.4591 37.7027 29.4257C37.6622 29.3922 37.612 29.3729 37.5596 29.3708C37.4914 29.3685 37.276 29.367 36.9135 29.3662ZM36.8259 26.057L36.2309 28.5699C36.227 28.5866 36.2269 28.6039 36.2307 28.6206C36.2344 28.6373 36.242 28.653 36.2527 28.6664C36.2634 28.6799 36.277 28.6908 36.2926 28.6983C36.3081 28.7058 36.3251 28.7098 36.3424 28.7099H37.4664C37.4834 28.7099 37.5003 28.706 37.5157 28.6985C37.531 28.691 37.5444 28.68 37.5549 28.6665C37.5653 28.653 37.5725 28.6372 37.5759 28.6205C37.5793 28.6038 37.5788 28.5864 37.5744 28.5699C37.5084 28.3235 37.3515 27.6587 37.1035 26.5757C37.0557 26.3702 36.9821 26.1939 36.8828 26.0468C36.8793 26.0418 36.8744 26.0379 36.8688 26.0356C36.8632 26.0333 36.857 26.0326 36.8511 26.0337C36.8451 26.0348 36.8395 26.0376 36.8351 26.0417C36.8306 26.0458 36.8274 26.0511 36.8259 26.057Z" fill="#666666"/>
<path d="M26.5399 25.0579C26.5399 25.0006 26.5627 24.9456 26.6032 24.9051C26.6438 24.8646 26.6987 24.8418 26.7561 24.8418H28.5182C28.8932 24.8418 29.2529 24.9839 29.518 25.237C29.7832 25.49 29.9322 25.8331 29.9322 26.191V29.722C29.9322 30.0799 29.7832 30.423 29.518 30.676C29.2529 30.9291 28.8932 31.0712 28.5182 31.0712H26.7561C26.6987 31.0712 26.6438 31.0484 26.6032 31.0079C26.5627 30.9674 26.5399 30.9124 26.5399 30.8551V25.0579ZM27.5285 25.505C27.4699 25.5076 27.4147 25.5327 27.3742 25.5748C27.3337 25.617 27.3112 25.6731 27.3112 25.7314C27.3097 27.1147 27.3104 28.421 27.3135 29.6504C27.3135 29.9712 27.3192 30.474 27.7651 30.4728C28.145 30.4728 29.1245 30.3932 29.1268 29.8164C29.1336 28.2891 29.1344 27.0866 29.1291 26.2092C29.1268 25.7731 28.9042 25.541 28.4613 25.513C28.1648 25.4933 27.8538 25.4906 27.5285 25.505Z" fill="#666666"/>
<path d="M53.0102 27.0077L52.8191 27.0043C52.6206 27.0009 52.4569 27.159 52.4534 27.3575L52.4501 27.5486C52.4466 27.7471 52.6048 27.9108 52.8033 27.9142L52.9943 27.9176C53.1928 27.921 53.3566 27.7629 53.36 27.5644L53.3634 27.3734C53.3668 27.1748 53.2087 27.0111 53.0102 27.0077Z" fill="#666666"/>
<path d="M52.9917 30.217L52.8052 30.2209C52.6055 30.2251 52.4469 30.3904 52.4511 30.5902L52.455 30.7744C52.4592 30.9742 52.6245 31.1327 52.8242 31.1285L53.0107 31.1246C53.2105 31.1204 53.369 30.9551 53.3648 30.7554L53.361 30.5711C53.3568 30.3714 53.1915 30.2128 52.9917 30.217Z" fill="#666666"/>
</g>
<defs>
<clipPath id="clip0_191_931">
<rect width="94.6265" height="32" fill="white" transform="translate(0.656372)"/>
</clipPath>
</defs>
</svg>
