<svg width="104" height="32" viewBox="0 0 104 32" fill="none" xmlns="http://www.w3.org/2000/svg">
<g clip-path="url(#clip0_191_799)">
<path d="M103.838 29.4712C103.875 30.5959 103.576 31.0708 102.35 31.0583C96.8385 31.0041 91.3265 30.9999 85.8145 31.0666C84.4811 31.0833 84.2319 30.5667 84.2485 29.3629C84.3067 25.0098 84.2734 20.6568 84.2734 16.3038C84.2693 12.0882 84.369 7.86847 84.2236 3.65706C84.1655 1.85753 84.7553 1.43681 86.4251 1.54511C88.6224 1.69091 90.8363 1.65758 93.0378 1.55344C94.3421 1.49096 94.6578 1.94501 94.6412 3.19885C94.5747 8.58911 94.7159 13.9835 94.5581 19.3696C94.4999 21.3774 95.1894 21.8398 96.9922 21.694C98.7035 21.5566 100.44 21.7232 102.159 21.644C103.376 21.5857 103.908 21.9273 103.846 23.252C103.746 25.3223 103.771 27.4009 103.838 29.4712Z" fill="#666666"/>
<path d="M82.2547 22.9808C82.2797 21.981 81.9058 21.6436 80.9339 21.6686C79.0065 21.7186 77.0667 21.5811 75.1477 21.7103C73.5444 21.8227 73.0376 21.3354 73.0709 19.6691C73.1789 14.2122 73.0667 8.75115 73.1415 3.29424C73.1581 1.94876 72.7926 1.49054 71.4218 1.55719C69.0833 1.66133 66.7364 1.64467 64.3979 1.56136C63.1684 1.51554 62.6782 1.81962 62.7447 3.15261C62.8527 5.42702 62.7115 7.71392 62.7987 9.98833C62.8444 11.1755 62.4581 11.8587 61.4238 12.4669C58.105 14.4288 54.8568 16.5075 51.5753 18.5361C50.5784 19.1526 49.594 19.7899 48.5763 20.3648C47.4424 21.0021 46.6407 20.0399 46.1339 19.4317C45.407 18.5611 46.649 18.4236 47.0976 18.0987C48.0986 17.3697 49.1828 16.7574 50.2295 16.0951C53.3323 14.1248 56.431 12.1503 59.7748 10.0217C57.997 8.84696 56.4559 7.93886 55.0437 6.86414C53.9263 6.01436 53.054 6.08934 51.8993 6.84332C47.9117 9.43014 43.8245 11.8587 39.841 14.4455C38.4952 15.3203 37.5856 14.4538 37.0165 13.7165C36.1276 12.5668 37.6894 12.4793 38.1878 12.1461C42.3582 9.38015 46.5908 6.71418 51.0063 3.88575C49.2285 2.72772 47.6168 1.7988 46.1464 0.678254C44.9875 -0.209015 44.1194 -0.221512 42.8649 0.61577C38.5118 3.52335 34.0466 6.2518 29.6561 9.10523C28.7173 9.7134 28.1898 10.0092 27.4629 8.73865C25.2407 4.83967 21.7848 2.66107 17.3735 1.96542C12.2354 1.1573 7.06396 1.79046 1.91334 1.58635C0.700451 1.53636 0.874908 2.40281 0.874908 3.14428C0.870754 11.8545 0.89983 20.5606 0.849985 29.2666C0.841678 30.608 1.22382 31.0662 2.59871 31.0412C6.9352 30.962 11.2841 31.1495 15.6165 30.9745C20.8543 30.7621 25.0621 28.5043 27.4837 23.6889C28.2272 22.2101 28.7423 22.3351 29.8887 23.0766C34.2252 25.88 38.6406 28.5627 42.9605 31.3911C44.1484 32.1701 44.9833 32.2242 46.2087 31.4202C51.5462 27.9087 56.9627 24.522 62.7696 20.8188C62.7696 23.9764 62.8153 26.6548 62.7488 29.3333C62.7198 30.5038 62.915 31.0662 64.2982 31.0453C69.8102 30.9662 75.3222 30.9912 80.8342 31.0328C81.9141 31.0412 82.288 30.6996 82.2589 29.6166C82.1966 27.4046 82.2008 25.1927 82.2547 22.9808ZM12.6009 22.2435C11.5417 22.2101 11.1429 21.8602 11.1637 20.7814C11.2135 17.8155 11.2094 14.8454 11.1637 11.8753C11.1471 10.7965 11.5583 10.4507 12.6175 10.4216C16.0028 10.3299 18.5366 12.8959 18.4909 16.4783C18.4493 20.0315 16.036 22.3476 12.6009 22.2435Z" fill="#666666"/>
</g>
<defs>
<clipPath id="clip0_191_799">
<rect width="103" height="32" fill="white" transform="translate(0.850098)"/>
</clipPath>
</defs>
</svg>
