<svg width="64" height="32" viewBox="0 0 64 32" fill="none" xmlns="http://www.w3.org/2000/svg">
<g clip-path="url(#clip0_191_804)">
<path d="M59.5165 5.17578C59.6526 5.17578 59.7615 5.20315 59.8976 5.28526C60.0065 5.33999 60.1154 5.44947 60.1698 5.55894C60.2515 5.69578 60.2787 5.80526 60.2787 5.9421C60.2787 6.07894 60.2515 6.21579 60.1698 6.32526C60.1154 6.43474 60.0065 6.54421 59.8976 6.59895C59.7887 6.65368 59.6526 6.70842 59.5165 6.70842C59.3804 6.70842 59.2443 6.68105 59.1355 6.59895C59.0266 6.54421 58.9177 6.43474 58.8633 6.32526C58.8088 6.21579 58.7544 6.07894 58.7544 5.9421C58.7544 5.80526 58.7816 5.66842 58.8633 5.55894C58.9449 5.44947 59.0266 5.33999 59.1627 5.28526C59.2716 5.20315 59.4077 5.17578 59.5165 5.17578ZM59.5165 5.23052C59.4077 5.23052 59.2988 5.25789 59.1627 5.31262C59.0266 5.36736 58.9722 5.44947 58.8905 5.55894C58.8361 5.66842 58.8088 5.77789 58.8088 5.91473C58.8088 6.02421 58.8361 6.16105 58.8905 6.27052C58.9449 6.38 59.0266 6.4621 59.1355 6.51684C59.2443 6.57158 59.3532 6.59895 59.4893 6.59895C59.5982 6.59895 59.7343 6.57158 59.8432 6.51684C59.9521 6.4621 60.0337 6.38 60.0881 6.27052C60.1426 6.16105 60.1698 6.05158 60.1698 5.91473C60.1698 5.80526 60.1426 5.66842 60.0881 5.55894C60.0337 5.44947 59.9521 5.36736 59.816 5.31262C59.6799 5.25789 59.6526 5.23052 59.5165 5.23052ZM59.1082 5.44947H59.5165C59.6254 5.44947 59.7071 5.47684 59.7615 5.53157C59.816 5.58631 59.8432 5.64105 59.8432 5.69578C59.8432 5.75052 59.816 5.80526 59.7887 5.83263C59.7615 5.88736 59.6799 5.91473 59.5982 5.91473L59.816 6.24316C59.8432 6.27052 59.8704 6.29789 59.8976 6.32526C59.9248 6.32526 59.9248 6.35263 59.9521 6.35263V6.38H59.7615L59.4349 5.9421H59.3532V6.29789C59.3532 6.32526 59.3804 6.35263 59.3804 6.35263C59.4077 6.35263 59.4349 6.38 59.4893 6.38V6.40737H59.081V6.38C59.1082 6.38 59.1355 6.38 59.1627 6.38C59.1899 6.38 59.1899 6.35263 59.1899 6.35263C59.1899 6.35263 59.1899 6.29789 59.1899 6.24316V5.66842C59.1899 5.61368 59.1899 5.58631 59.1899 5.58631C59.1899 5.55894 59.1627 5.55894 59.1627 5.55894C59.1627 5.55894 59.1355 5.55894 59.081 5.55894V5.44947H59.1082ZM59.3532 5.91473C59.4349 5.91473 59.4893 5.91473 59.5438 5.88736C59.571 5.86 59.6254 5.86 59.6254 5.80526C59.6526 5.77789 59.6526 5.75052 59.6526 5.69578C59.6526 5.64105 59.6254 5.58631 59.5982 5.55894C59.571 5.53157 59.5165 5.5042 59.4349 5.5042C59.4077 5.5042 59.3804 5.5042 59.3532 5.53157V5.91473Z" fill="#666666"/>
<path d="M60.7958 12.2916C61.8574 20.8853 49.282 29.5064 32.7053 31.559C16.1287 33.6117 1.97459 28.3022 0.913029 19.7084C-0.14853 11.1147 12.3452 2.49361 28.9218 0.440966C45.4985 -1.61168 59.7615 3.69783 60.7958 12.2916ZM32.0249 1.34413C16.9181 2.68519 5.2137 9.93786 5.89419 17.5463C6.57467 25.1548 19.3406 30.2453 34.4474 28.9043C49.5542 27.5632 61.2585 20.3105 60.5781 12.7021C59.8976 5.06625 47.1316 0.0030684 32.0249 1.34413Z" fill="#666666"/>
<path d="M60.4426 19.7636C62.1864 19.7636 63.6001 18.3422 63.6001 16.5888C63.6001 14.8354 62.1864 13.4141 60.4426 13.4141C58.6988 13.4141 57.2852 14.8354 57.2852 16.5888C57.2852 18.3422 58.6988 19.7636 60.4426 19.7636Z" fill="#666666"/>
<path d="M16.9983 13.9047H17.1072C17.4611 13.932 17.6244 14.0415 17.6788 14.0962C17.7332 14.151 17.8149 14.3426 17.8149 14.9173V17.2163C17.8149 17.7636 17.7605 18.1742 17.6244 18.4205C17.4066 18.8584 16.9711 19.0773 16.2906 19.0773C15.6918 19.0773 15.2835 18.8584 15.0657 18.4479C14.9569 18.2015 14.9024 17.8731 14.9024 17.4078V14.5615C14.9024 14.1784 14.9841 14.0689 15.0113 14.0415C15.0657 14.0141 15.2018 13.932 15.5829 13.9047H15.6918V13.4941H12.9426V13.9047H13.0515C13.4598 13.932 13.5687 14.0141 13.6231 14.0415C13.6503 14.0689 13.732 14.1784 13.732 14.5615V17.3257C13.732 17.9005 13.8409 18.3657 14.0314 18.7215C14.4125 19.3784 15.093 19.7342 16.1001 19.7342C17.1072 19.7342 17.8149 19.4058 18.1688 18.7215C18.3593 18.3657 18.4682 17.8457 18.4682 17.2163V14.9173C18.4682 14.3426 18.5498 14.1784 18.6043 14.1236C18.6587 14.0415 18.7948 13.9594 19.1759 13.932H19.2848V13.5215H16.9711V13.9047H16.9983Z" fill="#666666"/>
<path d="M11.2813 15.3839L10.3287 14.7818C9.9748 14.5629 9.72982 14.3713 9.56651 14.1797C9.40319 14.0155 9.34875 13.7966 9.34875 13.5502C9.34875 13.2766 9.43041 13.0576 9.62095 12.9208C9.81148 12.7566 10.0565 12.6744 10.3287 12.6744C10.6825 12.6744 11.0364 12.8113 11.4174 13.0576C11.7713 13.3039 12.0435 13.7966 12.2068 14.4534L12.234 14.5629H12.7512L12.479 11.9902H12.0163V12.0723C11.989 12.1818 11.9618 12.2366 11.9074 12.2913C11.8802 12.3187 11.8257 12.346 11.7441 12.346C11.7441 12.346 11.6352 12.3187 11.1725 12.1818C10.8186 12.045 10.492 11.9902 10.247 11.9902C9.62095 11.9902 9.10378 12.1818 8.69548 12.565C8.31441 12.9481 8.12388 13.4408 8.12388 14.0429C8.12388 14.4808 8.28719 14.8913 8.61383 15.2745C8.77714 15.466 9.02212 15.6576 9.29431 15.8492L10.2198 16.4239C10.7369 16.7524 11.0908 16.9987 11.2541 17.1629C11.4991 17.4092 11.608 17.6829 11.608 18.0113C11.608 18.3671 11.4991 18.6408 11.2813 18.8324C11.0636 19.024 10.7914 19.1334 10.4647 19.1334C9.86592 19.1334 9.37597 18.8871 8.96768 18.4219C8.7227 18.1482 8.53217 17.765 8.34163 17.2997L8.31441 17.2176H7.82446L8.17832 19.8176H8.64105L8.66827 19.7082C8.66827 19.6261 8.69549 19.5713 8.74992 19.4892C8.77714 19.4619 8.83158 19.4345 8.88602 19.4345C8.88602 19.4345 8.9949 19.4345 9.48485 19.6261C9.86592 19.7629 10.247 19.8176 10.5736 19.8176C11.2813 19.8176 11.8529 19.5987 12.3157 19.2155C12.7784 18.805 12.9962 18.285 12.9962 17.6829C12.9962 17.2176 12.8601 16.8345 12.6151 16.506C12.3157 16.0955 11.9074 15.7397 11.2813 15.3839Z" fill="#666666"/>
<path d="M21.6511 17.054C21.7872 17.054 21.9233 17.054 22.0321 17.054C22.7126 17.054 23.2842 16.9172 23.747 16.6161C24.2369 16.3151 24.4547 15.8498 24.4547 15.193C24.4547 14.673 24.2369 14.2624 23.8014 13.934C23.3931 13.633 22.7943 13.4688 22.0049 13.4688H19.5552V13.8793H19.6641C20.0451 13.9066 20.154 13.9888 20.1812 14.0161C20.2084 14.0435 20.2901 14.1803 20.2901 14.5361V18.3677C20.2901 18.8056 20.2357 18.9425 20.2084 18.9972C20.1812 19.0246 20.0723 19.1067 19.6641 19.1614H19.5552V19.5719H22.2771V19.1614H22.1682C21.7327 19.134 21.5966 19.0519 21.5694 19.0246C21.5422 18.9972 21.4605 18.8877 21.4605 18.5046V17.0267C21.515 17.0267 21.5694 17.054 21.6511 17.054ZM21.4605 14.2351C21.4605 14.1256 21.4878 14.0982 21.4878 14.0982C21.4878 14.0982 21.5422 14.0709 21.7327 14.0709C22.0866 14.0709 22.386 14.1256 22.631 14.2351C23.0393 14.4266 23.257 14.7551 23.257 15.2203C23.257 15.7403 23.0665 16.0961 22.6854 16.2877C22.4677 16.3972 22.1682 16.4519 21.7872 16.4519C21.7327 16.4519 21.7055 16.4519 21.6511 16.4519C21.6239 16.4519 21.5422 16.4519 21.4605 16.4246V14.2351Z" fill="#666666"/>
<path d="M28.9462 17.8477L28.919 17.9298C28.7013 18.3951 28.4835 18.6961 28.2113 18.8056C27.9391 18.9151 27.5308 18.9972 26.932 18.9972C26.2243 18.9972 26.0338 18.9698 25.9793 18.9425C25.9521 18.9425 25.8977 18.9151 25.8977 18.7509V16.6982H27.1225C27.5581 16.6982 27.6942 16.7803 27.7486 16.8351C27.803 16.8898 27.8847 17.054 27.9663 17.4646L27.9936 17.574H28.4291V15.2751H27.9936L27.9663 15.3846C27.8847 15.7677 27.803 15.9319 27.7486 15.9867C27.6942 16.0414 27.5581 16.1235 27.1225 16.1235H25.8977V14.2351C25.8977 14.1256 25.9249 14.0982 25.8977 14.0982C25.8977 14.0982 25.9521 14.0709 26.0338 14.0709H27.2314C27.8575 14.0709 28.0752 14.153 28.1569 14.2077C28.2385 14.2624 28.3474 14.454 28.4563 14.8919L28.4835 15.0014H28.9462L28.919 13.4688H23.9923V13.8793H24.1012C24.4823 13.9066 24.6184 13.9888 24.6456 14.0161C24.6728 14.0435 24.7545 14.1803 24.7545 14.5361V18.4772C24.7545 18.8877 24.6728 18.9698 24.6456 18.9972C24.5911 19.0246 24.4823 19.1067 24.074 19.134H23.9651V19.5446H28.9735L29.4362 17.793H28.9462V17.8477Z" fill="#666666"/>
<path d="M34.6624 19.0793C34.5535 19.0246 34.4719 18.9425 34.363 18.8056L32.6754 16.7256C33.0837 16.6435 33.4375 16.4793 33.6825 16.2603C34.0091 15.9867 34.1724 15.6309 34.1724 15.1382C34.1724 14.4266 33.8186 13.934 33.1109 13.6603C32.757 13.5235 32.3215 13.4688 31.8044 13.4688H29.2185V13.8793H29.3274C29.7085 13.9066 29.8173 13.9888 29.8718 14.0161C29.899 14.0435 29.9807 14.1803 29.9807 14.5361V18.3677C29.9807 18.833 29.9262 18.9425 29.899 18.9972C29.8718 19.0246 29.7629 19.1067 29.3546 19.1614H29.2457V19.5719H31.9677V19.1614H31.8588C31.4505 19.134 31.3416 19.0519 31.2872 19.0246C31.26 18.9972 31.1783 18.8877 31.1783 18.5046V16.8898H31.3688L33.5736 19.6267H35.1796V19.2161H35.0707C34.9074 19.1614 34.7713 19.134 34.6624 19.0793ZM31.1511 16.2877V14.2351C31.1511 14.1256 31.1783 14.0982 31.1783 14.0982C31.1783 14.0982 31.26 14.0709 31.5594 14.0709C31.9132 14.0709 32.1854 14.1256 32.4032 14.2077C32.7843 14.3719 32.9476 14.673 32.9476 15.1382C32.9476 15.6035 32.757 15.9319 32.3215 16.0961C32.1038 16.2056 31.6955 16.2877 31.1511 16.2877Z" fill="#666666"/>
<path d="M39.3444 17.7109L37.4118 13.4688H35.452V13.8793H35.5881C36.0236 13.9066 36.1597 13.9888 36.187 14.0161C36.2414 14.0435 36.2958 14.1803 36.2958 14.5361V18.1488C36.2958 18.7235 36.2142 18.8877 36.1597 18.9698C36.1053 19.0246 35.9692 19.134 35.5337 19.1614H35.4248V19.5719H37.7657V19.1614H37.6568C37.2757 19.134 37.1668 19.0519 37.1124 18.9972C37.0308 18.9151 36.9491 18.6961 36.9491 18.1488V15.2477L38.9633 19.6267H39.2627L41.3042 15.0561V18.4225C41.3042 18.8877 41.2225 19.0246 41.1953 19.0519C41.1681 19.0793 41.0592 19.1614 40.6237 19.1888H40.5148V19.5993H43.2368V19.1888H43.1279C42.7468 19.1614 42.6107 19.0793 42.5835 19.0519C42.5563 19.0246 42.4746 18.9151 42.4746 18.5319V14.5635C42.4746 14.2077 42.5291 14.0709 42.5835 14.0435C42.6107 14.0161 42.7468 13.934 43.1279 13.9066H43.2368V13.4961H41.277L39.3444 17.7109Z" fill="#666666"/>
<path d="M45.6052 19.05C45.578 19.0226 45.4963 18.9405 45.4963 18.53V14.5615C45.4963 14.1784 45.578 14.0689 45.6052 14.0415C45.6596 13.9868 45.7957 13.932 46.2312 13.9047H46.3673V13.4941H43.5093V13.9047H43.6454C44.0809 13.932 44.217 13.9868 44.2714 14.0415C44.2986 14.0689 44.3803 14.1784 44.3803 14.5615V18.5026C44.3803 18.9131 44.2986 19.0226 44.2714 19.0226C44.217 19.05 44.0809 19.1321 43.6454 19.1594H43.5365V19.57H46.3945V19.1594H46.2857C45.7957 19.1594 45.6324 19.0773 45.6052 19.05Z" fill="#666666"/>
<path d="M51.0225 18.231C50.7775 18.4773 50.5326 18.6689 50.3148 18.7784C49.961 18.9973 49.5527 19.0794 49.1172 19.0794C48.5183 19.0794 48.0284 18.8605 47.6473 18.4226C47.2662 17.9847 47.0485 17.3826 47.0485 16.6162C47.0485 15.7952 47.239 15.1383 47.6201 14.6731C48.0012 14.2078 48.4639 13.9889 49.0355 13.9889C49.6071 13.9889 50.0426 14.2078 50.3965 14.6183C50.587 14.8373 50.7231 15.1657 50.832 15.5215L50.8592 15.6036H51.2947L51.2131 13.3594H50.8048L50.7775 13.4415C50.7503 13.4962 50.7231 13.551 50.6687 13.5783C50.6142 13.6057 50.5598 13.6331 50.5053 13.6331C50.4781 13.6331 50.3965 13.6057 49.961 13.4962C49.6071 13.3867 49.2805 13.3594 48.9538 13.3594C48.0012 13.3594 47.2118 13.6878 46.6402 14.3173C46.0686 14.9194 45.7964 15.6857 45.7964 16.5889C45.7964 17.4647 46.0686 18.2036 46.613 18.7784C47.1846 19.4078 47.9739 19.7363 48.9538 19.7363C49.5527 19.7363 50.1243 19.572 50.6414 19.2436C50.9409 19.052 51.1858 18.8057 51.4036 18.5594L51.4852 18.4773L51.1586 18.1489L51.0225 18.231Z" fill="#666666"/>
<path d="M57.2829 19.1888C57.1195 19.1614 57.0107 19.134 56.9018 19.0793C56.7929 19.0246 56.7112 18.9425 56.6024 18.8056L54.9148 16.7256C55.3231 16.6435 55.6769 16.4793 55.9219 16.2603C56.2485 15.9867 56.4118 15.6309 56.4118 15.1382C56.4118 14.4266 56.058 13.934 55.3503 13.6603C54.9964 13.5235 54.5609 13.4688 54.0437 13.4688H51.4851V13.8793H51.594C51.9751 13.9066 52.0839 13.9888 52.1384 14.0161C52.1656 14.0435 52.2473 14.1803 52.2473 14.5361V18.3677C52.2473 18.833 52.1928 18.9425 52.1656 18.9972C52.1384 19.0246 52.0295 19.1067 51.6212 19.1614H51.5123V19.5719H54.2343V19.1614H54.1254C53.7171 19.134 53.6082 19.0519 53.5538 19.0246C53.5266 18.9972 53.4449 18.8877 53.4449 18.5046V16.8898H53.6354L55.8402 19.6267H57.4462V19.2161L57.2829 19.1888ZM53.3905 16.2877V14.2351C53.3905 14.1256 53.4177 14.0982 53.4177 14.0982C53.4177 14.0982 53.4993 14.0709 53.7988 14.0709C54.1526 14.0709 54.4248 14.1256 54.6426 14.2077C55.0236 14.3719 55.187 14.673 55.187 15.1382C55.187 15.6035 54.9964 15.9319 54.5609 16.0961C54.3432 16.2056 53.9349 16.2877 53.3905 16.2877Z" fill="#666666"/>
</g>
<defs>
<clipPath id="clip0_191_804">
<rect width="62.7499" height="32" fill="white" transform="translate(0.850098)"/>
</clipPath>
</defs>
</svg>
