<svg width="109" height="32" viewBox="0 0 109 32" fill="none" xmlns="http://www.w3.org/2000/svg">
<g id="&#232;&#181;&#132;&#230;&#186;&#144; 3 1" clip-path="url(#clip0_435_7016)">
<g id="&#229;&#155;&#190;&#229;&#177;&#130; 1">
<g id="Group">
<path id="Vector" d="M0.977579 16.8375C0.977579 15.2613 0.971381 13.6851 0.977579 12.1089C0.977579 11.4105 1.02097 10.7182 1.05196 10.0197C1.09535 8.9627 1.57882 8.15297 2.37841 7.49776C2.95485 7.02799 3.58708 6.6324 4.21932 6.24298C6.50031 4.85222 8.79989 3.49854 11.1243 2.18194C12.2524 1.54528 13.3867 0.920981 14.552 0.352312C15.4321 -0.0741898 15.4321 -0.080371 16.3805 0.129789C18.5437 0.611922 20.6821 1.16205 22.8268 1.72454C24.0788 2.05832 25.3309 2.37974 26.5706 2.75061C27.054 2.89278 27.5375 3.04113 28.0024 3.23893C28.1635 3.30692 28.3185 3.38727 28.4549 3.49235C28.6222 3.62834 28.6284 3.72724 28.4796 3.87559C28.2441 4.11047 27.9776 4.30209 27.7049 4.48753C26.273 5.47033 24.7792 6.35424 23.273 7.21961C21.5499 8.21478 19.802 9.17905 18.023 10.0753C17.3908 10.3906 16.7524 10.6996 16.0953 10.953C15.8288 11.0581 15.5685 11.0829 15.2896 11.0272C13.6718 10.7182 12.0788 10.3287 10.4796 9.92697C9.01684 9.56228 7.56642 9.17286 6.09122 8.86381C5.65733 8.77109 5.22345 8.71546 4.78956 8.64128C4.21312 8.54238 3.81642 8.81436 3.5313 9.25322C3.24617 9.69208 3.38254 10.4338 3.76064 10.7614C4.11394 11.0705 4.51684 11.3116 4.91353 11.565C6.27097 12.4303 7.6594 13.2339 9.06022 14.0251C10.5292 14.8534 11.992 15.7002 13.4053 16.6336C13.5664 16.7386 13.7214 16.8561 13.8763 16.9673C14.0995 17.1219 14.2234 17.332 14.2668 17.604C14.366 18.1912 14.3908 18.7908 14.397 19.3842C14.459 22.8271 14.397 26.2762 14.304 29.7191C14.2916 30.1951 14.2544 30.671 14.2172 31.147C14.2049 31.3262 14.1739 31.5117 14.1181 31.6847C14.0251 31.9753 13.9135 32.0433 13.6284 31.9196C13.1387 31.7033 12.6677 31.4622 12.1966 31.215C11.4342 30.8132 10.6656 30.4176 9.9156 29.9849C9.25237 29.6017 8.58295 29.237 7.91973 28.8599C7.04576 28.3654 6.17179 27.8771 5.30403 27.3703C4.21312 26.7336 3.12221 26.097 2.05609 25.4108C1.82675 25.2625 1.60981 25.1018 1.39287 24.9473C1.2627 24.8545 1.20692 24.7247 1.17593 24.5764C1.10774 24.2611 1.07055 23.9459 1.05816 23.6245C0.983778 21.8628 0.958984 20.095 0.958984 18.321C0.958984 17.8265 0.958984 17.332 0.958984 16.8375C0.965183 16.8375 0.971381 16.8375 0.977579 16.8375Z" fill="#666666"/>
<path id="Vector_2" d="M24.5375 8.28279C25.1387 7.89337 25.709 7.50396 26.3536 7.25671C26.5148 7.1949 26.6635 7.18872 26.8309 7.25671C27.4879 7.50396 28.0953 7.84392 28.7028 8.18389C29.1243 8.42496 29.5333 8.69075 29.93 8.9689C30.1718 9.13579 30.3019 9.35832 30.3453 9.64265C30.4507 10.3597 30.4631 11.0829 30.4817 11.8061C30.5561 15.2861 30.5623 18.7661 30.4817 22.2461C30.4631 22.9507 30.4383 23.6554 30.3577 24.3601C30.3205 24.6815 30.178 24.9164 29.9052 25.1018C29.0003 25.7199 28.0643 26.2762 27.1222 26.8325C24.99 28.0935 22.8329 29.3112 20.6511 30.498C19.8391 30.943 19.021 31.3757 18.1842 31.7775C18.0602 31.8393 17.9362 31.8949 17.8061 31.9444C17.5581 32.0433 17.49 32.0247 17.3908 31.7651C17.2668 31.4622 17.2544 31.1408 17.2358 30.8194C17.1305 29.3112 17.1367 27.7968 17.1119 26.2886C17.0747 24.051 17.0437 21.8196 17.0871 19.582C17.0995 19.0442 17.1119 18.5003 17.1676 17.9625C17.18 17.8698 17.1924 17.7833 17.2048 17.6906C17.2358 17.3506 17.4094 17.0972 17.6945 16.8994C18.3453 16.4543 19.0148 16.034 19.6842 15.6199C21.5003 14.5072 23.3784 13.4997 25.1945 12.3871C25.8515 11.9853 26.5086 11.5774 27.1408 11.1323C27.3143 11.0087 27.4817 10.8789 27.6429 10.7491C27.8288 10.6007 27.835 10.5513 27.6924 10.3658C27.5437 10.1742 27.3577 10.0321 27.1656 9.88372C26.6325 9.47576 26.0437 9.15434 25.4672 8.81437C25.1697 8.63512 24.866 8.46204 24.5375 8.27043V8.28279Z" fill="#666666"/>
<path id="Vector_3" d="M47.2481 17.5484C48.4196 19.6871 49.5911 21.8072 50.7626 23.9336C50.6758 23.9954 50.6014 23.9707 50.5332 23.9707C49.7336 23.9707 48.9341 23.9707 48.1345 23.9768C47.9981 23.9768 47.9237 23.9336 47.8617 23.8161C46.8638 21.9185 45.8597 20.0271 44.8617 18.1233C44.7688 17.944 44.6696 17.8822 44.4588 17.8822C43.5477 17.9007 42.6365 17.8884 41.7316 17.8884C41.6696 17.8884 41.6014 17.8884 41.5394 17.8884C41.4031 17.876 41.3411 17.9131 41.3535 18.0676C41.3659 18.3334 41.3535 18.5992 41.3535 18.865C41.3535 20.4597 41.3535 22.0545 41.3535 23.6492C41.3535 23.7481 41.3535 23.847 41.3535 23.9583H38.9423C38.8865 23.9027 38.9051 23.8347 38.9051 23.779C38.9051 20.707 38.8989 17.6411 38.8989 14.5691C38.8989 12.4798 38.8989 10.3906 38.8989 8.30135C38.8989 8.15918 38.9609 8.15918 39.0601 8.15918C39.6737 8.15918 40.2936 8.15918 40.9072 8.15918C42.3204 8.15918 43.7398 8.15918 45.1531 8.17154C45.9774 8.17154 46.777 8.30753 47.5456 8.62895C49.0146 9.24089 49.9072 10.335 50.2171 11.8864C50.4217 12.9063 50.3659 13.9139 49.994 14.8905C49.5229 16.1205 48.6799 16.9921 47.4402 17.4557C47.3969 17.4742 47.3535 17.4866 47.3101 17.5051C47.3039 17.5051 47.2977 17.5175 47.2667 17.5422L47.2481 17.5484ZM41.3411 10.2422C41.3411 12.0842 41.3411 13.9077 41.3411 15.7311C41.3411 15.8733 41.3907 15.8918 41.5208 15.8918C42.5869 15.8918 43.6531 15.8918 44.7192 15.8918C45.0415 15.8918 45.3638 15.8671 45.6737 15.7991C46.7026 15.5704 47.4031 14.9894 47.6758 13.951C47.8369 13.3452 47.8245 12.7333 47.6572 12.1337C47.4402 11.361 46.9568 10.8171 46.2192 10.5018C45.8101 10.3288 45.3762 10.2422 44.9361 10.2361C43.7956 10.2361 42.6551 10.2361 41.5208 10.2361C41.4774 10.2361 41.4279 10.2361 41.3535 10.2484L41.3411 10.2422Z" fill="#666666"/>
<path id="Vector_4" d="M106.572 14.4392V8.17767C106.858 8.17767 107.143 8.17767 107.422 8.17767C107.874 8.17767 108.32 8.18385 108.773 8.17767C108.903 8.17767 108.959 8.21476 108.946 8.35075C108.946 8.40638 108.946 8.46201 108.946 8.51764C108.946 13.5615 108.946 18.6115 108.946 23.6554C108.946 23.6801 108.946 23.711 108.946 23.7357C108.946 23.9706 108.946 23.9768 108.705 23.9768C107.998 23.9768 107.291 23.9768 106.566 23.9768V22.0544C106.473 22.0359 106.461 22.1039 106.442 22.1472C105.717 23.4699 104.577 24.1251 103.089 24.1931C102.333 24.2302 101.608 24.1004 100.92 23.779C99.9092 23.3092 99.2026 22.5366 98.7439 21.5414C98.1179 20.1815 97.9877 18.7413 98.1179 17.2702C98.2047 16.3059 98.4464 15.3788 98.9299 14.5258C99.4629 13.58 100.207 12.8568 101.242 12.5169C102.86 11.9791 104.378 12.1584 105.698 13.3142C105.965 13.5429 106.17 13.8273 106.349 14.1302C106.405 14.2229 106.448 14.328 106.566 14.4454L106.572 14.4392ZM106.579 18.2345C106.585 17.9501 106.554 17.6658 106.523 17.3876C106.43 16.6397 106.194 15.9412 105.729 15.3417C104.62 13.9138 102.488 13.8829 101.353 15.286C100.932 15.8053 100.715 16.411 100.603 17.0662C100.417 18.1479 100.461 19.2173 100.845 20.2619C101.075 20.88 101.44 21.3992 102.004 21.7577C103.312 22.586 105.122 22.1904 105.959 20.7749C106.417 19.9961 106.579 19.1369 106.585 18.2468L106.579 18.2345Z" fill="#666666"/>
<path id="Vector_5" d="M75.1594 16.0401C75.1594 13.4935 75.1594 10.9468 75.1594 8.4002C75.1594 8.18385 75.1285 8.17767 75.3764 8.17767C77.2483 8.17767 79.1264 8.18385 80.9983 8.17767C81.928 8.17767 82.8268 8.34457 83.6574 8.76489C84.8413 9.36446 85.6347 10.2978 86.0313 11.5588C86.4528 12.9063 86.4218 14.26 85.8826 15.5642C85.2442 17.1157 84.0541 18.0428 82.4239 18.4199C81.9094 18.5373 81.3888 18.5744 80.8619 18.5744C79.8578 18.5744 78.8599 18.5744 77.8557 18.5744C77.6202 18.5744 77.6202 18.5744 77.6202 18.8093C77.6202 20.4226 77.6202 22.0359 77.6202 23.643C77.6202 24.0139 77.6512 23.9706 77.2979 23.9706C76.6656 23.9706 76.0272 23.9706 75.395 23.9706C75.1656 23.9706 75.1594 23.9706 75.1594 23.7295C75.1594 21.5847 75.1594 19.4398 75.1594 17.3011C75.1594 16.8808 75.1594 16.4605 75.1594 16.034V16.0401ZM77.6202 13.3699C77.6202 14.3589 77.6202 15.3478 77.6202 16.3368C77.6202 16.5285 77.6202 16.5285 77.7937 16.5285C78.6553 16.5285 79.5231 16.5285 80.3846 16.5223C80.7689 16.5223 81.1532 16.4914 81.5313 16.4048C82.6842 16.1267 83.4528 15.4529 83.7256 14.2723C83.8495 13.7284 83.8433 13.1783 83.7504 12.6343C83.583 11.6886 83.0809 10.9839 82.1946 10.576C81.6925 10.3473 81.1594 10.2546 80.614 10.2484C79.6966 10.2422 78.7793 10.2484 77.8619 10.2484C77.6078 10.2484 77.6326 10.2484 77.6326 10.4956C77.6326 11.4537 77.6326 12.418 77.6326 13.3761L77.6202 13.3699Z" fill="#666666"/>
<path id="Vector_6" d="M91.8761 12.2325C92.9794 12.2387 93.9835 12.4612 94.9009 13.0052C95.9918 13.6542 96.7046 14.6185 97.0765 15.8114C97.6282 17.5916 97.6034 19.378 96.8843 21.1087C96.1839 22.79 94.8947 23.7852 93.091 24.1004C92.062 24.2797 91.0393 24.2364 90.0414 23.9026C88.6777 23.4514 87.6984 22.5675 87.1034 21.2633C86.5207 19.9838 86.3968 18.6424 86.5393 17.264C86.6199 16.4852 86.812 15.7311 87.1715 15.0326C87.9339 13.5368 89.155 12.6405 90.81 12.3376C91.1819 12.2696 91.56 12.2573 91.8823 12.2387L91.8761 12.2325ZM88.9071 18.2839C88.9195 18.4508 88.9195 18.6919 88.9443 18.9268C89.0001 19.4831 89.1178 20.027 89.3596 20.5401C90.1034 22.1224 91.8947 22.6973 93.4133 21.8381C94.0889 21.4549 94.4794 20.8553 94.7211 20.1383C95.0187 19.2606 95.0558 18.3643 94.9691 17.4495C94.9195 16.9055 94.7831 16.3863 94.56 15.8918C94.2872 15.2984 93.8843 14.8163 93.3017 14.5258C92.0372 13.8891 90.1777 14.1425 89.372 15.8671C89.0186 16.615 88.9133 17.4062 88.9071 18.2901V18.2839Z" fill="#666666"/>
<path id="Vector_7" d="M59.174 22.2955C59.174 22.2955 59.1244 22.3512 59.1058 22.3821C58.4922 23.4514 57.5438 23.9954 56.3413 24.1499C55.5851 24.2488 54.8351 24.1994 54.1099 23.9521C53.0996 23.606 52.4178 22.9198 52.0273 21.937C51.8166 21.4116 51.7112 20.8677 51.6988 20.299C51.6864 19.8045 51.6802 19.31 51.6802 18.8155C51.6802 16.7696 51.6802 14.7298 51.6802 12.6838C51.6802 12.3871 51.674 12.4427 51.9343 12.4427C52.5418 12.4427 53.1492 12.4427 53.7566 12.4427C54.0418 12.4427 54.0418 12.4427 54.0418 12.7209C54.0418 13.8026 54.0418 14.8843 54.0418 15.966C54.0418 17.0724 54.0418 18.1851 54.0418 19.2915C54.0418 19.65 54.0542 20.0085 54.1285 20.3608C54.3703 21.492 55.1203 22.0916 56.2484 22.1657C56.6946 22.1966 57.1285 22.141 57.55 21.9803C58.269 21.7022 58.7525 21.1953 59.0252 20.4783C59.1678 20.095 59.2422 19.7056 59.2484 19.2977C59.2484 17.5731 59.2484 15.8548 59.2484 14.1302C59.2484 13.6233 59.2484 13.1227 59.2484 12.6158C59.2484 12.4798 59.2856 12.4427 59.4157 12.4489C60.0975 12.4489 60.7732 12.4489 61.455 12.4489C61.5851 12.4489 61.6285 12.486 61.6285 12.6158C61.6223 12.999 61.6285 13.3885 61.6285 13.7717C61.6285 17.0724 61.6285 20.367 61.6285 23.6678C61.6285 24.0201 61.6719 23.9768 61.3248 23.9768C60.643 23.9768 59.9674 23.9768 59.267 23.9768C59.2174 23.4329 59.2732 22.8951 59.2422 22.3574C59.2608 22.3203 59.2732 22.277 59.2236 22.2585C59.2112 22.2585 59.1926 22.2832 59.174 22.2955Z" fill="#666666"/>
<path id="Vector_8" d="M65.6945 14.1796C65.7813 14.1672 65.7937 14.0807 65.8308 14.0251C66.4693 12.931 67.4548 12.3994 68.6883 12.2634C69.4569 12.1831 70.2069 12.2511 70.9383 12.5292C72.054 12.9557 72.7172 13.784 73.0519 14.9028C73.2007 15.4097 73.2627 15.9227 73.2627 16.4481C73.2627 18.865 73.2627 21.288 73.2627 23.7048C73.2627 23.7419 73.2627 23.779 73.2627 23.8161C73.2689 23.9335 73.2193 23.9768 73.1015 23.9768C72.7792 23.9768 72.4569 23.9768 72.1346 23.9768C71.7875 23.9768 71.4342 23.9768 71.087 23.9768C70.9011 23.9768 70.8949 23.9768 70.8949 23.779C70.8949 23.1671 70.8887 22.5489 70.8887 21.937C70.8887 20.3608 70.8887 18.7846 70.8887 17.2084C70.8887 16.8437 70.8701 16.479 70.7957 16.1143C70.5664 14.9832 69.9342 14.3898 68.7751 14.2723C67.8825 14.1796 67.0767 14.4021 66.4383 15.0697C66.0168 15.5147 65.7999 16.0711 65.7193 16.6706C65.6883 16.9055 65.6697 17.1466 65.6759 17.3815C65.6759 19.4522 65.6759 21.5229 65.6759 23.5936C65.6759 23.6306 65.6759 23.6677 65.6759 23.7048C65.6759 24.0201 65.6697 23.9706 65.4094 23.9706C64.7957 23.9706 64.1759 23.9706 63.5623 23.9706C63.2771 23.9706 63.3081 23.983 63.3081 23.7234C63.3081 21.6898 63.3081 19.6561 63.3081 17.6225C63.3081 15.966 63.3081 14.3032 63.3081 12.6467C63.3081 12.4427 63.3081 12.4427 63.5127 12.4489C64.1635 12.4489 64.8143 12.4489 65.4713 12.4489C65.6759 12.4489 65.6821 12.4489 65.6821 12.659C65.6821 13.1164 65.6821 13.5739 65.6821 14.0313C65.6821 14.0807 65.6573 14.1363 65.7131 14.1796H65.6945Z" fill="#666666"/>
</g>
</g>
</g>
<defs>
<clipPath id="clip0_435_7016">
<rect width="108" height="32" fill="white" transform="translate(0.958984)"/>
</clipPath>
</defs>
</svg>
