<svg width="30" height="32" viewBox="0 0 30 32" fill="none" xmlns="http://www.w3.org/2000/svg">
<g clip-path="url(#clip0_191_822)">
<path d="M0.60184 17.1882C0.60184 15.0229 0.606422 12.8583 0.599876 10.693C0.595293 9.02109 1.30098 7.77363 2.72676 6.92807C6.42279 4.73558 10.1169 2.53912 13.805 0.332036C14.3556 0.00243302 14.8943 -0.0844442 15.5201 0.0833415C19.4289 1.12852 23.3429 2.1538 27.257 3.17975C27.5653 3.26066 27.8226 3.38003 27.8677 3.73086C27.9129 4.08367 27.6884 4.26273 27.4121 4.41925C23.4634 6.65418 19.5166 8.89243 15.5732 11.1373C15.3506 11.264 15.1522 11.2593 14.9205 11.199C11.6794 10.3594 8.43642 9.52776 5.19536 8.68684C4.49229 8.50446 3.8501 8.592 3.29367 9.07878C2.57358 9.70881 2.67374 10.7102 3.50446 11.1804C5.45525 12.284 7.41127 13.3782 9.36468 14.4758C10.5371 15.1343 11.7076 15.7968 12.882 16.4514C13.5059 16.7989 13.8044 17.3262 13.8037 18.045C13.8011 22.3863 13.8037 26.7275 13.8017 31.0687C13.8017 31.8678 13.2335 32.2014 12.5468 31.8015C8.79581 29.6156 5.04807 27.4251 1.29771 25.2386C0.816557 24.9561 0.598566 24.5403 0.599876 23.9812C0.604458 21.7164 0.60184 19.4523 0.60184 17.1875V17.1882Z" fill="#666666"/>
<path d="M23.7036 8.34519C24.3817 7.92142 25.0226 7.52417 25.6583 7.11963C25.7722 7.04734 25.8553 7.07453 25.9561 7.13355C26.9374 7.70787 27.9252 8.27092 28.9013 8.85385C29.408 9.15627 29.6031 9.63442 29.5991 10.2233C29.5775 13.6248 29.5631 17.0263 29.5468 20.4284C29.5409 21.6321 29.5258 22.8364 29.5376 24.0401C29.5428 24.6072 29.3275 24.9998 28.8398 25.2843C25.1012 27.4681 21.3685 29.6619 17.6325 31.8505C16.9936 32.2245 16.3652 31.8664 16.3645 31.1216C16.3606 26.7811 16.3612 22.4405 16.3645 18.1C16.3645 17.3725 16.7023 16.8353 17.3242 16.4825C20.2812 14.8053 23.2401 13.1301 26.1977 11.4542C26.3882 11.3468 26.5793 11.2407 26.7685 11.1306C27.2058 10.8772 27.2182 10.5078 26.7882 10.2426C25.8383 9.65697 24.8845 9.07934 23.9327 8.49772C23.8685 8.4586 23.8063 8.41483 23.7022 8.34519H23.7036Z" fill="#666666"/>
</g>
<defs>
<clipPath id="clip0_191_822">
<rect width="29" height="32" fill="white" transform="translate(0.599854)"/>
</clipPath>
</defs>
</svg>
