<svg width="33" height="32" viewBox="0 0 33 32" fill="none" xmlns="http://www.w3.org/2000/svg">
<g clip-path="url(#clip0_191_827)">
<path fill-rule="evenodd" clip-rule="evenodd" d="M32.5881 19.2456C32.5884 18.1638 32.5887 17.0819 32.5887 16C32.5887 14.9181 32.5884 13.8362 32.5881 12.7544C32.587 8.69755 32.586 4.64127 32.5999 0.584C32.6015 0.136 32.5439 0 32.0399 0C21.7599 0.0208 11.4799 0.0208 1.19988 0C0.675077 0 0.599877 0.1504 0.599877 0.624C0.614277 10.8752 0.614277 21.1248 0.599877 31.376C0.598277 31.8512 0.676677 32 1.19988 32C11.4799 31.9792 21.7599 31.9792 32.0399 32C32.5455 32.0016 32.5999 31.864 32.5999 31.416C32.586 27.3587 32.587 23.3025 32.5881 19.2456ZM6.96425 5.58921C6.58426 5.589 6.19711 5.5888 5.80032 5.5888H5.79712C5.98872 6.11381 6.17568 6.62954 6.36017 7.13845C6.79809 8.34643 7.22208 9.51598 7.66112 10.68C8.14569 11.9633 8.63748 13.2437 9.1293 14.5241C9.67192 15.9369 10.2146 17.3497 10.7475 18.7664C11.6595 21.192 12.5459 23.6272 13.4307 26.0624C13.5475 26.3856 13.7603 26.424 14.0483 26.424C14.2841 26.4233 14.5199 26.4226 14.7557 26.4219C16.2515 26.4171 17.7481 26.4124 19.2435 26.4304C19.6403 26.4352 19.7635 26.2816 19.8787 25.9232C20.0706 25.3276 20.3027 24.7459 20.535 24.1641C20.6165 23.9598 20.6981 23.7554 20.7779 23.5504C21.2034 22.4614 21.6296 21.3731 22.0556 20.285C22.5748 18.959 23.0939 17.6334 23.6115 16.3072C24.4771 14.0896 25.3427 11.872 26.2003 9.6528C26.5764 8.67842 26.9465 7.70231 27.3283 6.69529C27.4662 6.33149 27.6057 5.96365 27.7475 5.5904C27.3421 5.5904 26.9428 5.59096 26.5482 5.59152C25.4603 5.59307 24.4071 5.59456 23.3539 5.584C23.0881 5.58247 23.0265 5.71364 22.9366 5.90513C22.9323 5.91422 22.9279 5.92344 22.9235 5.9328C22.7091 6.38526 22.5791 6.86229 22.4491 7.33909C22.3773 7.60246 22.3055 7.86575 22.2195 8.1248C21.8996 9.09081 21.5755 10.0554 21.2515 11.0198C20.8172 12.3125 20.383 13.6051 19.9587 14.9008C19.1459 17.3872 18.3347 19.8768 17.5747 22.3792C17.3939 22.976 17.0675 23.048 16.5443 23.04C16.0853 23.0334 16.0272 22.756 15.9675 22.4702C15.9543 22.4073 15.9411 22.3441 15.9235 22.2832C15.8919 22.1724 15.8634 22.0603 15.835 21.9481C15.7916 21.7769 15.7482 21.6056 15.6931 21.4384C15.4197 20.6159 15.1432 19.7945 14.8667 18.9731C14.3747 17.5111 13.8826 16.0494 13.4083 14.5824C12.4803 11.7136 11.5811 8.8368 10.6867 5.9568C10.5955 5.6624 10.4547 5.5856 10.1795 5.5856C9.12763 5.59037 8.07664 5.5898 6.96425 5.58921Z" fill="#666666"/>
</g>
<defs>
<clipPath id="clip0_191_827">
<rect width="32.0001" height="32" fill="white" transform="translate(0.599854)"/>
</clipPath>
</defs>
</svg>
