<svg width="136" height="32" viewBox="0 0 136 32" fill="none" xmlns="http://www.w3.org/2000/svg">
<g id="&#232;&#181;&#132;&#230;&#186;&#144; 2 1" clip-path="url(#clip0_435_6992)">
<g id="&#229;&#155;&#190;&#229;&#177;&#130; 1">
<g id="Group">
<path id="Vector" d="M16.7812 32C16.3629 30.284 15.0529 30.0643 13.647 29.7074C7.67332 28.1836 3.8395 24.4221 2.26207 18.4093C1.41849 15.1832 1.81628 12.0806 3.07822 9.03989C3.20853 8.72415 3.20167 8.2368 3.05078 7.94165C2.50897 6.87773 1.88486 5.85499 1.28819 4.81166C1.20589 4.67438 1.1373 4.52337 0.958984 4.18017C2.46097 4.18017 3.81206 4.13899 5.16316 4.1939C6.00674 4.22822 6.64457 4.00171 7.31669 3.45259C13.0777 -1.26298 20.8894 -1.11884 26.5544 3.72715C26.8082 3.93993 27.2059 4.08408 27.542 4.09094C29.2703 4.12526 31.0055 4.10467 32.9052 4.10467C32.6652 4.62633 32.5075 5.00385 32.3154 5.36078C32.1577 5.6628 31.9794 5.95795 31.7873 6.23937C30.834 7.68082 29.9836 9.12912 31.1701 10.8589C32.9601 17.613 30.3128 24.3809 24.4695 27.909C22.6726 28.9936 20.7248 29.7006 18.6261 29.9682C18.3175 30.0094 17.9746 30.2634 17.7825 30.5174C17.4739 30.9429 17.275 31.444 17.035 31.9176C16.9527 31.9451 16.8704 31.9657 16.7812 31.9931V32ZM16.9115 18.5191C19.4834 14.1261 21.9593 9.86357 24.49 5.63534C24.8467 5.03817 24.7712 4.75675 24.25 4.40668C20.7248 2.02487 16.9184 1.40025 12.8445 2.61518C11.37 3.05448 10.0326 3.78892 8.85982 4.82539C11.5346 9.38309 14.175 13.8722 16.9115 18.5259V18.5191ZM4.55962 10.6049C1.41849 17.3316 7.25496 27.3462 14.5591 27.8816C11.2191 22.1158 7.92708 16.4187 4.55962 10.6049ZM29.1194 10.9618C25.848 16.5972 22.6383 22.109 19.3943 27.6894C26.7533 26.6117 31.7599 18.2033 29.1194 10.9618Z" fill="#666666"/>
<path id="Vector_2" d="M84.1922 13.6388C82.6834 12.2179 81.3049 11.6276 79.7274 11.7031C79.0142 11.7374 78.2529 11.9433 77.6219 12.2728C76.7646 12.719 76.7098 13.6388 77.4848 14.2291C77.9168 14.5654 78.4792 14.785 79.021 14.9017C80.0498 15.1214 81.1128 15.1832 82.1484 15.3959C82.8069 15.5332 83.479 15.7529 84.0757 16.0617C85.7697 16.9335 86.0166 19.0407 84.6243 20.3655C82.1347 22.7404 76.6892 22.3011 74.5288 19.4869C74.8512 19.1368 75.1872 18.7662 75.5027 18.423C76.3806 18.9309 77.1693 19.5281 78.054 19.8713C79.5286 20.4341 81.058 20.5302 82.5394 19.8026C83.1155 19.5212 83.7876 19.1231 83.575 18.4298C83.431 17.9699 82.8411 17.4757 82.3473 17.3316C81.0374 16.9541 79.6726 16.7825 78.3352 16.4873C77.7522 16.3569 77.1624 16.2059 76.6343 15.9451C74.8306 15.039 74.5631 12.8082 76.0582 11.4423C78.15 9.54094 82.8137 9.65763 84.7615 11.6894C84.9055 11.8404 84.8987 12.2385 84.8164 12.465C84.6723 12.87 84.4186 13.2269 84.1991 13.6319L84.1922 13.6388Z" fill="#666666"/>
<path id="Vector_3" d="M70.6194 21.6765C69.138 21.8344 68.9666 21.7452 68.3905 20.5645C68.3288 20.4341 68.2602 20.3106 68.2122 20.1733C67.8967 19.2878 67.3343 18.9172 66.3398 18.9652C64.7487 19.0476 63.1438 18.9927 61.5527 18.9652C61.0657 18.9584 60.7434 19.0751 60.5788 19.5761C60.4691 19.8919 60.2565 20.1802 60.0919 20.4753C59.6072 21.3631 58.8299 21.7314 57.76 21.5804C57.7669 21.4775 57.7394 21.3539 57.7874 21.2715C59.4266 17.9837 61.0863 14.6958 62.7186 11.4011C63.0821 10.6598 63.473 10.1313 64.4469 10.2411C64.9956 10.3029 65.3454 10.4333 65.5854 10.9343C67.1971 14.332 68.8226 17.7297 70.4411 21.1274C70.5097 21.2784 70.544 21.4431 70.6263 21.6765H70.6194ZM66.6896 17.2424C65.9283 15.4715 65.2493 13.7554 64.1177 12.1012C63.2879 13.9202 62.5609 15.5332 61.779 17.2424H66.6827H66.6896Z" fill="#666666"/>
<path id="Vector_4" d="M123.285 21.6148C121.893 21.9031 121.639 21.8756 121.131 20.6469C120.59 19.3359 119.828 18.7799 118.361 18.9584C117.044 19.1163 115.686 18.9996 114.342 18.9584C113.752 18.9378 113.354 19.0957 113.162 19.686C113.08 19.9262 112.929 20.139 112.819 20.3724C112.366 21.3379 111.546 21.7498 110.357 21.6079C110.7 20.9078 111.029 20.2351 111.365 19.5556C112.716 16.8168 114.067 14.0849 115.418 11.3462C115.926 10.3097 116.598 9.98714 117.689 10.3097C117.894 10.3715 118.107 10.6049 118.203 10.8108C119.904 14.3252 121.584 17.8533 123.264 21.3745C123.299 21.4432 123.285 21.5324 123.292 21.6148H123.285ZM116.996 12.2317C116.9 12.2317 116.811 12.2317 116.715 12.2317C115.96 13.8584 115.206 15.4783 114.39 17.2493H119.431C118.594 15.5264 117.791 13.879 116.989 12.2385L116.996 12.2317Z" fill="#666666"/>
<path id="Vector_5" d="M43.481 10.344C45.1681 10.1038 45.2161 10.1381 45.8265 11.5109C46.9239 13.9888 48.028 16.4599 49.1322 18.9378C49.2557 19.2192 49.4066 19.4869 49.6466 19.9674C50.1199 18.9241 50.5314 18.0661 50.9086 17.1943C51.7316 15.2793 52.5271 13.3573 53.3501 11.4423C53.8714 10.2342 54.1731 10.0901 55.73 10.3578C55.3116 11.3119 54.9138 12.2385 54.5023 13.1583C53.3364 15.7872 52.1774 18.423 50.9771 21.0313C50.8468 21.3127 50.4833 21.6422 50.2159 21.6628C49.578 21.704 48.803 21.9511 48.4053 21.1205C47.8154 19.885 47.2119 18.6564 46.6427 17.414C45.6276 15.2106 44.6332 13.0073 43.6318 10.7971C43.577 10.6735 43.5495 10.5362 43.4878 10.3303L43.481 10.344Z" fill="#666666"/>
<path id="Vector_6" d="M132.907 15.9382C132.907 17.0502 132.921 18.1621 132.907 19.2741C132.9 19.7409 133.058 19.9468 133.552 19.9193C134.005 19.8919 134.464 19.9331 134.917 19.9605C135.849 20.0154 136.151 20.4341 135.843 21.3264C135.788 21.4843 135.472 21.6491 135.273 21.6491C133.133 21.6765 130.994 21.6491 128.861 21.6902C128.038 21.704 128.154 21.196 128.099 20.6812C128.038 20.0841 128.333 19.9193 128.847 19.9262C129.19 19.9262 129.533 19.9262 129.876 19.9262C131.131 19.9262 131.151 19.9262 131.158 18.7113C131.172 16.7687 131.145 14.8262 131.179 12.8906C131.193 12.2179 130.946 11.9571 130.28 12.0189C129.883 12.0532 129.485 12.012 129.087 11.9914C128.099 11.9502 127.997 11.8541 128.147 10.8726C128.182 10.6598 128.497 10.3372 128.689 10.3303C130.884 10.296 133.079 10.3097 135.273 10.3097C136.233 10.3097 135.808 11.0716 135.897 11.5109C136.007 12.0463 135.568 11.9914 135.225 11.9914C134.656 11.9914 134.087 12.0189 133.518 11.9914C133.01 11.9708 132.804 12.1493 132.818 12.6847C132.852 13.7692 132.832 14.8537 132.832 15.9382C132.859 15.9382 132.893 15.9382 132.921 15.9382H132.907Z" fill="#666666"/>
<path id="Vector_7" d="M93.6634 21.553C93.6634 18.6495 93.6428 15.801 93.6771 12.9524C93.684 12.2042 93.4508 11.9434 92.6964 11.9846C91.6196 12.0463 90.536 11.9983 89.5004 11.9983C89.0752 10.4882 89.1918 10.3098 90.5566 10.3098C93.4028 10.3029 96.2559 10.3098 99.1021 10.3098C99.2941 10.3098 99.4862 10.3303 99.7194 10.3441V11.964C98.5671 11.964 97.4355 12.0052 96.3107 11.9502C95.57 11.9159 95.33 12.1356 95.3437 12.9043C95.378 15.3823 95.3437 17.867 95.3231 20.3449C95.3094 21.855 95.2614 21.8893 93.6566 21.553H93.6634Z" fill="#666666"/>
<path id="Vector_8" d="M105.913 20.7018C105.919 21.3608 105.22 21.8893 104.328 21.8961C103.512 21.8961 102.648 21.3196 102.641 20.7567C102.641 20.1046 103.526 19.432 104.383 19.4388C105.268 19.4388 105.899 19.9674 105.913 20.7018Z" fill="#666666"/>
</g>
</g>
</g>
<defs>
<clipPath id="clip0_435_6992">
<rect width="135" height="32" fill="white" transform="translate(0.958984)"/>
</clipPath>
</defs>
</svg>
