<svg width="33" height="32" viewBox="0 0 33 32" fill="none" xmlns="http://www.w3.org/2000/svg">
<g clip-path="url(#clip0_191_831)">
<path d="M32.5999 10.7893C32.0198 10.9838 31.5651 11.3904 31.0879 11.7426C30.6911 12.0368 30.4299 12.0495 30.0079 11.7553C26.3999 9.24128 22.7705 6.7576 19.1474 4.26507C19.0469 4.19563 18.9402 4.13502 18.733 4.00496C18.733 4.86358 18.7229 5.64265 18.738 6.42046C18.743 6.6932 19.0243 6.76012 19.2039 6.88386C22.2029 8.9597 25.2056 11.0318 28.2146 13.0924C28.5411 13.3159 28.6679 13.4207 28.2447 13.7099C24.545 16.2378 20.8604 18.7871 17.1707 21.3301C17.1042 21.3756 17.0301 21.411 16.8543 21.5107C16.8543 20.5372 16.8455 19.6331 16.8605 18.7303C16.8643 18.4828 17.1255 18.4272 17.2925 18.3199C19.6397 16.8072 21.9894 15.3009 24.339 13.792C24.4244 13.7364 24.5073 13.6771 24.658 13.5723C23.6986 12.9106 22.7793 12.2755 21.8575 11.6416C20.3292 10.5911 18.7983 9.54432 17.2724 8.48873C17.0778 8.35362 16.8442 8.26144 16.8455 7.93315C16.8568 5.38254 16.8517 2.83194 16.8517 0.242188C17.2009 0.27628 17.4031 0.504824 17.6329 0.658871C22.5018 3.91531 27.3656 7.17807 32.2307 10.4383C32.35 10.5178 32.4781 10.5873 32.6012 10.6605V10.7868L32.5999 10.7893Z" fill="#666666"/>
<path d="M16.2551 5.36132C16.2551 6.24646 16.2413 7.01795 16.2614 7.78945C16.2715 8.14426 16.0127 8.24528 15.798 8.39301C13.5626 9.92337 11.3235 11.4474 9.08555 12.9765C8.91727 13.0914 8.75652 13.2202 8.5581 13.368C10.2886 14.6811 12.0581 15.8542 13.8263 17.0297C14.5032 17.4792 15.1738 17.9376 15.862 18.3681C16.1371 18.5399 16.274 18.7242 16.2627 19.0689C16.2363 19.8543 16.2539 20.641 16.2539 21.5615C10.9856 17.9426 5.82539 14.4008 0.599854 10.8148C5.8053 7.21619 10.958 3.65418 16.2438 0C16.2438 0.962159 16.2564 1.80058 16.2363 2.63899C16.23 2.90542 15.9412 2.97108 15.7603 3.09482C12.1661 5.55577 8.56814 8.00915 4.97142 10.4663C4.85338 10.5471 4.74286 10.638 4.58211 10.7593C5.14724 11.1696 5.69102 11.551 6.21722 11.9538C6.51359 12.181 6.68062 11.931 6.86774 11.8022C9.73858 9.83372 12.6044 7.8589 15.4715 5.88533C15.6925 5.73381 15.9173 5.58734 16.2551 5.36259V5.36132Z" fill="#666666"/>
<path d="M0.861154 21.2009C0.913899 21.1403 0.935249 21.1037 0.965389 21.0822C1.58201 20.6579 2.17099 19.9609 2.82528 19.8902C3.45948 19.822 4.04219 20.5885 4.6362 21.0001C8.47655 23.6555 12.3094 26.321 16.1321 29.0017C16.4863 29.2504 16.6998 29.234 17.0451 28.9916C21.2899 26.0054 25.5534 23.0457 29.7957 20.0556C30.2302 19.7488 30.5379 19.6566 30.9749 20.038C31.3956 20.4041 31.8954 20.6807 32.3488 20.9875C32.3576 21.2034 32.188 21.2413 32.08 21.3158C27.073 24.8121 22.061 28.3009 17.0602 31.8086C16.696 32.0649 16.4687 32.0662 16.0995 31.8086C11.2143 28.3931 6.314 24.999 1.41749 21.5986C1.23163 21.4698 1.04827 21.336 0.858643 21.2021L0.861154 21.2009Z" fill="#666666"/>
<path d="M32.4518 16.0441C30.676 17.2828 28.9844 18.4609 27.2953 19.6402C23.8593 22.0393 20.4234 24.4371 16.9912 26.8413C16.7337 27.0218 16.5529 27.1102 16.2364 26.888C11.1779 23.3537 6.10682 19.8372 1.03952 16.3156C0.990541 16.2815 0.950354 16.2335 0.857422 16.1439C1.46399 15.7209 2.05926 15.3219 2.63694 14.8963C2.94211 14.6716 3.1016 14.9342 3.28496 15.0605C6.57776 17.3371 9.86429 19.62 13.1521 21.9029C14.1454 22.5924 15.1514 23.2641 16.1246 23.9826C16.4713 24.2376 16.696 24.225 17.0439 23.98C21.3087 20.9837 25.5911 18.0126 29.8547 15.015C30.2528 14.736 30.5304 14.6691 30.9272 14.9974C31.3743 15.3673 31.8854 15.6603 32.453 16.0441H32.4518Z" fill="#666666"/>
<path d="M10.9353 14.527C12.7224 13.2946 14.4203 12.1342 16.1018 10.9498C16.358 10.7692 16.525 10.8576 16.7122 10.9877C18.3636 12.1443 20.0087 13.3072 21.6614 14.4613C21.9239 14.6444 21.9377 14.7694 21.6551 14.9436C21.1591 15.2479 20.6718 15.5687 20.1896 15.8944C19.9284 16.0699 19.7375 15.9626 19.5177 15.806C18.621 15.1671 17.6992 14.561 16.8164 13.9032C16.4811 13.6532 16.24 13.686 15.9298 13.907C15.1009 14.4992 14.2545 15.0661 13.4231 15.6545C13.1293 15.8629 12.9132 15.9475 12.5754 15.6495C12.1133 15.2429 11.5569 14.9436 10.9353 14.527Z" fill="#666666"/>
</g>
<defs>
<clipPath id="clip0_191_831">
<rect width="32" height="32" fill="white" transform="translate(0.599854)"/>
</clipPath>
</defs>
</svg>
