<svg width="162" height="32" viewBox="0 0 162 32" fill="none" xmlns="http://www.w3.org/2000/svg">
<g id="f l 1" clip-path="url(#clip0_435_6934)">
<g id="&#229;&#155;&#190;&#229;&#177;&#130; 1">
<g id="Group">
<path id="Vector" d="M0.958984 10.8522C1.23181 10.8582 1.41976 10.6647 1.63197 10.5437C7.64635 7.12591 13.6607 3.70209 19.6812 0.278269C20.4512 -0.157269 20.342 -0.145171 20.4754 0.750103C20.7058 2.26844 20.0813 3.04878 18.7475 3.75653C14.4792 6.02496 10.2958 8.43857 6.08213 10.8038C5.84567 10.9369 5.62135 11.0821 5.32426 11.2635C6.10638 11.8261 6.92487 12.1467 7.68273 12.5762C7.97981 12.7456 8.15563 12.4915 8.35571 12.3766C12.1511 10.2896 15.9343 8.19661 19.7236 6.1036C20.4209 5.71645 20.336 5.7467 20.4633 6.54519C20.6816 7.94859 20.1056 8.68659 18.8627 9.32175C16.2678 10.6465 13.7638 12.1588 11.2235 13.5985C10.9931 13.7255 10.605 13.78 10.6232 14.0945C10.6354 14.3304 10.9931 14.397 11.2113 14.5119C14.0851 16.0726 16.9589 17.6393 19.8449 19.1758C20.2753 19.4057 20.4997 19.6476 20.4451 20.1618C20.3966 20.6579 20.4148 21.172 20.4451 21.6741C20.4815 22.2851 20.3724 22.4363 19.76 22.0854C15.9889 19.9561 12.1996 17.8692 8.41634 15.7701C5.92449 14.3849 3.44477 12.9936 0.958984 11.6083C0.958984 11.3543 0.958984 11.1062 0.958984 10.8522Z" fill="#666666"/>
<path id="Vector_2" d="M0.958984 15.5403C2.22007 14.5785 3.32957 14.6087 4.79073 15.4616C9.90781 18.462 15.1461 21.2628 20.3239 24.1543C20.7483 24.3902 21.0514 24.3962 21.4758 24.1543C27.0537 21.039 32.6436 17.9539 38.2154 14.8325C38.6944 14.5664 39.0582 14.5361 39.5129 14.8204C39.9373 15.0866 40.392 15.3044 40.8528 15.51C41.3499 15.7339 41.3499 15.8911 40.871 16.1633C38.6035 17.4216 36.3541 18.6979 34.0987 19.9683C29.8911 22.3395 25.6834 24.7047 21.4819 27.0821C21.1363 27.2756 20.8695 27.4027 20.4572 27.1728C14.0003 23.5191 7.53722 19.8836 1.07418 16.242C1.03174 16.2178 1.00142 16.1754 0.958984 16.1452C0.958984 15.9456 0.958984 15.7399 0.958984 15.5403Z" fill="#666666"/>
<path id="Vector_3" d="M0.958984 20.2223C2.29888 19.1697 3.48721 19.4117 4.9423 20.2586C10.0048 23.2045 15.1704 25.9811 20.2814 28.8363C20.7179 29.0783 21.0393 29.1145 21.5001 28.8544C27.0537 25.7512 32.6255 22.6783 38.173 19.575C38.6823 19.2907 39.0582 19.2544 39.5432 19.5629C39.9858 19.8472 40.483 20.0469 40.9559 20.2767C41.3257 20.4582 41.3318 20.6215 40.9619 20.8212C39.8645 21.4321 38.7672 22.0491 37.6758 22.6662C32.2677 25.7149 26.8536 28.7637 21.4515 31.8246C21.0575 32.0484 20.7664 32.0544 20.3663 31.8246C14.1761 28.3161 7.97375 24.8257 1.77141 21.3353C1.51677 21.1902 1.29244 20.9542 0.965047 20.9724V20.2162L0.958984 20.2223Z" fill="#666666"/>
<path id="Vector_4" d="M21.3968 20.6578C21.0754 19.7565 21.6878 19.2968 22.5669 18.8431C25.3134 17.4215 28.0174 15.9214 30.7397 14.4393C30.9216 14.3425 31.2368 14.3123 31.2186 14.0401C31.2065 13.8344 30.9337 13.786 30.7639 13.6892C27.878 12.0499 24.9981 10.3924 22.0879 8.78941C21.5423 8.48695 21.3786 8.15425 21.3846 7.55539C21.4149 5.23856 21.4028 2.92174 21.3907 0.604913C21.3907 0.0725877 21.4149 -0.151231 22.0273 0.19962C28.2721 3.77467 34.529 7.33157 40.7859 10.8764C41.2952 11.1667 41.4043 11.2575 40.8223 11.6809C39.5975 12.5701 38.6093 12.5217 37.2694 11.7293C33.0314 9.2068 28.6904 6.86578 24.3858 4.45822C23.64 4.04083 23.7492 4.05898 23.6158 4.89981C23.3733 6.4 24.028 7.15614 25.3255 7.83365C28.842 9.67864 32.2796 11.687 35.7476 13.6348C35.9356 13.7437 36.2448 13.786 36.2569 14.028C36.2751 14.3304 35.9295 14.3607 35.7234 14.4756C31.1944 16.9981 26.6654 19.5146 22.1364 22.031C21.6433 22.3052 21.3968 22.1601 21.3968 21.5955C21.3968 21.3414 21.3968 21.0934 21.3968 20.6578Z" fill="#666666"/>
<path id="Vector_5" d="M103.804 17.6877C104.725 19.0246 105.902 20.0106 107.532 20.307C108.333 20.4522 109.145 20.4703 109.921 20.186C110.443 19.9985 110.861 19.6537 110.922 19.0609C110.976 18.4862 110.612 18.1293 110.17 17.845C109.521 17.4276 108.781 17.2643 108.054 17.0707C106.859 16.7501 105.695 16.3569 104.574 15.8367C101.852 14.5663 101.227 11.1607 103.349 9.02532C105.392 6.97466 107.914 6.88997 110.534 7.4344C111.952 7.73081 113.116 8.5172 114.093 9.5879C114.426 9.95084 114.493 10.1807 114.074 10.5255C113.51 10.9913 112.983 11.4994 112.486 12.0378C112.189 12.3584 112.031 12.3161 111.734 12.0257C110.515 10.8159 109.042 10.3017 107.326 10.5316C107.023 10.5739 106.732 10.6465 106.465 10.7977C105.574 11.3059 105.55 12.2919 106.423 12.8484C106.872 13.1327 107.381 13.296 107.896 13.417C109.242 13.7376 110.546 14.1852 111.837 14.6934C115.263 16.0363 115.438 20.3917 112.716 22.4121C110.473 24.0817 106.514 24.1663 103.834 22.5452C102.894 21.9766 102.106 21.2507 101.488 20.3372C101.245 19.9864 101.227 19.7626 101.603 19.4722C102.343 18.9096 103.046 18.2926 103.792 17.6756L103.804 17.6877Z" fill="#666666"/>
<path id="Vector_6" d="M100.287 12.6911C100.287 10.9308 100.269 9.17052 100.299 7.41022C100.305 6.93839 100.166 6.79926 99.6992 6.82345C98.9959 6.85975 98.2865 6.8658 97.5832 6.82345C97.0679 6.78716 96.9406 6.95653 96.9527 7.44652C96.983 8.88016 96.9648 10.3078 96.9648 11.8019C92.6238 10.3259 88.9254 12.5701 88.4768 16.8529C88.1009 20.3917 89.9319 23.0231 93.127 23.4949C94.4912 23.6945 95.7765 23.4768 97.0921 22.4363C96.692 23.4526 97.2195 23.3981 97.7409 23.386C98.3714 23.3679 99.0019 23.3437 99.6325 23.3921C100.16 23.4284 100.305 23.265 100.299 22.7327C100.275 19.3875 100.287 16.0424 100.287 12.6911ZM96.9648 17.972C96.9648 19.4359 96.4859 20.1134 95.2672 20.3796C94.0364 20.6579 92.739 20.0771 92.2297 18.9641C91.7204 17.845 91.7204 16.7017 92.4177 15.6673C93.1028 14.6511 94.1516 14.3546 95.3278 14.4696C96.4798 14.5845 96.9648 15.1108 96.9648 16.2359V17.972Z" fill="#666666"/>
<path id="Vector_7" d="M51.5294 15.4617C51.5294 13.0178 51.5415 10.58 51.5173 8.13614C51.5173 7.65825 51.6143 7.50098 52.1296 7.50098C55.737 7.52517 59.3445 7.52517 62.9579 7.50098C63.4672 7.50098 63.6006 7.64616 63.5703 8.13009C63.5278 8.80759 63.5157 9.49115 63.5703 10.1687C63.6249 10.7736 63.3763 10.8583 62.8427 10.8522C60.4722 10.822 58.0955 10.8522 55.7249 10.828C55.2096 10.828 55.0095 10.9248 55.0519 11.4753C55.1004 12.2012 55.0944 12.9331 55.0519 13.6651C55.0216 14.1369 55.1793 14.2518 55.64 14.2458C57.8105 14.2216 59.9811 14.27 62.1516 14.2155C62.8852 14.1974 63.0428 14.4394 62.9882 15.0927C62.9337 15.7157 62.9458 16.3509 62.9882 16.98C63.0246 17.4518 62.867 17.5668 62.4001 17.5607C60.2054 17.5365 58.0106 17.5789 55.8159 17.5305C55.1611 17.5184 55.0277 17.718 55.0459 18.329C55.0883 19.7868 55.0459 21.2507 55.0701 22.7085C55.0822 23.2106 54.9852 23.4284 54.4214 23.3921C53.6696 23.3376 52.9057 23.3437 52.1539 23.3921C51.5961 23.4284 51.4991 23.2167 51.5051 22.7146C51.5294 20.301 51.5173 17.8813 51.5173 15.4677L51.5294 15.4617Z" fill="#666666"/>
<path id="Vector_8" d="M153.853 15.4919C155.005 14.2518 156.06 13.1448 157.085 12.0136C157.357 11.7111 157.63 11.566 158.055 11.5781C159.237 11.6083 160.425 11.5902 161.626 11.5902C161.638 11.9168 161.371 12.0136 161.213 12.1769C159.873 13.5501 158.54 14.9232 157.169 16.2601C156.818 16.6049 156.757 16.8045 157.097 17.2159C158.709 19.206 160.28 21.2386 161.965 23.3739C160.528 23.3739 159.207 23.3739 157.891 23.3739C157.618 23.3739 157.533 23.1259 157.394 22.9565C156.454 21.7769 155.52 20.5852 154.575 19.4117C154.447 19.2544 154.374 18.9399 154.077 19.0548C153.823 19.1516 153.847 19.4117 153.853 19.6416C153.853 20.676 153.823 21.7043 153.871 22.7387C153.895 23.2892 153.708 23.4283 153.192 23.392C152.537 23.3497 151.877 23.3437 151.228 23.392C150.664 23.4344 150.512 23.2771 150.512 22.6964C150.537 18.1898 150.518 13.6832 150.537 9.1826C150.537 8.41436 150.191 7.386 150.694 6.95651C151.137 6.57541 152.137 6.89602 152.889 6.81738C153.653 6.73874 153.902 6.95651 153.883 7.77315C153.823 10.2896 153.859 12.806 153.859 15.4919H153.853Z" fill="#666666"/>
<path id="Vector_9" d="M136.398 15.758C136.355 14.1127 135.713 12.7214 134.173 11.8987C132.172 10.834 128.425 11.3059 126.722 12.806C126.461 13.042 126.34 13.2053 126.594 13.544C126.988 14.0643 127.346 14.6147 127.673 15.1834C127.873 15.5342 128.031 15.5524 128.359 15.3164C129.359 14.5845 130.493 14.3304 131.717 14.4756C132.336 14.5482 132.821 14.8083 133.015 15.4556C133.142 15.873 133.166 16.0302 132.603 15.9214C131.014 15.6068 129.432 15.6915 127.922 16.3267C126.279 17.0163 125.551 18.1898 125.642 19.938C125.727 21.5773 126.691 22.7992 128.334 23.2711C130.002 23.7611 131.566 23.5312 133.148 22.3758C132.912 23.3134 133.3 23.4586 133.985 23.3921C134.64 23.3376 135.301 23.3618 135.955 23.386C136.307 23.4042 136.44 23.3074 136.434 22.9323C136.416 20.5369 136.471 18.1474 136.398 15.758ZM132.942 19.5387C132.354 20.4401 130.656 20.924 129.686 20.4703C129.347 20.313 129.086 20.065 129.068 19.6779C129.05 19.2544 129.304 18.9762 129.662 18.8008C130.202 18.5346 130.784 18.5285 131.505 18.5346C131.79 18.5467 132.208 18.5769 132.633 18.6677C133.251 18.8008 133.203 19.1335 132.942 19.5387Z" fill="#666666"/>
<path id="Vector_10" d="M77.9881 22.648C76.2966 23.7732 74.6171 23.7611 72.9317 23.1622C71.228 22.5512 70.5186 21.1478 70.3852 19.4722C70.1912 16.9618 70.3428 14.4393 70.3004 11.9229C70.3004 11.5841 70.4216 11.4934 70.743 11.4994C71.5251 11.5176 72.3072 11.5297 73.0893 11.4994C73.5258 11.4813 73.641 11.6204 73.641 12.0499C73.6168 13.8344 73.6289 15.625 73.635 17.4095C73.635 17.8087 73.6471 18.214 73.6895 18.6132C73.8229 19.8836 74.5747 20.5187 75.8115 20.4401C77.0908 20.3554 77.9881 19.4843 77.9881 18.3289C77.9881 16.2662 78.0063 14.1974 77.976 12.1346C77.9699 11.6507 78.0669 11.4631 78.5944 11.4994C79.2977 11.5478 80.007 11.5478 80.7103 11.4994C81.2499 11.4631 81.3227 11.6809 81.3227 12.1467C81.3045 15.6733 81.3045 19.194 81.3227 22.7206C81.3227 23.2287 81.2257 23.4405 80.6679 23.3981C80.0131 23.3497 79.3523 23.3497 78.7035 23.3981C78.1821 23.4344 77.8608 23.3376 77.982 22.6541L77.9881 22.648Z" fill="#666666"/>
<path id="Vector_11" d="M137.78 17.4699C137.774 13.4836 140.988 10.8098 145.062 11.3906C146.759 11.6325 148.196 12.2919 149.166 13.7739C149.385 14.1127 149.47 14.3486 149.021 14.5906C148.445 14.8991 147.899 15.2681 147.372 15.6552C147.044 15.8972 146.881 15.8185 146.638 15.5403C145.777 14.5603 144.674 14.2518 143.419 14.524C142.061 14.8144 141.194 16.0182 141.218 17.476C141.242 18.8915 142.297 20.1074 143.74 20.3675C144.977 20.5853 146.062 20.3372 146.82 19.2665C147.063 18.9217 147.232 18.958 147.529 19.1516C147.99 19.4541 148.457 19.7747 148.96 19.9864C149.585 20.2526 149.445 20.5671 149.16 20.9906C147.699 23.1864 144.753 24.0998 141.873 23.2287C139.302 22.4545 137.786 20.3191 137.78 17.4639V17.4699Z" fill="#666666"/>
<path id="Vector_12" d="M120.931 17.0042C120.931 17.7301 120.871 18.4681 120.943 19.1879C121.059 20.2405 121.592 20.5732 122.617 20.3372C122.884 20.2768 123.193 20.2163 123.387 20.0408C124.017 19.4783 124.29 19.8412 124.545 20.4098C124.666 20.682 124.842 20.9301 125 21.1902C125.521 22.0734 125.533 22.0975 124.69 22.642C123.09 23.6703 121.368 23.8034 119.634 23.0715C118.094 22.4242 117.572 21.0873 117.548 19.5206C117.524 18.1112 117.524 16.7017 117.548 15.2923C117.554 14.8386 117.488 14.6329 116.942 14.6389C115.311 14.6571 115.311 14.6269 115.311 13.0178C115.311 11.5841 115.311 11.5478 116.76 11.5962C117.378 11.6144 117.597 11.4752 117.554 10.828C117.512 10.1868 117.257 9.32175 117.682 8.95275C118.045 8.63819 118.882 8.84991 119.513 8.84991C120.865 8.84386 120.865 8.84991 120.865 10.2291C120.865 11.5841 120.865 11.566 122.259 11.5902C122.981 11.6023 123.945 11.2696 124.357 11.7293C124.715 12.1225 124.417 13.0722 124.49 13.7679C124.563 14.4696 124.387 14.7599 123.617 14.6752C122.896 14.5966 122.156 14.6752 121.422 14.651C121.004 14.6329 120.828 14.7357 120.859 15.1894C120.895 15.7943 120.871 16.3993 120.871 17.0042C120.895 17.0042 120.913 17.0042 120.937 17.0042H120.931Z" fill="#666666"/>
<path id="Vector_13" d="M65.0981 15.1592C65.0981 12.5944 65.1102 10.0235 65.0859 7.45864C65.0859 6.97471 65.189 6.78718 65.7044 6.81743C66.4076 6.85977 67.117 6.86582 67.8203 6.81743C68.3478 6.78113 68.4387 6.9868 68.4387 7.45864C68.4205 12.5702 68.4266 17.6817 68.4387 22.7872C68.4387 23.2288 68.3538 23.4163 67.8627 23.386C67.1352 23.3437 66.3955 23.3437 65.668 23.386C65.1769 23.4163 65.0859 23.2348 65.0859 22.7872C65.1041 20.2465 65.0981 17.6998 65.0981 15.1592Z" fill="#666666"/>
<path id="Vector_14" d="M86.7972 17.4699C86.7972 19.2302 86.779 20.9966 86.8093 22.7569C86.8154 23.2469 86.7002 23.4223 86.1848 23.392C85.4573 23.3436 84.7176 23.3618 83.9901 23.392C83.6202 23.4041 83.4565 23.3255 83.4565 22.9021C83.4747 19.3028 83.4687 15.6975 83.4565 12.0983C83.4565 11.699 83.5717 11.572 83.9719 11.5841C84.754 11.6083 85.5361 11.6143 86.3182 11.5841C86.7426 11.566 86.8093 11.7414 86.8093 12.1104C86.7911 13.9009 86.8033 15.6854 86.8033 17.476L86.7972 17.4699Z" fill="#666666"/>
<path id="Vector_15" d="M27.7872 15.1108C26.8414 15.631 26.0532 16.0605 25.2711 16.5081C24.9982 16.6654 24.8467 16.4658 24.6648 16.363C23.5492 15.7278 22.4336 15.0987 21.3363 14.4333C21.0089 14.2337 20.7845 14.2397 20.4571 14.4333C19.3598 15.0987 18.2381 15.7097 17.1347 16.369C16.8497 16.5384 16.6315 16.5868 16.3222 16.3993C15.619 15.9698 14.8853 15.5887 14.1699 15.1955C14.2669 14.887 14.5034 14.8325 14.6974 14.7236C16.6072 13.6529 18.5109 12.5883 20.4268 11.5236C20.6572 11.3966 20.8512 11.2212 21.1786 11.4027C23.3128 12.6185 25.4651 13.8042 27.7872 15.0987V15.1108Z" fill="#666666"/>
<path id="Vector_16" d="M85.1602 6.83554C86.2273 6.84764 87.0215 7.56749 87.0094 8.51721C86.9973 9.46692 86.203 10.1747 85.136 10.1807C84.0083 10.1807 83.2443 9.48507 83.2625 8.46277C83.2807 7.51305 84.0871 6.82345 85.1602 6.83554Z" fill="#666666"/>
</g>
</g>
</g>
<defs>
<clipPath id="clip0_435_6934">
<rect width="161" height="32" fill="white" transform="translate(0.958984)"/>
</clipPath>
</defs>
</svg>
