<svg width="247" height="32" viewBox="0 0 247 32" fill="none" xmlns="http://www.w3.org/2000/svg">
<g id="679a2c8623feff0fd9b8840a_whiteFiber 1" clip-path="url(#clip0_435_6954)">
<path id="Vector" d="M195.45 27.3552V4.48633H204.696C206.612 4.48633 208.202 4.79125 209.465 5.40108C210.75 6.01092 211.72 6.87122 212.373 7.982C213.026 9.07099 213.353 10.356 213.353 11.837C213.353 13.4052 212.95 14.7773 212.144 15.9534C211.338 17.1078 210.108 17.9463 208.453 18.469L214.006 27.3552H208.355L203.552 18.9917H200.318V27.3552H195.45ZM200.318 15.1367H203.748C205.556 15.1367 206.797 14.8644 207.472 14.3199C208.148 13.7537 208.485 12.926 208.485 11.837C208.485 10.748 208.148 9.93129 207.472 9.3868C206.797 8.82052 205.556 8.53738 203.748 8.53738H200.318V15.1367Z" fill="#666666"/>
<path id="Vector_2" d="M174.131 27.4138V4.54492H190.074V8.59598H179.031V13.6925H189.094V17.6128H179.031V23.3627H190.074V27.4138H174.131Z" fill="#666666"/>
<path id="Vector_3" d="M151.284 27.1399V4.271H161.052C163.622 4.271 165.506 4.81549 166.704 5.90449C167.924 6.9717 168.534 8.46362 168.534 10.3802C168.534 11.5564 168.24 12.5691 167.652 13.4185C167.085 14.2462 166.312 14.8451 165.332 15.2154C166.639 15.5203 167.662 16.141 168.403 17.0776C169.143 17.9923 169.514 19.1902 169.514 20.6712C169.514 21.978 169.241 23.1215 168.697 24.1016C168.152 25.0599 167.292 25.8113 166.116 26.3558C164.94 26.8785 163.394 27.1399 161.477 27.1399H151.284ZM156.152 23.4155H160.595C162.119 23.4155 163.176 23.1541 163.764 22.6314C164.352 22.1087 164.646 21.3355 164.646 20.3119C164.646 19.2882 164.352 18.4932 163.764 17.927C163.198 17.3389 162.13 17.0449 160.562 17.0449H156.152V23.4155ZM156.152 13.7126H160.072C161.401 13.7126 162.326 13.4512 162.849 12.9285C163.394 12.4058 163.666 11.6979 163.666 10.805C163.666 9.8902 163.404 9.19325 162.882 8.71409C162.359 8.23493 161.433 7.99535 160.105 7.99535H156.152V13.7126Z" fill="#666666"/>
<path id="Vector_4" d="M139.705 27.1399V4.271H144.573V27.1399H139.705Z" fill="#666666"/>
<path id="Vector_5" d="M117.699 27.1399V4.271H133.348V8.32205H122.567V14.0719H132.368V17.9923H122.567V27.1399H117.699Z" fill="#666666"/>
<path id="Vector_6" d="M95.5928 27.1399V4.271H111.536V8.32205H100.493V13.4185H110.556V17.3389H100.493V23.0888H111.536V27.1399H95.5928Z" fill="#666666"/>
<path id="Vector_7" d="M78.7262 27.1399V8.32205H71.3755V4.271H90.9448V8.32205H83.5941V27.1399H78.7262Z" fill="#666666"/>
<path id="Vector_8" d="M61.3779 27.1399V4.271H66.2457V27.1399H61.3779Z" fill="#666666"/>
<path id="Vector_9" d="M36.021 27.176V4.30713H40.8888V13.3893H50.6898V4.30713H55.5576V27.176H50.6898V17.4404H40.8888V27.176H36.021Z" fill="#666666"/>
<path id="Vector_10" d="M6.83954 27.1403L0.958984 4.27148H6.05547L9.61647 20.4104L14.0269 4.27148H18.6007L23.1091 20.4757L26.9641 4.27148H31.6686L25.7554 27.1403H20.8876L16.1505 10.8054L11.7074 27.1403H6.83954Z" fill="#666666"/>
<path id="Vector_11" fill-rule="evenodd" clip-rule="evenodd" d="M218.142 6.62726C218.142 2.96712 221.109 0 224.769 0H240.073C243.733 0 246.7 2.96713 246.7 6.62726V25.3153C246.7 28.9755 243.733 31.9426 240.073 31.9426H224.769C221.109 31.9426 218.142 28.9755 218.142 25.3153V6.62726ZM224.769 1.48248C221.928 1.48248 219.624 3.78587 219.624 6.62726V25.3153C219.624 28.1567 221.928 30.4601 224.769 30.4601H240.073C242.914 30.4601 245.218 28.1567 245.218 25.3153V6.62726C245.218 3.78588 242.914 1.48248 240.073 1.48248H224.769Z" fill="#666666"/>
<path id="Vector_12" d="M224.443 27.0553V23.7197H240.75V27.0553H224.443Z" fill="#666666"/>
</g>
<defs>
<clipPath id="clip0_435_6954">
<rect width="246" height="32" fill="white" transform="translate(0.958984)"/>
</clipPath>
</defs>
</svg>
