<svg width="33" height="32" viewBox="0 0 33 32" fill="none" xmlns="http://www.w3.org/2000/svg">
<g clip-path="url(#clip0_191_839)">
<path fill-rule="evenodd" clip-rule="evenodd" d="M32.5452 18.6947C32.5557 17.7969 32.5662 16.899 32.5662 16.0016H32.5678C32.5678 15.3203 32.568 14.6389 32.5682 13.9574C32.5688 11.9128 32.5694 9.86776 32.5646 7.82362C32.5638 7.6659 32.5654 7.50752 32.567 7.34895C32.5725 6.81035 32.5779 6.26954 32.4923 5.74501C31.9643 2.52518 29.1858 0.11271 25.706 0.0677669C19.6403 -0.0108831 13.5714 -0.0365647 7.50734 0.0757924C3.59089 0.148022 0.502676 3.20253 0.602193 7.26022C0.704669 11.3938 0.682695 15.5297 0.66072 19.6658C0.651029 21.4899 0.641338 23.3139 0.64232 25.1378C0.64232 25.5102 0.643925 25.889 0.706524 26.255C1.25386 29.4684 4.02427 31.8873 7.50092 31.9322C13.5666 32.0109 19.6355 32.0366 25.6996 31.9242C29.616 31.852 32.7845 28.7991 32.5935 24.7398C32.4979 22.7284 32.5216 20.7116 32.5452 18.6947ZM17.8145 16.5754L17.2664 18.8346V18.8314C16.6002 16.4671 15.9951 14.3163 15.3916 12.167C14.9126 10.4574 14.9085 10.4574 13.1541 10.4576L13.0899 10.4576C12.6116 10.4576 12.4543 10.631 12.3483 11.0563C12.077 12.1415 11.7749 13.2203 11.473 14.2983L11.473 14.2984L11.4729 14.2986L11.366 14.6806C11.1137 15.5889 10.8551 16.4949 10.5777 17.4669C10.458 17.8862 10.3348 18.3178 10.2071 18.7672C10.0653 18.1412 9.92679 17.5335 9.79124 16.9387L9.79113 16.9382C9.45893 15.4805 9.14439 14.1003 8.84119 12.7176L8.83595 12.6937C8.31474 10.318 8.31452 10.317 5.8557 10.5009C5.84026 10.5019 5.82539 10.5081 5.80134 10.5181C5.78539 10.5248 5.7654 10.5331 5.73853 10.5427C5.74945 10.6016 5.75953 10.6613 5.76968 10.7215L5.76969 10.7215L5.7697 10.7216C5.79385 10.8647 5.81841 11.0102 5.8557 11.1526C6.10685 12.1182 6.36103 13.0831 6.61522 14.0481L6.61523 14.0482L6.61525 14.0483C7.24965 16.4567 7.88415 18.8654 8.47201 21.2856C8.67265 22.1106 8.96157 22.398 9.82672 22.3482L10.002 22.3384C11.3136 22.2655 11.3272 22.2648 11.6951 20.9132C12.0969 19.4378 12.5028 17.9631 12.9089 16.4881C13.1208 15.7182 13.3328 14.9483 13.5441 14.1782C13.7736 14.235 13.7921 14.369 13.809 14.4907C13.8136 14.524 13.818 14.5563 13.8266 14.5859C14.4077 16.5522 14.9855 18.5184 15.5601 20.4847C16.106 22.3532 16.1091 22.3532 18.0229 22.3389L18.0721 22.3386C18.5376 22.3354 18.6997 22.1941 18.8105 21.7415C19.2453 19.9798 19.707 18.2259 20.1689 16.4714L20.1689 16.4713L20.1689 16.4713L20.1692 16.4704L20.1694 16.4696C20.3041 15.9579 20.4388 15.4462 20.5729 14.9342C20.8755 13.7746 21.1821 12.616 21.4904 11.4512L21.4905 11.4508L21.7334 10.5331C20.1197 10.3758 19.1384 11.0317 18.7896 12.5009C18.7832 12.5272 18.78 12.5539 18.7768 12.5804C18.7736 12.6073 18.7704 12.6339 18.7639 12.6598C18.4524 13.9462 18.1403 15.2326 17.8145 16.5754ZM24.3664 22.2669C24.6338 22.2682 24.9012 22.2695 25.1686 22.2695V22.2679H27.2536C27.974 22.2679 28.3272 22.2679 28.5034 22.0913C28.6729 21.9215 28.6787 21.5884 28.6901 20.9348V20.9348L28.6918 20.8394C28.703 20.2407 28.4799 20.1364 27.9502 20.146C26.8324 20.168 25.7146 20.1641 24.5967 20.1602C24.164 20.1587 23.7313 20.1572 23.2986 20.1572C22.5287 20.1572 22.1438 20.1572 21.9569 20.3496C21.77 20.5419 21.781 20.9263 21.8028 21.695L21.8043 21.7479C21.8155 22.1829 21.9568 22.2888 22.3612 22.2776C23.0296 22.2604 23.698 22.2636 24.3664 22.2669Z" fill="#666666"/>
</g>
<defs>
<clipPath id="clip0_191_839">
<rect width="32.0018" height="32" fill="white" transform="translate(0.599854)"/>
</clipPath>
</defs>
</svg>
