<svg width="92" height="32" viewBox="0 0 92 32" fill="none" xmlns="http://www.w3.org/2000/svg">
<g clip-path="url(#clip0_191_843)">
<path d="M86.1545 7.9259C86.16 7.12955 86.1628 6.33043 86.1711 5.53408C86.1711 5.39859 86.1158 5.24927 86.2375 5.13314C86.4421 5.29628 86.3951 5.52855 86.3951 5.74423C86.3978 7.92314 86.3951 10.102 86.3951 12.2837C86.3951 12.3999 86.4034 12.516 86.3951 12.6321C86.3785 12.9086 86.5167 13.0137 86.7739 12.9667C87.8025 12.7759 88.8533 12.798 89.8819 12.6294C90.3409 12.5547 90.8082 12.6183 91.27 12.5519C91.3723 12.5381 91.4746 12.5768 91.5382 12.6736C91.5686 13.2266 91.5492 13.7824 91.5492 14.3382C91.5492 17.7946 91.552 21.251 91.5492 24.7074C91.5188 24.8429 91.4082 24.8843 91.2948 24.912C91.1206 24.9535 90.9492 25.0447 90.7722 25.0392C89.7768 25.0115 88.8145 25.3157 87.8219 25.3074C87.3794 25.3046 86.9564 25.4235 86.525 25.4761C86.3287 25.501 86.1379 25.512 85.9831 25.3572C85.9084 25.2549 85.9139 25.1415 85.925 25.0226C86.0937 23.3359 86.0494 21.6381 85.972 19.9541C85.8973 18.3172 84.3102 17.1116 83.0161 17.0674C81.0031 17.001 79.7782 18.2066 79.25 19.8988C78.885 21.0685 78.8048 22.2685 78.8961 23.4963C78.9514 24.2456 79.1532 24.9673 79.2058 25.7139C79.1588 26.0816 78.968 26.278 78.5864 26.3333C78.2933 26.3747 78.003 26.3996 77.7071 26.4107C77.0407 26.4383 76.3854 26.5683 75.7273 26.6595C75.1494 26.7397 74.5714 26.7038 73.9935 26.69C73.8415 26.6872 73.7281 26.6015 73.6479 26.477C73.399 25.7471 73.3023 24.9894 73.2553 24.2207C73.1834 23.958 73.2829 23.6843 73.1999 23.4216C73.1999 23.3359 73.1999 23.2474 73.1999 23.1617C73.2857 22.8216 73.1834 22.4704 73.258 22.1303C73.341 20.5293 73.6977 18.9919 74.4415 17.5706C75.6775 15.212 77.5771 13.7022 80.2344 13.2239C80.5745 13.163 80.9229 13.1492 81.2686 13.1133C81.5257 13.0745 81.7829 13.0745 82.0428 13.1133C83.3617 13.2017 84.6254 13.4727 85.7536 14.211C86.0163 14.3824 86.1656 14.2967 86.1656 13.976C86.1656 11.9602 86.1573 9.9472 86.1517 7.93143L86.1545 7.9259Z" fill="#666666"/>
<path d="M53.6474 14.1336C53.6326 13.7668 53.8022 13.5834 54.1562 13.5834C55.3949 13.5834 56.6365 13.5944 57.8752 13.5751C58.1628 13.5723 58.2955 13.6746 58.3702 13.9373C58.4531 14.2332 58.5638 14.5235 58.6661 14.8138C58.8043 15.1982 58.8624 15.1982 59.1942 14.9438C61.669 13.0497 64.3871 12.6017 67.3236 13.6525C68.7117 14.1502 69.5191 15.2231 69.9947 16.578C70.0445 16.7218 70.0998 16.8655 70.1523 17.0093C70.3487 17.9301 70.4897 18.8592 70.5671 19.7966C70.6224 20.8971 70.5837 21.9948 70.5892 23.0953C70.3072 23.4244 69.9145 23.2861 69.5744 23.3055C69.1984 23.3276 68.8361 23.394 68.4656 23.4355C67.4674 23.5433 66.483 23.7562 65.4738 23.7894C65.3549 23.7922 65.2415 23.7728 65.1668 23.6594C65.1447 22.7331 65.1668 21.8068 65.1558 20.8805C65.1558 20.7395 65.1834 20.5985 65.1254 20.4602C65.0922 20.2418 65.0618 20.0205 65.0286 19.8021C64.882 19.7191 64.8378 19.5671 64.777 19.4233C64.3179 18.32 63.4497 17.8361 62.2939 17.7753C61.3814 17.7283 60.5297 17.9439 59.7113 18.3255C59.3048 18.5163 59.1168 18.7984 59.1306 19.2684C59.1582 20.145 59.1665 21.0243 59.1306 21.8981C59.1057 22.4566 59.0338 23.0124 58.973 23.5709C58.5969 23.853 58.1517 23.7617 57.7397 23.759C57.1452 23.7534 56.559 23.8115 55.9784 23.9111C55.3673 24.0161 54.759 24.1461 54.1396 24.0797C53.6889 24.0327 53.6695 23.9885 53.6695 23.5461C53.6695 20.5487 53.6695 17.5541 53.6695 14.5567C53.6695 14.4157 53.6916 14.2719 53.6474 14.1336Z" fill="#666666"/>
<path d="M73.6531 26.4716C74.4052 26.5767 75.1462 26.5546 75.9066 26.4606C76.5702 26.3776 77.2311 26.1702 77.9058 26.256C78.2431 26.2974 78.5279 26.1398 78.8515 26.1288C79.0588 26.1232 79.0423 25.855 79.0976 25.6919C79.3464 25.7002 79.3437 25.9242 79.4128 26.0735C79.7087 26.7343 80.0792 27.3261 80.7456 27.68C81.9595 28.3243 83.4526 28.0892 84.5421 27.0744C85.026 26.6237 85.4794 26.1509 85.7477 25.5287C85.7947 25.4237 85.8334 25.2688 86.0131 25.3048C86.2952 25.4237 86.5744 25.3158 86.8426 25.2633C87.0307 25.2246 87.2187 25.1554 87.4095 25.1665C88.4851 25.2384 89.5193 24.8319 90.5977 24.9066C90.9018 24.9287 91.1866 24.7158 91.5046 24.749C91.6069 24.8596 91.5544 24.9951 91.5572 25.1167C91.5599 26.6514 91.5599 28.1832 91.5572 29.7179C91.5572 30.2681 91.3968 30.47 90.8493 30.5198C89.9811 30.5944 89.1239 30.7686 88.2529 30.8156C88.0344 30.8267 87.8215 30.8848 87.6003 30.8958C87.2989 30.9069 87.0362 30.8599 86.8675 30.5806C86.7929 30.4175 86.7099 30.2571 86.6408 30.0912C86.5219 29.8008 86.3726 29.8257 86.1846 30.0303C84.8767 31.4627 83.2176 32.0185 81.318 31.9936C79.5345 31.9715 77.856 31.5871 76.4016 30.5032C75.0273 29.4801 74.1038 28.1307 73.6531 26.4689V26.4716Z" fill="#666666"/>
<path d="M44.5475 31.2054C44.553 31.0506 44.564 30.8957 44.564 30.7409C44.564 25.23 44.5585 19.7164 44.5585 14.2055C44.5585 14.0423 44.506 13.8709 44.6111 13.7161C44.8295 13.8709 44.7825 14.1059 44.7825 14.3161C44.788 16.2931 44.7825 18.2674 44.7853 20.2445C44.7853 20.7699 44.788 20.7505 45.3023 20.8169C45.6341 20.8611 45.93 20.8113 46.248 20.7173C46.613 20.6123 46.9808 20.5265 47.3872 20.5846C47.9126 20.6593 48.4241 20.4132 48.9495 20.3717C49.2924 20.344 49.638 20.2528 49.9726 20.4132C49.9781 21.7266 49.9837 23.0428 49.9864 24.3562C49.992 26.69 49.992 29.0237 49.9947 31.3575C49.9394 31.4155 49.8841 31.4708 49.8288 31.5289C48.4158 31.5815 47.0029 31.54 45.5899 31.5483C45.2968 31.5483 44.9982 31.5787 44.7051 31.5262C44.5723 31.457 44.5668 31.3271 44.5475 31.2026V31.2054Z" fill="#666666"/>
<path d="M65.2031 23.6761C66.5248 23.5407 67.8383 23.372 69.1517 23.1646C69.6135 23.0927 70.0946 23.1425 70.5647 23.1369C70.6117 23.2199 70.5951 23.3139 70.5951 23.4024C70.5951 26.0044 70.5951 28.6036 70.5951 31.2055C70.5951 31.283 70.6006 31.3604 70.5757 31.4351C70.5425 31.4682 70.5094 31.4986 70.4762 31.5318C69.7794 31.5899 69.0826 31.5539 68.383 31.5539C67.3488 31.5539 66.3147 31.5844 65.2805 31.5346C65.2474 31.5014 65.2142 31.4682 65.181 31.4378C65.134 31.1419 65.1616 30.8461 65.1616 30.5502C65.1589 28.399 65.1616 26.2477 65.1616 24.0964C65.1616 23.9582 65.1229 23.8116 65.2003 23.6789L65.2031 23.6761Z" fill="#666666"/>
<path d="M53.6477 14.1336C53.7445 14.2746 53.7057 14.435 53.7057 14.5871C53.7085 17.4849 53.7113 20.38 53.7113 23.2778C53.7113 23.8889 53.8717 24.0465 54.4772 23.9663C55.4644 23.8336 56.446 23.6566 57.4331 23.5516C57.7013 23.5239 57.9834 23.5986 58.2737 23.582C58.5143 23.5682 58.7548 23.5294 58.9954 23.5212C59.0396 23.6041 59.0258 23.6981 59.0258 23.7866C59.0258 26.2586 59.0258 28.7306 59.0258 31.2026C59.0258 31.2801 59.0314 31.3575 59.0065 31.4321C58.9733 31.4626 58.9401 31.4957 58.9069 31.5262C58.1769 31.5842 57.4442 31.5483 56.7142 31.5483C55.7381 31.5483 54.762 31.5759 53.7887 31.5317C53.5979 31.4128 53.6366 31.222 53.6366 31.0423C53.6311 29.4385 53.6256 27.8375 53.62 26.2337C53.6256 25.006 53.6311 23.7783 53.6311 22.5478C53.6311 19.885 53.6311 17.2195 53.6311 14.5567C53.6311 14.4156 53.6394 14.2718 53.6449 14.1308L53.6477 14.1336Z" fill="#666666"/>
<path d="M86.8678 30.5834C87.1499 30.7963 87.4789 30.7493 87.7941 30.7299C88.2199 30.705 88.6237 30.5364 89.0716 30.6221C89.2596 30.658 89.5002 30.5198 89.7325 30.4921C90.1611 30.4423 90.5869 30.3815 91.0155 30.3317C91.3528 30.293 91.5326 30.0967 91.527 29.6985C91.4994 28.0477 91.5077 26.3997 91.5021 24.749C91.5021 20.7147 91.5021 16.6804 91.5021 12.6461C91.3694 12.5161 91.3584 12.3502 91.3584 12.1788C91.3556 9.09013 91.3556 6.0015 91.3584 2.91287C91.3584 2.73314 91.3501 2.54511 91.5215 2.42068C91.6598 2.84374 91.5547 3.27787 91.5851 3.70369C91.5989 3.89449 91.5962 4.08528 91.6017 4.27607C91.5962 5.31022 91.5851 6.34161 91.5851 7.37576C91.5796 15.1927 91.574 23.0069 91.5685 30.8239C91.5685 30.9539 91.5685 31.0811 91.563 31.211C91.5547 31.424 91.4607 31.5318 91.2256 31.529C89.9841 31.5207 88.7453 31.5235 87.5038 31.529C87.3268 31.529 87.2135 31.4737 87.1526 31.2968C87.0669 31.0562 86.9646 30.8212 86.8678 30.5834Z" fill="#666666"/>
<path d="M9.92292 17.933C9.64641 17.933 9.51922 17.8307 9.52475 17.5155C9.5441 16.1467 9.54134 14.7752 9.52475 13.4065C9.52198 13.0775 9.63812 12.9779 9.95334 12.9835C10.7939 12.9973 11.6345 12.9724 12.4751 12.9973C12.8069 13.0056 12.8761 12.8977 12.8733 12.5853C12.8567 10.7105 12.8733 8.83579 12.8539 6.9638C12.8512 6.58498 12.9701 6.47438 13.3406 6.47438C15.6688 6.4882 17.9971 6.48544 20.3225 6.47438C20.5714 6.47438 20.7235 6.5601 20.8672 6.75919C21.7383 7.95924 22.6231 9.15101 23.5024 10.3455C24.4176 11.612 25.3301 12.8811 26.2509 14.142C26.4472 14.4103 26.5661 14.3826 26.7984 14.0425C27.6694 12.7622 28.5377 11.4792 29.4087 10.1962C30.1774 9.06252 30.9461 7.93159 31.7065 6.79513C31.8475 6.58498 31.9996 6.47714 32.2733 6.47714C34.7564 6.4882 37.2422 6.4882 39.7253 6.47714C40.0129 6.47714 40.0986 6.55457 40.0986 6.84767C40.082 12.1622 40.0792 17.4768 40.071 22.7913C40.071 22.8549 40.0599 22.9185 40.0544 22.9849C39.9769 23.0512 39.9078 23.1508 39.8027 23.1563C39.2635 23.1867 38.7658 23.419 38.21 23.3996C37.4524 23.3748 36.7058 23.5794 35.9509 23.6347C35.4836 23.6706 35.0163 23.8338 34.5435 23.6761C34.538 20.8585 34.5352 18.0408 34.5297 15.2232C34.5297 15.1209 34.5297 15.0158 34.5297 14.9135C34.5352 14.767 34.538 14.6149 34.361 14.5651C34.2061 14.5236 34.1315 14.6481 34.0541 14.7504C33.4845 15.5025 32.9148 16.2518 32.348 17.0012C30.5313 19.3958 28.7174 21.7931 26.9007 24.1877C26.5523 24.6495 26.5191 24.6467 26.1569 24.1711C23.7264 20.9746 21.2931 17.7782 18.8625 14.5845C18.8238 14.5319 18.7823 14.4821 18.7436 14.4296C18.6717 14.3328 18.5943 14.2471 18.4533 14.2858C18.3067 14.3245 18.304 14.4434 18.3012 14.5623C18.3012 14.6536 18.2929 14.7421 18.2902 14.8333C18.2431 14.9716 18.268 15.1154 18.268 15.2564C18.268 18.016 18.268 20.7783 18.268 23.5379C18.268 24.1656 18.1436 24.3038 17.5297 24.2872C17.0542 24.2762 16.6421 24.5278 16.1721 24.5582C15.2513 24.6191 14.3277 24.6992 13.4208 24.9039C13.2328 24.9453 13.0309 24.926 12.8844 24.7601C12.8788 22.6143 12.865 20.4686 12.8788 18.3229C12.8788 17.9662 12.7738 17.8943 12.4447 17.9054C11.6041 17.933 10.7635 17.9247 9.92569 17.9302L9.92292 17.933Z" fill="#666666"/>
<path d="M12.8844 24.7601C13.5508 24.8043 14.184 24.572 14.8366 24.5028C15.3564 24.4503 15.879 24.4697 16.3961 24.3618C16.5703 24.3259 16.7528 24.3231 16.9104 24.2374C17.1233 24.124 17.3307 24.0881 17.574 24.124C18.0635 24.1987 18.2266 24.0411 18.2266 23.5295C18.2294 20.781 18.2266 18.0297 18.2321 15.2812C18.2321 15.1291 18.1934 14.9687 18.293 14.8305C18.2985 14.9715 18.3068 15.1153 18.3068 15.2563C18.3068 20.4658 18.304 25.678 18.3013 30.8875C18.3013 31.2691 18.1077 31.4608 17.7206 31.4626C15.1601 31.4626 12.5968 31.4571 10.0363 31.4709C9.65476 31.4709 9.5165 31.3797 9.52203 30.976C9.54692 29.646 9.53862 28.3132 9.52203 26.9804C9.51927 26.6596 9.62434 26.5435 9.9451 26.549C10.8106 26.5629 11.6788 26.5435 12.5443 26.5601C12.8015 26.5656 12.8761 26.4827 12.8678 26.231C12.854 25.7416 12.8734 25.2494 12.8789 24.7572L12.8844 24.7601Z" fill="#666666"/>
<path d="M91.5212 2.42065C91.5157 5.64753 91.5129 8.87719 91.5074 12.1041C91.5074 12.2838 91.5019 12.4663 91.4991 12.646C90.2714 12.7539 89.0437 12.8534 87.816 12.9696C87.4178 13.0055 87.0168 13.0442 86.6325 13.1465C86.2841 13.2378 86.2371 13.1106 86.2371 12.8119C86.2426 10.315 86.2371 7.82091 86.2371 5.32402C86.2371 5.26042 86.2371 5.19406 86.2343 5.13046C86.9035 4.62721 87.6749 4.29816 88.3966 3.88339C89.2649 3.38291 90.147 2.90454 91.0318 2.42894C91.1728 2.35152 91.3553 2.14414 91.5184 2.42065H91.5212Z" fill="#666666"/>
<path d="M34.546 23.6705C35.0464 23.4741 35.5856 23.546 36.1055 23.4548C36.711 23.3469 37.3304 23.2059 37.936 23.2391C38.6715 23.2806 39.3434 22.9958 40.0568 22.9792C40.0651 23.405 40.079 23.8308 40.079 24.2539C40.079 26.4632 40.0762 28.6698 40.0734 30.8791C40.0734 31.2662 39.8734 31.4598 39.4734 31.4598C37.9609 31.4598 36.4511 31.4598 34.9386 31.4598C34.7174 31.4598 34.5294 31.457 34.5321 31.1446C34.5432 28.6532 34.5432 26.1618 34.5487 23.6677L34.546 23.6705Z" fill="#666666"/>
<path d="M49.9702 20.4161C49.6522 20.5571 49.3066 20.4907 48.9775 20.5211C48.5544 20.5626 48.1507 20.6898 47.7332 20.7506C47.3489 20.8059 46.9728 20.5847 46.5857 20.7921C46.4585 20.8612 46.2677 20.8474 46.1184 20.9359C45.8391 21.1018 45.5432 21.0216 45.2529 20.9608C45.0538 20.9193 44.7801 21.0852 44.6778 20.9304C44.5754 20.7755 44.6308 20.5101 44.628 20.2916C44.6197 18.0989 44.6114 15.9089 44.6059 13.7162C44.6639 13.5475 44.8105 13.5862 44.9322 13.5862C46.4972 13.5862 48.0623 13.5862 49.6245 13.5835C49.8568 13.5835 49.984 13.6305 49.984 13.9014C49.973 16.0721 49.9702 18.2427 49.9647 20.4133L49.9702 20.4161Z" fill="#666666"/>
<path d="M8.8004 24.5387C8.21696 24.5387 7.63629 24.5304 7.05285 24.5442C6.77634 24.5498 6.65467 24.464 6.65744 24.1682C6.6685 22.9792 6.66573 21.7902 6.65744 20.5984C6.65744 20.3357 6.74869 20.2141 7.01137 20.2168C8.2142 20.2168 9.41702 20.2196 10.6198 20.2168C10.8853 20.2168 10.9904 20.3357 10.9904 20.5929C10.9848 21.7819 10.9821 22.9709 10.9904 24.1626C10.9904 24.4502 10.8632 24.547 10.5867 24.5415C9.99216 24.5304 9.39766 24.5387 8.8004 24.5387Z" fill="#666666"/>
<path d="M54.7179 8.71112C54.7179 7.89265 54.7373 7.18478 54.7096 6.47691C54.6958 6.10638 54.917 6.16722 55.1272 6.17275C55.3456 6.17828 55.5862 6.09256 55.5751 6.49073C55.5475 7.49723 55.5696 8.50374 55.5585 9.51024C55.5585 9.65402 55.683 9.90565 55.4396 9.92777C55.1935 9.95265 54.906 10.0605 54.6931 9.77569C54.1898 9.10377 53.67 8.44843 53.1557 7.78481C53.1086 7.72397 53.0589 7.66591 52.94 7.52212C52.94 8.23552 52.94 8.85767 52.94 9.47982C52.94 9.89735 52.6054 10.1075 52.2266 9.93883C52.1132 9.88629 52.1353 9.79504 52.1353 9.71209C52.1326 8.61434 52.1326 7.51659 52.1326 6.41884C52.1326 6.32206 52.1049 6.18104 52.2542 6.18104C52.4976 6.18104 52.7602 6.0732 52.9593 6.34971C53.3879 6.94698 53.8414 7.52765 54.2811 8.11385C54.4055 8.277 54.5244 8.44567 54.7124 8.70559L54.7179 8.71112Z" fill="#666666"/>
<path d="M71.0652 8.71123C71.0652 7.89552 71.0845 7.19871 71.0569 6.5019C71.0403 6.10926 71.2864 6.19221 71.5076 6.17839C71.7565 6.1618 71.9113 6.18392 71.903 6.51573C71.8781 7.49735 71.9003 8.48173 71.8864 9.46334C71.8864 9.62095 72.0136 9.88364 71.7758 9.92788C71.5187 9.97212 71.2256 10.0468 71.0044 9.74262C70.5315 9.09558 70.0283 8.47343 69.5388 7.84022C69.4835 7.77109 69.4282 7.70196 69.301 7.54159C69.301 8.24946 69.3066 8.85778 69.2955 9.46887C69.2955 9.62372 69.3951 9.85599 69.2098 9.91959C69.0135 9.98595 68.7729 9.96106 68.5572 9.93065C68.3996 9.90852 68.4688 9.73709 68.4688 9.63478C68.4632 8.63934 68.4577 7.6439 68.4688 6.64846C68.4688 6.49637 68.3388 6.23922 68.6015 6.19774C68.8503 6.15903 69.1296 6.0982 69.3342 6.3913C69.7573 6.99409 70.2108 7.57477 70.6504 8.16374C70.7638 8.31582 70.8799 8.47067 71.0624 8.71123H71.0652Z" fill="#666666"/>
<path d="M63.057 6.15918C62.5842 6.06793 62.1031 6.12877 61.6247 6.14536C61.4312 6.15089 61.4035 6.27255 61.4063 6.43293C61.4118 6.96383 61.4063 7.49473 61.4063 8.02287H61.409V8.79986C61.409 9.65152 61.8422 10.0571 62.7086 10.0165C63.7262 9.97227 64.4341 9.30865 64.5004 8.33809C64.5861 7.1408 64.0774 6.36104 63.057 6.15918ZM63.4386 8.91324C63.2727 9.24505 62.8027 9.43031 62.4404 9.37777C62.2579 9.35289 62.2496 9.24781 62.2496 9.10679C62.2552 8.75839 62.2524 8.40998 62.2524 8.06158C62.2524 7.71318 62.2607 7.36201 62.2496 7.0136C62.2441 6.82557 62.3243 6.76198 62.504 6.77027C62.9188 6.7841 63.2727 6.92788 63.4635 7.30947C63.729 7.84037 63.7013 8.39063 63.4386 8.91324Z" fill="#666666"/>
<path d="M49.735 6.11473C48.6843 6.1092 47.9792 6.90278 47.9764 8.09455C47.9736 9.28355 48.64 10.0218 49.7157 10.0218C50.7913 10.0218 51.4494 9.28908 51.4521 8.13049C51.4577 6.93044 50.7664 6.12302 49.735 6.11473ZM50.4982 8.73052C50.4014 9.10934 50.1194 9.31673 49.7378 9.32502C49.3396 9.33055 49.088 9.14253 48.9525 8.76924C48.8751 8.55632 48.8861 8.33788 48.8668 8.14709C48.8751 7.86228 48.8806 7.60236 48.9857 7.36179C49.1239 7.04657 49.3368 6.82813 49.7157 6.83089C50.1111 6.83366 50.335 7.05486 50.4567 7.39774C50.6116 7.83463 50.6088 8.28534 50.4982 8.73052Z" fill="#666666"/>
<path d="M65.1586 8.0809C65.1586 7.56382 65.1752 7.04674 65.1531 6.52967C65.1393 6.22551 65.2499 6.15914 65.5319 6.16744C66.1264 6.18679 66.7237 6.18403 67.3182 6.16744C67.5864 6.15914 67.7053 6.20339 67.7025 6.51861C67.6998 6.81724 67.5836 6.85319 67.3375 6.84213C66.9753 6.82554 66.6131 6.85319 66.2508 6.83383C65.9439 6.81724 65.9799 7.02462 66.0075 7.19053C66.0379 7.36473 65.8305 7.67443 66.237 7.67719C66.5218 7.67719 66.8066 7.69655 67.0914 7.67166C67.368 7.64954 67.4011 7.77673 67.4067 8.009C67.4122 8.26616 67.3265 8.35188 67.0749 8.33252C66.8426 8.31317 66.6075 8.35464 66.378 8.32423C65.9163 8.26339 66.013 8.57862 65.9992 8.83854C65.9826 9.12058 65.9854 9.34732 66.3891 9.30584C66.7486 9.2699 67.1136 9.3169 67.4758 9.29202C67.7717 9.2699 67.7689 9.42751 67.7744 9.64319C67.7827 9.86992 67.7302 9.96118 67.4786 9.95564C66.8205 9.93629 66.1596 9.93905 65.4987 9.95564C65.2499 9.96118 65.1586 9.89481 65.1669 9.63489C65.1863 9.11781 65.1725 8.60074 65.1725 8.08366C65.1725 8.08366 65.1669 8.08366 65.1642 8.08366L65.1586 8.0809Z" fill="#666666"/>
<path d="M80.7622 9.73982C80.3419 8.61995 79.9244 7.50008 79.5207 6.37192C79.4377 6.14241 79.2774 6.18112 79.117 6.18389C78.9483 6.18665 78.7658 6.12859 78.6773 6.37745C78.2736 7.50285 77.8533 8.62548 77.4413 9.74536C77.4081 9.83107 77.3445 9.9002 77.4966 9.94721C77.892 10.0689 78.2211 9.92232 78.3234 9.51309C78.3953 9.22828 78.5391 9.1315 78.8101 9.17021C78.8985 9.18404 78.9926 9.17021 79.081 9.17021C79.1999 9.17021 79.3161 9.18127 79.4322 9.17021C79.6562 9.14533 79.7723 9.21722 79.8387 9.45502C79.9908 9.99422 80.0488 10.0108 80.6267 9.94997C80.7816 9.93615 80.8258 9.90573 80.7622 9.73982ZM79.2746 8.48999H79.2359C78.6773 8.52041 78.6746 8.52041 78.8571 7.98398C78.9234 7.79319 78.9898 7.60239 79.0976 7.29547C79.2359 7.69641 79.3244 7.98674 79.4377 8.26602C79.5152 8.45405 79.4433 8.49829 79.2746 8.48999Z" fill="#666666"/>
<path d="M46.3476 10.022C45.496 10.0165 44.9181 9.59065 44.6747 8.80536C44.4978 8.23022 44.5282 7.65507 44.7605 7.10481C45.1863 6.08725 46.5052 5.78033 47.3541 6.4799C47.5975 6.68175 47.3597 6.78683 47.3071 6.92785C47.2491 7.08269 47.1716 7.1214 46.9891 7.03016C46.32 6.69281 45.8776 6.80065 45.6038 7.32602C45.272 7.96476 45.4545 8.86896 45.9799 9.17035C46.3144 9.36115 46.6573 9.34456 46.9725 9.151C47.2159 9.00445 47.2933 9.13441 47.4177 9.30308C47.5809 9.52152 47.4537 9.62383 47.2933 9.73444C46.9974 9.93629 46.6739 10.0497 46.3449 10.022H46.3476Z" fill="#666666"/>
<path d="M56.4458 8.05047C56.4458 7.51957 56.4541 6.99143 56.4403 6.46053C56.4347 6.23932 56.5122 6.16743 56.7306 6.1702C57.3887 6.18126 58.0496 6.18402 58.7077 6.1702C58.9897 6.16467 58.9759 6.32228 58.9786 6.51583C58.9814 6.71769 58.9786 6.86424 58.7021 6.84765C58.3288 6.82553 57.9528 6.85041 57.5767 6.83935C57.3749 6.83382 57.2781 6.87253 57.2753 7.11033C57.267 7.69101 57.2532 7.69101 57.8449 7.69101C57.986 7.69101 58.1325 7.71036 58.2708 7.68824C58.6275 7.62741 58.716 7.78502 58.6855 8.11407C58.6689 8.29933 58.6136 8.36017 58.4339 8.35464C58.138 8.34358 57.8394 8.36017 57.5408 8.35187C57.3417 8.34634 57.267 8.41823 57.2781 8.62009C57.2919 8.92978 57.2532 9.24224 57.2892 9.54916C57.3306 9.91139 57.1786 9.9584 56.8578 9.96946C56.4983 9.98052 56.4209 9.85886 56.4403 9.52981C56.4679 9.04038 56.4486 8.54819 56.4486 8.056L56.4458 8.05047Z" fill="#666666"/>
<path d="M74.0102 6.18104C74.436 6.18104 74.8646 6.1921 75.2904 6.17828C75.5642 6.16722 75.531 6.34142 75.5254 6.50733C75.5199 6.65941 75.5973 6.87232 75.3042 6.83914C75.2655 6.83361 75.2268 6.83914 75.1881 6.83914C74.6369 6.84467 74.3613 7.12948 74.3613 7.69356C74.3613 8.35166 74.353 9.01252 74.3641 9.67061C74.3696 9.89182 74.295 9.94989 74.0793 9.95266C73.5069 9.95542 73.5069 9.96648 73.5069 9.38028C73.5069 8.63093 73.4959 7.87882 73.5124 7.12948C73.518 6.88338 73.4378 6.80596 73.2055 6.83361C73.0783 6.8502 72.9456 6.81978 72.8184 6.83914C72.4894 6.88891 72.3898 6.75895 72.4175 6.4382C72.4341 6.23358 72.4949 6.16998 72.6912 6.17551C73.1309 6.18381 73.5705 6.17828 74.0102 6.17828V6.18104Z" fill="#666666"/>
<path d="M81.3128 8.0504C81.3128 7.55821 81.3349 7.06602 81.3045 6.57936C81.2852 6.24755 81.4013 6.17289 81.7193 6.17013C82.0511 6.16736 82.1645 6.24478 82.1534 6.59595C82.123 7.38401 82.1534 8.17207 82.1368 8.96012C82.1313 9.23664 82.2253 9.32788 82.4908 9.30576C82.723 9.28641 82.9553 9.31406 83.1876 9.30023C83.4281 9.28641 83.5636 9.31959 83.5636 9.62375C83.5636 9.91132 83.4558 9.96386 83.2014 9.95557C82.6843 9.93898 82.1672 9.93621 81.6502 9.95557C81.3681 9.96663 81.3018 9.86155 81.3101 9.60163C81.3267 9.08455 81.3156 8.56748 81.3156 8.0504H81.3128Z" fill="#666666"/>
<path d="M60.4995 8.08072C60.4995 8.59779 60.4774 9.11487 60.5078 9.62918C60.5299 9.98312 60.3281 9.95823 60.0986 9.94993C59.8912 9.94164 59.6672 10.0246 59.6783 9.6513C59.7032 8.59226 59.7004 7.53322 59.6783 6.47419C59.67 6.1009 59.894 6.17832 60.1013 6.17279C60.3281 6.16449 60.5327 6.13961 60.5134 6.49354C60.4857 7.02168 60.5051 7.55258 60.5051 8.08072C60.5051 8.08072 60.4995 8.08072 60.4968 8.08072H60.4995Z" fill="#666666"/>
<path d="M76.8634 8.08628C76.8634 8.61718 76.8468 9.14532 76.8689 9.67345C76.8855 10.0329 76.6477 9.94443 76.4597 9.94443C76.2716 9.94443 76.0477 10.0302 76.0532 9.67069C76.0725 8.59782 76.0698 7.52772 76.0532 6.45486C76.0477 6.09816 76.2716 6.18112 76.4624 6.18112C76.6532 6.18112 76.8883 6.10369 76.8717 6.45763C76.8495 6.99959 76.8661 7.54155 76.8661 8.08351L76.8634 8.08628Z" fill="#666666"/>
<path d="M2.77506 4.26495C2.18056 4.26495 1.58606 4.25665 0.991566 4.26771C0.715054 4.27324 0.601685 4.17646 0.601685 3.88613C0.612745 2.71095 0.60998 1.53578 0.601685 0.360606C0.601685 0.0896247 0.706759 0.00390625 0.969445 0.00390625C2.19715 0.0122016 3.42487 0.0149667 4.64981 0.00390625C4.94291 0.00390625 5.02863 0.122806 5.02863 0.399317C5.02034 1.56066 5.01757 2.72478 5.02863 3.88613C5.02863 4.17646 4.9125 4.27324 4.63598 4.26771C4.0166 4.25665 3.39721 4.26495 2.77506 4.26495Z" fill="#666666"/>
<path d="M7.91542 12.2949C7.91542 12.823 7.90435 13.3539 7.91818 13.8821C7.92648 14.1613 7.82693 14.2802 7.53936 14.2775C6.45544 14.2692 5.36875 14.2692 4.28482 14.2775C3.98619 14.2775 3.87282 14.153 3.87558 13.8572C3.88388 12.7732 3.88388 11.6893 3.87558 10.6054C3.87282 10.3151 3.99172 10.221 4.26823 10.2238C5.36598 10.2321 6.46373 10.2321 7.56148 10.2238C7.8297 10.2238 7.92924 10.3234 7.92371 10.5916C7.91265 11.1584 7.92094 11.728 7.92094 12.2949H7.91542Z" fill="#666666"/>
<path d="M11.0812 7.26514C11.0812 7.75733 11.0702 8.24675 11.084 8.73895C11.0923 9.03481 10.99 9.16201 10.683 9.15648C9.70143 9.14542 8.71705 9.14818 7.73543 9.15648C7.46169 9.15648 7.34002 9.07076 7.34279 8.77766C7.35385 7.78222 7.35385 6.78677 7.34279 5.7941C7.34002 5.51482 7.43127 5.39316 7.71884 5.39592C8.71428 5.40422 9.70973 5.40422 10.7052 5.39592C10.99 5.39592 11.095 5.51482 11.0868 5.7941C11.0729 6.28352 11.084 6.77571 11.084 7.2679L11.0812 7.26514Z" fill="#666666"/>
</g>
<defs>
<clipPath id="clip0_191_843">
<rect width="91" height="32" fill="white" transform="translate(0.601685)"/>
</clipPath>
</defs>
</svg>
