<svg width="186" height="32" viewBox="0 0 186 32" fill="none" xmlns="http://www.w3.org/2000/svg">
<g clip-path="url(#clip0_191_845)">
<path d="M16.2593 0.0154096C18.3408 -0.0816671 20.3303 0.393631 22.2945 1.01517C22.6009 1.11225 22.6992 1.28623 22.5416 1.57998C22.5126 1.63546 22.4811 1.68967 22.4546 1.7464C22.0638 2.5911 21.425 2.87854 20.5383 2.60875C12.462 0.150309 3.96086 5.53492 2.81484 13.9062C2.14539 18.8004 3.74401 22.9268 7.3825 26.2703C7.72668 26.5867 7.90948 26.651 8.15659 26.1429C10.1032 22.1376 12.0762 18.1461 14.0468 14.1533C14.1943 13.8545 14.3531 13.6049 13.8841 13.4234C13.5601 13.2985 13.6484 13.0678 13.8841 12.9077C14.6645 12.3807 15.4474 11.8575 16.2392 11.3469C16.5455 11.149 16.7422 11.2208 16.7699 11.6255C16.8305 12.5018 16.9074 13.378 16.9767 14.2542C17.0107 14.6765 16.9225 14.9463 16.4258 14.6816C16.0223 14.466 16.0198 14.8581 15.9316 15.0358C14.812 17.2812 13.7076 19.5341 12.5982 21.7846C11.5165 23.9795 10.4347 26.1744 9.35051 28.3681C8.83865 29.4032 8.30536 29.5469 7.36611 28.8636C3.07456 25.7445 0.704371 21.5248 0.604772 16.2323C0.434573 7.1537 7.32576 0.771852 14.9406 0.0204526C15.3768 -0.0224125 15.8194 0.0154096 16.2593 0.0154096Z" fill="#666666"/>
<path d="M16.6905 20.8046C15.8068 22.5911 14.928 24.3637 14.0518 26.1388C13.5614 27.1323 13.0861 28.1333 12.5831 29.1192C12.4381 29.4041 12.3864 29.5869 12.7457 29.7395C13.1037 29.892 13.0193 30.1038 12.7495 30.2879C11.9716 30.8199 11.1912 31.3456 10.4171 31.8827C10.0679 32.1248 9.9166 31.9735 9.88508 31.623C9.80061 30.685 9.72497 29.747 9.65815 28.8078C9.63546 28.4838 9.78296 28.2871 10.1095 28.4737C10.5117 28.7044 10.5974 28.4396 10.7323 28.1673C12.3561 24.8667 13.99 21.5699 15.6101 18.2667C15.8496 17.7788 16.0816 17.3388 16.7233 17.3199C17.4129 17.2998 17.6399 17.7864 17.8857 18.2869C19.4427 21.4589 21.0136 24.6234 22.5568 27.803C22.761 28.224 22.911 28.2947 23.3334 28.0513C27.8443 25.4656 30.4061 21.5938 30.5952 16.4084C30.7931 10.9671 28.423 6.77008 23.757 3.89938C23.4922 3.73675 22.9892 3.66741 23.0749 3.28288C23.1959 2.74455 23.4481 2.20621 23.8276 1.79017C24.0243 1.57458 24.2928 1.83303 24.5046 1.94902C27.0425 3.34214 29.0596 5.28998 30.512 7.78371C35.2171 15.8575 32.1308 26.5296 23.0825 30.4581C22.1016 30.8842 21.6969 30.7342 21.2242 29.776C19.8449 26.9822 18.4732 24.1859 17.0915 21.3946C16.9944 21.1992 16.9603 20.9534 16.6931 20.8071L16.6905 20.8046Z" fill="#666666"/>
<path d="M143.667 8.53711C138.942 8.53711 135.232 12.1711 135.21 16.8215C135.183 21.7861 138.726 25.4255 143.587 25.431C148.539 25.4364 152.104 21.8954 152.104 16.9745C152.104 12.0536 148.462 8.53711 143.667 8.53711ZM143.647 23.0757C140.347 23.0593 138.04 20.6003 138.004 17.0619C137.969 13.4553 140.276 10.9743 143.672 10.9634C146.977 10.9579 149.269 13.3924 149.304 16.9526C149.34 20.5483 146.988 23.0921 143.647 23.0757Z" fill="#666666"/>
<path d="M178.977 9.07441C176.68 8.58438 174.347 8.93012 172.034 8.794C171.114 8.73955 171.005 9.13703 171.016 9.89657C171.054 12.2487 171.029 14.6008 171.029 16.9503C171.029 19.2997 171.038 21.8342 171.024 24.2735C171.024 24.8751 171.054 25.3407 171.873 25.3025C174.052 25.2018 176.239 25.4278 178.413 25.112C182.498 24.5158 185.104 21.5974 185.255 17.4131C185.408 13.177 182.966 9.92379 178.977 9.07441ZM176.617 23.0021C174.726 23.042 173.782 22.1046 173.784 20.1899V16.9394C173.781 15.3577 173.838 13.776 173.762 12.1997C173.712 11.2169 174.085 10.9147 175.007 11.0155C175.547 11.0726 176.1 11.01 176.644 11.0264C180.351 11.1543 182.437 13.3703 182.394 17.1354C182.353 20.9195 180.381 22.9177 176.617 23.0021Z" fill="#666666"/>
<path d="M52.7214 23.7176C51.0288 19.144 49.3608 14.5596 47.7638 9.95053C47.3898 8.87055 47.0376 8.09057 45.719 8.54329C44.4005 8.14511 43.7944 8.75601 43.5078 9.99145C43.303 10.8642 42.9154 11.696 42.6123 12.5469C41.2801 16.2914 39.9452 20.0358 38.6239 23.7858C38.5174 24.0912 38.1707 24.4349 38.5802 24.7458C39.2326 25.2421 41.1736 24.6503 41.433 23.8485C42.0554 21.9231 43.6716 21.6504 45.3259 21.5031C47.0949 21.3422 48.8176 21.6395 49.5901 23.4285C50.1061 24.623 50.7968 24.8549 51.9434 24.8358C52.9071 24.8221 53.0572 24.623 52.7214 23.7176ZM43.1392 19.0786C43.9773 16.6732 44.7526 14.4505 45.6535 11.8678C46.5517 14.4205 47.3434 16.6623 48.176 19.0213C46.508 18.7459 44.9465 18.6722 43.1392 19.0786Z" fill="#666666"/>
<path d="M84.9693 9.0282C84.5375 7.88424 83.3568 8.72515 82.5478 8.51492C81.9028 8.34564 81.5858 8.7033 81.3726 9.30668C79.6426 14.2102 77.8852 19.1055 76.1388 24.0035C76.0513 24.2465 75.8327 24.5004 76.0459 24.7516C76.4203 25.1912 78.7516 24.738 78.9074 24.1619C79.3173 22.6384 80.4488 21.9995 81.8345 21.6501C84.3926 21.0057 86.4697 21.9367 87.593 24.282C87.7843 24.6834 87.9838 24.8335 88.3883 24.8308C89.1098 24.8199 89.8286 24.8281 90.7059 24.8281C88.7709 19.4659 86.9207 14.2266 84.9693 9.0282ZM80.6784 19.1874C81.5612 16.6947 82.351 14.4641 83.2475 11.9304C84.1302 14.4068 84.9228 16.6319 85.7701 19.0099C84.0646 18.8734 82.474 18.6222 80.6784 19.1874Z" fill="#666666"/>
<path d="M167.564 14.7526C167.564 16.2976 167.593 17.8452 167.558 19.3902C167.471 23.0251 165.119 25.3233 161.423 25.4274C157.448 25.5397 154.922 23.5209 154.726 19.7545C154.546 16.3523 154.661 12.9365 154.669 9.52618C154.674 8.09082 155.784 8.91807 156.382 8.76193C157.024 8.59484 157.467 8.75371 157.453 9.63575C157.407 12.8626 157.402 16.0921 157.448 19.3217C157.486 21.9212 158.81 23.1155 161.393 23.0059C163.618 22.9128 164.782 21.7185 164.825 19.3135C164.882 16.2236 164.899 13.1283 164.82 10.0384C164.793 8.9345 165.132 8.65784 166.174 8.70167C167.093 8.74002 167.694 8.75098 167.602 9.98089C167.482 11.5642 167.572 13.1611 167.572 14.7526H167.561H167.564Z" fill="#666666"/>
<path d="M122.348 20.4815C120.993 23.6005 118.711 25.1053 115.657 25.3816C112.064 25.7072 109.147 24.435 107.306 21.2038C105.18 17.4692 106.257 12.5554 109.662 10.1204C113.083 7.67447 118.114 8.10949 120.845 11.0999C121.453 11.7647 122.397 12.6211 122.072 13.3461C121.792 13.9754 120.51 13.4692 119.679 13.5677C119.193 13.6252 118.978 13.2996 118.713 12.9686C116.162 9.80305 111.145 10.4706 109.583 14.2216C108.8 16.0958 108.808 18.0438 109.656 19.9152C111.314 23.5704 116.192 24.1696 118.716 21.0232C119.043 20.6156 119.346 20.4541 119.842 20.4733C120.611 20.5034 121.38 20.4815 122.35 20.4815H122.348Z" fill="#666666"/>
<path d="M101.98 12.8323C101.242 12.9654 100.644 12.7643 100.147 11.8785C99.5082 10.7426 97.846 10.4056 96.6308 10.9029C95.7448 11.267 95.2319 11.9219 95.1605 12.8486C95.0947 13.7345 95.6817 14.2318 96.4168 14.6013C97.7637 15.278 99.2422 15.5905 100.652 16.0959C102.888 16.9003 103.831 18.0498 103.818 19.971C103.801 22.2646 102.679 23.9385 100.57 24.6233C98.4906 25.2999 96.4443 25.2211 94.5132 24.0852C93.918 23.7347 93.3556 23.3162 93.0374 22.7102C92.6699 22.0064 91.9073 21.1857 92.6754 20.4629C93.2898 19.8841 95.1715 20.5797 95.6077 21.3515C96.5156 22.9684 99.3958 23.2238 100.578 21.7917C101.582 20.5716 101.058 18.9112 99.4232 18.3215C98.1861 17.8731 96.9024 17.5525 95.6543 17.1313C93.2788 16.3296 92.3023 15.0606 92.3599 12.9192C92.4148 10.8349 93.6875 9.2235 95.8984 8.66914C97.7527 8.20446 99.6015 8.36751 101.363 9.17731C102.276 9.59851 102.877 10.305 103.244 11.2235C103.872 12.797 103.848 12.8323 101.98 12.8323Z" fill="#666666"/>
<path d="M56.6984 17.9156C56.6984 15.8759 56.6764 13.8335 56.712 11.7938C56.7257 11.0993 56.5203 10.8013 55.7917 10.8396C54.9288 10.8861 54.0605 10.7986 53.2004 10.8642C52.206 10.9407 52.2498 10.3365 52.2553 9.66116C52.2608 9.03231 52.2224 8.52648 53.1428 8.53742C56.3696 8.58117 59.5992 8.58937 62.8288 8.53742C63.8861 8.52102 63.6889 9.15534 63.719 9.77599C63.7519 10.4349 63.7081 10.8669 62.8178 10.8751C61.7139 10.8861 60.2073 10.3174 59.6074 11.1786C59.0678 11.9524 59.4184 13.3605 59.4184 14.4869C59.4184 17.5711 59.391 20.6552 59.4814 23.7366C59.517 24.9423 58.9336 25.008 57.9885 25.049C56.9778 25.09 56.6299 24.8084 56.6737 23.7639C56.7559 21.8172 56.6984 19.865 56.6984 17.9156Z" fill="#666666"/>
<path d="M125.539 16.953C125.539 14.5934 125.627 12.2283 125.507 9.87145C125.439 8.53287 126.177 8.73818 127.004 8.67522C127.998 8.60131 128.32 8.88053 128.301 9.93715C128.233 13.8844 128.306 17.8372 128.246 21.7845C128.23 22.8082 128.51 23.1614 129.534 23.0738C130.52 22.9862 131.525 23.0957 132.516 23.0437C133.349 22.9999 133.82 23.0847 133.823 24.1632C133.823 25.239 133.363 25.3129 132.522 25.2938C130.623 25.25 128.723 25.2281 126.827 25.302C125.844 25.3403 125.474 25.1022 125.512 24.0373C125.594 21.6804 125.537 19.3154 125.539 16.9558V16.953Z" fill="#666666"/>
<path d="M66.4154 16.637C66.4154 14.3556 66.5009 12.0688 66.3796 9.79579C66.3106 8.52442 66.8623 8.47214 67.8802 8.4171C69.094 8.35381 69.1767 8.89592 69.1657 9.85908C69.1243 13.7365 69.1823 17.6139 69.1243 21.4913C69.1105 22.4709 69.4085 22.7571 70.3602 22.6828C71.4057 22.6003 72.4677 22.7214 73.516 22.6581C74.3739 22.6058 74.7132 22.8287 74.6939 23.7671C74.6773 24.6367 74.4759 24.9531 73.5546 24.9229C71.5436 24.8568 69.5243 24.8568 67.5133 24.9256C66.5754 24.9586 66.374 24.6146 66.3933 23.7561C66.4458 21.3839 66.4127 19.0118 66.4099 16.6397L66.4154 16.637Z" fill="#666666"/>
</g>
<defs>
<clipPath id="clip0_191_845">
<rect width="184.66" height="32" fill="white" transform="translate(0.601685)"/>
</clipPath>
</defs>
</svg>
