<svg width="40" height="40" viewBox="0 0 40 40" fill="none" xmlns="http://www.w3.org/2000/svg">
<g id="&#229;&#165;&#189;,&#232;&#174;&#164;&#229;&#143;&#175;,&#232;&#130;&#175;&#229;&#174;&#154;&#229;&#165;&#189;,&#232;&#174;&#164;&#229;&#143;&#175;,&#232;&#130;&#175;&#229;&#174;&#154;" clip-path="url(#clip0_656_7933)">
<g id="Group">
<g id="Group_2">
<path id="Vector" d="M8.5157 14.5314C10.3567 14.5314 11.849 16.0238 11.849 17.8647V33.698C11.849 35.539 10.3567 37.0313 8.5157 37.0313H6.71038C4.98137 37.0313 3.53937 35.7093 3.38959 33.9868L2.01278 18.1535C1.84344 16.2059 3.37867 14.5314 5.33358 14.5314H8.5157ZM21.0443 4.08295C21.3747 1.70052 23.4875 1.58289 25.408 2.62488C26.6715 3.31034 27.9583 4.50905 28.6952 5.7378C29.4705 7.03102 29.7045 8.60843 29.5982 10.3389C29.5512 11.1026 29.4445 11.7403 29.2198 12.6107L29.0282 13.3129L28.6707 14.5181L35.4798 14.5185C37.6083 14.5185 39.1692 16.4771 38.7453 18.5216L38.6877 18.7578L34.2123 34.604C33.8068 36.0398 32.4965 37.0313 31.0045 37.0313H16.849C15.008 37.0313 13.5157 35.539 13.5157 33.698V17.3435C13.5157 15.9985 14.3221 14.7907 15.5345 14.2193C17.3745 13.3519 18.9275 12.2567 19.5863 11.1581C20.0625 10.3638 20.4412 9.10525 20.6963 7.5854C20.876 6.51535 20.9725 5.47607 21.01 4.63153L21.0272 4.23015L21.0443 4.08295ZM8.5157 17.8647H5.33358L6.71038 33.6982H8.5157V17.8647ZM24.2707 5.83807L24.2225 6.36435C24.1838 6.74153 24.1362 7.13263 24.0783 7.53225L23.9837 8.13738C23.6655 10.0323 23.1798 11.647 22.4452 12.8722C21.3532 14.6934 19.3507 16.1054 16.9557 17.2344C16.884 17.2682 16.849 17.3206 16.849 17.3435V33.698L31.004 33.6963L35.4798 17.8518L26.4323 17.8518C25.316 17.8518 24.5153 16.7758 24.8358 15.7066L25.5693 13.2598L25.8013 12.4724L25.9643 11.8813L26.0877 11.3789C26.1928 10.9119 26.2463 10.5373 26.2712 10.1344C26.34 9.01428 26.1975 8.05443 25.8363 7.45188C25.5085 6.90528 24.9252 6.30832 24.328 5.87788L24.2707 5.83807Z" fill="#333333"/>
</g>
</g>
</g>
<defs>
<clipPath id="clip0_656_7933">
<rect width="40" height="40" fill="white"/>
</clipPath>
</defs>
</svg>
