<svg width="40" height="40" viewBox="0 0 40 40" fill="none" xmlns="http://www.w3.org/2000/svg">
<g id="&#231;&#189;&#145;&#231;&#187;&#156;,&#231;&#187;&#147;&#230;&#158;&#132;,&#232;&#138;&#130;&#231;&#130;&#185;,&#232;&#129;&#148;&#233;&#128;&#154;,&#228;&#191;&#161;&#230;&#129;&#175;,&#228;&#188;&#160;&#232;&#190;&#147;,&#228;&#191;&#161;&#229;&#143;&#183;&#231;&#189;&#145;&#231;&#187;&#156;,&#231;&#187;&#147;&#230;&#158;&#132;,&#232;&#138;&#130;&#231;&#130;&#185;,&#232;&#129;&#148;&#233;&#128;&#154;,&#228;&#191;&#161;&#230;&#129;&#175;,&#228;&#188;&#160;&#232;&#190;&#147;,&#228;&#191;&#161;&#229;&#143;&#183;" clip-path="url(#clip0_656_8002)">
<g id="Group">
<g id="Group_2">
<path id="Vector" fill-rule="evenodd" clip-rule="evenodd" d="M4.99984 5.00065C4.99984 4.08018 5.74604 3.33398 6.6665 3.33398H33.3332C34.2537 3.33398 34.9998 4.08018 34.9998 5.00065V15.0007C34.9998 15.9211 34.2537 16.6673 33.3332 16.6673H21.6665V20.0007H33.3332C34.2537 20.0007 34.9998 20.7468 34.9998 21.6673V26.6673H36.6665C37.587 26.6673 38.3332 27.4135 38.3332 28.334V35.0007C38.3332 35.9212 37.587 36.6673 36.6665 36.6673H29.9998C29.0793 36.6673 28.3332 35.9212 28.3332 35.0007V28.334C28.3332 27.4135 29.0793 26.6673 29.9998 26.6673H31.6665V23.334H21.6665V26.6673H23.3332C24.2537 26.6673 24.9998 27.4135 24.9998 28.334V35.0007C24.9998 35.9212 24.2537 36.6673 23.3332 36.6673H16.6665C15.746 36.6673 14.9998 35.9212 14.9998 35.0007V28.334C14.9998 27.4135 15.746 26.6673 16.6665 26.6673H18.3332V23.334H8.33317V26.6673H9.99984C10.9203 26.6673 11.6665 27.4135 11.6665 28.334V35.0007C11.6665 35.9212 10.9203 36.6673 9.99984 36.6673H3.33317C2.4127 36.6673 1.6665 35.9212 1.6665 35.0007V28.334C1.6665 27.4135 2.4127 26.6673 3.33317 26.6673H4.99984V21.6673C4.99984 20.7468 5.74604 20.0007 6.6665 20.0007H18.3332V16.6673H6.6665C5.74604 16.6673 4.99984 15.9211 4.99984 15.0007V5.00065ZM31.6665 13.334V6.66732H8.33317V13.334H31.6665ZM4.99984 30.0007V33.334H8.33317V30.0007H4.99984ZM18.3332 30.0007V33.334H21.6665V30.0007H18.3332ZM31.6665 30.0007V33.334H34.9998V30.0007H31.6665ZM9.99984 10.0007C9.99984 9.08018 10.746 8.33398 11.6665 8.33398H13.3332C14.2536 8.33398 14.9998 9.08018 14.9998 10.0007C14.9998 10.9211 14.2536 11.6673 13.3332 11.6673H11.6665C10.746 11.6673 9.99984 10.9211 9.99984 10.0007Z" fill="#333333"/>
</g>
</g>
</g>
<defs>
<clipPath id="clip0_656_8002">
<rect width="40" height="40" fill="white"/>
</clipPath>
</defs>
</svg>
