<svg width="302" height="223" viewBox="0 0 302 223" fill="none" xmlns="http://www.w3.org/2000/svg">
<g id="Latitude.sh Enterprise" clip-path="url(#clip0_322_4417)">
<g id="enterprise-graphic.svg fill" clip-path="url(#clip1_322_4417)">
<g id="enterprise-graphic.svg">
<g id="Clip path group">
<mask id="mask0_322_4417" style="mask-type:luminance" maskUnits="userSpaceOnUse" x="0" y="0" width="302" height="222">
<g id="a">
<path id="Vector" d="M301.166 0.69043H0.163086V221.958H301.166V0.69043Z" fill="white"/>
</g>
</mask>
<g mask="url(#mask0_322_4417)">
<g id="Group">
<path id="Vector_2" d="M299.725 140.274C299.446 133.737 295.351 130.437 291.401 130.36L116.929 116.185C116.824 116.178 116.712 116.178 116.602 116.185C116.469 116.192 116.337 116.219 116.197 116.254C116.183 116.254 116.169 116.254 116.148 116.261C116.134 116.261 116.12 116.268 116.106 116.275L121.519 116.713C125.518 116.797 129.67 120.132 129.949 126.754C130.282 134.663 126.075 142.015 117.646 147.265C115.306 148.72 112.937 150.071 110.986 151.136L112.526 150.329L110.883 151.192C108.716 152.375 107.099 153.197 106.668 153.406L1.43164 208.632L172.922 221.075L276.731 166.6C277.155 166.391 278.757 165.583 280.896 164.413L282.519 163.564L281 164.357C282.923 163.307 285.263 161.976 287.577 160.535C295.908 155.355 300.059 148.093 299.732 140.274H299.725Z" fill="#80B224"/>
<path id="Vector_3" d="M293.03 130.776L117.833 116.545C117.729 116.538 117.617 116.538 117.507 116.545C117.374 116.552 117.241 116.58 117.102 116.615C117.088 116.615 117.074 116.615 117.053 116.622C117.025 116.622 117.004 116.643 116.976 116.65C116.887 116.678 116.789 116.713 116.698 116.747C116.67 116.761 116.649 116.761 116.621 116.775C116.58 116.795 116.538 116.816 116.496 116.837C116.391 116.886 116.294 116.949 116.19 117.012C116.064 117.088 115.939 117.186 115.813 117.283C115.799 117.297 115.785 117.304 115.764 117.318C115.743 117.332 115.729 117.353 115.708 117.367C115.598 117.457 115.486 117.562 115.382 117.667C115.368 117.68 115.354 117.693 115.34 117.707C115.34 117.707 115.333 117.714 115.326 117.721C115.193 117.854 115.068 117.993 114.943 118.147C114.929 118.161 114.915 118.174 114.901 118.188C114.887 118.209 114.873 118.23 114.859 118.251C114.72 118.418 114.587 118.599 114.455 118.787C114.455 118.787 114.455 118.794 114.448 118.801C114.448 118.808 114.434 118.822 114.427 118.829C114.267 119.066 114.107 119.323 113.946 119.588C113.849 119.748 113.758 119.922 113.668 120.096C113.64 120.151 113.612 120.207 113.585 120.263C113.522 120.382 113.459 120.507 113.403 120.632C113.389 120.66 113.375 120.681 113.368 120.708C113.361 120.729 113.347 120.75 113.34 120.771C113.187 121.098 113.041 121.44 112.895 121.802C112.881 121.844 112.86 121.886 112.846 121.927C112.706 122.289 112.567 122.665 112.435 123.055C112.428 123.076 112.421 123.104 112.407 123.124C112.407 123.145 112.393 123.166 112.386 123.187C112.282 123.493 112.184 123.814 112.093 124.134C112.079 124.197 112.059 124.253 112.045 124.316C111.954 124.642 111.863 124.976 111.78 125.318C111.78 125.332 111.774 125.353 111.767 125.367C111.767 125.394 111.753 125.422 111.746 125.45C111.648 125.84 111.557 126.244 111.473 126.648C111.467 126.69 111.46 126.725 111.453 126.766C111.369 127.184 111.292 127.602 111.215 128.033C111.215 128.04 111.215 128.054 111.215 128.061C111.215 128.082 111.215 128.096 111.208 128.117C111.126 128.604 111.056 129.106 110.993 129.614C110.993 129.635 110.993 129.656 110.986 129.684C110.986 129.718 110.979 129.76 110.972 129.794C110.923 130.184 110.881 130.582 110.847 130.985C110.847 130.999 110.847 131.006 110.847 131.02C110.847 131.055 110.847 131.09 110.84 131.118C110.812 131.438 110.791 131.765 110.77 132.093C110.77 132.141 110.763 132.182 110.763 132.224C110.763 132.252 110.763 132.28 110.763 132.301C110.742 132.635 110.728 132.963 110.721 133.297C110.721 133.318 110.721 133.339 110.721 133.36C110.721 133.408 110.721 133.457 110.721 133.513C110.721 133.777 110.707 134.048 110.707 134.313C110.707 134.362 110.707 134.418 110.707 134.467C110.707 134.557 110.707 134.647 110.707 134.738C110.707 135.009 110.707 135.281 110.721 135.545C110.721 135.643 110.728 135.741 110.735 135.838C110.735 135.984 110.749 136.123 110.756 136.27C110.756 136.382 110.763 136.492 110.77 136.604C110.777 136.75 110.791 136.883 110.798 137.021C110.805 137.161 110.819 137.308 110.826 137.446C110.826 137.509 110.833 137.579 110.84 137.648C110.854 137.823 110.874 137.989 110.895 138.164C110.909 138.303 110.923 138.449 110.937 138.588C110.937 138.623 110.944 138.665 110.951 138.7C110.972 138.866 111 139.034 111.021 139.194C111.042 139.361 111.07 139.535 111.091 139.703C111.091 139.73 111.098 139.765 111.105 139.793C111.126 139.904 111.147 140.009 111.168 140.12C111.208 140.363 111.25 140.601 111.299 140.83C111.306 140.872 111.313 140.921 111.327 140.962C111.341 141.032 111.362 141.095 111.376 141.165C111.453 141.492 111.529 141.812 111.62 142.112C111.641 142.174 111.655 142.25 111.669 142.313C111.69 142.383 111.711 142.452 111.732 142.522C111.746 142.571 111.76 142.62 111.78 142.676C111.863 142.933 111.947 143.176 112.038 143.413C112.052 143.455 112.066 143.49 112.086 143.532C112.184 143.775 112.282 144.005 112.379 144.221C112.483 144.437 112.588 144.645 112.699 144.841C112.72 144.875 112.734 144.903 112.755 144.938C112.86 145.119 112.972 145.293 113.083 145.454C113.103 145.481 113.124 145.516 113.145 145.544C113.264 145.704 113.382 145.85 113.501 145.983C113.515 145.997 113.529 146.011 113.543 146.025C113.661 146.149 113.786 146.268 113.911 146.373C113.925 146.386 113.939 146.4 113.953 146.414C114.079 146.519 114.211 146.609 114.351 146.685C114.378 146.699 114.399 146.713 114.427 146.727C114.559 146.797 114.699 146.86 114.831 146.902C114.852 146.909 114.88 146.916 114.901 146.923C115.047 146.965 115.193 146.999 115.34 147.006" stroke="white" stroke-width="1.04723" stroke-linecap="round" stroke-linejoin="round"/>
<path id="Vector_4" d="M119.707 146.325L0.68457 208.889L173.819 221.436L283.416 163.925L277.613 166.961C276.673 167.456 282.677 164.503 288.473 160.896C296.805 155.717 300.957 148.455 300.629 140.636C300.302 132.824 294.506 129.635 290.048 131.035C287.916 131.703 285.632 133.416 283.248 135.791L283.123 135.915L118.46 122.812" stroke="white" stroke-width="1.04723" stroke-linecap="round" stroke-linejoin="round"/>
<path id="Vector_5" d="M128.064 206.048L163.124 208.589L256.407 159.643L133.497 151.045L40.5566 199.706L93.9724 203.577" stroke="white" stroke-width="1.04723" stroke-linecap="round" stroke-linejoin="round"/>
<path id="Vector_6" d="M144.715 166.098L168.072 153.635" stroke="white" stroke-width="1.04723" stroke-linecap="round" stroke-linejoin="round"/>
<path id="Vector_7" d="M70.4766 184.214L109.048 187.006L129.688 176.117" stroke="white" stroke-width="1.04723" stroke-linecap="round" stroke-linejoin="round"/>
<path id="Vector_8" d="M94.0234 203.542L114.301 192.764" stroke="white" stroke-width="1.04723" stroke-linecap="round" stroke-linejoin="round"/>
<path id="Vector_9" d="M114.546 192.756C114.546 192.756 132.483 193.989 128.074 206.041" stroke="white" stroke-width="1.04723" stroke-linecap="round" stroke-linejoin="round"/>
<path id="Vector_10" d="M191.813 193.606L146.659 189.951" stroke="white" stroke-width="1.04723" stroke-linecap="round" stroke-linejoin="round"/>
<path id="Vector_11" d="M204.918 132.407V160.682L170.582 178.749V150.474L204.918 132.407Z" fill="#80B224" stroke="white" stroke-width="1.04723" stroke-linecap="round" stroke-linejoin="round"/>
<path id="Vector_12" d="M170.581 150.474V178.749L102.718 173.833V145.559L170.581 150.474Z" fill="#80B224" stroke="white" stroke-width="1.04723" stroke-linecap="round" stroke-linejoin="round"/>
<path id="Vector_13" d="M204.918 104.013V132.287L170.582 150.355V122.081L204.918 104.013Z" fill="#80B224" stroke="white" stroke-width="1.04723" stroke-linecap="round" stroke-linejoin="round"/>
<path id="Vector_14" d="M170.581 122.081V150.356L102.718 145.44V117.166L170.581 122.081Z" fill="#80B224" stroke="white" stroke-width="1.04723" stroke-linecap="round" stroke-linejoin="round"/>
<path id="Vector_15" d="M204.916 104.013L170.581 122.081L102.718 117.165L137.046 99.0977L204.916 104.013Z" fill="#80B224" stroke="white" stroke-width="1.04723" stroke-linecap="round" stroke-linejoin="round"/>
<path id="Vector_16" d="M204.918 69.1182V97.3997L170.582 115.467V87.1858L204.918 69.1182Z" fill="#80B224" stroke="white" stroke-width="1.04723" stroke-linecap="round" stroke-linejoin="round"/>
<path id="Vector_17" d="M170.581 87.1851V115.467L102.718 110.544V82.2695L170.581 87.1851Z" fill="#80B224" stroke="white" stroke-width="1.04723" stroke-linecap="round" stroke-linejoin="round"/>
<path id="Vector_18" d="M204.916 69.1167L170.581 87.1843L102.718 82.2687L137.046 64.2012L204.916 69.1167Z" fill="#80B224" stroke="white" stroke-width="1.04723" stroke-linecap="round" stroke-linejoin="round"/>
<path id="Vector_19" d="M102.711 82.875C102.425 82.875 102.188 82.6383 102.188 82.3528V77.848C102.188 77.5626 102.425 77.3258 102.711 77.3258C102.996 77.3258 103.233 77.5626 103.233 77.848V82.3528C103.233 82.6383 102.996 82.875 102.711 82.875ZM102.711 72.5775C102.425 72.5775 102.188 72.3408 102.188 72.0553V67.5505C102.188 67.2651 102.425 67.0284 102.711 67.0284C102.996 67.0284 103.233 67.2651 103.233 67.5505V72.0553C103.233 72.3408 102.996 72.5775 102.711 72.5775ZM102.711 62.273C102.425 62.273 102.188 62.0363 102.188 61.7508V57.2461C102.188 56.9607 102.425 56.724 102.711 56.724C102.996 56.724 103.233 56.9607 103.233 57.2461V61.7508C103.233 62.0363 102.996 62.273 102.711 62.273ZM102.711 51.9755C102.425 51.9755 102.188 51.7388 102.188 51.4533V46.9486C102.188 46.6632 102.425 46.4265 102.711 46.4265C102.996 46.4265 103.233 46.6632 103.233 46.9486V51.4533C103.233 51.7388 102.996 51.9755 102.711 51.9755ZM102.711 41.678C102.425 41.678 102.188 41.4413 102.188 41.1558V36.6511C102.188 36.3657 102.425 36.129 102.711 36.129C102.996 36.129 103.233 36.3657 103.233 36.6511V41.1558C103.233 41.4413 102.996 41.678 102.711 41.678ZM102.711 31.3805C102.425 31.3805 102.188 31.1438 102.188 30.8583V26.3536C102.188 26.0682 102.425 25.8315 102.711 25.8315C102.996 25.8315 103.233 26.0682 103.233 26.3536V30.8583C103.233 31.1438 102.996 31.3805 102.711 31.3805ZM102.711 21.083C102.425 21.083 102.188 20.8463 102.188 20.5608V16.0561C102.188 15.7707 102.425 15.534 102.711 15.534C102.996 15.534 103.233 15.7707 103.233 16.0561V20.5608C103.233 20.8463 102.996 21.083 102.711 21.083ZM102.711 10.7786C102.425 10.7786 102.188 10.5419 102.188 10.2564V5.75167C102.188 5.46621 102.425 5.22949 102.711 5.22949C102.996 5.22949 103.233 5.46621 103.233 5.75167V10.2564C103.233 10.5419 102.996 10.7786 102.711 10.7786Z" fill="white"/>
<path id="Vector_20" d="M194.858 109.847C199.233 107.55 204.479 110.717 204.479 115.654V104.786L194.858 109.847Z" fill="white"/>
<path id="Vector_21" d="M236.917 93.6941C236.917 93.6941 236.882 93.6941 236.868 93.6941L232.361 93.2902C232.076 93.2624 231.859 93.0117 231.887 92.7263C231.915 92.4408 232.165 92.2249 232.451 92.2529L236.958 92.6566C237.245 92.6845 237.46 92.9351 237.432 93.2206C237.404 93.4922 237.182 93.6941 236.91 93.6941H236.917ZM226.607 92.768C226.607 92.768 226.572 92.768 226.558 92.768L222.051 92.3642C221.766 92.3364 221.549 92.0857 221.577 91.8003C221.605 91.5148 221.856 91.2989 222.142 91.3268L226.649 91.7306C226.935 91.7585 227.15 92.0092 227.122 92.2946C227.094 92.5661 226.872 92.768 226.6 92.768H226.607ZM216.304 91.842C216.304 91.842 216.269 91.842 216.255 91.842L211.748 91.4383C211.463 91.4103 211.247 91.1597 211.275 90.8742C211.302 90.5888 211.554 90.373 211.839 90.4008L216.346 90.8046C216.632 90.8325 216.847 91.0831 216.819 91.3686C216.791 91.6401 216.569 91.842 216.297 91.842H216.304ZM206.001 90.916C206.001 90.916 205.966 90.916 205.952 90.916L201.445 90.5122C201.16 90.4843 200.944 90.2337 200.972 89.9482C201 89.6627 201.258 89.4469 201.536 89.4748L206.043 89.8786C206.329 89.9064 206.544 90.1571 206.517 90.4425C206.489 90.7141 206.266 90.916 205.994 90.916H206.001ZM195.698 89.99C195.698 89.99 195.663 89.99 195.649 89.99L191.143 89.5862C190.857 89.5584 190.641 89.3077 190.669 89.0222C190.697 88.7368 190.955 88.5209 191.233 88.5488L195.74 88.9526C196.026 88.9805 196.242 89.2311 196.214 89.5165C196.186 89.7881 195.963 89.99 195.691 89.99H195.698ZM185.395 89.064C185.395 89.064 185.361 89.064 185.347 89.064L180.84 88.6602C180.554 88.6323 180.338 88.3817 180.366 88.0962C180.394 87.8108 180.652 87.5949 180.93 87.6228L185.437 88.0265C185.723 88.0545 185.939 88.3051 185.911 88.5906C185.884 88.8621 185.66 89.064 185.389 89.064H185.395ZM175.093 88.138C175.093 88.138 175.058 88.138 175.044 88.138L170.537 87.7342C170.251 87.7063 170.035 87.4556 170.063 87.1702C170.091 86.8847 170.342 86.6689 170.628 86.6968L175.135 87.1006C175.42 87.1284 175.637 87.3791 175.609 87.6645C175.581 87.936 175.357 88.138 175.086 88.138H175.093Z" fill="white"/>
<path id="Vector_22" d="M102.202 132.372C102.202 132.372 102.168 132.372 102.154 132.372L97.6465 131.969C97.3609 131.941 97.145 131.69 97.1728 131.405C97.2007 131.118 97.4515 130.903 97.7371 130.931L102.244 131.335C102.529 131.363 102.746 131.613 102.718 131.899C102.69 132.17 102.467 132.372 102.195 132.372H102.202ZM91.8996 131.446C91.8996 131.446 91.8647 131.446 91.8507 131.446L87.3437 131.043C87.0581 131.015 86.8422 130.764 86.87 130.479C86.8979 130.193 87.1487 129.977 87.4342 130.005L91.9413 130.409C92.227 130.437 92.4429 130.687 92.415 130.973C92.3871 131.244 92.1642 131.446 91.8926 131.446H91.8996ZM81.5968 130.52C81.5968 130.52 81.5619 130.52 81.5479 130.52L77.041 130.117C76.7553 130.089 76.5394 129.838 76.5672 129.553C76.5951 129.267 76.8459 129.051 77.1315 129.079L81.6385 129.483C81.9241 129.511 82.1401 129.761 82.1122 130.047C82.0844 130.318 81.8614 130.52 81.5898 130.52H81.5968ZM71.287 129.595C71.287 129.595 71.2521 129.595 71.2382 129.595L66.7312 129.19C66.4455 129.162 66.2296 128.912 66.2575 128.627C66.2854 128.341 66.5431 128.125 66.8217 128.153L71.3288 128.557C71.6143 128.585 71.8303 128.835 71.8024 129.121C71.7746 129.392 71.5516 129.595 71.28 129.595H71.287ZM60.9841 128.669C60.9841 128.669 60.9493 128.669 60.9354 128.669L56.4284 128.264C56.1428 128.236 55.9268 127.986 55.9547 127.701C55.9826 127.415 56.2403 127.199 56.5189 127.227L61.026 127.631C61.3115 127.659 61.5275 127.909 61.4996 128.195C61.4718 128.466 61.2488 128.669 60.9772 128.669H60.9841ZM50.6813 127.742C50.6813 127.742 50.6466 127.742 50.6326 127.742L46.1255 127.338C45.84 127.31 45.624 127.06 45.6519 126.774C45.6797 126.489 45.9374 126.274 46.2161 126.3L50.7232 126.705C51.0088 126.733 51.2247 126.983 51.1968 127.268C51.169 127.54 50.9461 127.742 50.6744 127.742H50.6813ZM40.3786 126.816C40.3786 126.816 40.3438 126.816 40.3298 126.816L35.8227 126.412C35.5372 126.384 35.3212 126.134 35.3491 125.848C35.3769 125.563 35.6277 125.347 35.9133 125.374L40.4204 125.779C40.706 125.806 40.922 126.057 40.894 126.342C40.8662 126.614 40.6433 126.816 40.3716 126.816H40.3786Z" fill="white"/>
<path id="Vector_23" d="M249.862 55.9646C249.862 55.9646 249.827 55.9646 249.813 55.9646L245.306 55.5607C245.021 55.5329 244.805 55.2822 244.833 54.9968C244.86 54.7113 245.112 54.4955 245.397 54.5234L249.904 54.9271C250.19 54.955 250.405 55.2057 250.378 55.4912C250.35 55.7627 250.127 55.9646 249.855 55.9646H249.862ZM239.552 55.0386C239.552 55.0386 239.517 55.0386 239.503 55.0386L234.997 54.6347C234.711 54.6069 234.495 54.3562 234.523 54.0708C234.551 53.7853 234.802 53.5695 235.087 53.5973L239.594 54.0012C239.88 54.029 240.096 54.2797 240.068 54.5651C240.04 54.8366 239.817 55.0386 239.545 55.0386H239.552ZM229.25 54.1125C229.25 54.1125 229.215 54.1125 229.201 54.1125L224.694 53.7088C224.408 53.6808 224.192 53.4302 224.22 53.1447C224.248 52.8593 224.499 52.6435 224.784 52.6713L229.291 53.0752C229.577 53.103 229.793 53.3536 229.765 53.6391C229.738 53.9106 229.514 54.1125 229.243 54.1125H229.25ZM218.947 53.1865C218.947 53.1865 218.912 53.1865 218.898 53.1865L214.391 52.7827C214.105 52.7548 213.889 52.5042 213.917 52.2188C213.945 51.9333 214.203 51.7175 214.482 51.7453L218.989 52.1491C219.274 52.177 219.49 52.4276 219.463 52.7131C219.435 52.9847 219.211 53.1865 218.94 53.1865H218.947ZM208.644 52.2606C208.644 52.2606 208.61 52.2606 208.596 52.2606L204.088 51.8567C203.802 51.8289 203.587 51.5782 203.615 51.2928C203.642 51.0073 203.9 50.7914 204.179 50.8193L208.686 51.2231C208.971 51.251 209.188 51.5017 209.16 51.7871C209.132 52.0586 208.909 52.2606 208.637 52.2606H208.644ZM198.341 51.3345C198.341 51.3345 198.307 51.3345 198.293 51.3345L193.786 50.9307C193.5 50.9028 193.284 50.6522 193.312 50.3667C193.34 50.0813 193.597 49.8655 193.876 49.8933L198.383 50.2972C198.668 50.325 198.885 50.5756 198.857 50.8611C198.829 51.1326 198.606 51.3345 198.335 51.3345H198.341ZM188.039 50.4085C188.039 50.4085 188.004 50.4085 187.99 50.4085L183.483 50.0047C183.197 49.9768 182.981 49.7261 183.009 49.4407C183.037 49.1552 183.287 48.9395 183.573 48.9673L188.08 49.3711C188.366 49.3989 188.582 49.6496 188.554 49.9351C188.526 50.2066 188.303 50.4085 188.032 50.4085H188.039Z" fill="white"/>
<path id="Vector_24" d="M244.22 166.008C234.036 165.423 228.254 162.75 231.27 159.943C231.395 159.825 231.542 159.707 231.695 159.588C232.329 159.115 233.179 158.676 234.203 158.266" stroke="white" stroke-width="1.04723" stroke-linecap="round" stroke-linejoin="round"/>
<path id="Vector_25" d="M203.523 11.5166L183.322 22.1483V49.5178L203.523 38.8861V11.5166Z" fill="#80B224" stroke="white" stroke-width="1.04723" stroke-linecap="round" stroke-linejoin="round"/>
<path id="Vector_26" d="M156.442 177.447L170.131 178.435V164.719C170.131 172.127 163.833 177.983 156.442 177.447Z" fill="white"/>
<path id="Vector_27" d="M103.313 82.8682V94.4955C103.313 88.2154 108.65 83.2511 114.919 83.7037" fill="white"/>
<path id="Vector_28" d="M256.811 65.0582C256.559 66.0538 255.55 66.8614 254.553 66.8614C253.557 66.8614 252.951 66.0538 253.196 65.0582C253.439 64.0625 254.456 63.2549 255.452 63.2549C256.448 63.2549 257.055 64.0625 256.811 65.0582Z" stroke="white" stroke-width="1.04723" stroke-miterlimit="10"/>
<path id="Vector_29" d="M135.495 49.9361L102.733 47.5618V19.2803L135.781 21.6753" fill="#80B224"/>
<path id="Vector_30" d="M135.495 49.9361L102.733 47.5618V19.2803L135.781 21.6753" stroke="white" stroke-width="1.04723" stroke-linecap="round" stroke-linejoin="round"/>
<path id="Vector_31" d="M136.066 21.6964L102.733 19.2805L137.063 1.21289L170.088 3.6219" fill="#80B224"/>
<path id="Vector_32" d="M136.066 21.6964L102.733 19.2805L137.063 1.21289L170.088 3.6219" stroke="white" stroke-width="1.04723" stroke-linecap="round" stroke-linejoin="round"/>
<path id="Vector_33" d="M170.148 3.62793V31.9095L135.819 49.9771V21.6955L170.148 3.62793Z" fill="#80B224" stroke="white" stroke-width="1.04723" stroke-linecap="round" stroke-linejoin="round"/>
<path id="Vector_34" d="M160.558 9.29629C164.702 7.11704 169.683 10.1179 169.683 14.8036V4.49219L160.558 9.29629Z" fill="white"/>
<path id="Vector_35" d="M268.224 57.0165L251.945 55.624L240.2 93.4302L256.487 94.9342L268.224 57.0165Z" fill="#80B224" stroke="white" stroke-width="1.04723" stroke-linecap="round" stroke-linejoin="round"/>
<path id="Vector_36" d="M264.27 56.6972L248.045 55.3047L236.279 93.1318L252.511 94.5243L264.27 56.6972Z" fill="#80B224" stroke="white" stroke-width="1.04723" stroke-linecap="round" stroke-linejoin="round"/>
<path id="Vector_37" d="M261.376 66.3184L256.318 65.7822" stroke="white" stroke-width="1.04723" stroke-miterlimit="10"/>
<path id="Vector_38" d="M135.811 84.8601C135.526 84.8601 135.289 84.6234 135.289 84.338V79.8333C135.289 79.5478 135.526 79.3111 135.811 79.3111C136.097 79.3111 136.335 79.5478 136.335 79.8333V84.338C136.335 84.6234 136.097 84.8601 135.811 84.8601ZM135.811 74.5627C135.526 74.5627 135.289 74.3259 135.289 74.0405V69.5358C135.289 69.2503 135.526 69.0136 135.811 69.0136C136.097 69.0136 136.335 69.2503 136.335 69.5358V74.0405C136.335 74.3259 136.097 74.5627 135.811 74.5627ZM135.811 64.2652C135.526 64.2652 135.289 64.0285 135.289 63.743V59.2383C135.289 58.9528 135.526 58.7161 135.811 58.7161C136.097 58.7161 136.335 58.9528 136.335 59.2383V63.743C136.335 64.0285 136.097 64.2652 135.811 64.2652ZM135.811 53.9677C135.526 53.9677 135.289 53.731 135.289 53.4456V48.9408C135.289 48.6553 135.526 48.4186 135.811 48.4186C136.097 48.4186 136.335 48.6553 136.335 48.9408V53.4456C136.335 53.731 136.097 53.9677 135.811 53.9677ZM135.811 43.6633C135.526 43.6633 135.289 43.4265 135.289 43.1411V38.6363C135.289 38.3509 135.526 38.1141 135.811 38.1141C136.097 38.1141 136.335 38.3509 136.335 38.6363V43.1411C136.335 43.4265 136.097 43.6633 135.811 43.6633ZM135.811 33.3658C135.526 33.3658 135.289 33.129 135.289 32.8436V28.3389C135.289 28.0534 135.526 27.8166 135.811 27.8166C136.097 27.8166 136.335 28.0534 136.335 28.3389V32.8436C136.335 33.129 136.097 33.3658 135.811 33.3658ZM135.811 23.0683C135.526 23.0683 135.289 22.8315 135.289 22.5461V18.0414C135.289 17.7559 135.526 17.5191 135.811 17.5191C136.097 17.5191 136.335 17.7559 136.335 18.0414V22.5461C136.335 22.8315 136.097 23.0683 135.811 23.0683ZM135.811 12.7708C135.526 12.7708 135.289 12.534 135.289 12.2486V7.74387C135.289 7.45841 135.526 7.22168 135.811 7.22168C136.097 7.22168 136.335 7.45841 136.335 7.74387V12.2486C136.335 12.534 136.097 12.7708 135.811 12.7708Z" fill="white"/>
<path id="Vector_39" d="M256.321 65.3649C256.07 66.3605 255.06 67.1681 254.064 67.1681C253.068 67.1681 252.462 66.3605 252.705 65.3649C252.949 64.3691 253.966 63.5615 254.963 63.5615C255.958 63.5615 256.564 64.3691 256.321 65.3649Z" stroke="white" stroke-width="1.04723" stroke-miterlimit="10"/>
<path id="Vector_40" d="M162.985 132.287V141.088L141.857 139.563V130.755L162.985 132.287Z" fill="#80B224" stroke="white" stroke-width="1.04723" stroke-linecap="round" stroke-linejoin="round"/>
<path id="Vector_41" d="M119.346 156.983L110.715 156.364V165.164L119.346 165.791V156.983Z" fill="#80B224" stroke="white" stroke-width="1.04723" stroke-linecap="round" stroke-linejoin="round"/>
<path id="Vector_42" d="M64.7198 66.8408L68.9134 67.1611L51.0594 127.546L45.2637 127.052" fill="#80B224"/>
<path id="Vector_43" d="M64.7198 66.8408L68.9134 67.1611L51.0594 127.546L45.2637 127.052" stroke="white" stroke-width="1.04723" stroke-linecap="round" stroke-linejoin="round"/>
<path id="Vector_44" d="M49.9781 65.9697L64.8994 66.854L46.8155 127.184L31.3369 125.945L49.9781 65.9697Z" fill="#80B224" stroke="white" stroke-width="1.04723" stroke-linecap="round" stroke-linejoin="round"/>
<path id="Vector_45" d="M43.6357 95.993L46.875 85.5771L55.9657 86.1271L54.5586 91.1611L50.1769 92.6788L46.7636 96.2576L43.6357 95.993Z" fill="#80B224" stroke="white" stroke-width="1.04723" stroke-linecap="round" stroke-linejoin="round"/>
</g>
</g>
</g>
</g>
</g>
</g>
<defs>
<clipPath id="clip0_322_4417">
<rect width="302" height="223" fill="white"/>
</clipPath>
<clipPath id="clip1_322_4417">
<rect width="302" height="222.25" fill="white"/>
</clipPath>
</defs>
</svg>
