<svg width="78" height="78" viewBox="0 0 78 78" fill="none" xmlns="http://www.w3.org/2000/svg">
<g filter="url(#filter0_d_2362_10605)">
<circle cx="39" cy="37" r="34" fill="url(#paint0_linear_2362_10605)"/>
<circle cx="39" cy="37" r="33" stroke="white" stroke-width="2"/>
</g>
<g clip-path="url(#clip0_2362_10605)">
<path d="M51.5 26.375C51.6857 26.3787 51.862 26.4127 52.038 26.4964C52.2195 26.5832 52.3792 26.714 52.5 26.875C52.5792 26.993 52.5606 26.9576 52.5 26.875C52.6619 27.0909 52.75 27.3552 52.75 27.625C52.7495 27.5584 52.7467 27.5295 52.75 27.625V46.375C52.75 47.0654 52.1904 47.625 51.5 47.625H26.5C25.8096 47.625 25.25 47.0654 25.25 46.375V27.625C25.25 27.4012 25.3107 27.179 25.4249 26.9871C25.6576 26.595 26.0607 26.3839 26.5 26.375H51.5ZM50.25 30.125L39.75 38C39.35 38.3 38.815 38.33 38.388 38.09L38.25 38L27.75 30.125V45.125H50.25V30.125ZM30.25 28.875L39 35.4375L47.75 28.875H30.25Z" fill="#80B224"/>
</g>
<defs>
<filter id="filter0_d_2362_10605" x="0.4" y="0.4" width="77.2" height="77.2" filterUnits="userSpaceOnUse" color-interpolation-filters="sRGB">
<feFlood flood-opacity="0" result="BackgroundImageFix"/>
<feColorMatrix in="SourceAlpha" type="matrix" values="0 0 0 0 0 0 0 0 0 0 0 0 0 0 0 0 0 0 127 0" result="hardAlpha"/>
<feOffset dy="2"/>
<feGaussianBlur stdDeviation="2.3"/>
<feComposite in2="hardAlpha" operator="out"/>
<feColorMatrix type="matrix" values="0 0 0 0 0 0 0 0 0 0 0 0 0 0 0 0 0 0 0.05 0"/>
<feBlend mode="normal" in2="BackgroundImageFix" result="effect1_dropShadow_2362_10605"/>
<feBlend mode="normal" in="SourceGraphic" in2="effect1_dropShadow_2362_10605" result="shape"/>
</filter>
<linearGradient id="paint0_linear_2362_10605" x1="39" y1="3" x2="39" y2="71" gradientUnits="userSpaceOnUse">
<stop stop-color="#F9FAF4"/>
<stop offset="1" stop-color="white"/>
</linearGradient>
<clipPath id="clip0_2362_10605">
<rect width="30" height="30" fill="white" transform="translate(24 22)"/>
</clipPath>
</defs>
</svg>
