<svg width="40" height="40" viewBox="0 0 40 40" fill="none" xmlns="http://www.w3.org/2000/svg">
<g id="&#230;&#150;&#135;&#230;&#161;&#163;,&#232;&#167;&#132;&#229;&#136;&#153;,&#232;&#175;&#166;&#230;&#131;&#133;,&#230;&#150;&#135;&#231;&#171;&#160;,&#231;&#159;&#173;&#230;&#150;&#135;,&#229;&#144;&#136;&#229;&#144;&#140;&#230;&#150;&#135;&#230;&#161;&#163;,&#232;&#167;&#132;&#229;&#136;&#153;,&#232;&#175;&#166;&#230;&#131;&#133;,&#230;&#150;&#135;&#231;&#171;&#160;,&#231;&#159;&#173;&#230;&#150;&#135;,&#229;&#144;&#136;&#229;&#144;&#140;" clip-path="url(#clip0_656_7423)">
<g id="Group">
<g id="Group_2">
<path id="Vector" fill-rule="evenodd" clip-rule="evenodd" d="M5 4.99935C5 3.1584 6.49238 1.66602 8.33333 1.66602H31.6667C33.5077 1.66602 35 3.1584 35 4.99935V34.9994C35 36.8404 33.5077 38.3327 31.6667 38.3327H8.33333C6.49238 38.3327 5 36.8404 5 34.9994V4.99935ZM8.33333 4.99935H11.6667V16.666C11.6667 17.3223 12.0519 17.9175 12.6506 18.1864C13.2493 18.4553 13.9501 18.3477 14.4406 17.9117L17.0833 15.5626L19.7261 17.9117C20.2166 18.3477 20.9174 18.4553 21.5161 18.1864C22.1148 17.9175 22.5 17.3223 22.5 16.666V4.99935H31.6667V34.9994H8.33333V4.99935ZM15 4.99935H19.1667V12.9546L18.1906 12.087C17.5591 11.5257 16.6075 11.5257 15.9761 12.087L15 12.9546V4.99935ZM13.3333 21.666C12.4129 21.666 11.6667 22.4122 11.6667 23.3327C11.6667 24.2532 12.4129 24.9994 13.3333 24.9994H21.6667C22.5872 24.9994 23.3333 24.2532 23.3333 23.3327C23.3333 22.4122 22.5872 21.666 21.6667 21.666H13.3333ZM11.6667 28.3327C11.6667 27.4122 12.4129 26.666 13.3333 26.666H26.6667C27.5872 26.666 28.3333 27.4122 28.3333 28.3327C28.3333 29.2532 27.5872 29.9994 26.6667 29.9994H13.3333C12.4129 29.9994 11.6667 29.2532 11.6667 28.3327Z" fill="#333333"/>
</g>
</g>
</g>
<defs>
<clipPath id="clip0_656_7423">
<rect width="40" height="40" fill="white"/>
</clipPath>
</defs>
</svg>
