<svg width="40" height="40" viewBox="0 0 40 40" fill="none" xmlns="http://www.w3.org/2000/svg">
<g id="&#229;&#130;&#168;&#229;&#173;&#152;,&#229;&#173;&#152;&#229;&#130;&#168;,&#231;&#167;&#187;&#229;&#138;&#168;&#231;&#161;&#172;&#231;&#155;&#152;,store&#229;&#130;&#168;&#229;&#173;&#152;,&#229;&#173;&#152;&#229;&#130;&#168;,&#231;&#167;&#187;&#229;&#138;&#168;&#231;&#161;&#172;&#231;&#155;&#152;,store" clip-path="url(#clip0_659_9774)">
<g id="Group">
<g id="Group_2">
<path id="Vector" fill-rule="evenodd" clip-rule="evenodd" d="M5.9007 3.8223C6.06269 3.05062 6.7433 2.49805 7.53182 2.49805H32.517C33.3068 2.49805 33.9883 3.05263 34.1488 3.82614L38.294 23.8054C38.3197 23.9215 38.3332 24.0424 38.3332 24.1664V34.9997C38.3332 35.9202 37.587 36.6664 36.6665 36.6664H3.33317C2.4127 36.6664 1.6665 35.9202 1.6665 34.9997V24.1664C1.6665 24.041 1.68035 23.9189 1.70659 23.8014L5.9007 3.8223ZM31.1605 5.83138L34.6188 22.4997H5.38584L8.88494 5.83138H31.1605ZM4.99984 33.333V25.833H34.9998V33.333H4.99984ZM31.6665 29.583C31.6665 30.7335 30.7337 31.6664 29.5832 31.6664C28.4327 31.6664 27.4998 30.7335 27.4998 29.583C27.4998 28.4324 28.4327 27.4997 29.5832 27.4997C30.7337 27.4997 31.6665 28.4324 31.6665 29.583Z" fill="#333333"/>
</g>
</g>
</g>
<defs>
<clipPath id="clip0_659_9774">
<rect width="40" height="40" fill="white"/>
</clipPath>
</defs>
</svg>
