<svg width="40" height="40" viewBox="0 0 40 40" fill="none" xmlns="http://www.w3.org/2000/svg">
<g id="&#231;&#177;&#179;&#233;&#165;&#173;,&#229;&#141;&#136;&#233;&#165;&#173;,&#229;&#141;&#136;&#233;&#164;&#144;,&#233;&#165;&#173;,&#232;&#144;&#165;&#229;&#133;&#187;&#231;&#167;&#145;&#231;&#177;&#179;&#233;&#165;&#173;,&#229;&#141;&#136;&#233;&#165;&#173;,&#229;&#141;&#136;&#233;&#164;&#144;,&#233;&#165;&#173;,&#232;&#144;&#165;&#229;&#133;&#187;&#231;&#167;&#145;" clip-path="url(#clip0_656_7325)">
<g id="Group">
<g id="Group_2">
<path id="Vector" d="M20.031 4.80961C20.1367 5.72402 19.481 6.55088 18.5667 6.65647C14.0935 7.17302 10.2968 10.0987 8.5504 14.1676L31.4497 14.1678C30.913 12.9184 30.1772 11.7627 29.2702 10.7454C28.6577 10.0584 28.718 9.00482 29.405 8.39223C30.092 7.77967 31.1457 7.84003 31.7582 8.52707C33.2162 10.1623 34.3243 12.081 35.0095 14.167L36.6665 14.1675C37.587 14.1675 38.3332 14.9137 38.3332 15.8342C38.3332 23.4235 33.5897 30.1282 26.5567 32.7967L26.9098 32.6556L26.8755 32.779C26.763 33.2012 26.6818 33.8408 26.6425 34.6797L26.6283 35.0513C26.601 35.9517 25.8632 36.6675 24.9623 36.6675H15.0465C14.2106 36.6675 13.5041 36.0483 13.3943 35.2197C13.2526 34.1503 13.0798 33.3432 12.8908 32.8198C12.8553 32.7213 12.8214 32.6392 12.791 32.574L12.7648 32.521L12.5387 32.4258C6.1471 29.604 1.86902 23.3818 1.6735 16.3386L1.6665 15.8342C1.6665 14.9137 2.4127 14.1675 3.33317 14.1675L4.99034 14.1679C6.90239 8.34212 12.0315 4.05565 18.1842 3.34514C19.0987 3.23955 19.9255 3.89522 20.031 4.80961ZM34.9032 17.4992L6.2776 17.501C6.25812 17.5013 6.23859 17.5013 6.219 17.5009L5.09484 17.4992L5.12725 17.7694C5.80057 22.8507 9.0929 27.232 13.8154 29.3455L14.2622 29.537C15.4131 30.0083 16.0285 31.1695 16.4314 33.1453L16.4665 33.3327H23.3965L23.432 33.0232C23.648 31.3168 24.1347 30.2632 25.1615 29.7712L25.374 29.6802C30.5367 27.7213 34.1855 23.1113 34.8798 17.7131L34.9032 17.4992ZM13.6312 21.2033C13.876 22.012 14.1857 22.6505 14.5491 23.1258C14.9378 23.6343 15.4263 24.1145 16.0186 24.5658C16.7508 25.1237 16.8921 26.1695 16.3342 26.9017C15.7764 27.6338 14.7306 27.775 13.9984 27.2172C13.1763 26.5908 12.4757 25.902 11.9011 25.1505C11.2783 24.336 10.7953 23.3402 10.4408 22.169C10.1741 21.288 10.6721 20.3577 11.5531 20.091C12.4341 19.8243 13.3645 20.3223 13.6312 21.2033ZM23.8707 3.72268C25.1922 4.0582 26.46 4.56455 27.6463 5.22688C28.45 5.67557 28.7378 6.69083 28.2892 7.49455C27.8405 8.29825 26.8252 8.58607 26.0215 8.13738C25.0872 7.61577 24.0897 7.21738 23.0503 6.9535C22.1582 6.72698 21.6185 5.8201 21.8452 4.92794C22.0717 4.03577 22.9785 3.49616 23.8707 3.72268Z" fill="#333333"/>
</g>
</g>
</g>
<defs>
<clipPath id="clip0_656_7325">
<rect width="40" height="40" fill="white"/>
</clipPath>
</defs>
</svg>
