<svg width="40" height="40" viewBox="0 0 40 40" fill="none" xmlns="http://www.w3.org/2000/svg">
<g id="&#230;&#151;&#165;&#229;&#142;&#134;,&#230;&#151;&#165;&#230;&#156;&#159;,&#230;&#151;&#182;&#233;&#151;&#180;,&#230;&#156;&#159;&#233;&#153;&#144;,&#233;&#149;&#191;&#230;&#156;&#159;&#230;&#151;&#165;&#229;&#142;&#134;,&#230;&#151;&#165;&#230;&#156;&#159;,&#230;&#151;&#182;&#233;&#151;&#180;,&#230;&#156;&#159;&#233;&#153;&#144;,&#233;&#149;&#191;&#230;&#156;&#159;" clip-path="url(#clip0_656_7414)">
<g id="Group">
<g id="Group_2">
<path id="Vector" fill-rule="evenodd" clip-rule="evenodd" d="M1.6665 4.99935C1.6665 3.1584 3.15889 1.66602 4.99984 1.66602H34.9998C36.8408 1.66602 38.3332 3.1584 38.3332 4.99935V34.9994C38.3332 36.8404 36.8408 38.3327 34.9998 38.3327H4.99984C3.15889 38.3327 1.6665 36.8404 1.6665 34.9994V4.99935ZM4.99984 13.3327V34.9994H34.9998V13.3327H4.99984ZM34.9998 9.99935H4.99984V4.99935H34.9998V9.99935ZM8.33317 18.3327C8.33317 17.4122 9.07937 16.666 9.99984 16.666H13.3332C14.2536 16.666 14.9998 17.4122 14.9998 18.3327C14.9998 19.2532 14.2536 19.9993 13.3332 19.9993H9.99984C9.07937 19.9993 8.33317 19.2532 8.33317 18.3327ZM16.6665 18.3327C16.6665 17.4122 17.4127 16.666 18.3332 16.666H21.6665C22.587 16.666 23.3332 17.4122 23.3332 18.3327C23.3332 19.2532 22.587 19.9993 21.6665 19.9993H18.3332C17.4127 19.9993 16.6665 19.2532 16.6665 18.3327ZM24.9998 18.3327C24.9998 17.4122 25.746 16.666 26.6665 16.666H29.9998C30.9203 16.666 31.6665 17.4122 31.6665 18.3327C31.6665 19.2532 30.9203 19.9993 29.9998 19.9993H26.6665C25.746 19.9993 24.9998 19.2532 24.9998 18.3327ZM8.33317 24.166C8.33317 23.2455 9.07937 22.4993 9.99984 22.4993H13.3332C14.2536 22.4993 14.9998 23.2455 14.9998 24.166C14.9998 25.0865 14.2536 25.8327 13.3332 25.8327H9.99984C9.07937 25.8327 8.33317 25.0865 8.33317 24.166ZM16.6665 24.166C16.6665 23.2455 17.4127 22.4993 18.3332 22.4993H21.6665C22.587 22.4993 23.3332 23.2455 23.3332 24.166C23.3332 25.0865 22.587 25.8327 21.6665 25.8327H18.3332C17.4127 25.8327 16.6665 25.0865 16.6665 24.166ZM24.9998 24.166C24.9998 23.2455 25.746 22.4993 26.6665 22.4993H29.9998C30.9203 22.4993 31.6665 23.2455 31.6665 24.166C31.6665 25.0865 30.9203 25.8327 29.9998 25.8327H26.6665C25.746 25.8327 24.9998 25.0865 24.9998 24.166ZM8.33317 29.9994C8.33317 29.0789 9.07937 28.3327 9.99984 28.3327H13.3332C14.2536 28.3327 14.9998 29.0789 14.9998 29.9994C14.9998 30.9199 14.2536 31.666 13.3332 31.666H9.99984C9.07937 31.666 8.33317 30.9199 8.33317 29.9994ZM16.6665 29.9994C16.6665 29.0789 17.4127 28.3327 18.3332 28.3327H21.6665C22.587 28.3327 23.3332 29.0789 23.3332 29.9994C23.3332 30.9199 22.587 31.666 21.6665 31.666H18.3332C17.4127 31.666 16.6665 30.9199 16.6665 29.9994ZM24.9998 29.9994C24.9998 29.0789 25.746 28.3327 26.6665 28.3327H29.9998C30.9203 28.3327 31.6665 29.0789 31.6665 29.9994C31.6665 30.9199 30.9203 31.666 29.9998 31.666H26.6665C25.746 31.666 24.9998 30.9199 24.9998 29.9994Z" fill="#333333"/>
</g>
</g>
</g>
<defs>
<clipPath id="clip0_656_7414">
<rect width="40" height="40" fill="white"/>
</clipPath>
</defs>
</svg>
