<svg width="40" height="40" viewBox="0 0 40 40" fill="none" xmlns="http://www.w3.org/2000/svg">
<g id="&#232;&#189;&#174;&#230;&#164;&#133;,&#230;&#174;&#139;&#231;&#150;&#190;,&#232;&#191;&#144;&#229;&#138;&#168;&#232;&#189;&#174;&#230;&#164;&#133;,&#230;&#174;&#139;&#231;&#150;&#190;,&#232;&#191;&#144;&#229;&#138;&#168;" clip-path="url(#clip0_656_7317)">
<g id="Group">
<g id="Group_2">
<path id="Vector" fill-rule="evenodd" clip-rule="evenodd" d="M15.0002 4.99935C14.0797 4.99935 13.3335 5.74555 13.3335 6.66602C13.3335 7.58647 14.0797 8.33268 15.0002 8.33268C15.9206 8.33268 16.6668 7.58647 16.6668 6.66602C16.6668 5.74555 15.9206 4.99935 15.0002 4.99935ZM10.0002 6.66602C10.0002 3.90458 12.2388 1.66602 15.0002 1.66602C17.7615 1.66602 20.0002 3.90458 20.0002 6.66602C20.0002 8.78377 18.6835 10.594 16.8241 11.3229L18.1472 23.2303L29.056 22.503C29.8472 22.4504 30.5662 22.9624 30.7748 23.7275L32.9398 31.666H34.1668C35.0873 31.666 35.8335 32.4122 35.8335 33.3327C35.8335 34.2532 35.0873 34.9994 34.1668 34.9994H31.6668C30.9152 34.9994 30.2567 34.4963 30.0588 33.7712L27.9175 25.9197L16.7777 26.6623C15.8878 26.7217 15.1088 26.0699 15.0104 25.1834L13.4824 11.4315C11.463 10.7889 10.0002 8.89825 10.0002 6.66602ZM19.1668 16.666C19.1668 15.7455 19.913 14.9993 20.8335 14.9993H27.5002C28.4207 14.9993 29.1668 15.7455 29.1668 16.666C29.1668 17.5865 28.4207 18.3327 27.5002 18.3327H20.8335C19.913 18.3327 19.1668 17.5865 19.1668 16.666ZM12.3482 16.8775C12.7322 17.7141 12.3653 18.7035 11.5287 19.0875C8.65621 20.4058 6.66683 23.3055 6.66683 26.666C6.66683 31.2685 10.3978 34.9994 15.0002 34.9994C18.8809 34.9994 22.1458 32.3452 23.071 28.7507C23.3005 27.8592 24.2092 27.3227 25.1005 27.552C25.992 27.7815 26.5285 28.6902 26.2992 29.5815C25.0042 34.613 20.4387 38.3327 15.0002 38.3327C8.55688 38.3327 3.3335 33.1094 3.3335 26.666C3.3335 21.955 6.12568 17.8996 10.1383 16.058C10.9749 15.6741 11.9643 16.041 12.3482 16.8775Z" fill="#333333"/>
</g>
</g>
</g>
<defs>
<clipPath id="clip0_656_7317">
<rect width="40" height="40" fill="white"/>
</clipPath>
</defs>
</svg>
