<svg width="40" height="40" viewBox="0 0 40 40" fill="none" xmlns="http://www.w3.org/2000/svg">
<g id="&#229;&#130;&#168;&#229;&#173;&#152;,&#228;&#186;&#145;&#231;&#155;&#152;,cloud,store&#229;&#130;&#168;&#229;&#173;&#152;,&#228;&#186;&#145;&#231;&#155;&#152;,cloud,store" clip-path="url(#clip0_659_9766)">
<g id="Group">
<g id="Group_2">
<path id="Vector" fill-rule="evenodd" clip-rule="evenodd" d="M7.53182 2.49805C6.7433 2.49805 6.06269 3.05062 5.9007 3.8223L1.70206 23.823C1.67842 23.9357 1.6665 24.0505 1.6665 24.1655V34.9989C1.6665 35.9194 2.4127 36.6655 3.33317 36.6655H36.6665C37.587 36.6655 38.3332 35.9194 38.3332 34.9989V24.1655C38.3332 24.0517 38.3215 23.9384 38.2983 23.8269L34.1488 3.82614C33.9883 3.05263 33.3068 2.49805 32.517 2.49805H7.53182ZM5.38604 22.4989L8.88494 5.83138H31.1605L34.6185 22.4989H5.38604ZM19.9997 7.49886C18.3653 7.49886 16.8754 8.04511 15.7911 9.13776C15.0384 9.89636 14.5495 10.8494 14.3214 11.9078C12.4423 12.4591 10.8332 14.0151 10.8332 16.2595C10.8332 17.8489 11.545 19.1007 12.7251 19.8802C13.8101 20.597 15.1571 20.832 16.4143 20.832L23.3332 20.8322L23.3362 20.832H23.573C24.8302 20.832 26.1785 20.597 27.2655 19.882C28.4472 19.1049 29.1665 17.8538 29.1665 16.2595C29.1665 14.7389 28.5642 13.5004 27.4977 12.6926C26.9412 12.2711 26.312 12.0069 25.6737 11.8557C25.438 10.8269 24.9508 9.89836 24.2157 9.15516C23.135 8.06255 21.6452 7.49886 19.9997 7.49886ZM22.4653 17.4989H17.5043L17.4805 17.4987H16.4143C15.5025 17.4987 14.8923 17.317 14.5624 17.099C14.3275 16.9438 14.1665 16.7427 14.1665 16.2595C14.1665 15.7612 14.7037 15.0204 15.8382 15.0204C16.7587 15.0204 17.5048 14.2742 17.5048 13.3538C17.5048 12.457 17.7892 11.8565 18.1572 11.4857C18.5238 11.1161 19.1147 10.8322 19.9997 10.8322C20.8735 10.8322 21.4702 11.1194 21.8458 11.4993C22.224 11.8815 22.5057 12.4866 22.5057 13.3538C22.5057 14.2742 23.2518 15.0204 24.1723 15.0204C24.8212 15.0204 25.255 15.1755 25.4852 15.3498C25.6453 15.4712 25.8332 15.6857 25.8332 16.2595C25.8332 16.7378 25.6733 16.9396 25.4338 17.0972C25.0995 17.317 24.4845 17.4987 23.573 17.4987H22.4892L22.4653 17.4989ZM4.99984 25.8322H34.9998V33.3322H4.99984V25.8322ZM29.5832 31.6664C30.7337 31.6664 31.6665 30.7335 31.6665 29.583C31.6665 28.4324 30.7337 27.4997 29.5832 27.4997C28.4327 27.4997 27.4998 28.4324 27.4998 29.583C27.4998 30.7335 28.4327 31.6664 29.5832 31.6664Z" fill="#333333"/>
</g>
</g>
</g>
<defs>
<clipPath id="clip0_659_9766">
<rect width="40" height="40" fill="white"/>
</clipPath>
</defs>
</svg>
