<svg width="40" height="40" viewBox="0 0 40 40" fill="none" xmlns="http://www.w3.org/2000/svg">
<g id="U&#231;&#155;&#152;,&#231;&#161;&#172;&#231;&#155;&#152;,&#229;&#130;&#168;&#229;&#173;&#152;,&#231;&#161;&#172;&#228;&#187;&#182;,&#231;&#167;&#187;&#229;&#138;&#168;,&#228;&#191;&#157;&#229;&#173;&#152;,&#230;&#150;&#135;&#228;&#187;&#182;,&#229;&#174;&#137;&#229;&#133;&#168;U&#231;&#155;&#152;,&#231;&#161;&#172;&#231;&#155;&#152;,&#229;&#130;&#168;&#229;&#173;&#152;,&#231;&#161;&#172;&#228;&#187;&#182;,&#231;&#167;&#187;&#229;&#138;&#168;,&#228;&#191;&#157;&#229;&#173;&#152;,&#230;&#150;&#135;&#228;&#187;&#182;,&#229;&#174;&#137;&#229;&#133;&#168;" clip-path="url(#clip0_659_9758)">
<g id="Group">
<g id="Group_2">
<path id="Vector" fill-rule="evenodd" clip-rule="evenodd" d="M7.50016 3.33301C5.19898 3.33301 3.3335 5.19849 3.3335 7.49967V32.4997C3.3335 34.8008 5.199 36.6663 7.50016 36.6663H32.5002C34.8013 36.6663 36.6668 34.8008 36.6668 32.4997V7.49967C36.6668 5.19851 34.8013 3.33301 32.5002 3.33301H7.50016ZM11.6668 6.66634H7.50016C7.03993 6.66634 6.66683 7.03944 6.66683 7.49967V32.4997C6.66683 32.96 7.03991 33.333 7.50016 33.333H32.5002C32.9605 33.333 33.3335 32.96 33.3335 32.4997V7.49967C33.3335 7.03942 32.9605 6.66634 32.5002 6.66634H28.3335V13.333C28.3335 14.2535 27.5873 14.9997 26.6668 14.9997H13.3335C12.413 14.9997 11.6668 14.2535 11.6668 13.333V6.66634ZM25.0002 6.66634H15.0002V11.6663H25.0002V6.66634ZM12.5002 29.9997C12.5002 29.0792 13.2464 28.333 14.1668 28.333H25.8335C26.754 28.333 27.5002 29.0792 27.5002 29.9997C27.5002 30.9202 26.754 31.6663 25.8335 31.6663H14.1668C13.2464 31.6663 12.5002 30.9202 12.5002 29.9997Z" fill="#333333"/>
</g>
</g>
</g>
<defs>
<clipPath id="clip0_659_9758">
<rect width="40" height="40" fill="white"/>
</clipPath>
</defs>
</svg>
