<svg width="40" height="40" viewBox="0 0 40 40" fill="none" xmlns="http://www.w3.org/2000/svg">
<g id="&#229;&#138;&#160;&#229;&#143;&#183;,&#231;&#172;&#166;&#229;&#143;&#183;,&#229;&#138;&#160;&#230;&#179;&#149;,&#231;&#186;&#162;&#229;&#141;&#129;&#229;&#173;&#151;,&#229;&#140;&#187;&#231;&#150;&#151;,&#229;&#140;&#187;&#233;&#153;&#162;&#229;&#138;&#160;&#229;&#143;&#183;,&#231;&#172;&#166;&#229;&#143;&#183;,&#229;&#138;&#160;&#230;&#179;&#149;,&#231;&#186;&#162;&#229;&#141;&#129;&#229;&#173;&#151;,&#229;&#140;&#187;&#231;&#150;&#151;,&#229;&#140;&#187;&#233;&#153;&#162;" clip-path="url(#clip0_656_7309)">
<g id="Group">
<g id="Group_2">
<path id="Vector" fill-rule="evenodd" clip-rule="evenodd" d="M13.3332 3.33268C13.3332 2.41221 14.0794 1.66602 14.9998 1.66602H24.9998C25.9203 1.66602 26.6665 2.41221 26.6665 3.33268V13.3327H36.6665C37.587 13.3327 38.3332 14.0789 38.3332 14.9993V24.9994C38.3332 25.9199 37.587 26.666 36.6665 26.666H26.6665V36.666C26.6665 37.5865 25.9203 38.3327 24.9998 38.3327H14.9998C14.0794 38.3327 13.3332 37.5865 13.3332 36.666V26.666H3.33317C2.4127 26.666 1.6665 25.9199 1.6665 24.9994V14.9993C1.6665 14.0789 2.4127 13.3327 3.33317 13.3327H13.3332V3.33268ZM16.6665 4.99935V14.9993C16.6665 15.9198 15.9203 16.666 14.9998 16.666H4.99984V23.3327H14.9998C15.9203 23.3327 16.6665 24.0789 16.6665 24.9994V34.9994H23.3332V24.9994C23.3332 24.0789 24.0793 23.3327 24.9998 23.3327H34.9998V16.666H24.9998C24.0793 16.666 23.3332 15.9198 23.3332 14.9993V4.99935H16.6665Z" fill="#333333"/>
</g>
</g>
</g>
<defs>
<clipPath id="clip0_656_7309">
<rect width="40" height="40" fill="white"/>
</clipPath>
</defs>
</svg>
