<svg width="40" height="40" viewBox="0 0 40 40" fill="none" xmlns="http://www.w3.org/2000/svg">
<g id="&#230;&#150;&#135;&#228;&#187;&#182;,&#229;&#174;&#137;&#229;&#133;&#168;,&#228;&#191;&#157;&#230;&#138;&#164;" clip-path="url(#clip0_656_7432)">
<g id="Group">
<g id="Group_2">
<path id="Vector" d="M25.8333 1.66602C26.2383 1.66602 26.627 1.81335 26.9288 2.0766L27.0722 2.21774L34.5722 10.5511L34.591 10.5722C34.624 10.6103 34.6553 10.6498 34.685 10.6907L34.5722 10.5511C34.622 10.6065 34.6678 10.6649 34.7095 10.7258C34.7378 10.7669 34.7638 10.809 34.7882 10.8522C34.7972 10.8688 34.8062 10.8856 34.8148 10.9026C34.8357 10.9421 34.8545 10.9826 34.8718 11.024C34.8795 11.0435 34.8872 11.0627 34.8943 11.082C34.909 11.1197 34.9218 11.1585 34.9333 11.1978C34.9403 11.2234 34.9473 11.2492 34.9535 11.2751C34.9693 11.3394 34.981 11.4049 34.9888 11.4716L35 11.666V19.166C35 20.0865 34.2538 20.8327 33.3333 20.8327C32.4787 20.8327 31.7742 20.1893 31.6778 19.3603L31.6667 19.166V13.3327H25C24.1453 13.3327 23.4408 12.6893 23.3445 11.8604L23.3333 11.666V4.99935H8.33333V34.9994H18.3333C19.2538 34.9994 20 35.7455 20 36.666C20 37.5207 19.3566 38.2252 18.5277 38.3215L18.3333 38.3327H8.33333C6.57606 38.3327 5.13639 36.9729 5.00914 35.2482L5 34.9994V4.99935C5 3.24208 6.3598 1.80241 8.08457 1.67516L8.33333 1.66602H25.8333ZM27.8475 21.7383C28.1642 21.6418 28.5025 21.6418 28.8192 21.7383C28.858 21.7502 28.9022 21.7638 28.9517 21.7792L30.4717 22.2792C30.9392 22.4403 31.4007 22.6065 31.8433 22.7752C32.4012 22.9877 32.906 23.1954 33.3473 23.3972L33.961 23.6874C35.2813 24.3402 35.8333 24.861 35.8333 25.9994C35.8333 29.526 34.5913 32.5539 32.5385 35.0564C31.3122 36.5514 30.0778 37.5545 29.2008 38.0892C28.668 38.4139 27.9987 38.4139 27.4658 38.0892C26.5888 37.5545 25.3545 36.5514 24.1282 35.0564C22.0753 32.5539 20.8333 29.526 20.8333 25.9994C20.8333 24.861 21.3853 24.3402 22.7057 23.6874L23.3193 23.3972C23.7607 23.1954 24.2655 22.9877 24.8233 22.7752C25.4873 22.5222 26.1937 22.2747 26.8993 22.0417L27.8475 21.7383ZM28.3333 25.0794L28.1715 25.1325L27.2848 25.4294C26.8477 25.58 26.418 25.7347 26.01 25.8902C25.5145 26.0789 25.074 26.2602 24.7052 26.4287L24.296 26.6258L24.1883 26.681L24.2103 26.992C24.3987 29.1032 25.1867 30.959 26.4142 32.5739L26.7052 32.9424C27.2683 33.6287 27.8723 34.2178 28.473 34.706L28.3333 34.586L28.5542 34.401C28.9142 34.084 29.2723 33.7309 29.619 33.3424L29.9615 32.9424C31.3553 31.243 32.2535 29.2657 32.4563 26.992L32.4767 26.681L32.3707 26.6258L31.9615 26.4287C31.5927 26.2602 31.1522 26.0789 30.6567 25.8902C30.0447 25.657 29.3838 25.4254 28.7223 25.207L28.3333 25.0794ZM29.5917 9.99935L26.6667 6.74935V9.99935H29.5917Z" fill="#333333"/>
</g>
</g>
</g>
<defs>
<clipPath id="clip0_656_7432">
<rect width="40" height="40" fill="white"/>
</clipPath>
</defs>
</svg>
