<svg width="40" height="40" viewBox="0 0 40 40" fill="none" xmlns="http://www.w3.org/2000/svg">
<g id="&#233;&#128;&#159;&#231;&#142;&#135;,&#233;&#128;&#159;&#229;&#186;&#166;&#232;&#161;&#168;,&#228;&#187;&#170;&#232;&#161;&#168;&#231;&#155;&#152;&#233;&#128;&#159;&#231;&#142;&#135;,&#233;&#128;&#159;&#229;&#186;&#166;&#232;&#161;&#168;,&#228;&#187;&#170;&#232;&#161;&#168;&#231;&#155;&#152;" clip-path="url(#clip0_504_6878)">
<g id="Group">
<g id="Group_2">
<path id="Vector" d="M19.9993 1.66699C23.27 1.66699 26.4193 2.5261 29.1887 4.13313C29.9848 4.59511 30.2557 5.61503 29.7937 6.41118C29.3317 7.20731 28.3119 7.47819 27.5157 7.01621C25.2512 5.70216 22.6783 5.00033 19.9993 5.00033C11.7151 5.00033 4.99935 11.716 4.99935 20.0003C4.99935 28.2847 11.7151 35.0003 19.9993 35.0003C28.2837 35.0003 34.9994 28.2847 34.9994 20.0003C34.9994 17.3394 34.307 14.7834 33.01 12.5298C32.5509 11.7321 32.8252 10.7131 33.623 10.2539C34.4209 9.79474 35.4397 10.0692 35.8988 10.867C37.4853 13.6231 38.3327 16.7519 38.3327 20.0003C38.3327 30.1255 30.1245 38.3337 19.9993 38.3337C9.87413 38.3337 1.66602 30.1255 1.66602 20.0003C1.66602 9.87511 9.87413 1.66699 19.9993 1.66699ZM26.0395 11.8147C27.379 11.313 28.6867 12.6207 28.185 13.9601L27.2012 16.4695C26.9127 17.1808 26.6199 17.8821 26.3289 18.5532C26.2632 18.7045 26.1982 18.8532 26.1337 18.9992L25.7537 19.8418L25.3579 20.6797C24.7202 21.9915 24.1869 22.884 23.678 23.3928C21.7254 25.3455 18.5595 25.3455 16.6068 23.3928C14.6542 21.4402 14.6542 18.2744 16.6068 16.3217C17.1156 15.8129 18.0081 15.2795 19.3199 14.6418L20.1575 14.246C20.2924 14.1839 20.43 14.1212 20.5705 14.0578L21.4465 13.6708C22.4532 13.2343 23.5278 12.7936 24.602 12.3701L26.0395 11.8147ZM23.6377 16.3603L22.7727 16.7289C22.6287 16.7914 22.4875 16.8532 22.349 16.9144L21.553 17.2733L20.9433 17.5606L20.3989 17.8296L19.9274 18.0753L19.5365 18.2927L19.2342 18.4767C19.1065 18.5593 19.0149 18.6277 18.9639 18.6788C18.313 19.3297 18.313 20.385 18.9639 21.0358C19.6147 21.6867 20.67 21.6867 21.3209 21.0358C21.389 20.9678 21.4878 20.8277 21.6105 20.6258L21.8118 20.2783L22.044 19.846L22.302 19.337L22.5808 18.759L22.9038 18.0574L23.2707 17.227L23.6377 16.3603Z" fill="#333333"/>
</g>
</g>
</g>
<defs>
<clipPath id="clip0_504_6878">
<rect width="40" height="40" fill="white"/>
</clipPath>
</defs>
</svg>
