<svg width="40" height="40" viewBox="0 0 40 40" fill="none" xmlns="http://www.w3.org/2000/svg">
<g id="&#229;&#156;&#134;&#229;&#189;&#162;,&#230;&#150;&#185;&#229;&#189;&#162;,&#232;&#191;&#158;&#230;&#142;&#165;,&#230;&#138;&#189;&#232;&#177;&#161;&#229;&#156;&#134;&#229;&#189;&#162;,&#230;&#150;&#185;&#229;&#189;&#162;,&#232;&#191;&#158;&#230;&#142;&#165;,&#230;&#138;&#189;&#232;&#177;&#161;" clip-path="url(#clip0_567_3297)">
<g id="Group">
<g id="Group_2">
<path id="Vector" fill-rule="evenodd" clip-rule="evenodd" d="M1.66602 3.33366C1.66602 2.41318 2.41221 1.66699 3.33268 1.66699H11.666C12.5865 1.66699 13.3327 2.41318 13.3327 3.33366V5.83366H26.9075C27.6247 3.42409 29.8568 1.66699 32.4993 1.66699C35.721 1.66699 38.3327 4.27866 38.3327 7.50033C38.3327 10.1428 36.5755 12.375 34.166 13.0921V26.667H36.666C37.5865 26.667 38.3327 27.4132 38.3327 28.3337V36.667C38.3327 37.5875 37.5865 38.3337 36.666 38.3337H28.3327C27.4122 38.3337 26.666 37.5875 26.666 36.667V34.167H13.0911C12.374 36.5765 10.1419 38.3337 7.49935 38.3337C4.27768 38.3337 1.66602 35.722 1.66602 32.5003C1.66602 29.8578 3.42312 27.6257 5.83268 26.9085V13.3337H3.33268C2.41221 13.3337 1.66602 12.5875 1.66602 11.667V3.33366ZM9.16602 13.3337V26.9085C11.0475 27.4685 12.5312 28.9522 13.0911 30.8337H26.666V28.3337C26.666 27.4132 27.4122 26.667 28.3327 26.667H30.8327V13.0921C28.9512 12.5321 27.4675 11.0485 26.9075 9.16699H13.3327V11.667C13.3327 12.5875 12.5865 13.3337 11.666 13.3337H9.16602ZM9.99935 5.00033H4.99935V10.0003H9.99935V5.00033ZM29.9993 30.0003V35.0003H34.9994V30.0003H29.9993ZM32.4993 5.00033C31.1187 5.00033 29.9993 6.11961 29.9993 7.50033C29.9993 8.88104 31.1187 10.0003 32.4993 10.0003C33.88 10.0003 34.9994 8.88104 34.9994 7.50033C34.9994 6.11961 33.88 5.00033 32.4993 5.00033ZM7.49935 30.0003C6.11863 30.0003 4.99935 31.1197 4.99935 32.5003C4.99935 33.881 6.11863 35.0003 7.49935 35.0003C8.88007 35.0003 9.99935 33.881 9.99935 32.5003C9.99935 31.1197 8.88007 30.0003 7.49935 30.0003Z" fill="#333333"/>
</g>
</g>
</g>
<defs>
<clipPath id="clip0_567_3297">
<rect width="40" height="40" fill="white"/>
</clipPath>
</defs>
</svg>
