<svg width="40" height="40" viewBox="0 0 40 40" fill="none" xmlns="http://www.w3.org/2000/svg">
<g id="&#228;&#184;&#170;&#228;&#186;&#186;&#233;&#154;&#144;&#231;&#167;&#129;&#228;&#184;&#170;&#228;&#186;&#186;&#233;&#154;&#144;&#231;&#167;&#129;" clip-path="url(#clip0_504_8465)">
<g id="Group">
<g id="Group_2">
<path id="Vector" fill-rule="evenodd" clip-rule="evenodd" d="M12.4993 9.16699C12.4993 5.02486 15.8572 1.66699 19.9993 1.66699C24.1415 1.66699 27.4994 5.02486 27.4994 9.16699C27.4994 13.3091 24.1415 16.667 19.9993 16.667C15.8572 16.667 12.4993 13.3091 12.4993 9.16699ZM19.9993 5.00033C17.6982 5.00033 15.8327 6.86581 15.8327 9.16699C15.8327 11.4682 17.6982 13.3337 19.9993 13.3337C22.3005 13.3337 24.166 11.4682 24.166 9.16699C24.166 6.86581 22.3005 5.00033 19.9993 5.00033ZM18.3327 22.5003C10.7789 22.5003 4.99935 27.9028 4.99935 34.167C4.99935 35.0875 4.25315 35.8337 3.33268 35.8337C2.41221 35.8337 1.66602 35.0875 1.66602 34.167C1.66602 25.7035 9.31793 19.167 18.3327 19.167C19.2532 19.167 19.9993 19.9132 19.9993 20.8337C19.9993 21.7542 19.2532 22.5003 18.3327 22.5003ZM22.4993 24.167C21.5788 24.167 20.8327 24.9132 20.8327 25.8337V34.167C20.8327 35.0875 21.5788 35.8337 22.4993 35.8337H34.166C35.0865 35.8337 35.8327 35.0875 35.8327 34.167V25.8337C35.8327 24.9132 35.0865 24.167 34.166 24.167H32.4994V23.3337C32.4994 21.0325 30.6339 19.167 28.3327 19.167C26.0315 19.167 24.166 21.0325 24.166 23.3337V24.167H22.4993ZM29.166 23.3337V24.167H27.4994V23.3337C27.4994 22.8733 27.8724 22.5003 28.3327 22.5003C28.793 22.5003 29.166 22.8733 29.166 23.3337ZM32.4994 32.5003V27.5003H24.166V32.5003H32.4994Z" fill="#333333"/>
</g>
</g>
</g>
<defs>
<clipPath id="clip0_504_8465">
<rect width="40" height="40" fill="white"/>
</clipPath>
</defs>
</svg>
