<svg width="40" height="40" viewBox="0 0 40 40" fill="none" xmlns="http://www.w3.org/2000/svg">
<g id="&#230;&#156;&#141;&#229;&#138;&#161;&#229;&#153;&#168;,&#232;&#191;&#144;&#231;&#174;&#151;,&#232;&#174;&#161;&#231;&#174;&#151;,&#230;&#156;&#186;&#230;&#136;&#191;,&#228;&#186;&#145;&#232;&#174;&#161;&#231;&#174;&#151;&#230;&#156;&#141;&#229;&#138;&#161;&#229;&#153;&#168;,&#232;&#191;&#144;&#231;&#174;&#151;,&#232;&#174;&#161;&#231;&#174;&#151;,&#230;&#156;&#186;&#230;&#136;&#191;,&#228;&#186;&#145;&#232;&#174;&#161;&#231;&#174;&#151;" clip-path="url(#clip0_504_6886)">
<g id="Group">
<g id="Group_2">
<path id="Vector" fill-rule="evenodd" clip-rule="evenodd" d="M3.33268 1.66699C2.41221 1.66699 1.66602 2.41318 1.66602 3.33366V16.667C1.66602 17.5875 2.41221 18.3337 3.33268 18.3337H36.666C37.5865 18.3337 38.3327 17.5875 38.3327 16.667V3.33366C38.3327 2.41318 37.5865 1.66699 36.666 1.66699H3.33268ZM4.99935 15.0003V5.00033H34.9994V15.0003H4.99935ZM9.16602 8.33366H10.8327C11.2929 8.33366 11.666 8.70674 11.666 9.16699V10.8337C11.666 11.2939 11.2929 11.667 10.8327 11.667H9.16602C8.70577 11.667 8.33268 11.2939 8.33268 10.8337V9.16699C8.33268 8.70674 8.70577 8.33366 9.16602 8.33366ZM17.4993 8.33366H15.8327C15.3724 8.33366 14.9993 8.70674 14.9993 9.16699V10.8337C14.9993 11.2939 15.3724 11.667 15.8327 11.667H17.4993C17.9596 11.667 18.3327 11.2939 18.3327 10.8337V9.16699C18.3327 8.70674 17.9596 8.33366 17.4993 8.33366ZM3.33268 21.667C2.41221 21.667 1.66602 22.4132 1.66602 23.3337V36.667C1.66602 37.5875 2.41221 38.3337 3.33268 38.3337H36.666C37.5865 38.3337 38.3327 37.5875 38.3327 36.667V23.3337C38.3327 22.4132 37.5865 21.667 36.666 21.667H3.33268ZM4.99935 35.0003V25.0003H34.9994V35.0003H4.99935ZM9.16602 28.3337H10.8327C11.2929 28.3337 11.666 28.7068 11.666 29.167V30.8337C11.666 31.2938 11.2929 31.667 10.8327 31.667H9.16602C8.70577 31.667 8.33268 31.2938 8.33268 30.8337V29.167C8.33268 28.7068 8.70577 28.3337 9.16602 28.3337ZM15.8327 28.3337H17.4993C17.9596 28.3337 18.3327 28.7068 18.3327 29.167V30.8337C18.3327 31.2938 17.9596 31.667 17.4993 31.667H15.8327C15.3724 31.667 14.9993 31.2938 14.9993 30.8337V29.167C14.9993 28.7068 15.3724 28.3337 15.8327 28.3337Z" fill="#333333"/>
</g>
</g>
</g>
<defs>
<clipPath id="clip0_504_6886">
<rect width="40" height="40" fill="white"/>
</clipPath>
</defs>
</svg>
