<svg width="40" height="40" viewBox="0 0 40 40" fill="none" xmlns="http://www.w3.org/2000/svg">
<g id="&#230;&#149;&#176;&#230;&#141;&#174;&#229;&#186;&#147;&#231;&#189;&#145;&#231;&#187;&#156;&#230;&#149;&#176;&#230;&#141;&#174;&#229;&#186;&#147;&#231;&#189;&#145;&#231;&#187;&#156;" clip-path="url(#clip0_504_8489)">
<g id="Group">
<g id="Group_2">
<path id="Vector" d="M15.8327 4.16699L16.3405 4.16999C23.9254 4.25973 29.9994 6.36346 29.9994 10.0003L30.0007 15.9721C34.7295 16.7662 38.3327 20.8792 38.3327 25.8337C38.3327 31.3565 33.8555 35.8337 28.3327 35.8337C26.8309 35.8337 25.3744 35.5012 24.0492 34.872C21.7115 35.4922 18.8455 35.8337 15.8327 35.8337C8.18295 35.8337 1.94267 33.809 1.67496 30.2405L1.66602 30.0003V10.0003L1.67496 9.76014C1.94267 6.19166 8.18293 4.16699 15.8327 4.16699ZM4.9987 27.2958L4.99935 30.0003C4.99935 30.2707 5.45178 30.6092 6.25098 30.949L6.72067 31.1342C6.88827 31.1955 7.06668 31.2567 7.2553 31.317L7.8511 31.4953C7.95528 31.5247 8.06187 31.5535 8.17075 31.5822L8.85113 31.749C9.44017 31.8842 10.083 32.0082 10.7696 32.1148L11.614 32.2342L12.4967 32.3343C13.5474 32.4393 14.6685 32.5003 15.8327 32.5003C17.3284 32.5003 18.7772 32.4083 20.1167 32.2363L20.5977 32.1687L20.418 31.9467L20.2647 31.7432C20.224 31.6875 20.1838 31.6315 20.1443 31.5752L20.418 31.9467C20.261 31.7437 20.1118 31.5345 19.9708 31.3197C19.9425 31.2767 19.9154 31.2348 19.8887 31.1927C19.845 31.1238 19.8015 31.0535 19.7588 30.9827C19.7168 30.913 19.676 30.843 19.6359 30.7725C19.607 30.7217 19.5789 30.6713 19.5514 30.6207C19.508 30.5415 19.4657 30.4613 19.4243 30.3805C19.389 30.3115 19.3543 30.2417 19.3205 30.1712C19.2857 30.0992 19.2522 30.0275 19.2195 29.9553C19.1902 29.8905 19.1612 29.8248 19.133 29.7587C19.0995 29.6803 19.0673 29.602 19.036 29.5233C19.0112 29.4608 18.9867 29.3973 18.9629 29.3335C18.9282 29.2408 18.895 29.1478 18.8632 29.0542C18.8624 29.0515 18.8615 29.0493 18.8609 29.0472C17.8796 29.1272 16.8638 29.167 15.8327 29.167C11.4881 29.167 7.59812 28.514 4.9987 27.2958ZM34.789 27.5017L32.7607 27.4998C32.6887 27.9107 32.5925 28.3343 32.474 28.7705C32.2137 29.7298 31.851 30.7293 31.4105 31.7492C33.065 30.8867 34.313 29.3492 34.789 27.5017ZM23.9047 27.4998L21.8762 27.5023C22.3263 29.2483 23.4752 30.7447 25.05 31.6377C25.1172 31.6758 25.185 31.7128 25.2534 31.7485L25.3495 31.9662C24.8664 30.8712 24.4702 29.7978 24.1913 28.7705C24.0728 28.3343 23.9767 27.9107 23.9047 27.4998ZM29.3577 27.5017H27.3077C27.3382 27.6308 27.3717 27.7627 27.4082 27.8973C27.6262 28.7003 27.942 29.5675 28.331 30.4648L28.2662 30.6205C28.6867 29.6678 29.0265 28.7467 29.2572 27.8973C29.2937 27.7627 29.3272 27.6308 29.3577 27.5017ZM4.9987 20.6292L4.99935 23.3337C4.99935 23.604 5.45178 23.9425 6.25098 24.2823L6.72067 24.4675C6.88827 24.5288 7.06668 24.59 7.2553 24.6503L7.8511 24.8287C7.95528 24.858 8.06187 24.8868 8.17075 24.9155L8.85113 25.0823C9.44017 25.2175 10.083 25.3415 10.7696 25.4482L11.614 25.5675L12.4967 25.6677C13.5474 25.7727 14.6685 25.8337 15.8327 25.8337C16.6831 25.8337 17.5206 25.804 18.3347 25.7462C18.3432 24.5755 18.5555 23.4373 18.9485 22.3717C17.9408 22.458 16.8954 22.5003 15.8327 22.5003C11.4881 22.5003 7.59812 21.8473 4.9987 20.6292ZM25.254 19.9199L25.1085 19.9964C24.4619 20.3542 23.8745 20.8204 23.3714 21.3807C22.6527 22.1805 22.1415 23.1332 21.8759 24.1665L23.9045 24.1692C23.9765 23.7578 24.0727 23.3335 24.1913 22.8968C24.4515 21.938 24.814 20.9392 25.254 19.9199ZM28.3343 21.2025L28.3992 21.0468C27.9787 21.9995 27.6388 22.9207 27.4082 23.77C27.3715 23.9052 27.3379 24.0377 27.3072 24.1673H29.3582C29.3275 24.0377 29.2939 23.9052 29.2572 23.77C29.0392 22.967 28.7233 22.0998 28.3343 21.2025ZM31.4094 19.9178L31.3159 19.7011C31.799 20.7962 32.1952 21.8695 32.474 22.8968C32.5927 23.3335 32.6889 23.7578 32.7609 24.1692L34.7894 24.1675C34.3139 22.3192 33.0655 20.7809 31.4094 19.9178ZM26.6684 13.9617C24.0688 15.1803 20.1782 15.8337 15.8327 15.8337C11.4881 15.8337 7.59812 15.1806 4.9987 13.9625L4.99935 16.667C4.99935 16.9373 5.45178 17.2758 6.25098 17.6157L6.72067 17.8008C6.88827 17.8622 7.06668 17.9233 7.2553 17.9837L7.8511 18.162C7.95528 18.1912 8.06187 18.2202 8.17075 18.2487L8.85113 18.4157C9.44017 18.5508 10.083 18.6748 10.7696 18.7815L11.614 18.9008L12.4967 19.001C13.5474 19.1059 14.6685 19.167 15.8327 19.167C17.7734 19.167 19.6412 19.0126 21.3055 18.7242C22.7113 17.328 24.4994 16.383 26.4512 16.0109L26.666 15.9753L26.6684 13.9617ZM15.8327 7.50033C14.6685 7.50033 13.5474 7.56139 12.4967 7.66629L11.614 7.76654L10.7696 7.88584C10.083 7.99253 9.44015 8.11654 8.85113 8.25159L8.17073 8.41858C8.06185 8.44714 7.95528 8.47606 7.8511 8.50528L7.2553 8.68363C7.06668 8.74398 6.88825 8.80509 6.72065 8.86656L6.25098 9.05164C5.45178 9.39148 4.99935 9.73001 4.99935 10.0003C4.99935 10.2706 5.45178 10.6092 6.25098 10.949L6.72067 11.1341C6.88827 11.1956 7.06668 11.2567 7.2553 11.317L7.8511 11.4954C7.95528 11.5246 8.06187 11.5535 8.17075 11.5821L8.85113 11.7491C9.44017 11.8841 10.083 12.0081 10.7696 12.1148L11.614 12.2341L12.4967 12.3344C13.5474 12.4393 14.6685 12.5003 15.8327 12.5003C16.9969 12.5003 18.118 12.4393 19.1687 12.3344L20.0514 12.2341L20.8957 12.1148C21.5823 12.0081 22.2252 11.8841 22.8142 11.7491L23.4947 11.5821C23.6035 11.5535 23.71 11.5246 23.8142 11.4954L24.41 11.317C24.5987 11.2567 24.7772 11.1956 24.9447 11.1341L25.4143 10.949C26.2135 10.6092 26.666 10.2706 26.666 10.0003C26.666 9.73001 26.2135 9.39148 25.4143 9.05164L24.9447 8.86656C24.7772 8.80509 24.5987 8.74398 24.41 8.68363L23.8142 8.50528C23.71 8.47606 23.6035 8.44714 23.4947 8.41858L22.8142 8.25159C22.2252 8.11654 21.5823 7.99253 20.8957 7.88584L20.0514 7.76654L19.1687 7.66629C18.118 7.56139 16.9969 7.50033 15.8327 7.50033Z" fill="#333333"/>
</g>
</g>
</g>
<defs>
<clipPath id="clip0_504_8489">
<rect width="40" height="40" fill="white"/>
</clipPath>
</defs>
</svg>
