<svg width="40" height="40" viewBox="0 0 40 40" fill="none" xmlns="http://www.w3.org/2000/svg">
<g id="&#231;&#129;&#175;&#230;&#179;&#161;,&#229;&#136;&#155;&#230;&#132;&#143;,&#231;&#129;&#175;&#229;&#133;&#137;,&#231;&#129;&#181;&#230;&#132;&#159;&#231;&#129;&#175;&#230;&#179;&#161;,&#229;&#136;&#155;&#230;&#132;&#143;,&#231;&#129;&#175;&#229;&#133;&#137;,&#231;&#129;&#181;&#230;&#132;&#159;" clip-path="url(#clip0_504_6903)">
<g id="Group">
<g id="Group_2">
<path id="Vector" fill-rule="evenodd" clip-rule="evenodd" d="M20 5.00033C13.5566 5.00033 8.33333 10.2236 8.33333 16.667C8.33333 21.5223 11.2998 25.6887 15.5248 27.445H24.4752C28.7002 25.6887 31.6667 21.5223 31.6667 16.667C31.6667 10.2236 26.4433 5.00033 20 5.00033ZM22.985 30.7783H17.0151L17.3669 35.0003H22.6332L22.985 30.7783ZM13.6261 30.2488C8.53103 27.8538 5 22.6745 5 16.667C5 8.38269 11.7157 1.66699 20 1.66699C28.2843 1.66699 35 8.38269 35 16.667C35 22.6745 31.469 27.8538 26.374 30.2488L25.8912 36.0413C25.7832 37.337 24.7 38.3337 23.3998 38.3337H16.6001C15.2996 38.3337 14.2167 37.3368 14.1088 36.0413L13.6261 30.2488ZM15 12.5003C15.9205 12.5003 16.6667 13.2465 16.6667 14.167V16.4703L19.2546 15.1763C19.7238 14.9417 20.2762 14.9417 20.7454 15.1763L23.3333 16.4703V14.167C23.3333 13.2465 24.0795 12.5003 25 12.5003C25.9205 12.5003 26.6667 13.2465 26.6667 14.167V19.167C26.6667 19.7447 26.3675 20.281 25.8762 20.5848C25.3848 20.8885 24.7713 20.916 24.2547 20.6577L20 18.5303L15.7454 20.6577C15.2287 20.916 14.6151 20.8885 14.1238 20.5848C13.6324 20.281 13.3333 19.7447 13.3333 19.167V14.167C13.3333 13.2465 14.0795 12.5003 15 12.5003Z" fill="#333333"/>
</g>
</g>
</g>
<defs>
<clipPath id="clip0_504_6903">
<rect width="40" height="40" fill="white"/>
</clipPath>
</defs>
</svg>
