<svg width="40" height="40" viewBox="0 0 40 40" fill="none" xmlns="http://www.w3.org/2000/svg">
<g id="&#232;&#138;&#175;&#231;&#137;&#135;,CPU,GPU,&#231;&#174;&#151;&#230;&#179;&#149;,&#231;&#174;&#151;&#229;&#138;&#155;,&#231;&#148;&#181;&#232;&#183;&#175;,&#232;&#191;&#144;&#231;&#174;&#151;&#232;&#138;&#175;&#231;&#137;&#135;,CPU,GPU,&#231;&#174;&#151;&#230;&#179;&#149;,&#231;&#174;&#151;&#229;&#138;&#155;,&#231;&#148;&#181;&#232;&#183;&#175;,&#232;&#191;&#144;&#231;&#174;&#151;" clip-path="url(#clip0_504_6913)">
<g id="Group">
<g id="Group_2">
<path id="Vector" fill-rule="evenodd" clip-rule="evenodd" d="M14.091 1.66667C14.091 0.746192 13.3448 0 12.4243 0C11.5038 0 10.7576 0.746192 10.7576 1.66667V5H8.33333C6.49238 5 5 6.49238 5 8.33333V10.7568H1.66667C0.746192 10.7568 0 11.503 0 12.4235C0 13.344 0.746192 14.0902 1.66667 14.0902H5V18.3333H1.66667C0.746192 18.3333 0 19.0795 0 20C0 20.9205 0.746192 21.6667 1.66667 21.6667H5V25.9098H1.66667C0.746192 25.9098 0 26.656 0 27.5765C0 28.497 0.746192 29.2432 1.66667 29.2432H5V31.6667C5 33.5077 6.4924 35 8.33333 35H10.7576V38.3333C10.7576 39.2538 11.5038 40 12.4243 40C13.3448 40 14.091 39.2538 14.091 38.3333V35H18.3333V38.3333C18.3333 39.2538 19.0795 40 20 40C20.9205 40 21.6667 39.2538 21.6667 38.3333V35H25.909V38.3333C25.909 39.2538 26.6552 40 27.5757 40C28.4962 40 29.2423 39.2538 29.2423 38.3333V35H31.6667C33.5077 35 35 33.5077 35 31.6667V29.2432H38.3333C39.2538 29.2432 40 28.497 40 27.5765C40 26.656 39.2538 25.9098 38.3333 25.9098H35V21.6667H38.3333C39.2538 21.6667 40 20.9205 40 20C40 19.0795 39.2538 18.3333 38.3333 18.3333H35V14.0902H38.3333C39.2538 14.0902 40 13.344 40 12.4235C40 11.503 39.2538 10.7568 38.3333 10.7568H35V8.33333C35 6.4924 33.5077 5 31.6667 5H29.2423V1.66667C29.2423 0.746192 28.4962 0 27.5757 0C26.6552 0 25.909 0.746192 25.909 1.66667V5H21.6667V1.66667C21.6667 0.746192 20.9205 0 20 0C19.0795 0 18.3333 0.746192 18.3333 1.66667V5H14.091V1.66667ZM13.3333 15C13.3333 14.0795 14.0795 13.3333 15 13.3333H25C25.9205 13.3333 26.6667 14.0795 26.6667 15V25C26.6667 25.9205 25.9205 26.6667 25 26.6667H15C14.0795 26.6667 13.3333 25.9205 13.3333 25V15ZM8.33333 8.33333H31.6667V31.6667H8.33333V8.33333ZM16.6667 16.6667V23.3333H23.3333V16.6667H16.6667Z" fill="#333333"/>
</g>
</g>
</g>
<defs>
<clipPath id="clip0_504_6913">
<rect width="40" height="40" fill="white"/>
</clipPath>
</defs>
</svg>
