<svg width="40" height="40" viewBox="0 0 40 40" fill="none" xmlns="http://www.w3.org/2000/svg">
<g id="&#233;&#131;&#168;&#229;&#136;&#134;&#230;&#149;&#176;&#230;&#141;&#174;,&#230;&#149;&#176;&#230;&#141;&#174;&#233;&#131;&#168;&#229;&#136;&#134;&#230;&#149;&#176;&#230;&#141;&#174;,&#230;&#149;&#176;&#230;&#141;&#174;" clip-path="url(#clip0_504_6895)">
<g id="Group">
<g id="Group_2">
<path id="Vector" d="M20.5627 2.08398L21.676 2.10401C21.86 2.109 22.0432 2.11482 22.2255 2.12147L23.309 2.17115L24.3702 2.24036C24.8949 2.27981 25.4105 2.3265 25.916 2.38032L26.9133 2.49742C27.241 2.53961 27.564 2.58492 27.8818 2.63333L28.8197 2.78784C34.5044 3.79755 38.3327 5.8564 38.3327 8.74813C38.3327 10.2183 37.3432 11.4732 35.6232 12.4844C37.3535 13.4694 38.3327 14.7068 38.3327 16.2481C38.3327 17.718 37.3437 18.9726 35.6245 19.9836L35.6507 19.9988C37.364 20.9826 38.3327 22.2152 38.3327 23.7482C38.3327 24.0098 38.3014 24.2647 38.2402 24.5125C38.2125 24.6243 38.1784 24.7361 38.138 24.8465C38.0995 24.9523 38.0555 25.0563 38.006 25.1588C37.9762 25.221 37.9442 25.2828 37.91 25.3441C37.8914 25.378 37.8717 25.4122 37.8514 25.4463C37.833 25.477 37.8149 25.5065 37.7964 25.5358C37.7649 25.5857 37.7314 25.6361 37.6964 25.6861C37.6849 25.7026 37.6734 25.719 37.6619 25.7351C37.6215 25.7913 37.579 25.8475 37.535 25.9032C37.5259 25.9145 37.5175 25.9252 37.509 25.9357C37.4644 25.991 37.4173 26.0466 37.3685 26.1016C37.3307 26.1445 37.292 26.1867 37.2525 26.2285C37.2284 26.254 37.2035 26.2798 37.1782 26.3055C37.138 26.3463 37.0979 26.3858 37.0569 26.4252C37.0212 26.4592 36.985 26.493 36.948 26.5267C36.9135 26.558 36.8782 26.5893 36.8424 26.6207C36.805 26.6532 36.767 26.6853 36.7285 26.7173C36.6897 26.7497 36.6495 26.7822 36.6089 26.8145C36.567 26.8477 36.5252 26.8801 36.4827 26.9125C36.444 26.9416 36.4043 26.9712 36.3642 27.0005C36.3115 27.039 36.2565 27.078 36.2005 27.1168C36.1638 27.1422 36.1278 27.1667 36.0913 27.191C35.9495 27.286 35.8009 27.3795 35.6462 27.4708L35.6247 27.4838C37.3542 28.4701 38.3327 29.7073 38.3327 31.2482C38.3327 34.1398 34.5044 36.1987 28.8197 37.2085L27.8818 37.363C27.564 37.4113 27.241 37.4567 26.9133 37.4988L25.916 37.616C25.4105 37.6698 24.8949 37.7165 24.3702 37.756L23.309 37.8252L22.2255 37.8748C22.0432 37.8815 21.86 37.8873 21.676 37.8923L20.5627 37.9123C20.3757 37.914 20.1878 37.9148 19.9993 37.9148L19.436 37.9123L18.3226 37.8923C18.1386 37.8873 17.9555 37.8815 17.7732 37.8748L16.6897 37.8252L15.6286 37.756C15.1039 37.7165 14.5882 37.6698 14.0827 37.616L13.0854 37.4988C12.9215 37.4778 12.7588 37.4558 12.5974 37.4333L11.644 37.288C5.70402 36.3095 1.66602 34.218 1.66602 31.2482C1.66602 29.7152 2.63467 28.4827 4.34798 27.4988L4.37425 27.4837C4.36237 27.4767 4.3505 27.4697 4.33868 27.4627C4.18947 27.3742 4.04518 27.2833 3.9067 27.1907C3.87087 27.1667 3.83483 27.1422 3.7992 27.1175C3.74222 27.078 3.68725 27.039 3.63328 26.9996C3.59427 26.9711 3.55463 26.9416 3.51557 26.9121C3.47352 26.8801 3.43162 26.8476 3.39042 26.815C3.34917 26.7821 3.30908 26.7496 3.26967 26.717C3.23165 26.6853 3.19372 26.6532 3.15644 26.6207C3.12043 26.5893 3.08514 26.558 3.05044 26.5263C3.01375 26.493 2.97751 26.4592 2.94197 26.4252C2.90079 26.3858 2.86066 26.3463 2.82147 26.3065C2.79521 26.2798 2.77028 26.254 2.74575 26.228C2.70661 26.1866 2.66801 26.1445 2.63044 26.102C2.5814 26.0467 2.53442 25.991 2.4892 25.935C2.48122 25.9251 2.47278 25.9145 2.46441 25.904C2.4196 25.8475 2.37725 25.7913 2.33665 25.7348C2.32528 25.719 2.31383 25.7027 2.30253 25.6865C2.26743 25.6362 2.23391 25.5856 2.20178 25.5348C2.18377 25.5065 2.16566 25.477 2.14802 25.4473C2.12708 25.4121 2.10738 25.378 2.08831 25.3435C2.05459 25.2828 2.02256 25.221 1.99254 25.1587C1.94322 25.0563 1.89924 24.9523 1.86081 24.8472C1.82033 24.7362 1.78616 24.6243 1.75823 24.511C1.69735 24.2646 1.66602 24.0098 1.66602 23.7482C1.66602 22.2068 2.64511 20.9693 4.37568 19.983C2.65554 18.9732 1.66602 17.7183 1.66602 16.2481C1.66602 14.7073 2.6445 13.4702 4.37405 12.4838C2.65507 11.4726 1.66602 10.218 1.66602 8.74813C1.66602 5.77823 5.70402 3.68687 11.644 2.70828L12.5974 2.56304C12.7588 2.54039 12.9215 2.51852 13.0854 2.49742L14.0827 2.38032C14.5882 2.3265 15.1039 2.27981 15.6286 2.24036L16.6897 2.17115L17.7732 2.12147C17.9555 2.11482 18.1386 2.109 18.3226 2.10401L19.436 2.08398H20.5627ZM19.7172 30.4142L19.436 30.4123L18.3226 30.3923C18.1386 30.3873 17.9555 30.3815 17.7732 30.3748L16.6897 30.3252L15.6286 30.256C15.1039 30.2165 14.5882 30.1698 14.0827 30.116L13.0854 29.9988C12.9215 29.9778 12.7588 29.9558 12.5974 29.9333L12.1169 29.863L11.886 29.824L11.644 29.788C11.1774 29.7112 10.7226 29.6275 10.2805 29.537C10.2204 29.5247 10.1604 29.5122 10.1007 29.4997C9.70652 29.4167 9.32248 29.3282 8.94963 29.2343L9.4017 29.1093C7.81843 29.5285 6.56932 30.0307 5.76522 30.5538C5.19075 30.9275 4.99935 31.1865 4.99935 31.2482C4.99935 31.588 5.46003 31.9773 6.28717 32.3672L6.73083 32.562C6.88862 32.6268 7.05613 32.6913 7.23297 32.7555L7.79092 32.9463C7.98592 33.0095 8.1898 33.0718 8.4021 33.1333L9.06388 33.3148C9.17825 33.3447 9.29462 33.3742 9.41293 33.4032L10.1457 33.5742C10.3975 33.6298 10.6565 33.684 10.9225 33.7365L11.7408 33.8887L12.5979 34.0293C12.7439 34.0517 12.8913 34.0737 13.0402 34.095L13.9506 34.2158L14.8933 34.3218L15.8657 34.4117C16.1945 34.4388 16.5277 34.463 16.8651 34.484L17.8889 34.5372L18.9345 34.5702C19.2864 34.5777 19.6415 34.5815 19.9993 34.5815C20.3572 34.5815 20.7123 34.5777 21.0642 34.5702L22.1099 34.5372L23.1337 34.484C23.471 34.463 23.8042 34.4388 24.133 34.4117L25.1053 34.3218L26.048 34.2158L26.9585 34.095L27.834 33.9605C27.9769 33.937 28.1182 33.9132 28.2578 33.8887L29.0762 33.7365L29.4699 33.6565L30.225 33.4898C30.4694 33.4327 30.706 33.3743 30.9349 33.3148L31.5965 33.1333C31.7027 33.1025 31.8068 33.0717 31.9087 33.0405L32.4935 32.8513C32.7727 32.7558 33.0312 32.6592 33.2678 32.562L33.7115 32.3672C34.5387 31.9773 34.9994 31.588 34.9994 31.2482C34.9994 31.1865 34.808 30.9275 34.2335 30.5538C33.5077 30.0817 32.4195 29.6265 31.0502 29.2342C30.6762 29.3282 30.2922 29.4167 29.8977 29.4997C29.8382 29.5122 29.7782 29.5247 29.718 29.537C29.276 29.6275 28.8212 29.7112 28.3547 29.788L28.111 29.824L27.8818 29.863L27.4014 29.9333C27.2399 29.9558 27.0772 29.9778 26.9133 29.9988L25.916 30.116C25.4105 30.1698 24.8949 30.2165 24.3702 30.256L23.309 30.3252L22.2255 30.3748C22.0432 30.3815 21.86 30.3873 21.676 30.3923L20.5627 30.4123L20.2815 30.4142H19.7172ZM31.0444 21.7323L30.8015 21.7955C30.1705 21.9483 29.5087 22.086 28.8197 22.2085L27.8818 22.363C27.564 22.4113 27.241 22.4566 26.9133 22.4988L25.916 22.616C25.4105 22.6698 24.8949 22.7165 24.3702 22.756L23.309 22.8251L22.2255 22.8748C22.0432 22.8815 21.86 22.8873 21.676 22.8923L21.3712 22.8985C20.9172 22.9093 20.4595 22.9148 19.9993 22.9148L20.6393 22.909L20.5627 22.9123C20.3757 22.914 20.1878 22.9148 19.9993 22.9148L19.436 22.9123L19.3574 22.9113C19.1132 22.9085 18.8698 22.9043 18.6275 22.8985L18.3226 22.8923C18.1386 22.8873 17.9555 22.8815 17.7732 22.8748L16.6897 22.8251L15.6286 22.756C15.1039 22.7165 14.5882 22.6698 14.0827 22.616L13.0854 22.4988C12.9215 22.4778 12.7588 22.4558 12.5974 22.4331L11.644 22.288C10.6944 22.1315 9.79333 21.9467 8.94963 21.7343L8.3969 21.9003C7.28525 22.2527 6.39063 22.6468 5.76522 23.0538C5.19075 23.4275 4.99935 23.6865 4.99935 23.7482C4.99935 24.088 5.46003 24.4773 6.28717 24.8672L6.73083 25.062C6.88862 25.1268 7.05613 25.1913 7.23297 25.2555L7.64435 25.3956L8.09002 25.5405C8.14097 25.556 8.19245 25.5715 8.24447 25.587L8.4021 25.6333L9.06388 25.8148C9.10637 25.826 9.14912 25.837 9.19215 25.8478C9.31263 25.8612 9.42832 25.8897 9.53937 25.9298L9.91268 26.0206L10.5288 26.1565C10.6583 26.1836 10.7895 26.2103 10.9225 26.2365L11.7408 26.3887L12.306 26.4806L13.0402 26.595L13.9506 26.7158L14.8933 26.8218L15.8657 26.9117C16.1945 26.9388 16.5277 26.963 16.8651 26.984L17.8889 27.0372L18.9345 27.0702C19.2864 27.0777 19.6415 27.0815 19.9993 27.0815C20.3572 27.0815 20.7123 27.0777 21.0642 27.0702L22.1099 27.0372L23.1337 26.984C23.471 26.963 23.8042 26.9388 24.133 26.9117L25.1053 26.8218L26.048 26.7158L26.9585 26.595L27.691 26.4806L28.2578 26.3887L29.0762 26.2365C29.3422 26.184 29.6012 26.1298 29.853 26.0742L30.066 26.024L30.4627 25.9285C30.5727 25.8892 30.6874 25.8612 30.8045 25.8455C30.8495 25.837 30.8924 25.826 30.9349 25.8148L31.5965 25.6333C31.7027 25.6025 31.8068 25.5717 31.9087 25.5405L32.3527 25.3956L32.7657 25.2555C32.8542 25.2235 32.9402 25.1913 33.024 25.159L33.2678 25.062L33.7115 24.8672C34.5387 24.4773 34.9994 24.088 34.9994 23.7482C34.9994 23.6865 34.808 23.4275 34.2335 23.0538L33.9577 22.8851C33.9324 22.8706 33.9069 22.8561 33.881 22.8416C33.8197 22.8073 33.7559 22.7728 33.6902 22.7385L33.881 22.8416C33.757 22.7723 33.6252 22.7035 33.4859 22.6353L33.6902 22.7385C33.5889 22.6857 33.483 22.633 33.3728 22.5808L33.4859 22.6353C33.3915 22.5892 33.2937 22.5431 33.1925 22.4976L33.3728 22.5808C33.2358 22.5161 33.0922 22.452 32.9418 22.3886L33.1925 22.4976C33.0908 22.452 32.9857 22.4067 32.8774 22.3617L32.9418 22.3886C32.8333 22.3428 32.7215 22.2976 32.6065 22.2528L32.8774 22.3617C32.7382 22.3038 32.5935 22.2468 32.4435 22.1905L32.6065 22.2528C32.4962 22.2098 32.383 22.1673 32.2669 22.1253L32.4435 22.1905C32.179 22.0912 31.8982 21.9943 31.6019 21.9003L31.0444 21.7323ZM8.95035 14.2344L9.4017 14.1093C7.81843 14.5285 6.56932 15.0306 5.76522 15.5538C5.19075 15.9275 4.99935 16.1864 4.99935 16.2481C4.99935 16.5879 5.46003 16.9773 6.28717 17.3672L6.73083 17.562C6.88862 17.6268 7.05613 17.6914 7.23297 17.7555L7.79092 17.9464C7.98592 18.0094 8.1898 18.0718 8.4021 18.1333L9.06388 18.3149L9.17483 18.3435C9.25112 18.3527 9.32692 18.3672 9.4017 18.387L9.2375 18.3518C9.27623 18.358 9.31465 18.3656 9.35267 18.3745L9.4017 18.387C9.73572 18.4754 10.0814 18.5594 10.4378 18.6388L10.1457 18.5742C10.3975 18.6299 10.6565 18.684 10.9225 18.7365L11.7408 18.8887L12.5979 19.0293C12.7439 19.0517 12.8913 19.0737 13.0402 19.095L13.9506 19.2158L14.8933 19.3218L15.8657 19.4117C16.1945 19.4388 16.5277 19.463 16.8651 19.484L17.8889 19.5372L18.9195 19.5708C18.9295 19.571 18.9395 19.5712 18.9495 19.5713L19.3543 19.5757L19.9993 19.5815C20.2143 19.5815 20.4287 19.5801 20.6422 19.5776C20.7787 19.5756 20.9142 19.5733 21.0492 19.5705L20.6422 19.5776C20.7882 19.576 20.9338 19.5737 21.0792 19.5708L22.1099 19.5372L23.1337 19.484C23.471 19.463 23.8042 19.4388 24.133 19.4117L25.1053 19.3218L26.048 19.2158L26.9585 19.095L27.834 18.9605C27.9769 18.937 28.1182 18.913 28.2578 18.8887L29.0762 18.7365L29.4699 18.6565L29.681 18.6118C29.995 18.5405 30.3007 18.4655 30.597 18.387C30.6135 18.3826 30.63 18.3785 30.6467 18.3747C30.6633 18.3704 30.6808 18.3666 30.6983 18.3632L30.7569 18.353C30.7785 18.3494 30.8004 18.3463 30.8222 18.3437C30.8605 18.3341 30.8979 18.3245 30.9349 18.3149L31.5965 18.1333C31.7027 18.1026 31.8068 18.0716 31.9087 18.0404L32.4935 17.8514C32.7727 17.7559 33.0312 17.6592 33.2678 17.562L33.7115 17.3672C34.5387 16.9773 34.9994 16.5879 34.9994 16.2481C34.9994 16.1865 34.808 15.9275 34.2335 15.5538C33.5077 15.0816 32.4195 14.6266 31.0502 14.2342C30.2054 14.4467 29.3044 14.6316 28.3547 14.788L27.4014 14.9332C27.2399 14.9559 27.0772 14.9778 26.9133 14.9988L25.916 15.116C25.4105 15.1698 24.8949 15.2165 24.3702 15.2559L23.309 15.3251L22.2255 15.3748C22.0432 15.3815 21.86 15.3873 21.676 15.3923L20.5627 15.4123L19.9993 15.4148C19.8108 15.4148 19.623 15.414 19.436 15.4123L18.3226 15.3923C18.1386 15.3873 17.9555 15.3815 17.7732 15.3748L16.6897 15.3251L15.6286 15.2559C15.1039 15.2165 14.5882 15.1698 14.0827 15.116L13.0854 14.9988C12.7576 14.9567 12.4347 14.9114 12.1169 14.8629L11.1791 14.7084C10.3996 14.57 9.65497 14.4118 8.95035 14.2344ZM19.9993 5.4148L19.4647 5.41765C19.2872 5.41955 19.1105 5.42237 18.9345 5.4261L17.8889 5.45907L16.8651 5.51233C16.5277 5.53333 16.1944 5.55748 15.8657 5.58457L14.8933 5.67438L13.9506 5.78043L13.0402 5.90137C12.8913 5.92268 12.7439 5.94455 12.5979 5.96697L11.7408 6.10765L10.9225 6.2598C10.6565 6.31227 10.3975 6.36643 10.1457 6.42205L9.41293 6.59305C9.29462 6.6222 9.17825 6.65167 9.06388 6.6814L8.4021 6.86297C8.1898 6.92447 7.98592 6.98683 7.79092 7.04988L7.23297 7.24078C7.05613 7.30493 6.88862 7.36952 6.73083 7.4343L6.28717 7.62908C5.46003 8.01902 4.99935 8.40837 4.99935 8.74813C4.99935 9.08792 5.46003 9.47725 6.28717 9.86718L6.73083 10.062C6.9675 10.1592 7.22608 10.2559 7.50512 10.3514L8.09002 10.5404C8.1919 10.5716 8.29595 10.6026 8.4021 10.6333L9.06388 10.8149C9.10637 10.8259 9.14912 10.8369 9.19215 10.8479C9.31442 10.8615 9.43182 10.8905 9.54438 10.9316L9.77365 10.9897L10.5288 11.1565L10.9225 11.2365L11.7408 11.3886C11.8805 11.4131 12.0218 11.437 12.1647 11.4605L13.0402 11.5949L13.9506 11.7158L14.8933 11.8219L15.8657 11.9117C16.1944 11.9388 16.5277 11.963 16.8651 11.9839L17.8889 12.0372L18.9345 12.0702C19.2864 12.0776 19.6415 12.0815 19.9993 12.0815C20.3572 12.0815 20.7123 12.0776 21.0642 12.0702L22.1099 12.0372L23.1337 11.9839C23.471 11.963 23.8042 11.9388 24.133 11.9117L25.1053 11.8219L26.048 11.7158L26.9585 11.5949C27.1074 11.5736 27.2549 11.5517 27.4009 11.5293L28.2578 11.3886L29.0762 11.2365C29.3422 11.184 29.6012 11.1299 29.853 11.0742L30.4593 10.9297C30.573 10.8887 30.6915 10.8599 30.813 10.8444L30.9349 10.8149L31.5965 10.6333C31.8088 10.5718 32.0129 10.5094 32.2079 10.4464L32.7657 10.2555C32.9425 10.1914 33.11 10.1268 33.2678 10.062L33.7115 9.86718C34.5387 9.47725 34.9994 9.08792 34.9994 8.74813C34.9994 8.40837 34.5387 8.01902 33.7115 7.62908L33.2678 7.4343C33.0312 7.33712 32.7727 7.2404 32.4935 7.14492L31.9087 6.95585C31.8068 6.92468 31.7027 6.89372 31.5965 6.86297L30.9349 6.6814C30.706 6.62192 30.4694 6.56355 30.225 6.50653L29.4699 6.33975L29.0762 6.2598L28.2578 6.10765C28.1182 6.08322 27.9769 6.05925 27.834 6.0358L26.9585 5.90137L26.048 5.78043L25.1053 5.67438L24.133 5.58457C23.8042 5.55748 23.471 5.53333 23.1337 5.51233L22.1099 5.45907L21.0642 5.4261C20.7123 5.41865 20.3572 5.4148 19.9993 5.4148Z" fill="#333333"/>
</g>
</g>
</g>
<defs>
<clipPath id="clip0_504_6895">
<rect width="40" height="40" fill="white"/>
</clipPath>
</defs>
</svg>
