<svg width="40" height="40" viewBox="0 0 40 40" fill="none" xmlns="http://www.w3.org/2000/svg">
<g id="&#230;&#153;&#186;&#232;&#131;&#189;&#228;&#188;&#152;&#229;&#140;&#150;,&#230;&#138;&#189;&#232;&#177;&#161;,&#229;&#156;&#134;&#231;&#142;&#175;&#230;&#153;&#186;&#232;&#131;&#189;&#228;&#188;&#152;&#229;&#140;&#150;,&#230;&#138;&#189;&#232;&#177;&#161;,&#229;&#156;&#134;&#231;&#142;&#175;" clip-path="url(#clip0_504_8473)">
<g id="Group">
<g id="Group_2">
<path id="Vector" fill-rule="evenodd" clip-rule="evenodd" d="M12.9285 7.38524C8.0592 6.34331 4.56665 7.23829 2.94695 9.77311L2.80683 10.0047C1.2545 12.7158 2.11412 16.2351 5.47738 20.0273C2.16646 23.8037 1.28026 27.328 2.80688 29.9943C4.38148 32.7442 7.90421 33.748 12.9413 32.648C14.5472 36.9072 17.0598 39.1663 19.9992 39.1663C22.9814 39.1663 25.4994 36.9402 27.0954 32.6563C32.112 33.7428 35.6207 32.7372 37.1914 29.9943C38.718 27.3282 37.8319 23.8037 34.5209 20.0273C37.8842 16.2351 38.7437 12.7158 37.1914 10.0046C35.643 7.30041 32.1027 6.31721 27.108 7.37706C25.5127 3.07091 22.9892 0.833008 19.9992 0.833008C17.052 0.833008 14.5339 3.10414 12.9285 7.38524ZM11.9876 10.5837C11.6895 11.9028 11.4578 13.3487 11.3005 14.9171C9.9876 15.8502 8.81521 16.7843 7.7832 17.7108C6.99823 16.8216 6.41576 15.9868 6.0207 15.2197L5.80543 14.7663C5.2589 13.5053 5.24855 12.4486 5.69953 11.661C6.15346 10.8682 7.5192 10.2558 9.75241 10.3241C10.4448 10.3453 11.1901 10.4309 11.9876 10.5837ZM15.1634 11.4564C15.09 11.8056 15.021 12.1676 14.9569 12.5425C15.144 12.431 15.3331 12.3196 15.5243 12.2083L16.1037 11.875L16.1821 11.8316C15.8359 11.6973 15.4964 11.5723 15.1634 11.4564ZM19.999 9.85751C18.6301 9.22059 17.3222 8.69227 16.0814 8.26901C17.1477 5.51086 18.5866 4.16634 19.9992 4.16634C21.4515 4.16634 22.898 5.48329 23.958 8.25502C22.7049 8.68061 21.3832 9.21354 19.999 9.85751ZM19.999 13.5578C19.1004 14.0165 18.1677 14.5265 17.2013 15.089C16.2348 15.6517 15.3302 16.2115 14.4865 16.7671C14.4255 17.7815 14.3932 18.8588 14.3932 19.9997C14.3932 21.141 14.4255 22.2187 14.4865 23.2335L15.0901 23.6263C15.756 24.0498 16.4594 24.478 17.2013 24.91L18.2965 25.5337C18.4762 25.6338 18.6545 25.7318 18.8314 25.8282L19.8757 26.3823C19.9164 26.4035 19.957 26.4245 19.9977 26.4453L20.1227 26.3823L21.1669 25.8282C21.3439 25.7318 21.522 25.6338 21.7019 25.5337L22.797 24.91C23.5389 24.478 24.2424 24.0498 24.9082 23.6263L25.5145 23.2317L25.5275 23.032C25.5785 22.0777 25.6054 21.0673 25.6054 19.9997C25.6054 18.932 25.5785 17.9217 25.5275 16.9673L25.5145 16.7689C24.67 16.2127 23.7645 15.6523 22.7969 15.089C21.8305 14.5265 20.8979 14.0165 19.999 13.5578ZM25.0654 12.5569C24.8705 12.4406 24.6734 12.3243 24.4739 12.2083C24.2539 12.0801 24.0349 11.9545 23.8172 11.8312C24.172 11.6936 24.5199 11.5657 24.8607 11.4474C24.9337 11.8036 25.002 12.1734 25.0654 12.5569ZM28.9342 19.263C28.9372 19.5062 28.9387 19.7518 28.9387 19.9997C28.9387 20.2607 28.937 20.519 28.9337 20.7748C29.2484 20.5233 29.549 20.2745 29.8359 20.0283C29.5485 19.7747 29.2482 19.5195 28.9342 19.263ZM32.215 17.7108C31.1854 16.7863 30.0159 15.8544 28.7065 14.9234C28.5535 13.3475 28.3272 11.8985 28.035 10.579C28.8234 10.4292 29.5605 10.345 30.2459 10.3241C32.479 10.2558 33.8447 10.8682 34.2987 11.661C35.0672 13.0031 34.496 15.1266 32.215 17.7108ZM32.1545 22.373C31.1402 23.2705 29.9909 24.1767 28.7057 25.085C28.5489 26.6965 28.3154 28.1755 28.013 29.5187C31.4047 30.2405 33.5292 29.6818 34.2987 28.338C34.7557 27.5398 34.5975 26.0282 33.417 24.1037C33.0705 23.5387 32.6502 22.9613 32.1545 22.373ZM24.852 28.5945C24.9282 28.2252 24.9995 27.8412 25.0655 27.4422C24.8705 27.5585 24.6735 27.6747 24.474 27.7907L23.7797 28.1855C24.146 28.3323 24.5035 28.4685 24.852 28.5945ZM16.2147 28.187C15.986 28.0577 15.7558 27.9255 15.5242 27.7907C15.333 27.6793 15.1439 27.568 14.9568 27.4565C15.0236 27.8467 15.0955 28.2228 15.1723 28.585C15.5113 28.4622 15.8588 28.3297 16.2147 28.187ZM11.065 20.7753C11.0616 20.5192 11.0599 20.2607 11.0599 19.9997C11.0599 19.7517 11.0614 19.506 11.0645 19.2625C10.7505 19.5192 10.4498 19.7745 10.1624 20.0283C10.4494 20.2745 10.7501 20.5237 11.065 20.7753ZM7.84383 22.373C8.86048 23.2725 10.0126 24.1808 11.3014 25.0913C11.4625 26.695 11.7016 28.1705 12.0098 29.5133C8.60393 30.2432 6.47096 29.6852 5.69958 28.338C5.24256 27.5398 5.40081 26.0282 6.58131 24.1037C6.92781 23.5387 7.34811 22.9613 7.84383 22.373ZM19.9992 30.1495C21.3837 30.7982 22.7022 31.3353 23.95 31.765C22.8909 34.5227 21.4479 35.833 19.9992 35.833C18.5901 35.833 17.1548 34.4952 16.0894 31.7508C17.325 31.3235 18.6298 30.791 19.9992 30.1495Z" fill="#333333"/>
</g>
</g>
</g>
<defs>
<clipPath id="clip0_504_8473">
<rect width="40" height="40" fill="white"/>
</clipPath>
</defs>
</svg>
