<svg width="40" height="40" viewBox="0 0 40 40" fill="none" xmlns="http://www.w3.org/2000/svg">
<g id="Group">
<path id="Vector" fill-rule="evenodd" clip-rule="evenodd" d="M19.0118 1.99104C19.5993 1.55898 20.3994 1.55898 20.9868 1.99104L25.3993 5.23646C28.0503 7.18633 29.859 10.0246 30.5362 13.1801L35.3445 17.9885C35.657 18.301 35.8327 18.725 35.8327 19.167V25.8337C35.8327 26.4113 35.5335 26.9477 35.0422 27.2515C34.5508 27.5552 33.9373 27.5827 33.4207 27.3243L30.8327 26.0303V30.8337C30.8327 31.7542 30.0865 32.5003 29.166 32.5003H26.666V35.0003C26.666 35.9208 25.9198 36.667 24.9993 36.667C24.0788 36.667 23.3327 35.9208 23.3327 35.0003V32.5003H21.666V36.667C21.666 37.5875 20.9198 38.3337 19.9993 38.3337C19.0789 38.3337 18.3327 37.5875 18.3327 36.667V32.5003H16.666V35.0003C16.666 35.9208 15.9198 36.667 14.9993 36.667C14.0789 36.667 13.3327 35.9208 13.3327 35.0003V32.5003H10.8327C9.91222 32.5003 9.16602 31.7542 9.16602 30.8337V26.0303L6.57803 27.3243C6.0614 27.5827 5.44782 27.5552 4.95646 27.2515C4.4651 26.9477 4.16602 26.4113 4.16602 25.8337V19.167C4.16602 18.725 4.34161 18.301 4.65417 17.9885L9.4626 13.1801C10.1397 10.0246 11.9483 7.18633 14.5993 5.23646L19.0118 1.99104ZM12.4993 15.9774V29.167H27.4993V15.9774C27.4993 12.7969 25.9865 9.80611 23.4243 7.92169L19.9993 5.40259L16.5743 7.92169C14.0123 9.80611 12.4993 12.7969 12.4993 15.9774ZM9.16602 18.1907V22.3037L7.49935 23.137V19.8573L9.16602 18.1907ZM30.8327 22.3037L32.4993 23.137V19.8573L30.8327 18.1907V22.3037Z" fill="#333333"/>
</g>
</svg>
