<svg width="40" height="40" viewBox="0 0 40 40" fill="none" xmlns="http://www.w3.org/2000/svg">
<g id="&#229;&#141;&#143;&#228;&#189;&#156;,&#229;&#138;&#158;&#229;&#133;&#172;,logo,&#229;&#173;&#151;&#232;&#138;&#130;&#232;&#183;&#179;&#229;&#138;&#168;&#229;&#141;&#143;&#228;&#189;&#156;,&#229;&#138;&#158;&#229;&#133;&#172;,logo,&#229;&#173;&#151;&#232;&#138;&#130;&#232;&#183;&#179;&#229;&#138;&#168;" clip-path="url(#clip0_535_4814)">
<g id="Group">
<g id="Group_2">
<path id="Vector" fill-rule="evenodd" clip-rule="evenodd" d="M36.2368 6.05263L26.9008 37.6301C26.7341 38.1937 26.283 38.6279 25.7133 38.7727C25.1436 38.9176 24.5396 38.7516 24.1241 38.3359L16.7237 30.9356C16.4093 30.6212 16.2335 30.1941 16.2355 29.7496L16.2629 23.6819L9.93474 23.5027C9.50921 23.4907 9.10442 23.3164 8.80341 23.0152L1.73233 15.9442C1.31723 15.5291 1.15112 14.9262 1.29503 14.3571C1.43894 13.788 1.87165 13.3366 2.43416 13.1687L34.254 3.67122C34.84 3.49632 35.4746 3.65638 35.9076 4.08823C36.2338 4.41356 36.406 4.85376 36.397 5.30185C36.4025 5.55843 36.3491 5.81603 36.2368 6.05263ZM28.9905 8.72091L6.06557 15.5634L10.6917 20.1895L17.9841 20.3961C18.8888 20.4217 19.6076 21.1646 19.6036 22.0696L19.572 29.0697L24.499 33.9969L31.2446 11.1807L28.5226 13.9027C28.8195 15.0147 28.5318 16.2504 27.6595 17.1228C26.3576 18.4245 24.2471 18.4245 22.9453 17.1228C21.6436 15.821 21.6436 13.7104 22.9453 12.4087C23.8178 11.5362 25.0536 11.2485 26.1658 11.5456L28.9905 8.72091Z" fill="#333333"/>
</g>
</g>
</g>
<defs>
<clipPath id="clip0_535_4814">
<rect width="40" height="40" fill="white"/>
</clipPath>
</defs>
</svg>
