<svg width="40" height="40" viewBox="0 0 40 40" fill="none" xmlns="http://www.w3.org/2000/svg">
<g id="&#232;&#129;&#154;&#229;&#144;&#136;,&#230;&#148;&#182;&#230;&#139;&#162;,&#229;&#155;&#158;&#230;&#148;&#182;,&#230;&#178;&#137;&#230;&#183;&#128;&#232;&#129;&#154;&#229;&#144;&#136;,&#230;&#148;&#182;&#230;&#139;&#162;,&#229;&#155;&#158;&#230;&#148;&#182;,&#230;&#178;&#137;&#230;&#183;&#128;" clip-path="url(#clip0_535_3256)">
<g id="Group">
<g id="Group_2">
<path id="Vector" fill-rule="evenodd" clip-rule="evenodd" d="M19.9993 1.66699C20.9198 1.66699 21.666 2.41318 21.666 3.33366V12.6433L22.1542 12.1551C22.805 11.5043 23.8603 11.5043 24.5112 12.1551C25.162 12.806 25.162 13.8613 24.5112 14.5122L21.1778 17.8455C20.527 18.4963 19.4717 18.4963 18.8208 17.8455L15.4875 14.5122C14.8366 13.8613 14.8366 12.806 15.4875 12.1551C16.1384 11.5043 17.1937 11.5043 17.8445 12.1551L18.3327 12.6433V3.33366C18.3327 2.41318 19.0788 1.66699 19.9993 1.66699ZM1.66602 13.0312C1.66602 12.1107 2.41221 11.3645 3.33268 11.3645H6.66602C9.42738 11.3645 11.666 13.603 11.666 16.3645V23.4767L12.1542 22.9885C12.805 22.3377 13.8603 22.3377 14.5112 22.9885C15.1621 23.6393 15.1621 24.6947 14.5112 25.3455L11.1779 28.6788C10.527 29.3297 9.47172 29.3297 8.82083 28.6788L5.4875 25.3455C4.83663 24.6947 4.83663 23.6393 5.4875 22.9885C6.13838 22.3377 7.19365 22.3377 7.84453 22.9885L8.33268 23.4767V16.3645C8.33268 15.444 7.58648 14.6978 6.66602 14.6978H3.33268C2.41221 14.6978 1.66602 13.9516 1.66602 13.0312ZM33.3327 14.6978C32.4122 14.6978 31.666 15.444 31.666 16.3645V23.4767L32.1542 22.9885C32.805 22.3377 33.8604 22.3377 34.5112 22.9885C35.162 23.6393 35.162 24.6947 34.5112 25.3455L31.1779 28.6788C30.527 29.3297 29.4717 29.3297 28.8209 28.6788L25.4875 25.3455C24.8367 24.6947 24.8367 23.6393 25.4875 22.9885C26.1384 22.3377 27.1937 22.3377 27.8445 22.9885L28.3327 23.4767V16.3645C28.3327 13.603 30.5714 11.3645 33.3327 11.3645H36.666C37.5865 11.3645 38.3327 12.1107 38.3327 13.0312C38.3327 13.9516 37.5865 14.6978 36.666 14.6978H33.3327ZM3.33268 28.3337C4.25315 28.3337 4.99935 29.0798 4.99935 30.0003V33.3337C4.99935 34.2542 5.74555 35.0003 6.66602 35.0003H33.3327C34.2532 35.0003 34.9994 34.2542 34.9994 33.3337V30.0003C34.9994 29.0798 35.7455 28.3337 36.666 28.3337C37.5865 28.3337 38.3327 29.0798 38.3327 30.0003V33.3337C38.3327 36.095 36.094 38.3337 33.3327 38.3337H6.66602C3.90458 38.3337 1.66602 36.095 1.66602 33.3337V30.0003C1.66602 29.0798 2.41221 28.3337 3.33268 28.3337Z" fill="#333333"/>
</g>
</g>
</g>
<defs>
<clipPath id="clip0_535_3256">
<rect width="40" height="40" fill="white"/>
</clipPath>
</defs>
</svg>
