<svg width="40" height="40" viewBox="0 0 40 40" fill="none" xmlns="http://www.w3.org/2000/svg">
<g id="&#230;&#150;&#135;&#228;&#187;&#182;&#229;&#164;&#185;,&#229;&#136;&#160;&#233;&#153;&#164;,&#229;&#138;&#158;&#229;&#133;&#172;&#230;&#150;&#135;&#228;&#187;&#182;&#229;&#164;&#185;,&#229;&#136;&#160;&#233;&#153;&#164;,&#229;&#138;&#158;&#229;&#133;&#172;" clip-path="url(#clip0_535_4699)">
<g id="Group">
<g id="Group_2">
<path id="Vector" fill-rule="evenodd" clip-rule="evenodd" d="M1.66602 8.33333C1.66602 6.49238 3.1584 5 4.99935 5H15.8327C16.3273 5 16.7964 5.21971 17.113 5.59969L20.78 10H34.9994C36.8404 10 38.3327 11.4924 38.3327 13.3333V33.3333C38.3327 35.1743 36.8404 36.6667 34.9994 36.6667H4.99935C3.15842 36.6667 1.66602 35.1743 1.66602 33.3333V8.33333ZM15.052 8.33333H4.99935V33.3333H34.9994V13.3333H19.9993C19.5047 13.3333 19.0357 13.1136 18.719 12.7336L15.052 8.33333ZM13.2908 23.3333C13.2908 22.4128 14.0369 21.6667 14.9574 21.6667H24.9574C25.8779 21.6667 26.624 22.4128 26.624 23.3333C26.624 24.2538 25.8779 25 24.9574 25H14.9574C14.0369 25 13.2908 24.2538 13.2908 23.3333Z" fill="#333333"/>
</g>
</g>
</g>
<defs>
<clipPath id="clip0_535_4699">
<rect width="40" height="40" fill="white"/>
</clipPath>
</defs>
</svg>
