<svg width="40" height="40" viewBox="0 0 40 40" fill="none" xmlns="http://www.w3.org/2000/svg">
<g id="&#231;&#128;&#145;&#229;&#184;&#131;&#230;&#181;&#129;&#231;&#186;&#181;&#229;&#144;&#145;&#231;&#128;&#145;&#229;&#184;&#131;,&#230;&#142;&#146;&#231;&#137;&#136;,&#231;&#149;&#140;&#233;&#157;&#162;,&#233;&#161;&#186;&#229;&#186;&#143;&#231;&#128;&#145;&#229;&#184;&#131;,&#230;&#142;&#146;&#231;&#137;&#136;,&#231;&#149;&#140;&#233;&#157;&#162;,&#233;&#161;&#186;&#229;&#186;&#143;" clip-path="url(#clip0_535_3632)">
<g id="Group">
<g id="Group_2">
<path id="Vector" fill-rule="evenodd" clip-rule="evenodd" d="M19.1673 3.33301C20.0878 3.33301 20.834 4.0792 20.834 4.99967V16.6663C20.834 17.5868 20.0878 18.333 19.1673 18.333H5.00065C4.08018 18.333 3.33398 17.5868 3.33398 16.6663V4.99967C3.33398 4.0792 4.08018 3.33301 5.00065 3.33301H19.1673ZM24.1673 16.6663C24.1673 17.5868 24.9135 18.333 25.834 18.333H35.0007C35.9212 18.333 36.6673 17.5868 36.6673 16.6663V4.99967C36.6673 4.0792 35.9212 3.33301 35.0007 3.33301H25.834C24.9135 3.33301 24.1673 4.0792 24.1673 4.99967V16.6663ZM17.5007 6.66634H6.66732V14.9997H17.5007V6.66634ZM33.334 14.9997H27.5007V6.66634H33.334V14.9997ZM5.00065 36.6663C4.08018 36.6663 3.33398 35.9202 3.33398 34.9997V23.333C3.33398 22.4125 4.08018 21.6663 5.00065 21.6663H14.1673C15.0878 21.6663 15.834 22.4125 15.834 23.333V34.9997C15.834 35.9202 15.0878 36.6663 14.1673 36.6663H5.00065ZM35.0007 21.6663C35.9212 21.6663 36.6673 22.4125 36.6673 23.333V34.9997C36.6673 35.9202 35.9212 36.6663 35.0007 36.6663H20.834C19.9135 36.6663 19.1673 35.9202 19.1673 34.9997V23.333C19.1673 22.4125 19.9135 21.6663 20.834 21.6663H35.0007ZM6.66732 33.333H12.5007V24.9997H6.66732V33.333ZM33.334 24.9997H22.5007V33.333H33.334V24.9997Z" fill="#333333"/>
</g>
</g>
</g>
<defs>
<clipPath id="clip0_535_3632">
<rect width="40" height="40" fill="white"/>
</clipPath>
</defs>
</svg>
