<svg width="40" height="40" viewBox="0 0 40 40" fill="none" xmlns="http://www.w3.org/2000/svg">
<g id="&#231;&#189;&#145;&#231;&#187;&#156;,&#231;&#187;&#147;&#230;&#158;&#132;,&#232;&#138;&#130;&#231;&#130;&#185;,&#232;&#129;&#148;&#233;&#128;&#154;,&#228;&#191;&#161;&#230;&#129;&#175;,&#228;&#188;&#160;&#232;&#190;&#147;,&#228;&#191;&#161;&#229;&#143;&#183;&#231;&#189;&#145;&#231;&#187;&#156;,&#231;&#187;&#147;&#230;&#158;&#132;,&#232;&#138;&#130;&#231;&#130;&#185;,&#232;&#129;&#148;&#233;&#128;&#154;,&#228;&#191;&#161;&#230;&#129;&#175;,&#228;&#188;&#160;&#232;&#190;&#147;,&#228;&#191;&#161;&#229;&#143;&#183;" clip-path="url(#clip0_535_6042)">
<g id="Group">
<g id="Group_2">
<path id="Vector" fill-rule="evenodd" clip-rule="evenodd" d="M4.99935 4.99967C4.99935 4.0792 5.74555 3.33301 6.66602 3.33301H33.3327C34.2532 3.33301 34.9994 4.0792 34.9994 4.99967V14.9997C34.9994 15.9201 34.2532 16.6663 33.3327 16.6663H21.666V19.9997H33.3327C34.2532 19.9997 34.9994 20.7458 34.9994 21.6663V26.6663H36.666C37.5865 26.6663 38.3327 27.4125 38.3327 28.333V34.9997C38.3327 35.9202 37.5865 36.6663 36.666 36.6663H29.9994C29.0789 36.6663 28.3327 35.9202 28.3327 34.9997V28.333C28.3327 27.4125 29.0789 26.6663 29.9994 26.6663H31.666V23.333H21.666V26.6663H23.3327C24.2532 26.6663 24.9994 27.4125 24.9994 28.333V34.9997C24.9994 35.9202 24.2532 36.6663 23.3327 36.6663H16.666C15.7455 36.6663 14.9993 35.9202 14.9993 34.9997V28.333C14.9993 27.4125 15.7455 26.6663 16.666 26.6663H18.3327V23.333H8.33268V26.6663H9.99935C10.9198 26.6663 11.666 27.4125 11.666 28.333V34.9997C11.666 35.9202 10.9198 36.6663 9.99935 36.6663H3.33268C2.41221 36.6663 1.66602 35.9202 1.66602 34.9997V28.333C1.66602 27.4125 2.41221 26.6663 3.33268 26.6663H4.99935V21.6663C4.99935 20.7458 5.74555 19.9997 6.66602 19.9997H18.3327V16.6663H6.66602C5.74555 16.6663 4.99935 15.9201 4.99935 14.9997V4.99967ZM31.666 13.333V6.66634H8.33268V13.333H31.666ZM4.99935 29.9997V33.333H8.33268V29.9997H4.99935ZM18.3327 29.9997V33.333H21.666V29.9997H18.3327ZM31.666 29.9997V33.333H34.9994V29.9997H31.666ZM9.99935 9.99967C9.99935 9.07921 10.7455 8.33301 11.666 8.33301H13.3327C14.2531 8.33301 14.9993 9.07921 14.9993 9.99967C14.9993 10.9201 14.2531 11.6663 13.3327 11.6663H11.666C10.7455 11.6663 9.99935 10.9201 9.99935 9.99967Z" fill="#333333"/>
</g>
</g>
</g>
<defs>
<clipPath id="clip0_535_6042">
<rect width="40" height="40" fill="white"/>
</clipPath>
</defs>
</svg>
