<svg width="40" height="40" viewBox="0 0 40 40" fill="none" xmlns="http://www.w3.org/2000/svg">
<g id="&#232;&#182;&#139;&#229;&#138;&#191;,&#230;&#149;&#176;&#230;&#141;&#174;,&#230;&#182;&#168;&#229;&#185;&#133;,&#229;&#162;&#158;&#233;&#149;&#191;&#232;&#182;&#139;&#229;&#138;&#191;,&#230;&#149;&#176;&#230;&#141;&#174;,&#230;&#182;&#168;&#229;&#185;&#133;,&#229;&#162;&#158;&#233;&#149;&#191;" clip-path="url(#clip0_535_5211)">
<g id="Group">
<g id="Group_2">
<path id="Vector" fill-rule="evenodd" clip-rule="evenodd" d="M26.6664 3.33366C26.6664 2.41318 27.4127 1.66699 28.333 1.66699H36.6664C37.4394 1.66699 38.1108 2.19845 38.2885 2.95074C38.466 3.70303 38.1032 4.47869 37.4119 4.82438L10.7451 18.1577C10.3892 18.3357 9.98148 18.3803 9.59552 18.2839L2.92885 16.6172C2.03586 16.394 1.49292 15.4891 1.71617 14.5961C1.93942 13.7031 2.84431 13.1602 3.7373 13.3834L9.80583 14.9006L29.6064 5.00033H28.333C27.4127 5.00033 26.6664 4.25413 26.6664 3.33366ZM37.5427 8.58258C38.034 8.88626 38.333 9.42269 38.333 10.0003V31.667C38.333 32.5875 37.5869 33.3337 36.6664 33.3337H29.9997C29.0794 33.3337 28.333 32.5875 28.333 31.667V13.3337C28.333 12.7024 28.6897 12.1253 29.2543 11.8429L35.921 8.50961C36.4377 8.25129 37.0513 8.27889 37.5427 8.58258ZM31.6664 14.3637V30.0003H34.9997V12.697L31.6664 14.3637ZM24.2094 15.2492C24.7007 15.5529 24.9997 16.0894 24.9997 16.667V31.667C24.9997 32.5875 24.2535 33.3337 23.333 33.3337H16.6664C15.7459 33.3337 14.9998 32.5875 14.9998 31.667V20.0003C14.9998 19.369 15.3564 18.792 15.921 18.5097L22.5877 15.1763C23.1043 14.918 23.718 14.9456 24.2094 15.2492ZM18.333 21.0303V30.0003H21.6664V19.3637L18.333 21.0303ZM2.30739 20.3533C2.71192 20.0375 3.2394 19.9257 3.7373 20.0502L10.404 21.7168C11.1459 21.9022 11.6664 22.5688 11.6664 23.3337V31.667C11.6664 32.5875 10.9202 33.3337 9.99975 33.3337H3.33308C2.4126 33.3337 1.66641 32.5875 1.66641 31.667V21.667C1.66641 21.1538 1.90286 20.6692 2.30739 20.3533ZM4.99975 23.8017V30.0003H8.33308V24.635L4.99975 23.8017ZM1.66641 36.667C1.66641 35.7465 2.4126 35.0003 3.33308 35.0003H36.6664C37.5869 35.0003 38.333 35.7465 38.333 36.667C38.333 37.5875 37.5869 38.3337 36.6664 38.3337H3.33308C2.4126 38.3337 1.66641 37.5875 1.66641 36.667Z" fill="#333333"/>
</g>
</g>
</g>
<defs>
<clipPath id="clip0_535_5211">
<rect width="40" height="40" fill="white"/>
</clipPath>
</defs>
</svg>
