<svg width="40" height="40" viewBox="0 0 40 40" fill="none" xmlns="http://www.w3.org/2000/svg">
<g id="&#230;&#155;&#180;&#229;&#164;&#154;,&#231;&#188;&#150;&#232;&#190;&#145;,&#229;&#133;&#182;&#228;&#187;&#150;&#230;&#155;&#180;&#229;&#164;&#154;,&#231;&#188;&#150;&#232;&#190;&#145;,&#229;&#133;&#182;&#228;&#187;&#150;,&#229;&#136;&#134;&#231;&#177;&#187;" clip-path="url(#clip0_535_899)">
<g id="Group">
<g id="Group_2">
<path id="Vector" fill-rule="evenodd" clip-rule="evenodd" d="M12.9875 10.3452C12.3366 9.69429 12.3366 8.63901 12.9875 7.98814L18.88 2.09558C19.531 1.4447 20.5862 1.4447 21.237 2.09558L27.1295 7.98799C27.7804 8.63886 27.7804 9.69414 27.1295 10.345L21.237 16.2376C20.586 16.8884 19.5309 16.8884 18.8799 16.2376L12.9875 10.3452ZM16.523 9.16664L20.0584 12.702L23.594 9.16651L20.0585 5.63111L16.523 9.16664ZM2.15417 18.8214C1.5033 19.4724 1.5033 20.5276 2.15417 21.1784L8.04658 27.0709C8.69745 27.7218 9.75273 27.7218 10.4036 27.0709L16.2962 21.1784C16.947 20.5274 16.947 19.4723 16.2962 18.8213L10.4037 12.9289C9.75288 12.278 8.6976 12.278 8.04673 12.9289L2.15417 18.8214ZM29.7132 27.0709L23.8209 21.1784C23.17 20.5276 23.17 19.4724 23.8209 18.8214L29.7133 12.9289C30.3643 12.278 31.4195 12.278 32.0703 12.9289L37.9629 18.8213C38.6137 19.4723 38.6137 20.5274 37.9629 21.1784L32.0703 27.0709C31.4193 27.7218 30.3642 27.7218 29.7132 27.0709ZM9.22508 23.5354L5.6897 19.9999L9.22523 16.4644L12.7606 19.9998L9.22508 23.5354ZM27.3563 19.9999L30.8917 23.5354L34.4274 19.9998L30.8918 16.4644L27.3563 19.9999ZM12.9875 29.6548C12.3366 30.3058 12.3366 31.3609 12.9875 32.0118L18.8799 37.9043C19.5309 38.5551 20.586 38.5551 21.237 37.9043L27.1295 32.0118C27.7804 31.3608 27.7804 30.3056 27.1295 29.6546L21.237 23.7623C20.5862 23.1114 19.531 23.1114 18.88 23.7623L12.9875 29.6548ZM20.0584 34.3688L16.523 30.8333L20.0585 27.2978L23.594 30.8331L20.0584 34.3688Z" fill="#333333"/>
</g>
</g>
</g>
<defs>
<clipPath id="clip0_535_899">
<rect width="40" height="40" fill="white"/>
</clipPath>
</defs>
</svg>
