<svg width="40" height="40" viewBox="0 0 40 40" fill="none" xmlns="http://www.w3.org/2000/svg">
<g id="API &#230;&#142;&#165;&#229;&#143;&#163;&#230;&#142;&#165;&#229;&#143;&#163;,&#229;&#188;&#128;&#229;&#143;&#145;,&#231;&#168;&#139;&#229;&#186;&#143;,&#231;&#160;&#148;&#229;&#143;&#145;,API&#230;&#142;&#165;&#229;&#143;&#163;,&#229;&#188;&#128;&#229;&#143;&#145;,&#231;&#168;&#139;&#229;&#186;&#143;,&#231;&#160;&#148;&#229;&#143;&#145;,API" clip-path="url(#clip0_659_8688)">
<g id="Group">
<g id="Group_2">
<path id="Vector" fill-rule="evenodd" clip-rule="evenodd" d="M36.1787 3.82213C36.8295 4.47299 36.8295 5.52827 36.1787 6.17915L33.0717 9.28617C34.2585 11.0988 34.458 13.0797 34.2002 14.7816C33.8922 16.8138 32.9147 18.6098 32.012 19.5125L29.512 22.0127C28.8612 22.6635 27.8058 22.6635 27.155 22.0127L17.9883 12.8459C17.6758 12.5334 17.5002 12.1094 17.5002 11.6674C17.5002 11.2254 17.6758 10.8015 17.9883 10.4889L20.4883 7.98892C21.391 7.08617 23.1872 6.10865 25.2192 5.80075C26.9212 5.54288 28.902 5.74238 30.7147 6.92915L33.8217 3.82215C34.4725 3.17127 35.5278 3.17126 36.1787 3.82213ZM25.7187 9.09647C24.3133 9.3094 23.1927 9.99857 22.8453 10.3459L21.5238 11.6674L28.3335 18.4771L29.655 17.1556C30.0023 16.8082 30.6915 15.6876 30.9043 14.2823C31.104 12.9643 30.8673 11.5582 29.655 10.3459C28.4427 9.13362 27.0365 8.89678 25.7187 9.09647ZM17.8453 16.3221C18.4962 16.973 18.4962 18.0283 17.8453 18.6792L15.6906 20.834L19.1669 24.3103L21.3217 22.1555C21.9725 21.5047 23.0278 21.5047 23.6787 22.1555C24.3295 22.8063 24.3295 23.8617 23.6787 24.5125L21.5238 26.6673L22.012 27.1553C22.6628 27.8063 22.6628 28.8615 22.012 29.5125L19.512 32.0123C19.5121 32.0123 19.512 32.0123 19.512 32.0123C18.6093 32.9152 16.8132 33.8927 14.7811 34.2007C13.0792 34.4585 11.0982 34.259 9.28561 33.0721L6.17868 36.1792C5.52781 36.83 4.47254 36.83 3.82166 36.1792C3.17078 35.5283 3.17077 34.473 3.82164 33.8222L6.9286 30.7151C5.74183 28.9025 5.54235 26.9217 5.80021 25.2197C6.10813 23.1875 7.08563 21.3915 7.98828 20.4888L10.4883 17.9887C11.1392 17.3379 12.1945 17.3379 12.8453 17.9887L13.3335 18.4769L15.4883 16.3221C16.1392 15.6713 17.1945 15.6713 17.8453 16.3221ZM11.6668 21.5243L10.3454 22.8457C10.3454 22.8457 10.3454 22.8457 10.3454 22.8457C9.99801 23.1932 9.30886 24.3138 9.09595 25.719C8.89625 27.037 9.13306 28.4432 10.3453 29.6553C11.5576 30.8677 12.9638 31.1045 14.2817 30.9048C15.6871 30.692 16.8076 30.0028 17.1549 29.6555L18.4765 28.334L17.9983 27.8558C17.995 27.8525 17.9916 27.8492 17.9883 27.8458C17.985 27.8425 17.9817 27.8391 17.9784 27.8358L12.165 22.0225C12.1616 22.0192 12.1583 22.0158 12.155 22.0125C12.1517 22.0092 12.1484 22.0058 12.1451 22.0025L11.6668 21.5243Z" fill="#333333"/>
</g>
</g>
</g>
<defs>
<clipPath id="clip0_659_8688">
<rect width="40" height="40" fill="white"/>
</clipPath>
</defs>
</svg>
