<svg width="40" height="40" viewBox="0 0 40 40" fill="none" xmlns="http://www.w3.org/2000/svg">
<g id="&#233;&#151;&#170;&#231;&#148;&#181;,&#233;&#151;&#170;&#229;&#133;&#137;,&#229;&#191;&#171;&#233;&#128;&#159;,&#232;&#131;&#189;&#233;&#135;&#143;,&#231;&#148;&#181;&#230;&#177;&#160;&#233;&#151;&#170;&#231;&#148;&#181;,&#233;&#151;&#170;&#229;&#133;&#137;,&#229;&#191;&#171;&#233;&#128;&#159;,&#232;&#131;&#189;&#233;&#135;&#143;,&#231;&#148;&#181;&#230;&#177;&#160;" clip-path="url(#clip0_659_8724)">
<g id="Group">
<g id="Group_2">
<path id="Vector" fill-rule="evenodd" clip-rule="evenodd" d="M1.6665 19.9993C1.6665 9.87413 9.87462 1.66602 19.9998 1.66602C30.125 1.66602 38.3332 9.87413 38.3332 19.9993C38.3332 30.1245 30.125 38.3327 19.9998 38.3327C9.87462 38.3327 1.6665 30.1245 1.6665 19.9993ZM19.9998 4.99935C11.7156 4.99935 4.99984 11.7151 4.99984 19.9993C4.99984 28.2837 11.7156 34.9994 19.9998 34.9994C28.2842 34.9994 34.9998 28.2837 34.9998 19.9993C34.9998 11.7151 28.2842 4.99935 19.9998 4.99935ZM19.9118 10.1757C20.7352 10.5873 21.0688 11.5884 20.6572 12.4117L17.6966 18.333H24.9998C25.5775 18.333 26.1138 18.6322 26.4177 19.1235C26.7213 19.6148 26.7488 20.2283 26.4905 20.745L22.3238 29.0783C21.9122 29.9017 20.9112 30.2354 20.0878 29.8237C19.2645 29.4122 18.9308 28.411 19.3425 27.5877L22.3032 21.6664H14.9998C14.4222 21.6664 13.8858 21.3673 13.5821 20.8758C13.2784 20.3845 13.2508 19.771 13.5091 19.2544L17.6758 10.921C18.0874 10.0977 19.0885 9.76402 19.9118 10.1757Z" fill="#333333"/>
</g>
</g>
</g>
<defs>
<clipPath id="clip0_659_8724">
<rect width="40" height="40" fill="white"/>
</clipPath>
</defs>
</svg>
