<svg width="40" height="40" viewBox="0 0 40 40" fill="none" xmlns="http://www.w3.org/2000/svg">
<g id="&#233;&#128;&#159;&#231;&#142;&#135;,&#233;&#128;&#159;&#229;&#186;&#166;&#232;&#161;&#168;,&#228;&#187;&#170;&#232;&#161;&#168;&#231;&#155;&#152;&#233;&#128;&#159;&#231;&#142;&#135;,&#233;&#128;&#159;&#229;&#186;&#166;&#232;&#161;&#168;,&#228;&#187;&#170;&#232;&#161;&#168;&#231;&#155;&#152;" clip-path="url(#clip0_572_6571)">
<g id="Group">
<g id="Group_2">
<path id="Vector" d="M20.0003 1.66699C23.271 1.66699 26.4203 2.5261 29.1897 4.13313C29.9858 4.59511 30.2567 5.61503 29.7947 6.41118C29.3327 7.20731 28.3128 7.47819 27.5167 7.01621C25.2522 5.70216 22.6793 5.00033 20.0003 5.00033C11.716 5.00033 5.00033 11.716 5.00033 20.0003C5.00033 28.2847 11.716 35.0003 20.0003 35.0003C28.2847 35.0003 35.0003 28.2847 35.0003 20.0003C35.0003 17.3394 34.308 14.7834 33.011 12.5298C32.5518 11.7321 32.8262 10.7131 33.624 10.2539C34.4218 9.79474 35.4407 10.0692 35.8998 10.867C37.4863 13.6231 38.3337 16.7519 38.3337 20.0003C38.3337 30.1255 30.1255 38.3337 20.0003 38.3337C9.87511 38.3337 1.66699 30.1255 1.66699 20.0003C1.66699 9.87511 9.87511 1.66699 20.0003 1.66699ZM26.0405 11.8147C27.38 11.313 28.6877 12.6207 28.186 13.9601L27.2022 16.4695C26.9137 17.1808 26.6208 17.8821 26.3298 18.5532C26.2642 18.7045 26.1992 18.8532 26.1347 18.9992L25.7547 19.8418L25.3588 20.6797C24.7212 21.9915 24.1878 22.884 23.679 23.3928C21.7263 25.3455 18.5605 25.3455 16.6078 23.3928C14.6552 21.4402 14.6552 18.2744 16.6078 16.3217C17.1166 15.8129 18.0091 15.2795 19.3208 14.6418L20.1585 14.246C20.2933 14.1839 20.431 14.1212 20.5715 14.0578L21.4475 13.6708C22.4542 13.2343 23.5288 12.7936 24.603 12.3701L26.0405 11.8147ZM23.6387 16.3603L22.7737 16.7289C22.6297 16.7914 22.4885 16.8532 22.35 16.9144L21.554 17.2733L20.9443 17.5606L20.3998 17.8296L19.9283 18.0753L19.5375 18.2927L19.2352 18.4767C19.1075 18.5593 19.0158 18.6277 18.9648 18.6788C18.314 19.3297 18.314 20.385 18.9648 21.0358C19.6157 21.6867 20.671 21.6867 21.3218 21.0358C21.39 20.9678 21.4888 20.8277 21.6115 20.6258L21.8128 20.2783L22.045 19.846L22.303 19.337L22.5818 18.759L22.9048 18.0574L23.2717 17.227L23.6387 16.3603Z" fill="#333333"/>
</g>
</g>
</g>
<defs>
<clipPath id="clip0_572_6571">
<rect width="40" height="40" fill="white"/>
</clipPath>
</defs>
</svg>
