<svg width="40" height="40" viewBox="0 0 40 40" fill="none" xmlns="http://www.w3.org/2000/svg">
<g id="&#233;&#151;&#170;&#231;&#148;&#181;,&#229;&#191;&#171;&#233;&#128;&#159;,&#232;&#131;&#189;&#233;&#135;&#143;,&#233;&#128;&#159;&#229;&#186;&#166;&#233;&#151;&#170;&#231;&#148;&#181;,&#229;&#191;&#171;&#233;&#128;&#159;,&#232;&#131;&#189;&#233;&#135;&#143;,&#233;&#128;&#159;&#229;&#186;&#166;" clip-path="url(#clip0_479_6513)">
<g id="Group">
<g id="Group_2">
<path id="Vector" fill-rule="evenodd" clip-rule="evenodd" d="M11.72 2.91296C11.9114 2.17907 12.5742 1.66699 13.3327 1.66699H25.8327C26.3458 1.66699 26.8305 1.90345 27.1464 2.30797C27.4622 2.7125 27.574 3.23998 27.4497 3.73789L25.4673 11.667H33.3327C33.9955 11.667 34.5955 12.0598 34.8603 12.6675C35.1253 13.2751 35.005 13.982 34.554 14.4677L12.8873 37.8012C12.3727 38.3553 11.5494 38.4935 10.882 38.1378C10.2146 37.782 9.87045 37.0215 10.0437 36.2853L12.895 24.167H8.3327C7.81649 24.167 7.32941 23.9278 7.01381 23.5193C6.6982 23.1108 6.5897 22.5792 6.72 22.0797L11.72 2.91296ZM14.6204 5.00033L10.4899 20.8337H14.9994C15.5085 20.8337 15.9898 21.0663 16.3059 21.4655C16.622 21.8647 16.7383 22.3865 16.6217 22.882L14.7312 30.9167L29.5107 15.0003H23.3327C22.8195 15.0003 22.3349 14.7639 22.019 14.3593C21.7032 13.9548 21.5913 13.4273 21.7158 12.9294L23.698 5.00033H14.6204ZM17.9036 7.55048C18.7966 7.77373 19.3395 8.67863 19.1163 9.57161L17.4496 16.2383C17.2263 17.1313 16.3215 17.6742 15.4285 17.451C14.5355 17.2277 13.9925 16.3228 14.2158 15.4298L15.8825 8.76316C16.1057 7.87018 17.0106 7.32724 17.9036 7.55048Z" fill="#333333"/>
</g>
</g>
</g>
<defs>
<clipPath id="clip0_479_6513">
<rect width="40" height="40" fill="white"/>
</clipPath>
</defs>
</svg>
