<svg width="40" height="40" viewBox="0 0 40 40" fill="none" xmlns="http://www.w3.org/2000/svg">
<g id="&#230;&#155;&#180;&#229;&#164;&#154;,&#231;&#188;&#150;&#232;&#190;&#145;,&#229;&#133;&#182;&#228;&#187;&#150;&#230;&#155;&#180;&#229;&#164;&#154;,&#231;&#188;&#150;&#232;&#190;&#145;,&#229;&#133;&#182;&#228;&#187;&#150;,&#229;&#136;&#134;&#231;&#177;&#187;" clip-path="url(#clip0_659_8670)">
<g id="Group">
<g id="Group_2">
<path id="Vector" fill-rule="evenodd" clip-rule="evenodd" d="M12.988 10.3452C12.3371 9.69429 12.3371 8.63901 12.988 7.98814L18.8805 2.09558C19.5315 1.4447 20.5867 1.4447 21.2375 2.09558L27.13 7.98799C27.7808 8.63886 27.7808 9.69414 27.13 10.345L21.2375 16.2376C20.5865 16.8884 19.5313 16.8884 18.8803 16.2376L12.988 10.3452ZM16.5235 9.16664L20.0588 12.702L23.5945 9.16651L20.059 5.63111L16.5235 9.16664ZM2.15466 18.8214C1.50379 19.4724 1.50379 20.5276 2.15466 21.1784L8.04707 27.0709C8.69794 27.7218 9.75322 27.7218 10.4041 27.0709L16.2967 21.1784C16.9475 20.5274 16.9475 19.4723 16.2967 18.8213L10.4042 12.9289C9.75337 12.278 8.69809 12.278 8.04722 12.9289L2.15466 18.8214ZM29.7137 27.0709L23.8213 21.1784C23.1705 20.5276 23.1705 19.4724 23.8213 18.8214L29.7138 12.9289C30.3648 12.278 31.42 12.278 32.0708 12.9289L37.9633 18.8213C38.6142 19.4723 38.6142 20.5274 37.9633 21.1784L32.0708 27.0709C31.4198 27.7218 30.3647 27.7218 29.7137 27.0709ZM9.22557 23.5354L5.69019 19.9999L9.22572 16.4644L12.7611 19.9998L9.22557 23.5354ZM27.3568 19.9999L30.8922 23.5354L34.4278 19.9998L30.8923 16.4644L27.3568 19.9999ZM12.988 29.6548C12.3371 30.3058 12.3371 31.3609 12.988 32.0118L18.8803 37.9043C19.5313 38.5551 20.5865 38.5551 21.2375 37.9043L27.13 32.0118C27.7808 31.3608 27.7808 30.3056 27.13 29.6546L21.2375 23.7623C20.5867 23.1114 19.5315 23.1114 18.8805 23.7623L12.988 29.6548ZM20.0588 34.3688L16.5235 30.8333L20.059 27.2978L23.5945 30.8331L20.0588 34.3688Z" fill="#333333"/>
</g>
</g>
</g>
<defs>
<clipPath id="clip0_659_8670">
<rect width="40" height="40" fill="white"/>
</clipPath>
</defs>
</svg>
