<svg width="40" height="40" viewBox="0 0 40 40" fill="none" xmlns="http://www.w3.org/2000/svg">
<g id="&#229;&#191;&#131;&#231;&#148;&#181;&#229;&#155;&#190;&#230;&#138;&#165;&#232;&#173;&#166;,&#231;&#155;&#145;&#230;&#142;&#167;,&#231;&#155;&#145;&#232;&#167;&#134;&#230;&#138;&#165;&#232;&#173;&#166;,&#231;&#155;&#145;&#230;&#142;&#167;,&#231;&#155;&#145;&#232;&#167;&#134;" clip-path="url(#clip0_479_6547)">
<g id="Group">
<g id="Group_2">
<path id="Vector" fill-rule="evenodd" clip-rule="evenodd" d="M19.9993 5.00033C11.7151 5.00033 4.99935 11.7161 4.99935 20.0003C4.99935 28.2847 11.7151 35.0003 19.9993 35.0003C28.2837 35.0003 34.9994 28.2847 34.9994 20.0003C34.9994 11.7161 28.2837 5.00033 19.9993 5.00033ZM1.66602 20.0003C1.66602 9.87511 9.87413 1.66699 19.9993 1.66699C30.1245 1.66699 38.3327 9.87511 38.3327 20.0003C38.3327 30.1255 30.1245 38.3337 19.9993 38.3337C9.87413 38.3337 1.66602 30.1255 1.66602 20.0003ZM17.7905 9.17029C18.564 9.21911 19.2018 9.79476 19.3293 10.5593L21.4677 23.3702L23.0134 19.8455C23.2352 19.3395 23.6937 18.9762 24.2372 18.876C24.7807 18.7757 25.3387 18.9513 25.7265 19.345L28.124 21.777H30.8327C31.7532 21.777 32.4994 22.5233 32.4994 23.4437C32.4994 24.3642 31.7532 25.1103 30.8327 25.1103H27.4267C26.9804 25.1103 26.5528 24.9315 26.2397 24.6138L25.0785 23.4358L22.2717 29.8363C21.9757 30.5117 21.271 30.912 20.5394 30.8208C19.8077 30.7297 19.2228 30.1687 19.1015 29.4413L17.2219 18.1801L15.4995 23.9227C15.288 24.6277 14.6391 25.1103 13.9031 25.1103H9.16602C8.24555 25.1103 7.49935 24.3642 7.49935 23.4437C7.49935 22.5233 8.24555 21.777 9.16602 21.777H12.663L16.0891 10.3548C16.3118 9.61239 17.0169 9.12149 17.7905 9.17029Z" fill="#333333"/>
</g>
</g>
</g>
<defs>
<clipPath id="clip0_479_6547">
<rect width="40" height="40" fill="white"/>
</clipPath>
</defs>
</svg>
