<svg width="40" height="40" viewBox="0 0 40 40" fill="none" xmlns="http://www.w3.org/2000/svg">
<g id="&#230;&#156;&#128;&#228;&#184;&#138;&#229;&#177;&#130;,&#229;&#155;&#190;&#229;&#177;&#130;,&#229;&#177;&#130;&#231;&#186;&#167;,&#233;&#161;&#182;&#229;&#177;&#130;&#230;&#156;&#128;&#228;&#184;&#138;&#229;&#177;&#130;,&#229;&#155;&#190;&#229;&#177;&#130;,&#229;&#177;&#130;&#231;&#186;&#167;,&#233;&#161;&#182;&#229;&#177;&#130;" clip-path="url(#clip0_479_6504)">
<g id="Group">
<g id="Group_2">
<path id="Vector" fill-rule="evenodd" clip-rule="evenodd" d="M3.33398 4.99967C3.33398 4.0792 4.08018 3.33301 5.00065 3.33301H8.3082C9.22867 3.33301 9.97487 4.0792 9.97487 4.99967C9.97487 5.92014 9.22867 6.66634 8.3082 6.66634H6.66732V8.36101C6.66732 9.28147 5.92112 10.0277 5.00065 10.0277C4.08018 10.0277 3.33398 9.28147 3.33398 8.36101V4.99967ZM13.3576 3.33301C12.4371 3.33301 11.6909 4.0792 11.6909 4.99967C11.6909 5.92014 12.4371 6.66634 13.3576 6.66634H16.6743C17.5947 6.66634 18.3409 5.92014 18.3409 4.99967C18.3409 4.0792 17.5947 3.33301 16.6743 3.33301H13.3576ZM20.0025 4.99967C20.0025 4.0792 20.7486 3.33301 21.6691 3.33301H25.0005C25.921 3.33301 26.6672 4.0792 26.6672 4.99967V8.34567C26.6672 9.26614 25.921 10.0123 25.0005 10.0123C24.0802 10.0123 23.3338 9.26614 23.3338 8.34567V6.66634H21.6691C20.7486 6.66634 20.0025 5.92014 20.0025 4.99967ZM5.00065 11.6663C5.92112 11.6663 6.66732 12.4125 6.66732 13.333V16.6663C6.66732 17.5868 5.92112 18.333 5.00065 18.333C4.08018 18.333 3.33398 17.5858 3.33398 16.6653V13.333C3.33398 12.4125 4.08018 11.6663 5.00065 11.6663ZM13.334 15.833C13.334 14.4523 14.4533 13.333 15.834 13.333H23.334C23.334 12.4125 24.0802 11.6663 25.0007 11.6663C25.9212 11.6663 26.6673 12.4125 26.6673 13.333H34.1673C35.548 13.333 36.6673 14.4523 36.6673 15.833V34.1663C36.6673 35.547 35.548 36.6663 34.1673 36.6663H15.834C14.4533 36.6663 13.334 35.547 13.334 34.1663V26.6663H13.3279C12.4074 26.6663 11.6612 25.9202 11.6612 24.9997C11.6612 24.0792 12.4074 23.333 13.3279 23.333H13.334V15.833ZM16.6673 33.333V25.0143L16.6674 24.9997L16.6673 24.985V16.6663H33.334V33.333H16.6673ZM6.66732 21.6762C6.66732 20.7557 5.92112 20.0095 5.00065 20.0095C4.08018 20.0095 3.33398 20.7557 3.33398 21.6762V24.9995C3.33398 25.9198 4.08018 26.6662 5.00065 26.6662H8.33153C9.252 26.6662 9.9982 25.9198 9.9982 24.9995C9.9982 24.079 9.252 23.3328 8.33153 23.3328H6.66732V21.6762Z" fill="#333333"/>
</g>
</g>
</g>
<defs>
<clipPath id="clip0_479_6504">
<rect width="40" height="40" fill="white"/>
</clipPath>
</defs>
</svg>
