<svg width="40" height="40" viewBox="0 0 40 40" fill="none" xmlns="http://www.w3.org/2000/svg">
<g id="&#232;&#181;&#132;&#233;&#135;&#145;,&#232;&#180;&#162;&#229;&#138;&#161;,&#230;&#136;&#144;&#230;&#156;&#172;,&#233;&#135;&#145;&#229;&#184;&#129;,&#229;&#173;&#152;&#230;&#172;&#190;,&#229;&#130;&#168;&#232;&#147;&#132;,&#233;&#135;&#145;&#232;&#158;&#141;,&#231;&#187;&#159;&#232;&#174;&#161;&#232;&#181;&#132;&#233;&#135;&#145;,&#232;&#180;&#162;&#229;&#138;&#161;,&#230;&#136;&#144;&#230;&#156;&#172;,&#233;&#135;&#145;&#229;&#184;&#129;,&#229;&#173;&#152;&#230;&#172;&#190;,&#229;&#130;&#168;&#232;&#147;&#132;,&#233;&#135;&#145;&#232;&#158;&#141;,&#231;&#187;&#159;&#232;&#174;&#161;" clip-path="url(#clip0_659_8637)">
<g id="Group">
<g id="Group_2">
<path id="Vector" d="M38.3332 31.6667C38.3332 35.2023 33.7378 37.5 28.3332 37.5C24.9085 37.5 21.809 36.5775 19.9975 35.0022C18.1893 36.578 15.0903 37.5 11.6665 37.5C6.40784 37.5 1.91549 35.3248 1.6765 31.9507L1.6665 31.6667V8.33333L1.6765 8.04938C1.91549 4.67512 6.40784 2.5 11.6665 2.5C17.0713 2.5 21.6665 4.79763 21.6665 8.33333L21.6657 15.5674C23.4523 14.6698 25.8042 14.1667 28.3332 14.1667C33.7378 14.1667 38.3332 16.4643 38.3332 20V19.9933V31.6667ZM11.6665 31.6667C9.13785 31.6667 6.78639 31.1637 4.99982 30.2663L4.99984 31.6667C4.99984 32.7333 7.86652 34.1667 11.6665 34.1667C15.3308 34.1667 18.1272 32.8338 18.3223 31.7823L18.3332 31.6667L18.3357 30.2652C16.5488 31.1633 14.1963 31.6667 11.6665 31.6667ZM28.3332 31.6667C25.8045 31.6667 23.453 31.1637 21.6665 30.2663V31.6667C21.6665 32.7333 24.5332 34.1667 28.3332 34.1667C31.9973 34.1667 34.7938 32.8338 34.989 31.7823L34.9998 31.6667L35.0023 30.2652C33.2155 31.1633 30.863 31.6667 28.3332 31.6667ZM11.6665 25.8333C9.13785 25.8333 6.78639 25.3303 4.99982 24.433L4.99984 25.8333C4.99984 26.9 7.86652 28.3333 11.6665 28.3333C15.3308 28.3333 18.1272 27.0005 18.3223 25.949L18.3332 25.8333L18.3357 24.4318C16.5488 25.33 14.1963 25.8333 11.6665 25.8333ZM35.0023 24.4318C33.2155 25.33 30.863 25.8333 28.3332 25.8333C25.8042 25.8333 23.4523 25.3302 21.6657 24.4327L21.6665 25.8333C21.6665 26.9 24.5332 28.3333 28.3332 28.3333C31.9973 28.3333 34.7938 27.0005 34.989 25.949L34.9998 25.8333L35.0023 24.4318ZM11.6665 20C9.13785 20 6.78639 19.497 4.99982 18.5997L4.99984 20C4.99984 21.0667 7.86652 22.5 11.6665 22.5C15.3308 22.5 18.1272 21.1672 18.3223 20.1157L18.3332 20L18.3357 18.5984C16.5488 19.4967 14.1963 20 11.6665 20ZM28.3332 17.5C24.5332 17.5 21.6665 18.9333 21.6665 20C21.6665 21.0667 24.5332 22.5 28.3332 22.5C32.1332 22.5 34.9998 21.0667 34.9998 20C34.9998 18.9333 32.1332 17.5 28.3332 17.5ZM18.3357 12.7651C16.5488 13.6633 14.1964 14.1667 11.6665 14.1667C9.13744 14.1667 6.78564 13.6636 4.99895 12.766L4.99984 14.1667C4.99984 15.2333 7.86652 16.6667 11.6665 16.6667C15.3308 16.6667 18.1272 15.3339 18.3223 14.2823L18.3332 14.1667L18.3357 12.7651ZM11.6665 5.83333C7.8665 5.83333 4.99984 7.26667 4.99984 8.33333C4.99984 9.4 7.8665 10.8333 11.6665 10.8333C15.4665 10.8333 18.3332 9.4 18.3332 8.33333C18.3332 7.26667 15.4665 5.83333 11.6665 5.83333Z" fill="#333333"/>
</g>
</g>
</g>
<defs>
<clipPath id="clip0_659_8637">
<rect width="40" height="40" fill="white"/>
</clipPath>
</defs>
</svg>
