<svg width="40" height="40" viewBox="0 0 40 40" fill="none" xmlns="http://www.w3.org/2000/svg">
<g id="&#230;&#160;&#145;&#231;&#187;&#147;&#230;&#158;&#132;,&#231;&#187;&#147;&#230;&#158;&#132;,&#230;&#160;&#145;,&#229;&#186;&#143;&#229;&#136;&#151;,&#230;&#142;&#146;&#229;&#186;&#143;&#230;&#160;&#145;&#231;&#187;&#147;&#230;&#158;&#132;,&#231;&#187;&#147;&#230;&#158;&#132;,&#230;&#160;&#145;,&#229;&#186;&#143;&#229;&#136;&#151;,&#230;&#142;&#146;&#229;&#186;&#143;" clip-path="url(#clip0_479_6495)">
<g id="Group">
<g id="Group_2">
<path id="Vector" fill-rule="evenodd" clip-rule="evenodd" d="M4.16667 1.66699C5.08713 1.66699 5.83333 2.41318 5.83333 3.33366V6.66699H13.3333V5.00033C13.3333 4.07986 14.0795 3.33366 15 3.33366H26.6667C27.5872 3.33366 28.3333 4.07986 28.3333 5.00033V11.667C28.3333 12.5875 27.5872 13.3337 26.6667 13.3337H15C14.0795 13.3337 13.3333 12.5875 13.3333 11.667V10.0003H5.83333V18.3337H13.3333V16.667C13.3333 15.7465 14.0795 15.0003 15 15.0003H31.6667C32.5872 15.0003 33.3333 15.7465 33.3333 16.667V23.3337C33.3333 24.2542 32.5872 25.0003 31.6667 25.0003H15C14.0795 25.0003 13.3333 24.2542 13.3333 23.3337V21.667H5.83333V30.0003H13.3333V28.3337C13.3333 27.4132 14.0795 26.667 15 26.667H36.6667C37.5872 26.667 38.3333 27.4132 38.3333 28.3337V35.0003C38.3333 35.9208 37.5872 36.667 36.6667 36.667H15C14.0795 36.667 13.3333 35.9208 13.3333 35.0003V33.3337H5.83333V36.667C5.83333 37.5875 5.08713 38.3337 4.16667 38.3337C3.24619 38.3337 2.5 37.5875 2.5 36.667V3.33366C2.5 2.41318 3.24619 1.66699 4.16667 1.66699ZM25 6.66699H16.6667V10.0003H25V6.66699ZM30 18.3337H16.6667V21.667H30V18.3337ZM35 30.0003H16.6667V33.3337H35V30.0003Z" fill="#333333"/>
</g>
</g>
</g>
<defs>
<clipPath id="clip0_479_6495">
<rect width="40" height="40" fill="white"/>
</clipPath>
</defs>
</svg>
