<svg width="40" height="40" viewBox="0 0 40 40" fill="none" xmlns="http://www.w3.org/2000/svg">
<g id="&#231;&#128;&#145;&#229;&#184;&#131;&#230;&#181;&#129;&#231;&#186;&#181;&#229;&#144;&#145;&#231;&#128;&#145;&#229;&#184;&#131;,&#230;&#142;&#146;&#231;&#137;&#136;,&#231;&#149;&#140;&#233;&#157;&#162;,&#233;&#161;&#186;&#229;&#186;&#143;&#231;&#128;&#145;&#229;&#184;&#131;,&#230;&#142;&#146;&#231;&#137;&#136;,&#231;&#149;&#140;&#233;&#157;&#162;,&#233;&#161;&#186;&#229;&#186;&#143;" clip-path="url(#clip0_659_8706)">
<g id="Group">
<g id="Group_2">
<path id="Vector" fill-rule="evenodd" clip-rule="evenodd" d="M19.1668 3.33398C20.0873 3.33398 20.8335 4.08018 20.8335 5.00065V16.6673C20.8335 17.5878 20.0873 18.334 19.1668 18.334H5.00016C4.07969 18.334 3.3335 17.5878 3.3335 16.6673V5.00065C3.3335 4.08018 4.07969 3.33398 5.00016 3.33398H19.1668ZM24.1668 16.6673C24.1668 17.5878 24.913 18.334 25.8335 18.334H35.0002C35.9207 18.334 36.6668 17.5878 36.6668 16.6673V5.00065C36.6668 4.08018 35.9207 3.33398 35.0002 3.33398H25.8335C24.913 3.33398 24.1668 4.08018 24.1668 5.00065V16.6673ZM17.5002 6.66732H6.66683V15.0007H17.5002V6.66732ZM33.3335 15.0007H27.5002V6.66732H33.3335V15.0007ZM5.00016 36.6673C4.07969 36.6673 3.3335 35.9212 3.3335 35.0007V23.334C3.3335 22.4135 4.07969 21.6673 5.00016 21.6673H14.1668C15.0873 21.6673 15.8335 22.4135 15.8335 23.334V35.0007C15.8335 35.9212 15.0873 36.6673 14.1668 36.6673H5.00016ZM35.0002 21.6673C35.9207 21.6673 36.6668 22.4135 36.6668 23.334V35.0007C36.6668 35.9212 35.9207 36.6673 35.0002 36.6673H20.8335C19.913 36.6673 19.1668 35.9212 19.1668 35.0007V23.334C19.1668 22.4135 19.913 21.6673 20.8335 21.6673H35.0002ZM6.66683 33.334H12.5002V25.0007H6.66683V33.334ZM33.3335 25.0007H22.5002V33.334H33.3335V25.0007Z" fill="#333333"/>
</g>
</g>
</g>
<defs>
<clipPath id="clip0_659_8706">
<rect width="40" height="40" fill="white"/>
</clipPath>
</defs>
</svg>
