<svg width="40" height="40" viewBox="0 0 40 40" fill="none" xmlns="http://www.w3.org/2000/svg">
<g id="&#230;&#148;&#175;&#228;&#187;&#152;,&#230;&#148;&#175;&#228;&#187;&#152;&#229;&#174;&#157;,&#230;&#137;&#171;&#231;&#160;&#129;,&#230;&#148;&#175;&#228;&#187;&#152;,&#232;&#138;&#177;&#233;&#146;&#177;,&#232;&#180;&#162;&#228;&#186;&#167;&#230;&#148;&#175;&#228;&#187;&#152;,&#230;&#148;&#175;&#228;&#187;&#152;&#229;&#174;&#157;,&#230;&#137;&#171;&#231;&#160;&#129;,&#230;&#148;&#175;&#228;&#187;&#152;,&#232;&#138;&#177;&#233;&#146;&#177;,&#232;&#180;&#162;&#228;&#186;&#167;" clip-path="url(#clip0_479_6486)">
<g id="Group">
<g id="Group_2">
<path id="Vector" fill-rule="evenodd" clip-rule="evenodd" d="M1.66602 3.33366C1.66602 2.41318 2.41221 1.66699 3.33268 1.66699H36.666C37.5865 1.66699 38.3327 2.41318 38.3327 3.33366V36.667C38.3327 37.5875 37.5865 38.3337 36.666 38.3337H3.33268C2.41221 38.3337 1.66602 37.5875 1.66602 36.667V3.33366ZM4.99935 5.00033V35.0003H34.9994V5.00033H4.99935ZM9.99935 11.667C10.9198 11.667 11.666 12.4132 11.666 13.3337V26.667C11.666 27.5875 10.9198 28.3337 9.99935 28.3337C9.07888 28.3337 8.33268 27.5875 8.33268 26.667V13.3337C8.33268 12.4132 9.07888 11.667 9.99935 11.667ZM16.666 11.667C17.5865 11.667 18.3327 12.4132 18.3327 13.3337V26.667C18.3327 27.5875 17.5865 28.3337 16.666 28.3337C15.7455 28.3337 14.9993 27.5875 14.9993 26.667V13.3337C14.9993 12.4132 15.7455 11.667 16.666 11.667ZM23.3327 11.667C24.2532 11.667 24.9994 12.4132 24.9994 13.3337V26.667C24.9994 27.5875 24.2532 28.3337 23.3327 28.3337C22.4122 28.3337 21.666 27.5875 21.666 26.667V13.3337C21.666 12.4132 22.4122 11.667 23.3327 11.667ZM29.9994 11.667C30.9199 11.667 31.666 12.4132 31.666 13.3337V26.667C31.666 27.5875 30.9199 28.3337 29.9994 28.3337C29.0789 28.3337 28.3327 27.5875 28.3327 26.667V13.3337C28.3327 12.4132 29.0789 11.667 29.9994 11.667Z" fill="#333333"/>
</g>
</g>
</g>
<defs>
<clipPath id="clip0_479_6486">
<rect width="40" height="40" fill="white"/>
</clipPath>
</defs>
</svg>
