<svg width="40" height="40" viewBox="0 0 40 40" fill="none" xmlns="http://www.w3.org/2000/svg">
<g id="&#230;&#149;&#176;&#230;&#141;&#174;&#229;&#186;&#147;&#231;&#189;&#145;&#231;&#187;&#156;&#230;&#149;&#176;&#230;&#141;&#174;&#229;&#186;&#147;&#231;&#189;&#145;&#231;&#187;&#156;" clip-path="url(#clip0_625_2998)">
<g id="Group">
<g id="Group_2">
<path id="Vector" d="M15.8337 4.16699L16.3415 4.16999C23.9263 4.25973 30.0003 6.36346 30.0003 10.0003L30.0017 15.9721C34.7305 16.7662 38.3337 20.8792 38.3337 25.8337C38.3337 31.3565 33.8565 35.8337 28.3337 35.8337C26.8318 35.8337 25.3753 35.5012 24.0502 34.872C21.7125 35.4922 18.8465 35.8337 15.8337 35.8337C8.18393 35.8337 1.94364 33.809 1.67594 30.2405L1.66699 30.0003V10.0003L1.67594 9.76014C1.94364 6.19166 8.18391 4.16699 15.8337 4.16699ZM4.99968 27.2958L5.00033 30.0003C5.00033 30.2707 5.45276 30.6092 6.25196 30.949L6.72164 31.1342C6.88924 31.1955 7.06766 31.2567 7.25628 31.317L7.85208 31.4953C7.95626 31.5247 8.06284 31.5535 8.17173 31.5822L8.85211 31.749C9.44114 31.8842 10.0839 32.0082 10.7706 32.1148L11.615 32.2342L12.4977 32.3343C13.5484 32.4393 14.6694 32.5003 15.8337 32.5003C17.3294 32.5003 18.7782 32.4083 20.1177 32.2363L20.5987 32.1687L20.419 31.9467L20.2657 31.7432C20.225 31.6875 20.1848 31.6315 20.1453 31.5752L20.419 31.9467C20.262 31.7437 20.1128 31.5345 19.9718 31.3197C19.9435 31.2767 19.9163 31.2348 19.8897 31.1927C19.846 31.1238 19.8025 31.0535 19.7598 30.9827C19.7178 30.913 19.677 30.843 19.6368 30.7725C19.608 30.7217 19.5798 30.6713 19.5523 30.6207C19.509 30.5415 19.4667 30.4613 19.4253 30.3805C19.39 30.3115 19.3553 30.2417 19.3215 30.1712C19.2867 30.0992 19.2532 30.0275 19.2205 29.9553C19.1912 29.8905 19.1622 29.8248 19.134 29.7587C19.1005 29.6803 19.0683 29.602 19.037 29.5233C19.0122 29.4608 18.9877 29.3973 18.9638 29.3335C18.9292 29.2408 18.896 29.1478 18.8642 29.0542C18.8633 29.0515 18.8625 29.0493 18.8618 29.0472C17.8806 29.1272 16.8648 29.167 15.8337 29.167C11.4891 29.167 7.59909 28.514 4.99968 27.2958ZM34.79 27.5017L32.7617 27.4998C32.6897 27.9107 32.5935 28.3343 32.475 28.7705C32.2147 29.7298 31.852 30.7293 31.4115 31.7492C33.066 30.8867 34.314 29.3492 34.79 27.5017ZM23.9057 27.4998L21.8772 27.5023C22.3273 29.2483 23.4762 30.7447 25.051 31.6377C25.1182 31.6758 25.186 31.7128 25.2543 31.7485L25.3505 31.9662C24.8673 30.8712 24.4712 29.7978 24.1923 28.7705C24.0738 28.3343 23.9777 27.9107 23.9057 27.4998ZM29.3587 27.5017H27.3087C27.3392 27.6308 27.3727 27.7627 27.4092 27.8973C27.6272 28.7003 27.943 29.5675 28.332 30.4648L28.2672 30.6205C28.6877 29.6678 29.0275 28.7467 29.2582 27.8973C29.2947 27.7627 29.3282 27.6308 29.3587 27.5017ZM4.99968 20.6292L5.00033 23.3337C5.00033 23.604 5.45276 23.9425 6.25196 24.2823L6.72164 24.4675C6.88924 24.5288 7.06766 24.59 7.25628 24.6503L7.85208 24.8287C7.95626 24.858 8.06284 24.8868 8.17173 24.9155L8.85211 25.0823C9.44114 25.2175 10.0839 25.3415 10.7706 25.4482L11.615 25.5675L12.4977 25.6677C13.5484 25.7727 14.6694 25.8337 15.8337 25.8337C16.6841 25.8337 17.5216 25.804 18.3357 25.7462C18.3442 24.5755 18.5565 23.4373 18.9495 22.3717C17.9418 22.458 16.8963 22.5003 15.8337 22.5003C11.4891 22.5003 7.59909 21.8473 4.99968 20.6292ZM25.255 19.9199L25.1095 19.9964C24.4628 20.3542 23.8755 20.8204 23.3723 21.3807C22.6537 22.1805 22.1425 23.1332 21.8768 24.1665L23.9055 24.1692C23.9775 23.7578 24.0737 23.3335 24.1923 22.8968C24.4525 21.938 24.815 20.9392 25.255 19.9199ZM28.3353 21.2025L28.4002 21.0468C27.9797 21.9995 27.6398 22.9207 27.4092 23.77C27.3725 23.9052 27.3388 24.0377 27.3082 24.1673H29.3592C29.3285 24.0377 29.2948 23.9052 29.2582 23.77C29.0402 22.967 28.7243 22.0998 28.3353 21.2025ZM31.4103 19.9178L31.3168 19.7011C31.8 20.7962 32.1962 21.8695 32.475 22.8968C32.5937 23.3335 32.6898 23.7578 32.7618 24.1692L34.7903 24.1675C34.3148 22.3192 33.0665 20.7809 31.4103 19.9178ZM26.6693 13.9617C24.0698 15.1803 20.1792 15.8337 15.8337 15.8337C11.4891 15.8337 7.59909 15.1806 4.99968 13.9625L5.00033 16.667C5.00033 16.9373 5.45276 17.2758 6.25196 17.6157L6.72164 17.8008C6.88924 17.8622 7.06766 17.9233 7.25628 17.9837L7.85208 18.162C7.95626 18.1912 8.06284 18.2202 8.17173 18.2487L8.85211 18.4157C9.44114 18.5508 10.0839 18.6748 10.7706 18.7815L11.615 18.9008L12.4977 19.001C13.5484 19.1059 14.6694 19.167 15.8337 19.167C17.7743 19.167 19.6422 19.0126 21.3065 18.7242C22.7123 17.328 24.5003 16.383 26.4522 16.0109L26.667 15.9753L26.6693 13.9617ZM15.8337 7.50033C14.6694 7.50033 13.5484 7.56139 12.4977 7.66629L11.615 7.76654L10.7706 7.88584C10.0839 7.99253 9.44113 8.11654 8.85211 8.25159L8.17171 8.41858C8.06283 8.44714 7.95626 8.47606 7.85208 8.50528L7.25628 8.68363C7.06766 8.74398 6.88923 8.80509 6.72163 8.86656L6.25196 9.05164C5.45276 9.39148 5.00033 9.73001 5.00033 10.0003C5.00033 10.2706 5.45276 10.6092 6.25196 10.949L6.72164 11.1341C6.88924 11.1956 7.06766 11.2567 7.25628 11.317L7.85208 11.4954C7.95626 11.5246 8.06284 11.5535 8.17173 11.5821L8.85211 11.7491C9.44114 11.8841 10.0839 12.0081 10.7706 12.1148L11.615 12.2341L12.4977 12.3344C13.5484 12.4393 14.6694 12.5003 15.8337 12.5003C16.9979 12.5003 18.1189 12.4393 19.1697 12.3344L20.0523 12.2341L20.8967 12.1148C21.5833 12.0081 22.2262 11.8841 22.8152 11.7491L23.4957 11.5821C23.6045 11.5535 23.711 11.5246 23.8152 11.4954L24.411 11.317C24.5997 11.2567 24.7782 11.1956 24.9457 11.1341L25.4153 10.949C26.2145 10.6092 26.667 10.2706 26.667 10.0003C26.667 9.73001 26.2145 9.39148 25.4153 9.05164L24.9457 8.86656C24.7782 8.80509 24.5997 8.74398 24.411 8.68363L23.8152 8.50528C23.711 8.47606 23.6045 8.44714 23.4957 8.41858L22.8152 8.25159C22.2262 8.11654 21.5833 7.99253 20.8967 7.88584L20.0523 7.76654L19.1697 7.66629C18.1189 7.56139 16.9979 7.50033 15.8337 7.50033Z" fill="#333333"/>
</g>
</g>
</g>
<defs>
<clipPath id="clip0_625_2998">
<rect width="40" height="40" fill="white"/>
</clipPath>
</defs>
</svg>
