<svg width="40" height="40" viewBox="0 0 40 40" fill="none" xmlns="http://www.w3.org/2000/svg">
<g id="&#230;&#149;&#176;&#230;&#141;&#174;&#229;&#186;&#147;&#231;&#189;&#145;&#231;&#187;&#156;&#232;&#138;&#130;&#231;&#130;&#185;&#230;&#149;&#176;&#230;&#141;&#174;&#229;&#186;&#147;&#231;&#189;&#145;&#231;&#187;&#156;&#232;&#138;&#130;&#231;&#130;&#185;" clip-path="url(#clip0_625_4913)">
<g id="Group">
<g id="Group_2">
<path id="Vector" fill-rule="evenodd" clip-rule="evenodd" d="M32.4932 13.7624C32.2797 7.04613 26.7678 1.66699 19.9997 1.66699C13.0961 1.66699 7.49967 7.26344 7.49967 14.167C7.49967 20.5055 12.2174 25.742 18.333 26.5568V28.6182C16.9123 29.1203 15.7863 30.2463 15.2842 31.667H4.99967L4.80531 31.6782C3.97641 31.7745 3.33301 32.479 3.33301 33.3337C3.33301 34.2542 4.0792 35.0003 4.99967 35.0003H15.2842C15.9706 36.9423 17.8227 38.3337 19.9997 38.3337C22.1767 38.3337 24.0287 36.9423 24.7152 35.0003H34.9997L35.194 34.9892C36.023 34.8928 36.6663 34.1883 36.6663 33.3337C36.6663 32.4132 35.9202 31.667 34.9997 31.667H24.7152C24.213 30.2463 23.087 29.1203 21.6663 28.6182V26.5568C27.782 25.742 32.4997 20.5055 32.4997 14.167C32.4997 14.1489 32.4993 14.131 32.4988 14.1131L32.4932 13.7624ZM29.0152 12.5003C28.5275 9.84516 26.8957 7.59028 24.6498 6.26566C25.2737 8.01849 25.6637 10.1626 25.789 12.5003H29.0152ZM22.445 12.5003C22.345 10.983 22.1165 9.60429 21.8257 8.45466L21.6502 7.81324L21.4635 7.22733C20.9852 5.83518 20.4297 5.00033 19.9997 5.00033C19.5697 5.00033 19.0141 5.83518 18.5359 7.22733L18.3492 7.81324L18.1737 8.45466C17.8828 9.60429 17.6543 10.983 17.5544 12.5003H22.445ZM14.2104 12.5003C14.3357 10.1626 14.7257 8.01849 15.3496 6.26566C13.1037 7.59028 11.4719 9.84516 10.9842 12.5003H14.2104ZM10.9844 15.835H14.2105C14.3359 18.1722 14.7258 20.3158 15.3496 22.0683C13.104 20.744 11.4724 18.4897 10.9844 15.835ZM29.015 15.835C28.527 18.4897 26.8953 20.744 24.6498 22.0683C25.2735 20.3158 25.6635 18.1722 25.7888 15.835H29.015ZM21.8257 19.8793C22.1165 18.73 22.345 17.3517 22.4448 15.835H17.5545C17.6544 17.3517 17.8829 18.73 18.1737 19.8793L18.3492 20.5207L18.5359 21.1067C19.0141 22.4988 19.5697 23.3337 19.9997 23.3337C20.4297 23.3337 20.9852 22.4988 21.4635 21.1067L21.6502 20.5207L21.8257 19.8793ZM19.9997 31.667C20.9202 31.667 21.6663 32.4132 21.6663 33.3337C21.6663 34.2542 20.9202 35.0003 19.9997 35.0003C19.0792 35.0003 18.333 34.2542 18.333 33.3337C18.333 32.4132 19.0792 31.667 19.9997 31.667Z" fill="#333333"/>
</g>
</g>
</g>
<defs>
<clipPath id="clip0_625_4913">
<rect width="40" height="40" fill="white"/>
</clipPath>
</defs>
</svg>
