<svg width="40" height="40" viewBox="0 0 40 40" fill="none" xmlns="http://www.w3.org/2000/svg">
<g id="&#232;&#182;&#139;&#229;&#138;&#191;,&#230;&#149;&#176;&#230;&#141;&#174;,&#230;&#182;&#168;&#229;&#185;&#133;,&#229;&#162;&#158;&#233;&#149;&#191;&#232;&#182;&#139;&#229;&#138;&#191;,&#230;&#149;&#176;&#230;&#141;&#174;,&#230;&#182;&#168;&#229;&#185;&#133;,&#229;&#162;&#158;&#233;&#149;&#191;" clip-path="url(#clip0_850_8230)">
<g id="Group">
<g id="Group_2">
<path id="Vector" fill-rule="evenodd" clip-rule="evenodd" d="M26.6668 3.33464C26.6668 2.41416 27.4132 1.66797 28.3335 1.66797H36.6668C37.4398 1.66797 38.1113 2.19943 38.289 2.95171C38.4665 3.704 38.1037 4.47967 37.4123 4.82535L10.7456 18.1587C10.3897 18.3366 9.98197 18.3813 9.596 18.2849L2.92934 16.6182C2.03635 16.395 1.49341 15.4901 1.71666 14.5971C1.93991 13.7041 2.8448 13.1612 3.73779 13.3844L9.80632 14.9015L29.6068 5.0013H28.3335C27.4132 5.0013 26.6668 4.2551 26.6668 3.33464ZM37.5432 8.58355C38.0345 8.88724 38.3335 9.42367 38.3335 10.0013V31.668C38.3335 32.5885 37.5873 33.3346 36.6668 33.3346H30.0002C29.0798 33.3346 28.3335 32.5885 28.3335 31.668V13.3346C28.3335 12.7034 28.6902 12.1262 29.2548 11.8439L35.9215 8.51059C36.4382 8.25227 37.0518 8.27987 37.5432 8.58355ZM31.6668 14.3647V30.0013H35.0002V12.698L31.6668 14.3647ZM24.2098 15.2502C24.7012 15.5539 25.0002 16.0903 25.0002 16.668V31.668C25.0002 32.5885 24.254 33.3346 23.3335 33.3346H16.6669C15.7464 33.3346 15.0002 32.5885 15.0002 31.668V20.0013C15.0002 19.37 15.3569 18.793 15.9215 18.5106L22.5882 15.1773C23.1048 14.9189 23.7185 14.9465 24.2098 15.2502ZM18.3335 21.0313V30.0013H21.6668V19.3646L18.3335 21.0313ZM2.30788 20.3543C2.71241 20.0385 3.23989 19.9266 3.73779 20.0511L10.4045 21.7178C11.1464 21.9031 11.6669 22.5698 11.6669 23.3346V31.668C11.6669 32.5885 10.9207 33.3346 10.0002 33.3346H3.33357C2.41309 33.3346 1.6669 32.5885 1.6669 31.668V21.668C1.6669 21.1548 1.90335 20.6701 2.30788 20.3543ZM5.00024 23.8026V30.0013H8.33357V24.636L5.00024 23.8026ZM1.6669 36.668C1.6669 35.7475 2.41309 35.0013 3.33357 35.0013H36.6668C37.5873 35.0013 38.3335 35.7475 38.3335 36.668C38.3335 37.5885 37.5873 38.3346 36.6668 38.3346H3.33357C2.41309 38.3346 1.6669 37.5885 1.6669 36.668Z" fill="#333333"/>
</g>
</g>
</g>
<defs>
<clipPath id="clip0_850_8230">
<rect width="40" height="40" fill="white"/>
</clipPath>
</defs>
</svg>
