<svg width="40" height="40" viewBox="0 0 40 40" fill="none" xmlns="http://www.w3.org/2000/svg">
<g id="&#229;&#183;&#166;&#228;&#190;&#167;&#232;&#191;&#158;&#230;&#142;&#165;,&#229;&#183;&#166;&#228;&#190;&#167;,&#232;&#191;&#158;&#230;&#142;&#165;,&#230;&#181;&#129;&#232;&#189;&#172;&#229;&#183;&#166;&#228;&#190;&#167;&#232;&#191;&#158;&#230;&#142;&#165;,&#229;&#183;&#166;&#228;&#190;&#167;,&#232;&#191;&#158;&#230;&#142;&#165;,&#230;&#181;&#129;&#232;&#189;&#172;" clip-path="url(#clip0_625_1912)">
<g id="Group">
<g id="Group_2">
<path id="Vector" fill-rule="evenodd" clip-rule="evenodd" d="M15.5915 10C14.8743 12.4096 12.6422 14.1667 9.99969 14.1667C6.77802 14.1667 4.16635 11.555 4.16635 8.33333C4.16635 5.11167 6.77802 2.5 9.99969 2.5C12.6422 2.5 14.8743 4.2571 15.5915 6.66667H29.1663C33.4202 6.66667 36.6663 9.91287 36.6663 14.1667C36.6663 18.4205 33.4202 21.6667 29.1663 21.6667H10.833C8.42014 21.6667 6.66634 23.4205 6.66634 25.8333C6.66634 28.2462 8.42014 30 10.833 30H30.976L29.6545 28.6785C29.0037 28.0277 29.0037 26.9723 29.6545 26.3215C30.3053 25.6707 31.3607 25.6707 32.0115 26.3215L36.1782 30.4882C36.3393 30.6492 36.4605 30.835 36.5418 31.0333C36.6118 31.2037 36.6543 31.3878 36.6642 31.5808C36.6657 31.6093 36.6663 31.6378 36.6663 31.6667L36.666 31.6975C36.6583 32.1137 36.4958 32.5277 36.1782 32.8452L32.0115 37.0118C31.3607 37.6627 30.3053 37.6627 29.6545 37.0118C29.0037 36.361 29.0037 35.3057 29.6545 34.6548L30.976 33.3333H10.833C6.57921 33.3333 3.33301 30.0872 3.33301 25.8333C3.33301 21.5795 6.57921 18.3333 10.833 18.3333H29.1663C31.5792 18.3333 33.333 16.5795 33.333 14.1667C33.333 11.7538 31.5792 10 29.1663 10H15.5915ZM12.4997 8.33333C12.4997 9.71405 11.3804 10.8333 9.99969 10.8333C8.61897 10.8333 7.49969 9.71405 7.49969 8.33333C7.49969 6.95262 8.61897 5.83333 9.99969 5.83333C11.3804 5.83333 12.4997 6.95262 12.4997 8.33333Z" fill="black"/>
</g>
</g>
</g>
<defs>
<clipPath id="clip0_625_1912">
<rect width="40" height="40" fill="white"/>
</clipPath>
</defs>
</svg>
