<svg width="40" height="40" viewBox="0 0 40 40" fill="none" xmlns="http://www.w3.org/2000/svg">
<g id="&#230;&#139;&#137;&#228;&#188;&#184;,&#230;&#137;&#169;&#229;&#177;&#149;,&#230;&#139;&#150;&#229;&#164;&#167;&#230;&#139;&#137;&#228;&#188;&#184;,&#230;&#137;&#169;&#229;&#177;&#149;,&#230;&#139;&#150;&#229;&#164;&#167;" clip-path="url(#clip0_625_2559)">
<g id="Group">
<g id="Group_2">
<path id="Vector" fill-rule="evenodd" clip-rule="evenodd" d="M3.33301 6.66634C3.33301 4.82539 4.82539 3.33301 6.66634 3.33301H19.1663C20.0868 3.33301 20.833 4.0792 20.833 4.99967C20.833 5.92014 20.0868 6.66634 19.1663 6.66634H6.66634V33.3333H33.333V20.8333C33.333 19.9128 34.0792 19.1666 34.9997 19.1666C35.9202 19.1666 36.6663 19.9128 36.6663 20.8333V33.3333C36.6663 35.1743 35.174 36.6667 33.333 36.6667H6.66634C4.82541 36.6667 3.33301 35.1743 3.33301 33.3333V6.66634ZM19.9997 11.6663C20.9202 11.6663 21.6663 12.4125 21.6663 13.333V15.9761L30.9762 6.66634H28.333C27.4125 6.66634 26.6663 5.92014 26.6663 4.99967C26.6663 4.0792 27.4125 3.33301 28.333 3.33301H34.9997C35.9202 3.33301 36.6663 4.0792 36.6663 4.99967V11.6663C36.6663 12.5868 35.9202 13.333 34.9997 13.333C34.0792 13.333 33.333 12.5868 33.333 11.6663V9.02349L24.0235 18.333H26.6663C27.5868 18.333 28.333 19.0792 28.333 19.9997C28.333 20.9202 27.5868 21.6663 26.6663 21.6663H19.9997C19.0792 21.6663 18.333 20.9202 18.333 19.9997V13.333C18.333 12.4125 19.0792 11.6663 19.9997 11.6663Z" fill="#333333"/>
</g>
</g>
</g>
<defs>
<clipPath id="clip0_625_2559">
<rect width="40" height="40" fill="white"/>
</clipPath>
</defs>
</svg>
