<svg width="40" height="40" viewBox="0 0 40 40" fill="none" xmlns="http://www.w3.org/2000/svg">
<g id="&#230;&#138;&#165;&#233;&#148;&#153;,&#230;&#143;&#144;&#231;&#164;&#186;,&#230;&#143;&#144;&#233;&#134;&#146;&#230;&#138;&#165;&#233;&#148;&#153;,&#230;&#143;&#144;&#231;&#164;&#186;,&#230;&#143;&#144;&#233;&#134;&#146;" clip-path="url(#clip0_625_4507)">
<g id="Group">
<g id="Group_2">
<path id="Vector" fill-rule="evenodd" clip-rule="evenodd" d="M8.33333 1.66699C6.49238 1.66699 5 3.15938 5 5.00033V35.0003C5 36.8413 6.4924 38.3337 8.33333 38.3337H16.6667C17.5871 38.3337 18.3333 37.5875 18.3333 36.667C18.3333 35.7465 17.5871 35.0003 16.6667 35.0003H8.33333V5.00033H31.6667V13.6651C31.6667 14.5855 32.4128 15.3317 33.3333 15.3317C34.2538 15.3317 35 14.5855 35 13.6651V5.00033C35 3.15939 33.5077 1.66699 31.6667 1.66699H8.33333ZM11.6667 11.667C11.6667 10.7465 12.4129 10.0003 13.3333 10.0003H24.1667C25.0872 10.0003 25.8333 10.7465 25.8333 11.667C25.8333 12.5875 25.0872 13.3337 24.1667 13.3337H13.3333C12.4129 13.3337 11.6667 12.5875 11.6667 11.667ZM13.3333 15.8337C12.4129 15.8337 11.6667 16.5798 11.6667 17.5003C11.6667 18.4208 12.4129 19.167 13.3333 19.167H17.5C18.4205 19.167 19.1667 18.4208 19.1667 17.5003C19.1667 16.5798 18.4205 15.8337 17.5 15.8337H13.3333ZM28.3333 18.3337C33.8562 18.3337 38.3333 22.8108 38.3333 28.3337C38.3333 33.8565 33.8562 38.3337 28.3333 38.3337C22.8105 38.3337 18.3333 33.8565 18.3333 28.3337C18.3333 22.8108 22.8105 18.3337 28.3333 18.3337ZM35 28.3337C35 24.6518 32.0152 21.667 28.3333 21.667C24.6515 21.667 21.6667 24.6518 21.6667 28.3337C21.6667 32.0155 24.6515 35.0003 28.3333 35.0003C32.0152 35.0003 35 32.0155 35 28.3337ZM28.3333 26.667C29.2538 26.667 30 25.9208 30 25.0003C30 24.0798 29.2538 23.3337 28.3333 23.3337C27.4128 23.3337 26.6667 24.0798 26.6667 25.0003C26.6667 25.9208 27.4128 26.667 28.3333 26.667ZM30 30.0003C30 29.0798 29.2538 28.3337 28.3333 28.3337C27.4128 28.3337 26.6667 29.0798 26.6667 30.0003V32.5003C26.6667 33.4208 27.4128 34.167 28.3333 34.167C29.2538 34.167 30 33.4208 30 32.5003V30.0003Z" fill="black"/>
</g>
</g>
</g>
<defs>
<clipPath id="clip0_625_4507">
<rect width="40" height="40" fill="white"/>
</clipPath>
</defs>
</svg>
