<svg width="40" height="40" viewBox="0 0 40 40" fill="none" xmlns="http://www.w3.org/2000/svg">
<g id="&#230;&#143;&#161;&#230;&#137;&#139;,&#230;&#144;&#186;&#230;&#137;&#139;,&#229;&#144;&#136;&#228;&#189;&#156;&#230;&#143;&#161;&#230;&#137;&#139;,&#230;&#144;&#186;&#230;&#137;&#139;,&#229;&#144;&#136;&#228;&#189;&#156;" clip-path="url(#clip0_479_6711)">
<g id="Group">
<g id="Group_2">
<path id="Vector" d="M15.4337 19.2701L15.6075 19.3756L22.3568 23.7586L24.942 23.209C25.8423 23.0176 26.7273 23.5925 26.9186 24.4928C27.1013 25.3521 26.586 26.1976 25.7556 26.4391L25.635 26.4695L23.0496 27.019C22.2515 27.1886 21.4211 27.0593 20.715 26.6596L20.5411 26.5541L13.7921 22.1712L7.94626 23.4138L8.46613 25.8591L11.8664 25.1363C12.6646 24.9666 13.4949 25.0961 14.2011 25.4956L14.375 25.6013L21.124 29.9841L35.9361 26.8358C36.8365 26.6443 37.7215 27.2191 37.913 28.1195C38.0956 28.979 37.5801 29.8245 36.75 30.066L36.6291 30.0963L21.8171 33.2446C21.019 33.4143 20.1886 33.2848 19.4825 32.8853L19.3086 32.7796L12.5595 28.3968L9.15924 29.1196C7.41474 29.4905 5.69903 28.4233 5.24554 26.719L5.20563 26.5521L4.68584 24.1068C4.31504 22.3623 5.38226 20.6466 7.08643 20.1932L7.25329 20.1533L13.099 18.9107C13.8972 18.741 14.7274 18.8705 15.4337 19.2701ZM20.5175 7.11389L20.6915 7.21941L27.4406 11.6024L30.8408 10.8795C32.5853 10.5088 34.301 11.576 34.7545 13.2801L34.7943 13.447L35.3141 15.8923C35.685 17.6368 34.6178 19.3524 32.9136 19.806L32.7466 19.8459L26.901 21.0884C26.103 21.2581 25.2726 21.1287 24.5663 20.7291L24.3925 20.6235L17.6434 16.2407L15.0581 16.7901C14.1577 16.9815 13.2727 16.4067 13.0813 15.5064C12.8986 14.6469 13.414 13.8015 14.2443 13.5599L14.3651 13.5296L16.9502 12.9801C17.7484 12.8104 18.5787 12.9399 19.285 13.3395L19.4588 13.4451L26.208 17.8279L32.0536 16.5855L31.5338 14.14L28.1335 14.8628C27.3353 15.0324 26.505 14.903 25.7988 14.5034L25.625 14.3979L18.876 10.015L4.06381 13.1633C3.16345 13.3547 2.27843 12.78 2.08705 11.8796C1.90438 11.0202 2.41976 10.1747 3.25007 9.93319L3.37079 9.90286L18.1829 6.7545C18.9811 6.58483 19.8113 6.71427 20.5175 7.11389Z" fill="#333333"/>
</g>
</g>
</g>
<defs>
<clipPath id="clip0_479_6711">
<rect width="40" height="40" fill="white"/>
</clipPath>
</defs>
</svg>
