<svg width="40" height="40" viewBox="0 0 40 40" fill="none" xmlns="http://www.w3.org/2000/svg">
<g id="&#230;&#139;&#137;&#228;&#188;&#184;,&#230;&#137;&#169;&#229;&#177;&#149;,&#230;&#139;&#150;&#229;&#164;&#167;&#230;&#139;&#137;&#228;&#188;&#184;,&#230;&#137;&#169;&#229;&#177;&#149;,&#230;&#139;&#150;&#229;&#164;&#167;" clip-path="url(#clip0_479_6620)">
<g id="Group">
<g id="Group_2">
<path id="Vector" fill-rule="evenodd" clip-rule="evenodd" d="M3.33325 6.66634C3.33325 4.82539 4.82564 3.33301 6.66659 3.33301H19.1666C20.0871 3.33301 20.8333 4.0792 20.8333 4.99967C20.8333 5.92014 20.0871 6.66634 19.1666 6.66634H6.66659V33.3333H33.3333V20.8333C33.3333 19.9128 34.0794 19.1666 34.9999 19.1666C35.9204 19.1666 36.6666 19.9128 36.6666 20.8333V33.3333C36.6666 35.1743 35.1743 36.6667 33.3333 36.6667H6.66659C4.82565 36.6667 3.33325 35.1743 3.33325 33.3333V6.66634ZM19.9999 11.6663C20.9204 11.6663 21.6666 12.4125 21.6666 13.333V15.9761L30.9764 6.66634H28.3333C27.4128 6.66634 26.6666 5.92014 26.6666 4.99967C26.6666 4.0792 27.4128 3.33301 28.3333 3.33301H34.9999C35.9204 3.33301 36.6666 4.0792 36.6666 4.99967V11.6663C36.6666 12.5868 35.9204 13.333 34.9999 13.333C34.0794 13.333 33.3333 12.5868 33.3333 11.6663V9.02349L24.0238 18.333H26.6666C27.5871 18.333 28.3333 19.0792 28.3333 19.9997C28.3333 20.9202 27.5871 21.6663 26.6666 21.6663H19.9999C19.0794 21.6663 18.3333 20.9202 18.3333 19.9997V13.333C18.3333 12.4125 19.0794 11.6663 19.9999 11.6663Z" fill="#333333"/>
</g>
</g>
</g>
<defs>
<clipPath id="clip0_479_6620">
<rect width="40" height="40" fill="white"/>
</clipPath>
</defs>
</svg>
