<svg width="40" height="40" viewBox="0 0 40 40" fill="none" xmlns="http://www.w3.org/2000/svg">
<g id="&#230;&#139;&#179;&#229;&#135;&#187;,&#230;&#137;&#139;&#229;&#165;&#151;,&#230;&#138;&#164;&#229;&#133;&#183;,&#229;&#165;&#151;,&#232;&#174;&#173;&#231;&#187;&#131;,&#230;&#137;&#147;&#229;&#135;&#187;,&#230;&#139;&#179;&#229;&#164;&#180;,&#229;&#138;&#155;&#233;&#135;&#143;,&#229;&#175;&#185;&#230;&#137;&#147;,&#230;&#148;&#187;&#229;&#135;&#187;,&#232;&#183;&#134;&#230;&#139;&#179;&#233;&#129;&#147;,&#230;&#145;&#148;&#232;&#183;&#164;,&#228;&#189;&#147;&#232;&#130;&#178;&#230;&#139;&#179;&#229;&#135;&#187;,&#230;&#137;&#139;&#229;&#165;&#151;,&#230;&#138;&#164;&#229;&#133;&#183;,&#229;&#165;&#151;,&#232;&#174;&#173;&#231;&#187;&#131;,&#230;&#137;&#147;&#229;&#135;&#187;,&#230;&#139;&#179;&#229;&#164;&#180;,&#229;&#138;&#155;&#233;&#135;&#143;,&#229;&#175;&#185;&#230;&#137;&#147;,&#230;&#148;&#187;&#229;&#135;&#187;,&#232;&#183;&#134;&#230;&#139;&#179;&#233;&#129;&#147;,&#230;&#145;&#148;&#232;&#183;&#164;,&#228;&#189;&#147;&#232;&#130;&#178;" clip-path="url(#clip0_479_6735)">
<g id="Group">
<g id="Group_2">
<path id="Vector" fill-rule="evenodd" clip-rule="evenodd" d="M4.37303 27.1148C5.85523 29.19 8.02795 30.9922 10.8334 31.5147V35.0003C10.8334 36.8512 12.335 38.3337 14.1667 38.3337H30.0001C31.8509 38.3337 33.3334 36.832 33.3334 35.0003V31.4582C36.2112 30.7197 38.3334 28.1068 38.3334 25.0003V8.33366C38.3334 4.65176 35.3486 1.66699 31.6667 1.66699H14.1667C10.4849 1.66699 7.50008 4.65176 7.50008 8.33366V10.8337H3.33341C2.41294 10.8337 1.66675 11.5799 1.66675 12.5003V19.167C1.66675 21.6243 2.62467 24.6672 4.37303 27.1148ZM14.1667 5.00033C12.3258 5.00033 10.8334 6.49271 10.8334 8.33366V18.3337C10.8334 19.2542 10.0872 20.0003 9.16675 20.0003C8.24628 20.0003 7.50008 19.2542 7.50008 18.3337V14.167H5.00008V19.167C5.00008 20.8763 5.70881 23.2502 7.08546 25.1775C8.44673 27.0832 10.2886 28.3337 12.5001 28.3337H31.6717C33.5106 28.3337 35.0001 26.8435 35.0001 25.0003V8.33366C35.0001 6.49271 33.5077 5.00033 31.6667 5.00033H14.1667ZM30.0001 35.0003V31.667H14.1667V35.0003H30.0001Z" fill="#333333"/>
</g>
</g>
</g>
<defs>
<clipPath id="clip0_479_6735">
<rect width="40" height="40" fill="white"/>
</clipPath>
</defs>
</svg>
