<svg width="40" height="40" viewBox="0 0 40 40" fill="none" xmlns="http://www.w3.org/2000/svg">
<g id="&#230;&#156;&#141;&#229;&#138;&#161;,&#228;&#188;&#160;&#233;&#128;&#146;,&#228;&#186;&#164;&#228;&#187;&#152;,&#230;&#139;&#177;&#230;&#137;&#139;&#231;&#155;&#184;&#232;&#174;&#169;&#230;&#156;&#141;&#229;&#138;&#161;,&#228;&#188;&#160;&#233;&#128;&#146;,&#228;&#186;&#164;&#228;&#187;&#152;,&#230;&#139;&#177;&#230;&#137;&#139;&#231;&#155;&#184;&#232;&#174;&#169;" clip-path="url(#clip0_479_6719)">
<g id="Group">
<g id="Group_2">
<path id="Vector" d="M10 16.6663C13.6944 16.6663 22.1813 20.1305 23.8333 22.333C24.429 23.1273 24.5528 24.056 24.2973 24.9667L27.3802 24.383L30.2183 23.8738L31.0503 23.7328L32.4498 23.5128L33.2643 23.404L33.6942 23.3587C33.8862 23.3417 34.0438 23.333 34.1667 23.333C37.8592 23.333 37.8592 26.9975 35.3452 29.5115C31.6152 33.2415 26.2333 36.6663 21.6667 36.6663C19.5102 36.6663 17.7408 36.3143 15.3048 35.5347L13.2972 34.8738L12.7472 34.698L12.0652 34.4913L11.6881 34.3878L11.2081 34.2763L10.9274 34.227L10.6639 34.1942L10.4054 34.1753L10.1395 34.1672L1.66667 34.1663C0.746192 34.1663 1.37418e-07 33.4202 1.37418e-07 32.4997C1.37418e-07 31.645 0.6434 30.9405 1.4723 30.8442L1.66667 30.833L10.2055 30.834L10.574 30.8428L10.9215 30.863L11.2615 30.8973L11.6072 30.9488L11.972 31.0203L12.3694 31.1145L12.8128 31.2345L13.3155 31.3828L14.21 31.6653L15.7354 32.1685C18.1913 32.9872 19.7667 33.333 21.6667 33.333C25.0762 33.333 29.8432 30.2995 32.9882 27.1545C33.1037 27.039 33.2053 26.9268 33.2938 26.8205L33.3483 26.7497L32.2772 26.9112L30.3593 27.2338L26.7655 27.8878L25.2933 28.1662L20.3268 29.134L20.2912 29.1412C20.2438 29.1495 20.1965 29.1558 20.149 29.16L20.3268 29.134C20.2448 29.1503 20.162 29.1605 20.079 29.1645C20.0388 29.1665 19.9987 29.167 19.9588 29.166C19.9317 29.1652 19.904 29.1638 19.8763 29.1617C19.816 29.1573 19.7567 29.1495 19.6978 29.1387C19.6923 29.1377 19.6875 29.1368 19.6825 29.1358C19.6125 29.1222 19.5443 29.1043 19.4775 29.0823L14.473 27.4142C13.5997 27.123 13.1278 26.1792 13.4189 25.306C13.6892 24.4952 14.5223 24.0302 15.3391 24.201L15.5271 24.2518L19.6993 25.6447C19.8688 25.5055 20.0493 25.3478 20.2282 25.1777C20.6115 24.8125 20.8908 24.4695 21.0227 24.2192L21.035 24.188L20.923 24.0822C20.3685 23.6032 19.1978 22.9675 17.7978 22.3408L16.9333 21.9672C16.4904 21.7822 16.0338 21.601 15.5739 21.4282L14.6528 21.0947C12.9676 20.5082 11.3319 20.0725 10.2603 20.008L10 19.9997C7.7236 19.9997 4.9238 21.5995 2.84518 23.6782C2.1943 24.329 1.13903 24.329 0.488155 23.6782C-0.162718 23.0273 -0.162718 21.972 0.488155 21.3212C3.13175 18.6776 6.6514 16.6663 10 16.6663ZM33.3333 3.33301C35.0907 3.33301 36.5303 4.6928 36.6575 6.41757L36.6667 6.66634V19.9997C36.6667 20.9202 35.9205 21.6663 35 21.6663C34.1453 21.6663 33.4408 21.023 33.3445 20.194L33.3333 19.9997V6.66634H29.1667V12.4997C29.1667 13.3544 28.5233 14.0589 27.6943 14.1551L27.5 14.1663H19.1667C18.2462 14.1663 17.5 13.4201 17.5 12.4997V6.66634H13.3333V13.333C13.3333 14.2535 12.5871 14.9997 11.6667 14.9997C10.8119 14.9997 10.1075 14.3563 10.0112 13.5274L10 13.333V6.66634C10 4.90907 11.3598 3.4694 13.0846 3.34215L13.3333 3.33301H33.3333ZM25.8333 6.66634H20.8333V10.833H25.8333V6.66634Z" fill="#333333"/>
</g>
</g>
</g>
<defs>
<clipPath id="clip0_479_6719">
<rect width="40" height="40" fill="white"/>
</clipPath>
</defs>
</svg>
