<svg width="40" height="40" viewBox="0 0 40 40" fill="none" xmlns="http://www.w3.org/2000/svg">
<g id="&#233;&#157;&#158;&#228;&#184;&#173;&#229;&#155;&#189;&#229;&#140;&#186;,&#229;&#133;&#168;&#231;&#144;&#131;,&#229;&#156;&#176;&#231;&#144;&#131;,&#229;&#155;&#189;&#233;&#153;&#133;,&#229;&#156;&#176;&#229;&#155;&#190;&#233;&#157;&#158;&#228;&#184;&#173;&#229;&#155;&#189;&#229;&#140;&#186;,&#229;&#133;&#168;&#231;&#144;&#131;,&#229;&#156;&#176;&#231;&#144;&#131;,&#229;&#155;&#189;&#233;&#153;&#133;,&#229;&#156;&#176;&#229;&#155;&#190;" clip-path="url(#clip0_479_6602)">
<g id="Group">
<g id="Group_2">
<path id="Vector" d="M20 1.66699C30.1251 1.66699 38.3333 9.87508 38.3333 20.0003C38.3333 22.8932 37.6633 25.6297 36.4698 28.0628L36.4628 28.0808C36.4361 28.142 36.4055 28.2018 36.371 28.2602L36.2661 28.4655C33.208 34.3298 27.0716 38.3337 20 38.3337C9.87474 38.3337 1.66663 30.1255 1.66663 20.0003C1.66663 9.87508 9.87473 1.66699 20 1.66699ZM25.7013 6.12181L25.7131 6.20268L25.7723 6.54423C25.8433 6.93891 25.9235 7.08003 26.1865 7.26179L26.5051 7.46059C26.5365 7.47931 26.5728 7.50086 26.6155 7.52623C28.0726 8.39908 28.7085 9.50149 28.3968 11.4963C28.0445 13.7494 26.907 14.491 24.8073 14.6921L23.9358 14.7643L23.6791 14.799C23.6033 14.812 23.5343 14.8267 23.463 14.8445C23.1871 14.9131 22.9771 15.0165 22.783 15.1853C22.7053 15.2528 22.6561 15.3834 22.6443 15.6535L22.6438 15.9209L22.663 16.2672L22.703 16.7032L22.796 17.4855C23.1381 20.2772 22.8188 21.8863 20.7713 23.0293C20.0518 23.431 19.2788 23.604 18.4813 23.5633C17.2998 23.5032 16.3701 23.0997 14.9366 22.2022L13.6836 21.4118L12.7695 20.8725C12.758 20.8642 12.7547 20.8595 12.7586 20.8575C12.6734 20.9038 12.5957 21.0197 12.5249 21.245L12.4564 21.5085L12.3924 21.854L12.3328 22.2907L12.1821 23.8228C11.9976 25.485 11.7282 26.2608 10.8596 27.053C9.93491 27.8962 8.76913 28.2342 7.39739 28.1347C10.0673 32.2665 14.7144 35.0003 20 35.0003C20.428 35.0003 20.8518 34.9823 21.2706 34.9472C20.649 33.6923 20.508 32.423 20.9095 31.1627C21.2255 30.1703 21.6561 29.4515 22.2453 28.8347L22.3973 28.6807L22.8078 28.2978C23.0395 28.0842 23.0945 28.0132 23.1445 27.878L23.1528 27.8213L23.156 27.686L23.1448 27.2728C23.098 26.1348 23.1581 25.5032 23.567 24.6673C24.0236 23.7333 24.8348 22.9693 26.0296 22.3428C28.405 21.0975 31.1496 21.9462 34.2913 24.5633C34.7521 23.1257 35 21.592 35 20.0003C35 13.7344 31.158 8.36584 25.7013 6.12181ZM27.5776 25.295C26.9725 25.6123 26.6813 25.8867 26.5615 26.1317C26.5041 26.2487 26.475 26.373 26.4673 26.599L26.468 26.9252L26.4753 27.1362C26.5121 28.0342 26.492 28.4375 26.2703 29.036C26.004 29.7545 25.6516 30.2093 25.0685 30.7475L24.8333 30.9633C24.7611 31.0305 24.7056 31.0847 24.6561 31.1365C24.4133 31.3908 24.2463 31.6697 24.0855 32.1742C23.912 32.719 24.0845 33.3885 24.7373 34.234C28.1568 33.0988 31.0275 30.766 32.8555 27.7335C30.3506 25.45 28.5805 24.7692 27.5776 25.295ZM20 5.00033C11.7157 5.00033 4.99996 11.716 4.99996 20.0003C4.99996 21.4845 5.21553 22.9185 5.61708 24.2723L5.62028 24.2745C7.28429 24.9418 8.22769 24.9418 8.61351 24.59C8.62878 24.576 8.64436 24.553 8.66021 24.5195L8.70851 24.3857L8.75808 24.1795L8.80861 23.8922L8.88553 23.2897L8.95771 22.5283C9.18198 20.0385 9.58954 18.7883 11.1633 17.9306C12.443 17.2331 13.2225 17.2961 14.8218 18.2075L15.3871 18.5428L16.024 18.9417L16.3726 19.1652C17.5342 19.9135 18.1558 20.2092 18.651 20.2343C18.8328 20.2437 18.9833 20.21 19.1465 20.1188C19.5631 19.8862 19.6646 19.499 19.5218 18.1866L19.458 17.6542C19.1276 15.0201 19.2241 13.8627 20.5956 12.67C21.2085 12.1371 21.8935 11.8001 22.6578 11.6098C23.0155 11.5208 23.2955 11.4752 23.7081 11.4365L24.4621 11.3795L24.8348 11.3587L24.9698 11.3416C25.0523 11.3219 25.0685 11.2847 25.0786 11.1979L25.1033 10.9815L25.128 10.8423L25.1671 10.662C25.183 10.5873 25.1823 10.5575 25.145 10.5268L24.6455 10.2321L24.5436 10.1693C23.4375 9.47761 22.7551 8.59908 22.4916 7.13431L22.3215 6.12953L22.2383 5.54059L22.1978 5.16021C21.4805 5.05488 20.7466 5.00033 20 5.00033Z" fill="#333333"/>
</g>
</g>
</g>
<defs>
<clipPath id="clip0_479_6602">
<rect width="40" height="40" fill="white"/>
</clipPath>
</defs>
</svg>
