<svg width="40" height="41" viewBox="0 0 40 41" fill="none" xmlns="http://www.w3.org/2000/svg">
<g id="&#229;&#138;&#160;&#229;&#143;&#183;,&#231;&#172;&#166;&#229;&#143;&#183;,&#229;&#138;&#160;&#230;&#179;&#149;,&#231;&#186;&#162;&#229;&#141;&#129;&#229;&#173;&#151;,&#229;&#140;&#187;&#231;&#150;&#151;,&#229;&#140;&#187;&#233;&#153;&#162;&#229;&#138;&#160;&#229;&#143;&#183;,&#231;&#172;&#166;&#229;&#143;&#183;,&#229;&#138;&#160;&#230;&#179;&#149;,&#231;&#186;&#162;&#229;&#141;&#129;&#229;&#173;&#151;,&#229;&#140;&#187;&#231;&#150;&#151;,&#229;&#140;&#187;&#233;&#153;&#162;" clip-path="url(#clip0_479_6912)">
<g id="Group">
<g id="Group_2">
<path id="Vector" fill-rule="evenodd" clip-rule="evenodd" d="M13.3332 4.30339C13.3332 3.38291 14.0794 2.63672 14.9998 2.63672H24.9998C25.9203 2.63672 26.6665 3.38291 26.6665 4.30339V14.3034H36.6665C37.587 14.3034 38.3332 15.0496 38.3332 15.9701V25.9701C38.3332 26.8906 37.587 27.6367 36.6665 27.6367H26.6665V37.6367C26.6665 38.5572 25.9203 39.3034 24.9998 39.3034H14.9998C14.0794 39.3034 13.3332 38.5572 13.3332 37.6367V27.6367H3.33317C2.4127 27.6367 1.6665 26.8906 1.6665 25.9701V15.9701C1.6665 15.0496 2.4127 14.3034 3.33317 14.3034H13.3332V4.30339ZM16.6665 5.97005V15.9701C16.6665 16.8905 15.9203 17.6367 14.9998 17.6367H4.99984V24.3034H14.9998C15.9203 24.3034 16.6665 25.0496 16.6665 25.9701V35.9701H23.3332V25.9701C23.3332 25.0496 24.0793 24.3034 24.9998 24.3034H34.9998V17.6367H24.9998C24.0793 17.6367 23.3332 16.8905 23.3332 15.9701V5.97005H16.6665Z" fill="#333333"/>
</g>
</g>
</g>
<defs>
<clipPath id="clip0_479_6912">
<rect width="40" height="40" fill="white" transform="translate(0 0.969727)"/>
</clipPath>
</defs>
</svg>
