<svg width="40" height="41" viewBox="0 0 40 41" fill="none" xmlns="http://www.w3.org/2000/svg">
<g id="&#232;&#189;&#174;&#230;&#164;&#133;,&#230;&#174;&#139;&#231;&#150;&#190;,&#232;&#191;&#144;&#229;&#138;&#168;&#232;&#189;&#174;&#230;&#164;&#133;,&#230;&#174;&#139;&#231;&#150;&#190;,&#232;&#191;&#144;&#229;&#138;&#168;" clip-path="url(#clip0_479_6897)">
<g id="Group">
<g id="Group_2">
<path id="Vector" fill-rule="evenodd" clip-rule="evenodd" d="M15.0002 5.97005C14.0797 5.97005 13.3335 6.71625 13.3335 7.63672C13.3335 8.55717 14.0797 9.30339 15.0002 9.30339C15.9206 9.30339 16.6668 8.55717 16.6668 7.63672C16.6668 6.71625 15.9206 5.97005 15.0002 5.97005ZM10.0002 7.63672C10.0002 4.87529 12.2388 2.63672 15.0002 2.63672C17.7615 2.63672 20.0002 4.87529 20.0002 7.63672C20.0002 9.75447 18.6835 11.5648 16.8241 12.2936L18.1472 24.2011L29.056 23.4737C29.8472 23.4211 30.5662 23.9331 30.7748 24.6982L32.9398 32.6367H34.1668C35.0873 32.6367 35.8335 33.3829 35.8335 34.3034C35.8335 35.2239 35.0873 35.9701 34.1668 35.9701H31.6668C30.9152 35.9701 30.2567 35.4671 30.0588 34.7419L27.9175 26.8904L16.7777 27.6331C15.8878 27.6924 15.1088 27.0406 15.0104 26.1541L13.4824 12.4022C11.463 11.7596 10.0002 9.86895 10.0002 7.63672ZM19.1668 17.6367C19.1668 16.7163 19.913 15.9701 20.8335 15.9701H27.5002C28.4207 15.9701 29.1668 16.7163 29.1668 17.6367C29.1668 18.5572 28.4207 19.3034 27.5002 19.3034H20.8335C19.913 19.3034 19.1668 18.5572 19.1668 17.6367ZM12.3482 17.8483C12.7322 18.6848 12.3653 19.6742 11.5287 20.0582C8.65621 21.3766 6.66683 24.2762 6.66683 27.6367C6.66683 32.2392 10.3978 35.9701 15.0002 35.9701C18.8809 35.9701 22.1458 33.3159 23.071 29.7214C23.3005 28.8299 24.2092 28.2934 25.1005 28.5227C25.992 28.7522 26.5285 29.6609 26.2992 30.5522C25.0042 35.5837 20.4387 39.3034 15.0002 39.3034C8.55688 39.3034 3.3335 34.0801 3.3335 27.6367C3.3335 22.9257 6.12568 18.8704 10.1383 17.0287C10.9749 16.6448 11.9643 17.0117 12.3482 17.8483Z" fill="#333333"/>
</g>
</g>
</g>
<defs>
<clipPath id="clip0_479_6897">
<rect width="40" height="40" fill="white" transform="translate(0 0.969727)"/>
</clipPath>
</defs>
</svg>
