<svg width="40" height="40" viewBox="0 0 40 40" fill="none" xmlns="http://www.w3.org/2000/svg">
<g id="&#233;&#146;&#165;&#229;&#140;&#153;,&#231;&#173;&#148;&#230;&#161;&#136;,&#229;&#188;&#128;&#233;&#148;&#129;,&#230;&#150;&#185;&#230;&#179;&#149;&#233;&#146;&#165;&#229;&#140;&#153;,&#231;&#173;&#148;&#230;&#161;&#136;,&#229;&#188;&#128;&#233;&#148;&#129;,&#230;&#150;&#185;&#230;&#179;&#149;" clip-path="url(#clip0_479_6743)">
<g id="Group">
<g id="Group_2">
<path id="Vector" fill-rule="evenodd" clip-rule="evenodd" d="M34.7017 4.55572C35.3508 5.20831 35.348 6.26357 34.6953 6.91274L32.8675 8.73095L36.2033 12.0492C36.8583 12.7008 36.8583 13.7608 36.2033 14.4124L30.9255 19.6624C30.2753 20.3092 29.2248 20.3091 28.5747 19.6624L25.2265 16.3318L21.2982 20.2394C22.9337 22.5098 23.5433 25.3851 22.9308 28.1516L22.8297 28.5656C21.9097 32.0123 19.2043 34.7075 15.7579 35.6035C12.3057 36.5153 8.62689 35.5171 6.10421 32.9738C2.3254 29.0818 2.37947 22.8921 6.22561 19.0662C9.67312 15.6368 15.0265 15.242 18.9126 17.9108L24.0303 12.82C24.0372 12.813 24.044 12.8061 24.051 12.7992L29.3287 7.54919C29.3353 7.54264 29.3418 7.53617 29.3485 7.52975L32.3447 4.5495C32.9972 3.90035 34.0525 3.90313 34.7017 4.55572ZM17.8624 21.3366L17.8725 21.3491C15.2714 18.8501 11.1334 18.8859 8.57641 21.4295C6.02424 23.9681 5.98841 28.0695 8.48326 30.6391C10.1538 32.3233 12.6056 32.9885 14.9129 32.379C17.2017 31.784 18.9984 29.994 19.6092 27.706C20.216 25.433 19.5562 23.0111 17.8786 21.3523C17.8731 21.3471 17.8677 21.342 17.8624 21.3366ZM27.5892 13.9815L29.7485 16.1291L32.6652 13.2291L30.5052 11.0808L27.5892 13.9815Z" fill="#333333"/>
</g>
</g>
</g>
<defs>
<clipPath id="clip0_479_6743">
<rect width="40" height="40" fill="white"/>
</clipPath>
</defs>
</svg>
