<svg width="40" height="41" viewBox="0 0 40 41" fill="none" xmlns="http://www.w3.org/2000/svg">
<g id="&#231;&#177;&#179;&#233;&#165;&#173;,&#229;&#141;&#136;&#233;&#165;&#173;,&#229;&#141;&#136;&#233;&#164;&#144;,&#233;&#165;&#173;,&#232;&#144;&#165;&#229;&#133;&#187;&#231;&#167;&#145;&#231;&#177;&#179;&#233;&#165;&#173;,&#229;&#141;&#136;&#233;&#165;&#173;,&#229;&#141;&#136;&#233;&#164;&#144;,&#233;&#165;&#173;,&#232;&#144;&#165;&#229;&#133;&#187;&#231;&#167;&#145;" clip-path="url(#clip0_479_6950)">
<g id="Group">
<g id="Group_2">
<path id="Vector" d="M20.0312 5.77836C20.1369 6.69277 19.4812 7.51963 18.5669 7.62522C14.0937 8.14177 10.297 11.0674 8.55065 15.1363L31.4499 15.1365C30.9132 13.8871 30.1774 12.7315 29.2704 11.7142C28.6579 11.0271 28.7183 9.97357 29.4053 9.36098C30.0923 8.74842 31.1459 8.80878 31.7584 9.49582C33.2164 11.131 34.3246 13.0497 35.0098 15.1358L36.6667 15.1362C37.5872 15.1362 38.3334 15.8824 38.3334 16.8029C38.3334 24.3922 33.5899 31.0969 26.5569 33.7654L26.9101 33.6244L26.8758 33.7477C26.7633 34.1699 26.6821 34.8096 26.6428 35.6484L26.6286 36.0201C26.6012 36.9204 25.8634 37.6362 24.9626 37.6362H15.0467C14.2109 37.6362 13.5043 37.0171 13.3945 36.1884C13.2528 35.1191 13.08 34.3119 12.8911 33.7886C12.8555 33.6901 12.8216 33.6079 12.7912 33.5427L12.7651 33.4897L12.539 33.3946C6.14735 30.5727 1.86927 24.3506 1.67374 17.3074L1.66675 16.8029C1.66675 15.8824 2.41294 15.1362 3.33341 15.1362L4.99058 15.1367C6.90263 9.31087 12.0317 5.0244 18.1845 4.31389C19.0989 4.2083 19.9257 4.86397 20.0312 5.77836ZM34.9034 18.468L6.27785 18.4697C6.25836 18.47 6.23883 18.47 6.21925 18.4696L5.09508 18.468L5.1275 18.7381C5.80082 23.8194 9.09315 28.2007 13.8156 30.3142L14.2625 30.5057C15.4134 30.9771 16.0288 32.1382 16.4316 34.1141L16.4667 34.3014H23.3967L23.4322 33.9919C23.6482 32.2856 24.1349 31.2319 25.1617 30.7399L25.3742 30.6489C30.5369 28.6901 34.1857 24.0801 34.8801 18.6818L34.9034 18.468ZM13.6314 22.1721C13.8762 22.9807 14.1859 23.6192 14.5493 24.0946C14.9381 24.6031 15.4266 25.0832 16.0188 25.5346C16.751 26.0924 16.8923 27.1382 16.3344 27.8704C15.7766 28.6026 14.7308 28.7437 13.9986 28.1859C13.1765 27.5596 12.4759 26.8707 11.9013 26.1192C11.2786 25.3047 10.7956 24.3089 10.4411 23.1377C10.1744 22.2567 10.6724 21.3264 11.5534 21.0597C12.4343 20.793 13.3647 21.2911 13.6314 22.1721ZM23.8709 4.69143C25.1924 5.02695 26.4602 5.5333 27.6466 6.19563C28.4502 6.64432 28.7381 7.65958 28.2894 8.4633C27.8407 9.267 26.8254 9.55482 26.0217 9.10613C25.0874 8.58452 24.0899 8.18613 23.0506 7.92225C22.1584 7.69573 21.6187 6.78885 21.8454 5.89669C22.0719 5.00452 22.9787 4.46491 23.8709 4.69143Z" fill="#333333"/>
</g>
</g>
</g>
<defs>
<clipPath id="clip0_479_6950">
<rect width="40" height="40" fill="white" transform="translate(0 0.969727)"/>
</clipPath>
</defs>
</svg>
