<svg width="40" height="41" viewBox="0 0 40 41" fill="none" xmlns="http://www.w3.org/2000/svg">
<g id="&#230;&#181;&#183;&#230;&#187;&#169;&#233;&#155;&#168;&#228;&#188;&#158;,&#229;&#186;&#166;&#229;&#129;&#135;,&#228;&#188;&#145;&#230;&#129;&#175;&#230;&#181;&#183;&#230;&#187;&#169;&#233;&#155;&#168;&#228;&#188;&#158;,&#229;&#186;&#166;&#229;&#129;&#135;,&#228;&#188;&#145;&#230;&#129;&#175;" clip-path="url(#clip0_479_6890)">
<g id="Group">
<g id="Group_2">
<path id="Vector" fill-rule="evenodd" clip-rule="evenodd" d="M18.6251 2.68305C20.6319 2.53218 22.6962 2.71168 24.7451 3.26066C26.5239 3.7373 28.1739 4.46105 29.6662 5.38605C36.3584 9.53392 39.8526 17.7132 37.7087 25.7143C37.5944 26.1412 37.3151 26.5053 36.9322 26.7263C36.5494 26.9473 36.0946 27.0072 35.6676 26.8928L26.0292 24.3103C26.0166 24.307 26.0037 24.3037 25.9911 24.3L21.1681 23.0077L17.6036 35.9693H36.6667C37.5872 35.9693 38.3334 36.7155 38.3334 37.636C38.3334 38.5565 37.5872 39.3027 36.6667 39.3027H15.4511C15.4289 39.3032 15.4066 39.3032 15.3843 39.3027H3.33341C2.41294 39.3027 1.66675 38.5565 1.66675 37.636C1.66675 36.7155 2.41294 35.9693 3.33341 35.9693H14.1465L17.9482 22.145L13.1444 20.8578C13.1329 20.8548 13.1215 20.8518 13.1102 20.8487L3.46998 18.2656C2.58087 18.0273 2.05324 17.1134 2.29147 16.2243C4.36298 8.49329 11.0765 3.25051 18.6251 2.68305ZM15.5621 18.0547C15.6329 17.8133 15.7158 17.5487 15.8122 17.2659C16.2814 15.8887 17.0522 14.1299 18.2593 12.5163C19.4801 10.8846 21.2019 9.32517 22.6704 8.14662C23.0146 7.87057 23.3404 7.61875 23.6372 7.39535C23.7826 7.73722 23.9389 8.11825 24.0987 8.52932C24.7814 10.2843 25.4927 12.4956 25.7341 14.5192C25.9727 16.5201 25.7609 18.4287 25.4786 19.856C25.4206 20.1492 25.3601 20.4197 25.3007 20.6642L15.5621 18.0547ZM28.5212 21.5272C28.5974 21.2188 28.6749 20.8757 28.7486 20.5027C29.0739 18.8574 29.3367 16.5796 29.0439 14.1244C28.7849 11.9528 28.0986 9.71587 27.4404 7.93997C27.5991 8.03042 27.7557 8.12355 27.9102 8.21929C32.9321 11.3319 35.7489 17.2187 34.8319 23.218L28.5212 21.5272ZM20.0711 5.96539C19.6701 5.96319 19.2711 5.97724 18.8751 6.007C13.2267 6.4316 8.15516 10.0552 6.03103 15.5009L12.3416 17.1918C12.4299 16.8867 12.5343 16.5508 12.657 16.1909C13.1978 14.6034 14.1091 12.4993 15.5903 10.5195C16.9004 8.7683 18.6132 7.17432 20.0711 5.96539Z" fill="#333333"/>
</g>
</g>
</g>
<defs>
<clipPath id="clip0_479_6890">
<rect width="40" height="40" fill="white" transform="translate(0 0.969727)"/>
</clipPath>
</defs>
</svg>
