<svg width="40" height="40" viewBox="0 0 40 40" fill="none" xmlns="http://www.w3.org/2000/svg">
<g id="&#230;&#137;&#139;&#230;&#142;&#140;,&#230;&#137;&#139;&#229;&#138;&#191;&#230;&#137;&#139;&#230;&#142;&#140;,&#230;&#137;&#139;&#229;&#138;&#191;" clip-path="url(#clip0_479_6611)">
<g id="Group">
<g id="Group_2">
<path id="Vector" fill-rule="evenodd" clip-rule="evenodd" d="M17.0892 6.32567C16.5789 6.23562 16.111 6.62818 16.111 7.14632V23.076C16.111 23.8282 15.6073 24.487 14.8815 24.6843C14.1557 24.8817 13.3877 24.5683 13.007 23.9197L10.9551 20.4237C10.4064 19.489 9.14735 19.275 8.32077 19.976C7.66137 20.5352 7.51067 21.4928 7.96636 22.2273L15.3718 34.1665H30.8333C31.2936 34.1665 31.6666 33.7935 31.6666 33.3332V9.59727C31.6666 9.19295 31.3763 8.84693 30.9781 8.77665L17.0892 6.32567ZM12.7777 7.14632C12.7777 4.55546 15.1171 2.59281 17.6685 3.04306L31.5574 5.49403C33.5484 5.8454 34.9999 7.57542 34.9999 9.59727V33.3332C34.9999 35.6343 33.1344 37.4998 30.8333 37.4998H14.5633C13.9121 37.4998 13.3087 37.1632 12.9661 36.612L5.13368 23.9845C3.80777 21.8468 4.24638 19.0607 6.16486 17.4337C8.13411 15.7638 10.9466 15.8784 12.7777 17.4674V7.14632Z" fill="#333333"/>
</g>
</g>
</g>
<defs>
<clipPath id="clip0_479_6611">
<rect width="40" height="40" fill="white"/>
</clipPath>
</defs>
</svg>
