<svg width="41" height="40" viewBox="0 0 41 40" fill="none" xmlns="http://www.w3.org/2000/svg">
<g id="&#233;&#146;&#159;&#232;&#161;&#168;,&#230;&#151;&#182;&#233;&#151;&#180;,&#229;&#128;&#146;&#232;&#174;&#161;&#230;&#151;&#182;&#233;&#146;&#159;&#232;&#161;&#168;,&#230;&#151;&#182;&#233;&#151;&#180;,&#229;&#128;&#146;&#232;&#174;&#161;&#230;&#151;&#182;" clip-path="url(#clip0_900_12974)">
<g id="Group">
<g id="Group_2">
<path id="Vector" fill-rule="evenodd" clip-rule="evenodd" d="M2.5835 20.0001C2.5835 9.87487 10.7916 1.66675 20.9168 1.66675C31.042 1.66675 39.2502 9.87487 39.2502 20.0001C39.2502 30.1252 31.042 38.3334 20.9168 38.3334C10.7916 38.3334 2.5835 30.1252 2.5835 20.0001ZM20.9168 5.00008C12.6325 5.00008 5.91683 11.7158 5.91683 20.0001C5.91683 28.2844 12.6325 35.0001 20.9168 35.0001C29.2012 35.0001 35.9168 28.2844 35.9168 20.0001C35.9168 11.7158 29.2012 5.00008 20.9168 5.00008ZM20.924 8.33342C21.8443 8.33352 22.5905 9.07978 22.5905 10.0002L22.5895 19.3171L29.1675 25.8951C29.8183 26.5459 29.8183 27.6013 29.1675 28.2521C28.5165 28.9029 27.4613 28.9029 26.8103 28.2521L19.7442 21.1859C19.4317 20.8732 19.256 20.4494 19.256 20.0072L19.2572 9.99991C19.2572 9.07945 20.0035 8.33331 20.924 8.33342Z" fill="#333333"/>
</g>
</g>
</g>
<defs>
<clipPath id="clip0_900_12974">
<rect width="40" height="40" fill="white" transform="translate(0.916992)"/>
</clipPath>
</defs>
</svg>
