<svg width="40" height="41" viewBox="0 0 40 41" fill="none" xmlns="http://www.w3.org/2000/svg">
<g id="&#229;&#144;&#172;&#232;&#175;&#190;,&#230;&#149;&#153;&#229;&#173;&#166;,&#229;&#173;&#166;&#228;&#185;&#160;,&#231;&#148;&#168;&#230;&#136;&#183;,&#228;&#184;&#170;&#228;&#186;&#186;&#228;&#184;&#173;&#229;&#191;&#131;&#229;&#144;&#172;&#232;&#175;&#190;,&#230;&#149;&#153;&#229;&#173;&#166;,&#229;&#173;&#166;&#228;&#185;&#160;,&#231;&#148;&#168;&#230;&#136;&#183;,&#228;&#184;&#170;&#228;&#186;&#186;&#228;&#184;&#173;&#229;&#191;&#131;" clip-path="url(#clip0_900_12973)">
<g id="Group">
<g id="Group_2">
<path id="Vector" fill-rule="evenodd" clip-rule="evenodd" d="M20 5.84383C16.7783 5.84383 14.1667 8.4555 14.1667 11.6772C14.1667 14.8988 16.7783 17.5105 20 17.5105C23.2217 17.5105 25.8333 14.8988 25.8333 11.6772C25.8333 8.4555 23.2217 5.84383 20 5.84383ZM10.8333 11.6772C10.8333 6.61455 14.9374 2.5105 20 2.5105C25.0627 2.5105 29.1667 6.61455 29.1667 11.6772C29.1667 16.7398 25.0627 20.8438 20 20.8438C14.9374 20.8438 10.8333 16.7398 10.8333 11.6772ZM14.8821 21.3702L15.0594 21.5597C15.1732 21.6815 15.3382 21.8583 15.5434 22.0793C15.9538 22.5212 16.5257 23.1395 17.1725 23.8465C18.0528 24.8088 19.079 25.943 20.0265 27.022L25.095 21.395C25.4622 20.9873 26.0067 20.7865 26.5508 20.858C27.8952 21.035 29.2268 21.8182 30.3858 22.7813C31.581 23.7747 32.7573 25.0965 33.7935 26.6067C35.5603 29.1817 37.0272 32.4652 37.4053 35.8438H38.3333C39.2538 35.8438 40 36.59 40 37.5105C40 38.431 39.2538 39.1772 38.3333 39.1772H1.66667C0.746192 39.1772 0 38.431 0 37.5105C0 36.59 0.746192 35.8438 1.66667 35.8438H2.5851C2.91948 32.5502 4.20867 29.4623 5.90515 26.9647C7.86268 24.0827 10.5072 21.7795 13.1544 20.9245C13.768 20.7263 14.4409 20.8998 14.8821 21.3702ZM5.93998 35.8438H34.0453C33.6805 33.2695 32.5262 30.6513 31.045 28.4925C30.1515 27.1902 29.1755 26.1097 28.2553 25.345C27.7195 24.8997 27.2493 24.6002 26.8628 24.413L21.2383 30.6572C20.9162 31.015 20.4548 31.2158 19.9733 31.2082C19.4918 31.2005 19.0373 30.985 18.7267 30.617C17.5615 29.2373 15.9967 27.4997 14.713 26.0963C14.142 25.4722 13.6297 24.9175 13.2375 24.4948C11.7377 25.2702 10.0643 26.7738 8.66257 28.8375C7.28185 30.8703 6.261 33.3093 5.93998 35.8438Z" fill="#333333"/>
</g>
</g>
</g>
<defs>
<clipPath id="clip0_900_12973">
<rect width="40" height="40" fill="white" transform="translate(0 0.84375)"/>
</clipPath>
</defs>
</svg>
