<svg width="80" height="80" viewBox="0 0 80 80" fill="none" xmlns="http://www.w3.org/2000/svg">
<g id="Frame 1000001787" clip-path="url(#clip0_298_1336)">
<g id="Frame 2147226642">
<path id="Rectangle 919" d="M68.7819 44.9694C69.0161 43.3862 69.1373 41.7689 69.1373 40.1246V19.727C69.1373 18.907 68.566 18.1984 67.7674 18.012C55.8127 15.2214 46.3143 10.9852 40.0687 5C30.9935 12.0202 24.7673 15.0251 12.3536 18.004C11.5628 18.1938 11 18.8989 11 19.7122V40.1246C11 41.7689 11.1212 43.3862 11.3554 44.9694C12.4252 52.2005 15.8549 58.7165 20.8847 63.799C25.85 68.8161 32.3746 72.4364 39.7277 73.9687C39.9524 74.0155 40.1849 74.0155 40.4096 73.9687C47.2429 72.5448 53.3606 69.3179 58.1763 64.8423C63.7923 59.6229 67.6375 52.7054 68.7819 44.9694Z" fill="#80B224"/>
<g id="Frame 2147226615">
<g id="Group 2480">
<line id="Line 52" x1="40.5585" y1="24.8115" x2="40.5585" y2="40.6257" stroke="#C6E893" stroke-width="2.19506"/>
<circle id="Ellipse 21" cx="40.4129" cy="24.8113" r="4.81133" fill="white"/>
</g>
<g id="Group 2482">
<line id="Line 53" x1="56.876" y1="55.2714" x2="44.5374" y2="45.3797" stroke="#C6E893" stroke-width="2.19506"/>
<circle id="Ellipse 22" cx="57.0106" cy="54.6795" r="4.81133" fill="white"/>
</g>
<g id="Group 2481">
<line id="Line 54" y1="-1.09753" x2="15.8142" y2="-1.09753" transform="matrix(0.780227 -0.625496 -0.625496 -0.780227 23.8125 54.415)" stroke="#C6E893" stroke-width="2.19506"/>
<circle id="Ellipse 23" cx="23.8113" cy="54.6785" r="4.81133" fill="white"/>
</g>
<circle id="Ellipse 20" cx="40.4136" cy="44.5239" r="7.69485" fill="white"/>
</g>
</g>
</g>
<defs>
<clipPath id="clip0_298_1336">
<rect width="80" height="80" fill="white"/>
</clipPath>
</defs>
</svg>
