<svg width="40" height="40" viewBox="0 0 40 40" fill="none" xmlns="http://www.w3.org/2000/svg">
<g id="Frame 2147226769" clip-path="url(#clip0_305_2362)">
<g id="Frame 2147226769_2">
<path id="Union" d="M19.2607 7.10156C19.3926 6.9685 19.6071 6.96595 19.7422 7.0957L27.3535 14.4053C28.1685 15.1882 28.1817 16.4879 27.3828 17.2871C26.6086 18.0614 25.3577 18.0771 24.5645 17.3223L21.1094 14.0322V26.1953C21.1094 27.085 20.3886 27.8064 19.499 27.8066C18.6092 27.8066 17.8877 27.0851 17.8877 26.1953V14.1484L14.8779 17.2275C14.0969 18.0265 12.8135 18.0341 12.0234 17.2441C11.2422 16.4629 11.2391 15.1969 12.0166 14.4121L19.2607 7.10156Z" fill="#80B224"/>
<path id="Ellipse 25" d="M34 19.75C34 27.3132 27.5081 33.4444 19.5 33.4444C11.4919 33.4444 5 27.3132 5 19.75" stroke="#80B224" stroke-width="3" stroke-linecap="round"/>
</g>
</g>
<defs>
<clipPath id="clip0_305_2362">
<rect width="40" height="40" fill="white"/>
</clipPath>
</defs>
</svg>
