<svg width="40" height="40" viewBox="0 0 40 40" fill="none" xmlns="http://www.w3.org/2000/svg">
<g id="&#232;&#174;&#176;&#229;&#189;&#149;,&#232;&#180;&#166;&#229;&#141;&#149;,&#230;&#157;&#161;&#228;&#190;&#139;&#232;&#174;&#176;&#229;&#189;&#149;,&#232;&#180;&#166;&#229;&#141;&#149;,&#230;&#157;&#161;&#228;&#190;&#139;" clip-path="url(#clip0_632_7688)">
<g id="Group">
<g id="Group_2">
<path id="Vector" fill-rule="evenodd" clip-rule="evenodd" d="M20.1667 4.16634C19.7064 4.16634 19.3333 4.53942 19.3333 4.99967V6.62509C19.3333 7.56921 18.5678 8.33301 17.6254 8.33301H16V9.99967H24.3333V8.33301H22.7078C21.7656 8.33301 21 7.56921 21 6.62509V4.99967C21 4.53942 20.6269 4.16634 20.1667 4.16634ZM27.6667 8.33301V10.833C27.6667 12.2137 26.5473 13.333 25.1667 13.333H15.1667C13.786 13.333 12.6667 12.2137 12.6667 10.833V8.33301H9.33333V34.9997H31V8.33301H27.6667ZM16 4.99967C16 2.69851 17.8654 0.833008 20.1667 0.833008C22.4679 0.833008 24.3333 2.69851 24.3333 4.99967H31.8333C33.214 4.99967 34.3333 6.11899 34.3333 7.49967V35.833C34.3333 37.2137 33.214 38.333 31.8333 38.333H8.5C7.11928 38.333 6 37.2137 6 35.833V7.49967C6 6.11899 7.11925 4.99967 8.5 4.99967H16Z" fill="#333333"/>
</g>
</g>
</g>
<defs>
<clipPath id="clip0_632_7688">
<rect width="40" height="40" fill="white"/>
</clipPath>
</defs>
</svg>
