<svg width="40" height="40" viewBox="0 0 40 40" fill="none" xmlns="http://www.w3.org/2000/svg">
<g id="&#228;&#185;&#166;&#230;&#156;&#172;,&#231;&#172;&#148;&#232;&#174;&#176;,&#230;&#150;&#135;&#228;&#187;&#182;&#228;&#185;&#166;&#230;&#156;&#172;,&#231;&#172;&#148;&#232;&#174;&#176;,&#230;&#150;&#135;&#228;&#187;&#182;" clip-path="url(#clip0_632_7636)">
<g id="Group">
<g id="Group_2">
<path id="Vector" d="M29.9997 2.5C30.9202 2.5 31.6663 3.24619 31.6663 4.16667V25.8333C31.6663 26.688 31.023 27.3925 30.194 27.4888L29.9997 27.5H9.99967C8.51891 27.5 7.25709 28.4743 6.82534 29.8163C6.72169 30.1372 6.66634 30.4788 6.66634 30.8333C6.66634 32.5907 8.02614 34.0303 9.75091 34.1575L9.99967 34.1667H33.333V5.83333C33.333 4.9786 33.9763 4.27415 34.8053 4.17788L34.9997 4.16667C35.8543 4.16667 36.5588 4.81007 36.6552 5.63897L36.6663 5.83333V35.8333C36.6663 36.688 36.023 37.3925 35.194 37.4888L34.9997 37.5H9.99967C6.31777 37.5 3.33301 34.5152 3.33301 30.8333V9.16667C3.33301 5.48477 6.31777 2.5 9.99967 2.5H29.9997ZM29.1663 29.1667C30.0868 29.1667 30.833 29.9128 30.833 30.8333C30.833 31.688 30.1897 32.3925 29.3607 32.4888L29.1663 32.5H10.833C9.91254 32.5 9.16634 31.7538 9.16634 30.8333C9.16634 29.9787 9.80974 29.2742 10.6386 29.1778L10.833 29.1667H29.1663ZM28.333 5.83333H9.99967C8.15872 5.83333 6.66634 7.32572 6.66634 9.16667L6.66556 25.059C6.85769 24.9478 7.05591 24.846 7.25956 24.754C7.26936 24.7513 7.27826 24.7473 7.28716 24.7433C7.39077 24.6953 7.49679 24.6513 7.60416 24.61C7.62619 24.603 7.64794 24.5947 7.66972 24.5865C7.91367 24.4942 8.16461 24.417 8.42137 24.3547C8.43101 24.353 8.43986 24.3508 8.44871 24.3487L8.42137 24.3547C8.53901 24.326 8.65787 24.3007 8.77787 24.2783C8.81414 24.2722 8.85024 24.2657 8.88646 24.2595C8.97814 24.2438 9.07056 24.2302 9.16356 24.2187C9.32927 24.198 9.49761 24.1832 9.66759 24.1748L9.28754 24.2043C9.41301 24.191 9.54016 24.1812 9.66759 24.1748L9.99967 24.1667H28.333V5.83333Z" fill="#333333"/>
</g>
</g>
</g>
<defs>
<clipPath id="clip0_632_7636">
<rect width="40" height="40" fill="white"/>
</clipPath>
</defs>
</svg>
