<svg width="40" height="40" viewBox="0 0 40 40" fill="none" xmlns="http://www.w3.org/2000/svg">
<g id="&#229;&#133;&#171;&#229;&#147;&#165;,&#233;&#151;&#174;&#233;&#162;&#152;,&#230;&#141;&#159;&#229;&#157;&#143;,&#228;&#186;&#139;&#230;&#149;&#133;,BUG,&#233;&#151;&#174;&#233;&#162;&#152;,&#231;&#168;&#139;&#229;&#186;&#143;&#233;&#151;&#174;&#233;&#162;&#152;,&#230;&#138;&#165;&#233;&#148;&#153;&#229;&#133;&#171;&#229;&#147;&#165;,&#233;&#151;&#174;&#233;&#162;&#152;,&#230;&#141;&#159;&#229;&#157;&#143;,&#228;&#186;&#139;&#230;&#149;&#133;,BUG,&#233;&#151;&#174;&#233;&#162;&#152;,&#231;&#168;&#139;&#229;&#186;&#143;&#233;&#151;&#174;&#233;&#162;&#152;,&#230;&#138;&#165;&#233;&#148;&#153;" clip-path="url(#clip0_632_7655)">
<g id="Group">
<g id="Group_2">
<path id="Vector" d="M20.0003 1.66699C24.6183 1.66699 28.3337 5.53719 28.3337 10.2781L28.327 10.0003H30.9737L35.4885 5.48848C36.1393 4.83761 37.1947 4.83761 37.8455 5.48848C38.4463 6.08929 38.4925 7.03468 37.9842 7.68849L37.8455 7.84551L33.3337 12.357V20.8337H36.667C37.5875 20.8337 38.3337 21.5798 38.3337 22.5003C38.3337 23.355 37.6903 24.0595 36.8613 24.1558L36.667 24.167L33.3125 24.1685C33.1823 26.7153 32.4535 29.1783 31.0947 31.235L35.3455 35.4885C35.9963 36.1393 35.9963 37.1947 35.3455 37.8455C34.7447 38.4463 33.7993 38.4925 33.1455 37.9842L32.9885 37.8455L28.876 33.7338C26.9702 35.3377 24.4375 36.4045 21.248 36.6247C21.2367 36.6248 21.2278 36.6255 21.219 36.6262C20.8245 36.6533 20.4175 36.667 20.0003 36.667C19.8093 36.667 19.6207 36.6642 19.4338 36.6583L20.0003 36.667C19.7612 36.667 19.5248 36.6625 19.2917 36.6533C19.1398 36.6477 18.9893 36.6398 18.8402 36.6302C18.7962 36.6268 18.7517 36.6238 18.7073 36.6205C15.5446 36.3925 13.0293 35.3235 11.1328 33.7248L7.01218 37.8455C6.36129 38.4963 5.30603 38.4963 4.65514 37.8455C4.05434 37.2447 4.00813 36.2993 4.51649 35.6455L4.65514 35.4885L8.91446 31.2262C7.55176 29.167 6.81961 26.7045 6.68849 24.1682L3.33366 24.167C2.41318 24.167 1.66699 23.4208 1.66699 22.5003C1.66699 21.6457 2.31039 20.9412 3.13929 20.8448L3.33366 20.8337H6.66699V12.3587L2.15515 7.84551C1.50427 7.19463 1.50427 6.13936 2.15515 5.48848C2.75595 4.88768 3.70134 4.84146 4.35516 5.34983L4.51218 5.48848L9.02533 10.0003L11.6712 10.0014C11.8087 5.50821 15.2835 1.8622 19.647 1.67458L20.0003 1.66699ZM18.3337 13.3337H10.0003V23.3337C10.0003 26.3218 11.0434 29.1878 13.2411 31.0797C13.3335 31.1272 13.4209 31.187 13.5037 31.2562C13.9263 31.61 14.3856 31.9217 14.8838 32.1892C14.8947 32.1955 14.9054 32.201 14.9161 32.2065L14.8838 32.1892C14.94 32.2193 14.9967 32.249 15.054 32.278L14.9161 32.2065C15.9001 32.7138 17.0377 33.0692 18.3342 33.2323L18.3337 13.3337ZM30.0003 13.3337H21.667L21.6692 33.2332C22.916 33.0775 24.0153 32.746 24.9723 32.2732C25.543 31.9837 26.064 31.637 26.538 31.2375C26.621 31.1675 26.7088 31.107 26.8002 31.056C28.9738 29.174 30.0003 26.3267 30.0003 23.3337V13.3337ZM20.0003 5.00033C17.4506 5.00033 15.3249 7.02493 15.0342 9.65986L15.007 10.0003H24.992L24.9665 9.65986C24.687 7.12628 22.7108 5.15698 20.2925 5.00923L20.0003 5.00033Z" fill="#333333"/>
</g>
</g>
</g>
<defs>
<clipPath id="clip0_632_7655">
<rect width="40" height="40" fill="white"/>
</clipPath>
</defs>
</svg>
