<svg width="40" height="40" viewBox="0 0 40 40" fill="none" xmlns="http://www.w3.org/2000/svg">
<g id="&#231;&#128;&#145;&#229;&#184;&#131;&#230;&#181;&#129;&#231;&#186;&#181;&#229;&#144;&#145;&#231;&#128;&#145;&#229;&#184;&#131;,&#230;&#142;&#146;&#231;&#137;&#136;,&#231;&#149;&#140;&#233;&#157;&#162;,&#233;&#161;&#186;&#229;&#186;&#143;&#231;&#128;&#145;&#229;&#184;&#131;,&#230;&#142;&#146;&#231;&#137;&#136;,&#231;&#149;&#140;&#233;&#157;&#162;,&#233;&#161;&#186;&#229;&#186;&#143;" clip-path="url(#clip0_632_7680)">
<g id="Group">
<g id="Group_2">
<path id="Vector" fill-rule="evenodd" clip-rule="evenodd" d="M19.1663 3.33301C20.0868 3.33301 20.833 4.0792 20.833 4.99967V16.6663C20.833 17.5868 20.0868 18.333 19.1663 18.333H4.99967C4.0792 18.333 3.33301 17.5868 3.33301 16.6663V4.99967C3.33301 4.0792 4.0792 3.33301 4.99967 3.33301H19.1663ZM24.1663 16.6663C24.1663 17.5868 24.9125 18.333 25.833 18.333H34.9997C35.9202 18.333 36.6663 17.5868 36.6663 16.6663V4.99967C36.6663 4.0792 35.9202 3.33301 34.9997 3.33301H25.833C24.9125 3.33301 24.1663 4.0792 24.1663 4.99967V16.6663ZM17.4997 6.66634H6.66634V14.9997H17.4997V6.66634ZM33.333 14.9997H27.4997V6.66634H33.333V14.9997ZM4.99967 36.6663C4.0792 36.6663 3.33301 35.9202 3.33301 34.9997V23.333C3.33301 22.4125 4.0792 21.6663 4.99967 21.6663H14.1663C15.0868 21.6663 15.833 22.4125 15.833 23.333V34.9997C15.833 35.9202 15.0868 36.6663 14.1663 36.6663H4.99967ZM34.9997 21.6663C35.9202 21.6663 36.6663 22.4125 36.6663 23.333V34.9997C36.6663 35.9202 35.9202 36.6663 34.9997 36.6663H20.833C19.9125 36.6663 19.1663 35.9202 19.1663 34.9997V23.333C19.1663 22.4125 19.9125 21.6663 20.833 21.6663H34.9997ZM6.66634 33.333H12.4997V24.9997H6.66634V33.333ZM33.333 24.9997H22.4997V33.333H33.333V24.9997Z" fill="#333333"/>
</g>
</g>
</g>
<defs>
<clipPath id="clip0_632_7680">
<rect width="40" height="40" fill="white"/>
</clipPath>
</defs>
</svg>
