<svg width="40" height="40" viewBox="0 0 40 40" fill="none" xmlns="http://www.w3.org/2000/svg">
<g id="&#229;&#174;&#137;&#229;&#133;&#168;,&#228;&#191;&#157;&#230;&#138;&#164;,&#233;&#152;&#178;&#230;&#138;&#164;&#229;&#174;&#137;&#229;&#133;&#168;,&#228;&#191;&#157;&#230;&#138;&#164;,&#233;&#152;&#178;&#230;&#138;&#164;" clip-path="url(#clip0_632_7672)">
<g id="Group">
<g id="Group_2">
<path id="Vector" fill-rule="evenodd" clip-rule="evenodd" d="M19.54 0.899749C19.845 0.81072 20.1692 0.810762 20.4742 0.89987L35.467 5.27957C36.1778 5.48721 36.6663 6.13889 36.6663 6.87937V15.8611C36.6663 26.019 30.1657 35.037 20.5287 38.248C20.1868 38.3618 19.8171 38.3618 19.4751 38.248C9.83562 35.037 3.33301 26.0172 3.33301 15.8569V6.87937C3.33301 6.13874 3.82177 5.48694 4.53275 5.27946L19.54 0.899749ZM6.66634 8.12917V15.8569C6.66634 24.3957 12.0145 31.9967 20.0018 34.902C27.9867 31.9967 33.333 24.3977 33.333 15.8611V8.12884L20.0067 4.23592L6.66634 8.12917ZM19.9578 10.7911C20.8783 10.7911 21.6245 11.5373 21.6245 12.4578V17.4578H26.6245C27.545 17.4578 28.2912 18.204 28.2912 19.1245C28.2912 20.045 27.545 20.7912 26.6245 20.7912H21.6245V25.7912C21.6245 26.7117 20.8783 27.4578 19.9578 27.4578C19.0373 27.4578 18.2911 26.7117 18.2911 25.7912V20.7912H13.2911C12.3707 20.7912 11.6245 20.045 11.6245 19.1245C11.6245 18.204 12.3707 17.4578 13.2911 17.4578H18.2911V12.4578C18.2911 11.5373 19.0373 10.7911 19.9578 10.7911Z" fill="#333333"/>
</g>
</g>
</g>
<defs>
<clipPath id="clip0_632_7672">
<rect width="40" height="40" fill="white"/>
</clipPath>
</defs>
</svg>
