<svg width="40" height="40" viewBox="0 0 40 40" fill="none" xmlns="http://www.w3.org/2000/svg">
<g id="U&#231;&#155;&#152;,&#231;&#161;&#172;&#231;&#155;&#152;,&#229;&#130;&#168;&#229;&#173;&#152;,&#231;&#161;&#172;&#228;&#187;&#182;,&#231;&#167;&#187;&#229;&#138;&#168;,&#228;&#191;&#157;&#229;&#173;&#152;,&#230;&#150;&#135;&#228;&#187;&#182;,&#229;&#174;&#137;&#229;&#133;&#168;U&#231;&#155;&#152;,&#231;&#161;&#172;&#231;&#155;&#152;,&#229;&#130;&#168;&#229;&#173;&#152;,&#231;&#161;&#172;&#228;&#187;&#182;,&#231;&#167;&#187;&#229;&#138;&#168;,&#228;&#191;&#157;&#229;&#173;&#152;,&#230;&#150;&#135;&#228;&#187;&#182;,&#229;&#174;&#137;&#229;&#133;&#168;" clip-path="url(#clip0_632_7664)">
<g id="Group">
<g id="Group_2">
<path id="Vector" fill-rule="evenodd" clip-rule="evenodd" d="M7.49967 3.33301C5.19849 3.33301 3.33301 5.19849 3.33301 7.49967V32.4997C3.33301 34.8008 5.19851 36.6663 7.49967 36.6663H32.4997C34.8008 36.6663 36.6663 34.8008 36.6663 32.4997V7.49967C36.6663 5.19851 34.8008 3.33301 32.4997 3.33301H7.49967ZM11.6663 6.66634H7.49967C7.03944 6.66634 6.66634 7.03944 6.66634 7.49967V32.4997C6.66634 32.96 7.03942 33.333 7.49967 33.333H32.4997C32.96 33.333 33.333 32.96 33.333 32.4997V7.49967C33.333 7.03942 32.96 6.66634 32.4997 6.66634H28.333V13.333C28.333 14.2535 27.5868 14.9997 26.6663 14.9997H13.333C12.4125 14.9997 11.6663 14.2535 11.6663 13.333V6.66634ZM24.9997 6.66634H14.9997V11.6663H24.9997V6.66634ZM12.4997 29.9997C12.4997 29.0792 13.2459 28.333 14.1663 28.333H25.833C26.7535 28.333 27.4997 29.0792 27.4997 29.9997C27.4997 30.9202 26.7535 31.6663 25.833 31.6663H14.1663C13.2459 31.6663 12.4997 30.9202 12.4997 29.9997Z" fill="#333333"/>
</g>
</g>
</g>
<defs>
<clipPath id="clip0_632_7664">
<rect width="40" height="40" fill="white"/>
</clipPath>
</defs>
</svg>
